0
SECTION
2
HEADER
9
$INSUNITS
70
4
9
$ACADVER
1
AC1014
9
$HANDSEED
5
FFFF
0
ENDSEC
0
SECTION
2
TABLES
0
TABLE
2
VPORT
5
8
100
AcDbSymbolTable
0
ENDTAB
0
TABLE
2
LTYPE
5
5
100
AcDbSymbolTable
0
LTYPE
5
14
100
AcDbSymbolTableRecord
100
AcDbLinetypeTableRecord
2
BYBLOCK
70
0
0
LTYPE
5
15
100
AcDbSymbolTableRecord
100
AcDbLinetypeTableRecord
2
BYLAYER
70
0
0
LTYPE
5
16
100
AcDbSymbolTableRecord
100
AcDbLinetypeTableRecord
2
DASHED
70
0
3
Dashed __ __ __ __ __ __ __ __ __ __ __ __ __ _
72
65
73
2
40
0.75
49
0.5
74
0
49
-0.25
74
0
0
ENDTAB
0
TABLE
2
LAYER
5
2
100
AcDbSymbolTable
70
2
0
LAYER
5
50
100
AcDbSymbolTableRecord
100
AcDbLayerTableRecord
2
0
70
0
62
7
6
CONTINUOUS
0
ENDTAB
0
TABLE
2
STYLE
5
3
100
AcDbSymbolTable
70
1
0
STYLE
5
11
100
AcDbSymbolTableRecord
100
AcDbTextStyleTableRecord
2
STANDARD
70
0
0
ENDTAB
0
TABLE
2
VIEW
5
6
100
AcDbSymbolTable
70
0
0
ENDTAB
0
TABLE
2
UCS
5
7
100
AcDbSymbolTable
70
0
0
ENDTAB
0
TABLE
2
APPID
5
9
100
AcDbSymbolTable
70
2
0
APPID
5
12
100
AcDbSymbolTableRecord
100
AcDbRegAppTableRecord
2
ACAD
70
0
0
ENDTAB
0
TABLE
2
DIMSTYLE
5
A
100
AcDbSymbolTable
70
1
0
ENDTAB
0
TABLE
2
BLOCK_RECORD
5
1
100
AcDbSymbolTable
70
1
0
BLOCK_RECORD
5
1F
100
AcDbSymbolTableRecord
100
AcDbBlockTableRecord
2
*MODEL_SPACE
0
BLOCK_RECORD
5
1B
100
AcDbSymbolTableRecord
100
AcDbBlockTableRecord
2
*PAPER_SPACE
0
ENDTAB
0
ENDSEC
0
SECTION
2
BLOCKS
0
BLOCK
5
20
100
AcDbEntity
100
AcDbBlockBegin
2
*MODEL_SPACE
0
ENDBLK
5
21
100
AcDbEntity
100
AcDbBlockEnd
0
BLOCK
5
1C
100
AcDbEntity
100
AcDbBlockBegin
2
*PAPER_SPACE
0
ENDBLK
5
1D
100
AcDbEntity
100
AcDbBlockEnd
0
ENDSEC
0
SECTION
2
ENTITIES
0
LWPOLYLINE
5
100
100
AcDbEntity
8
0
100
AcDbPolyline
90
18
70
1
43
0.0
10
-23.820508075688778
20
136.90000000000003
10
-23.820508075688778
20
152.40000000000003
10
-40.5
20
152.40000000000003
10
-40.5
20
-23.600000000000001
42
0.41421356237309503
10
-37.5
20
-26.600000000000001
10
19.799528992047613
20
-26.600000000000005
42
0.32590671192996429
10
25.036374067723916
20
-22.780908579716566
10
32.485679957746861
20
0.42729044913915937
42
0.054023208360232479
10
35.217678883517493
20
13.723754515508642
42
-3.3758089677797689
10
35.479470575480157
20
18.073140774087793
42
0.006382499811866324
10
35.499999999999986
20
19.681334180437563
10
35.5
20
152.40000000000003
10
18.820508075688764
20
152.40000000000003
10
18.820508075688764
20
136.90000000000003
10
16.039706791617402
20
136.90000000000003
10
16.039706791617402
20
131.40000000000003
10
-21.039706791617398
20
131.40000000000003
10
-21.039706791617398
20
136.90000000000003
0
CIRCLE
5
101
100
AcDbEntity
8
0
100
AcDbCircle
10
7.0000001043081284
20
0
30
0
40
1.7500000000000004
210
0
220
0
230
1
0
CIRCLE
5
102
100
AcDbEntity
8
0
100
AcDbCircle
10
-7.0000001043081284
20
0
30
0
40
1.7500000000000004
210
0
220
0
230
1
0
CIRCLE
5
103
100
AcDbEntity
8
0
100
AcDbCircle
10
-32
20
16.100000000000001
30
0
40
3.9999999999999991
210
0
220
-0
230
1
0
LINE
5
104
100
AcDbEntity
8
0
100
AcDbLine
10
-40.401421365689281
20
-23.055349459379787
30
0
11
25.728780236337101
21
-23.055349459379787
31
0
6
DASHED
0
LINE
5
105
100
AcDbEntity
8
0
100
AcDbLine
10
25.728780236337101
20
-23.055349459379787
30
0
11
25.728780236337101
21
-7.739993747322373
31
0
6
DASHED
0
LINE
5
106
100
AcDbEntity
8
0
100
AcDbLine
10
25.728780236337101
20
-7.739993747322373
30
0
11
-40.401421365689281
21
-7.739993747322373
31
0
6
DASHED
0
LINE
5
107
100
AcDbEntity
8
0
100
AcDbLine
10
-40.401421365689281
20
-7.739993747322373
30
0
11
-40.401421365689281
21
-23.055349459379787
31
0
6
DASHED
0
LINE
5
108
100
AcDbEntity
8
0
100
AcDbLine
10
-25.204606828640941
20
-12.718997713177018
30
0
11
-25.204606828640941
21
-8.814212497322373
31
0
0
LINE
5
109
100
AcDbEntity
8
0
100
AcDbLine
10
-25.204606828640941
20
-8.814212497322373
30
0
11
-24.409685907315257
21
-8.814212497322373
31
0
0
LINE
5
110
100
AcDbEntity
8
0
100
AcDbLine
10
-24.409685907315257
20
-8.814212497322373
30
0
11
-24.409685907315257
21
-12.055667456238083
31
0
0
LINE
5
111
100
AcDbEntity
8
0
100
AcDbLine
10
-24.409685907315257
20
-12.055667456238083
30
0
11
-22.433123168896678
21
-12.055667456238083
31
0
0
LINE
5
112
100
AcDbEntity
8
0
100
AcDbLine
10
-22.433123168896678
20
-12.055667456238083
30
0
11
-22.433123168896678
21
-12.718997713177018
31
0
0
LINE
5
113
100
AcDbEntity
8
0
100
AcDbLine
10
-22.433123168896678
20
-12.718997713177018
30
0
11
-25.204606828640941
21
-12.718997713177018
31
0
0
LINE
5
114
100
AcDbEntity
8
0
100
AcDbLine
10
-20.220232782315261
20
-11.811282750217728
30
0
11
-19.468279657315261
21
-11.937503632156663
31
0
0
SPLINE
5
115
100
AcDbEntity
8
0
100
AcDbSpline
70
0
71
2
72
6
73
3
74
0
42
0.000000001
43
0.0000000001
44
0.0000000001
40
0
40
0
40
0
40
1
40
1
40
1
10
-19.468279657315261
20
-11.937503632156663
30
0
10
-19.613300142239577
20
-12.351077612488083
30
0
10
-19.926164922665603
20
-12.567264255134873
30
0
0
SPLINE
5
116
100
AcDbEntity
8
0
100
AcDbSpline
70
0
71
2
72
6
73
3
74
0
42
0.000000001
43
0.0000000001
44
0.0000000001
40
0
40
0
40
0
40
1
40
1
40
1
10
-19.926164922665603
20
-12.567264255134873
30
0
10
-20.239029703091628
20
-12.783450897781663
30
0
10
-20.70900159830952
20
-12.783450897781663
30
0
0
SPLINE
5
117
100
AcDbEntity
8
0
100
AcDbSpline
70
0
71
2
72
6
73
3
74
0
42
0.000000001
43
0.0000000001
44
0.0000000001
40
0
40
0
40
0
40
1
40
1
40
1
10
-20.70900159830952
20
-12.783450897781663
30
0
10
-21.452898559521678
20
-12.783450897781663
30
0
10
-21.81007581705952
20
-12.297366674988083
30
0
0
SPLINE
5
118
100
AcDbEntity
8
0
100
AcDbSpline
70
0
71
2
72
6
73
3
74
0
42
0.000000001
43
0.0000000001
44
0.0000000001
40
0
40
0
40
0
40
1
40
1
40
1
10
-21.81007581705952
20
-12.297366674988083
30
0
10
-22.09205823893452
20
-11.907962378113083
30
0
10
-22.09205823893452
20
-11.314456876365952
30
0
0
SPLINE
5
119
100
AcDbEntity
8
0
100
AcDbSpline
70
0
71
2
72
6
73
3
74
0
42
0.000000001
43
0.0000000001
44
0.0000000001
40
0
40
0
40
0
40
1
40
1
40
1
10
-22.09205823893452
20
-11.314456876365952
30
0
10
-22.09205823893452
20
-10.605472143738083
30
0
10
-21.721453247021678
20
-10.203983005134873
30
0
0
SPLINE
5
120
100
AcDbEntity
8
0
100
AcDbSpline
70
0
71
2
72
6
73
3
74
0
42
0.000000001
43
0.0000000001
44
0.0000000001
40
0
40
0
40
0
40
1
40
1
40
1
10
-21.721453247021678
20
-10.203983005134873
30
0
10
-21.350847063015941
20
-9.8024938665316625
30
0
10
-20.784197626065257
20
-9.8024938665316625
30
0
0
SPLINE
5
121
100
AcDbEntity
8
0
100
AcDbSpline
70
0
71
2
72
6
73
3
74
0
42
0.000000001
43
0.0000000001
44
0.0000000001
40
0
40
0
40
0
40
1
40
1
40
1
10
-20.784197626065257
20
-9.8024938665316625
30
0
10
-20.147722539853103
20
-9.8024938665316625
30
0
10
-19.779802141140944
20
-10.222782012073807
30
0
0
SPLINE
5
122
100
AcDbEntity
8
0
100
AcDbSpline
70
0
71
2
72
6
73
3
74
0
42
0.000000001
43
0.0000000001
44
0.0000000001
40
0
40
0
40
0
40
1
40
1
40
1
10
-19.779802141140944
20
-10.222782012073807
30
0
10
-19.411884126614577
20
-10.643070157615952
30
0
10
-19.427996454190261
20
-11.510501619427018
30
0
0
LINE
5
123
100
AcDbEntity
8
0
100
AcDbLine
10
-19.427996454190261
20
-11.510501619427018
30
0
11
-21.318621215771682
21
-11.510501619427018
31
0
0
SPLINE
5
124
100
AcDbEntity
8
0
100
AcDbSpline
70
0
71
2
72
6
73
3
74
0
42
0.000000001
43
0.0000000001
44
0.0000000001
40
0
40
0
40
0
40
1
40
1
40
1
10
-21.318621215771678
20
-11.510501619427018
30
0
10
-21.310563859890941
20
-11.846194978802018
30
0
10
-21.136003313015941
20
-12.032840367405228
30
0
0
SPLINE
5
125
100
AcDbEntity
8
0
100
AcDbSpline
70
0
71
2
72
6
73
3
74
0
42
0.000000001
43
0.0000000001
44
0.0000000001
40
0
40
0
40
0
40
1
40
1
40
1
10
-21.136003313015941
20
-12.032840367405228
30
0
10
-20.961442766140941
20
-12.219486054031663
30
0
10
-20.700945434521678
20
-12.219486054031663
30
0
0
SPLINE
5
126
100
AcDbEntity
8
0
100
AcDbSpline
70
0
71
2
72
6
73
3
74
0
42
0.000000001
43
0.0000000001
44
0.0000000001
40
0
40
0
40
0
40
1
40
1
40
1
10
-20.700945434521678
20
-12.219486054031663
30
0
10
-20.523699102353099
20
-12.219486054031663
30
0
10
-20.402849492978099
20
-12.122806128113083
30
0
0
SPLINE
5
127
100
AcDbEntity
8
0
100
AcDbSpline
70
0
71
2
72
6
73
3
74
0
42
0.000000001
43
0.0000000001
44
0.0000000001
40
0
40
0
40
0
40
1
40
1
40
1
10
-20.402849492978099
20
-12.122806128113083
30
0
10
-20.281999883603103
20
-12.026126500217728
30
0
10
-20.220232782315261
20
-11.811282750217728
30
0
0
SPLINE
5
128
100
AcDbEntity
8
0
100
AcDbSpline
70
0
71
2
72
6
73
3
74
0
42
0.000000001
43
0.0000000001
44
0.0000000001
40
0
40
0
40
0
40
1
40
1
40
1
10
-20.177264985989577
20
-11.048587378113083
30
0
10
-20.185318765591628
20
-10.720950778572373
30
0
10
-20.346451578091628
20
-10.550418611614518
30
0
0
SPLINE
5
129
100
AcDbEntity
8
0
100
AcDbSpline
70
0
71
2
72
6
73
3
74
0
42
0.000000001
43
0.0000000001
44
0.0000000001
40
0
40
0
40
0
40
1
40
1
40
1
10
-20.346451578091628
20
-10.550418611614518
30
0
10
-20.50758558268452
20
-10.379886444656663
30
0
10
-20.738542852353099
20
-10.379886444656663
30
0
0
SPLINE
5
130
100
AcDbEntity
8
0
100
AcDbSpline
70
0
71
2
72
6
73
3
74
0
42
0.000000001
43
0.0000000001
44
0.0000000001
40
0
40
0
40
0
40
1
40
1
40
1
10
-20.738542852353099
20
-10.379886444656663
30
0
10
-20.985613641690257
20
-10.379886444656663
30
0
10
-21.146746454190257
20
-10.559817966072373
30
0
0
SPLINE
5
131
100
AcDbEntity
8
0
100
AcDbSpline
70
0
71
2
72
6
73
3
74
0
42
0.000000001
43
0.0000000001
44
0.0000000001
40
0
40
0
40
0
40
1
40
1
40
1
10
-21.146746454190257
20
-10.559817966072373
30
0
10
-21.307879266690257
20
-10.739749487488083
30
0
10
-21.305193481396678
20
-11.048587378113083
30
0
0
LINE
5
132
100
AcDbEntity
8
0
100
AcDbLine
10
-21.305193481396678
20
-11.048587378113083
30
0
11
-20.177264985989574
21
-11.048587378113083
31
0
0
SPLINE
5
133
100
AcDbEntity
8
0
100
AcDbSpline
70
0
71
2
72
6
73
3
74
0
42
0.000000001
43
0.0000000001
44
0.0000000001
40
0
40
0
40
0
40
1
40
1
40
1
10
-18.987565813015944
20
-11.252689179031663
30
0
10
-18.987565813015944
20
-10.876712616531663
30
0
10
-18.802264509152419
20
-10.524905737488083
30
0
0
SPLINE
5
134
100
AcDbEntity
8
0
100
AcDbSpline
70
0
71
2
72
6
73
3
74
0
42
0.000000001
43
0.0000000001
44
0.0000000001
40
0
40
0
40
0
40
1
40
1
40
1
10
-18.802264509152419
20
-10.524905737488083
30
0
10
-18.616960821103103
20
-10.173099156467728
30
0
10
-18.277240571927077
20
-9.9877966605113073
30
0
0
SPLINE
5
135
100
AcDbEntity
8
0
100
AcDbSpline
70
0
71
2
72
6
73
3
74
0
42
0.000000001
43
0.0000000001
44
0.0000000001
40
0
40
0
40
0
40
1
40
1
40
1
10
-18.277240571927077
20
-9.9877966605113073
30
0
10
-17.937517938565261
20
-9.8024938665316625
30
0
10
-17.518573579739577
20
-9.8024938665316625
30
0
0
SPLINE
5
136
100
AcDbEntity
8
0
100
AcDbSpline
70
0
71
2
72
6
73
3
74
0
42
0.000000001
43
0.0000000001
44
0.0000000001
40
0
40
0
40
0
40
1
40
1
40
1
10
-17.518573579739577
20
-9.8024938665316625
30
0
10
-16.871355352353103
20
-9.8024938665316625
30
0
10
-16.457782564114577
20
-10.222782012073807
30
0
0
SPLINE
5
137
100
AcDbEntity
8
0
100
AcDbSpline
70
0
71
2
72
6
73
3
74
0
42
0.000000001
43
0.0000000001
44
0.0000000001
40
0
40
0
40
0
40
1
40
1
40
1
10
-16.457782564114577
20
-10.222782012073807
30
0
10
-16.044207391690261
20
-10.643070157615952
30
0
10
-16.044207391690261
20
-11.284915622322373
30
0
0
SPLINE
5
138
100
AcDbEntity
8
0
100
AcDbSpline
70
0
71
2
72
6
73
3
74
0
42
0.000000001
43
0.0000000001
44
0.0000000001
40
0
40
0
40
0
40
1
40
1
40
1
10
-16.044207391690261
20
-11.284915622322373
30
0
10
-16.044207391690261
20
-11.932132359592728
30
0
10
-16.461809453915603
20
-12.357791479675583
30
0
0
SPLINE
5
139
100
AcDbEntity
8
0
100
AcDbSpline
70
0
71
2
72
6
73
3
74
0
42
0.000000001
43
0.0000000001
44
0.0000000001
40
0
40
0
40
0
40
1
40
1
40
1
10
-16.461809453915603
20
-12.357791479675583
30
0
10
-16.879411516140944
20
-12.783450897781663
30
0
10
-17.513199624966628
20
-12.783450897781663
30
0
0
SPLINE
5
140
100
AcDbEntity
8
0
100
AcDbSpline
70
0
71
2
72
6
73
3
74
0
42
0.000000001
43
0.0000000001
44
0.0000000001
40
0
40
0
40
0
40
1
40
1
40
1
10
-17.513199624966628
20
-12.783450897781663
30
0
10
-17.905290899228103
20
-12.783450897781663
30
0
10
-18.261125860165603
20
-12.606204863636307
30
0
0
SPLINE
5
141
100
AcDbEntity
8
0
100
AcDbSpline
70
0
71
2
72
6
73
3
74
0
42
0.000000001
43
0.0000000001
44
0.0000000001
40
0
40
0
40
0
40
1
40
1
40
1
10
-18.261125860165603
20
-12.606204863636307
30
0
10
-18.616960821103103
20
-12.428958531467728
30
0
10
-18.802264509152419
20
-12.086551304905228
30
0
0
SPLINE
5
142
100
AcDbEntity
8
0
100
AcDbSpline
70
0
71
2
72
6
73
3
74
0
42
0.000000001
43
0.0000000001
44
0.0000000001
40
0
40
0
40
0
40
1
40
1
40
1
10
-18.802264509152419
20
-12.086551304905228
30
0
10
-18.987565813015944
20
-11.744144078342728
30
0
10
-18.987565813015944
20
-11.252689179031663
30
0
0
SPLINE
5
143
100
AcDbEntity
8
0
100
AcDbSpline
70
0
71
2
72
6
73
3
74
0
42
0.000000001
43
0.0000000001
44
0.0000000001
40
0
40
0
40
0
40
1
40
1
40
1
10
-18.214128789853103
20
-11.292972382156663
30
0
10
-18.214128789853103
20
-11.717288609592728
30
0
10
-18.012712774228103
20
-11.942874606697373
30
0
0
SPLINE
5
144
100
AcDbEntity
8
0
100
AcDbSpline
70
0
71
2
72
6
73
3
74
0
42
0.000000001
43
0.0000000001
44
0.0000000001
40
0
40
0
40
0
40
1
40
1
40
1
10
-18.012712774228103
20
-11.942874606697373
30
0
10
-17.811296758603103
20
-12.168460603802018
30
0
10
-17.515886602353103
20
-12.168460603802018
30
0
0
SPLINE
5
145
100
AcDbEntity
8
0
100
AcDbSpline
70
0
71
2
72
6
73
3
74
0
42
0.000000001
43
0.0000000001
44
0.0000000001
40
0
40
0
40
0
40
1
40
1
40
1
10
-17.515886602353103
20
-12.168460603802018
30
0
10
-17.220476446103103
20
-12.168460603802018
30
0
10
-17.020402727078444
20
-11.942874606697373
30
0
0
SPLINE
5
146
100
AcDbEntity
8
0
100
AcDbSpline
70
0
71
2
72
6
73
3
74
0
42
0.000000001
43
0.0000000001
44
0.0000000001
40
0
40
0
40
0
40
1
40
1
40
1
10
-17.020402727078444
20
-11.942874606697373
30
0
10
-16.820331392239577
20
-11.717288609592728
30
0
10
-16.820331392239577
20
-11.287601407615952
30
0
0
SPLINE
5
147
100
AcDbEntity
8
0
100
AcDbSpline
70
0
71
2
72
6
73
3
74
0
42
0.000000001
43
0.0000000001
44
0.0000000001
40
0
40
0
40
0
40
1
40
1
40
1
10
-16.820331392239577
20
-11.287601407615952
30
0
10
-16.820331392239577
20
-10.868655856697373
30
0
10
-17.020402727078444
20
-10.643070157615952
30
0
0
SPLINE
5
148
100
AcDbEntity
8
0
100
AcDbSpline
70
0
71
2
72
6
73
3
74
0
42
0.000000001
43
0.0000000001
44
0.0000000001
40
0
40
0
40
0
40
1
40
1
40
1
10
-17.020402727078444
20
-10.643070157615952
30
0
10
-17.220476446103103
20
-10.417483862488083
30
0
10
-17.515886602353103
20
-10.417483862488083
30
0
0
SPLINE
5
149
100
AcDbEntity
8
0
100
AcDbSpline
70
0
71
2
72
6
73
3
74
0
42
0.000000001
43
0.0000000001
44
0.0000000001
40
0
40
0
40
0
40
1
40
1
40
1
10
-17.515886602353103
20
-10.417483862488083
30
0
10
-17.811296758603103
20
-10.417483862488083
30
0
10
-18.012712774228103
20
-10.643070157615952
30
0
0
SPLINE
5
150
100
AcDbEntity
8
0
100
AcDbSpline
70
0
71
2
72
6
73
3
74
0
42
0.000000001
43
0.0000000001
44
0.0000000001
40
0
40
0
40
0
40
1
40
1
40
1
10
-18.012712774228103
20
-10.643070157615952
30
0
10
-18.214128789853103
20
-10.868655856697373
30
0
10
-18.214128789853103
20
-11.292972382156663
30
0
0
LINE
5
151
100
AcDbEntity
8
0
100
AcDbLine
10
-12.859147367428786
20
-12.718997713177018
30
0
11
-13.613787469815261
21
-12.718997713177018
31
0
0
LINE
5
152
100
AcDbEntity
8
0
100
AcDbLine
10
-13.613787469815261
20
-12.718997713177018
30
0
11
-13.613787469815261
21
-11.263431128113083
31
0
0
SPLINE
5
153
100
AcDbEntity
8
0
100
AcDbSpline
70
0
71
2
72
6
73
3
74
0
42
0.000000001
43
0.0000000001
44
0.0000000001
40
0
40
0
40
0
40
1
40
1
40
1
10
-13.613787469815261
20
-11.263431128113083
30
0
10
-13.613787469815261
20
-10.801517184822373
30
0
10
-13.662126836728103
20
-10.665896948425583
30
0
0
SPLINE
5
154
100
AcDbEntity
8
0
100
AcDbSpline
70
0
71
2
72
6
73
3
74
0
42
0.000000001
43
0.0000000001
44
0.0000000001
40
0
40
0
40
0
40
1
40
1
40
1
10
-13.662126836728103
20
-10.665896948425583
30
0
10
-13.710466203640944
20
-10.530277010052018
30
0
10
-13.819232759427077
20
-10.455081578342728
30
0
0
SPLINE
5
155
100
AcDbEntity
8
0
100
AcDbSpline
70
0
71
2
72
6
73
3
74
0
42
0.000000001
43
0.0000000001
44
0.0000000001
40
0
40
0
40
0
40
1
40
1
40
1
10
-13.819232759427077
20
-10.455081578342728
30
0
10
-13.927994546841628
20
-10.379886444656663
30
0
10
-14.081073579739577
20
-10.379886444656663
30
0
0
SPLINE
5
156
100
AcDbEntity
8
0
100
AcDbSpline
70
0
71
2
72
6
73
3
74
0
42
0.000000001
43
0.0000000001
44
0.0000000001
40
0
40
0
40
0
40
1
40
1
40
1
10
-14.081073579739577
20
-10.379886444656663
30
0
10
-14.277115640591628
20
-10.379886444656663
30
0
10
-14.432879266690261
20
-10.487308319656663
30
0
0
SPLINE
5
157
100
AcDbEntity
8
0
100
AcDbSpline
70
0
71
2
72
6
73
3
74
0
42
0.000000001
43
0.0000000001
44
0.0000000001
40
0
40
0
40
0
40
1
40
1
40
1
10
-14.432879266690261
20
-10.487308319656663
30
0
10
-14.588640508603103
20
-10.594730194656663
30
0
10
-14.646378335904128
20
-10.771976228802018
30
0
0
SPLINE
5
158
100
AcDbEntity
8
0
100
AcDbSpline
70
0
71
2
72
6
73
3
74
0
42
0.000000001
43
0.0000000001
44
0.0000000001
40
0
40
0
40
0
40
1
40
1
40
1
10
-14.646378335904128
20
-10.771976228802018
30
0
10
-14.704118547390944
20
-10.949222262947373
30
0
10
-14.704118547390944
20
-11.427249725906663
30
0
0
LINE
5
159
100
AcDbEntity
8
0
100
AcDbLine
10
-14.704118547390944
20
-11.427249725906663
30
0
11
-14.704118547390944
21
-12.718997713177018
31
0
0
LINE
5
160
100
AcDbEntity
8
0
100
AcDbLine
10
-14.704118547390944
20
-12.718997713177018
30
0
11
-15.458756265591628
21
-12.718997713177018
31
0
0
LINE
5
161
100
AcDbEntity
8
0
100
AcDbLine
10
-15.458756265591628
20
-12.718997713177018
30
0
11
-15.458756265591628
21
-9.8669467531130834
31
0
0
LINE
5
162
100
AcDbEntity
8
0
100
AcDbLine
10
-15.458756265591628
20
-9.8669467531130834
30
0
11
-14.757829484890944
21
-9.8669467531130834
31
0
0
LINE
5
163
100
AcDbEntity
8
0
100
AcDbLine
10
-14.757829484890944
20
-9.8669467531130834
30
0
11
-14.757829484890944
21
-10.285892304031663
31
0
0
SPLINE
5
164
100
AcDbEntity
8
0
100
AcDbSpline
70
0
71
2
72
6
73
3
74
0
42
0.000000001
43
0.0000000001
44
0.0000000001
40
0
40
0
40
0
40
1
40
1
40
1
10
-14.757829484890944
20
-10.285892304031663
30
0
10
-14.384537515591628
20
-9.8024938665316625
30
0
10
-13.817888078640944
20
-9.8024938665316625
30
0
0
SPLINE
5
165
100
AcDbEntity
8
0
100
AcDbSpline
70
0
71
2
72
6
73
3
74
0
42
0.000000001
43
0.0000000001
44
0.0000000001
40
0
40
0
40
0
40
1
40
1
40
1
10
-13.817888078640944
20
-9.8024938665316625
30
0
10
-13.568132696103103
20
-9.8024938665316625
30
0
10
-13.361345109890944
20
-9.8924596272395178
30
0
0
SPLINE
5
166
100
AcDbEntity
8
0
100
AcDbSpline
70
0
71
2
72
6
73
3
74
0
42
0.000000001
43
0.0000000001
44
0.0000000001
40
0
40
0
40
0
40
1
40
1
40
1
10
-13.361345109890944
20
-9.8924596272395178
30
0
10
-13.154557523678786
20
-9.982425387947373
30
0
10
-13.048477945279128
20
-10.122073706238083
30
0
0
SPLINE
5
167
100
AcDbEntity
8
0
100
AcDbSpline
70
0
71
2
72
6
73
3
74
0
42
0.000000001
43
0.0000000001
44
0.0000000001
40
0
40
0
40
0
40
1
40
1
40
1
10
-13.048477945279128
20
-10.122073706238083
30
0
10
-12.942400751065261
20
-10.261722322552018
30
0
10
-12.900772867154128
20
-10.438968356697373
30
0
0
SPLINE
5
168
100
AcDbEntity
8
0
100
AcDbSpline
70
0
71
2
72
6
73
3
74
0
42
0.000000001
43
0.0000000001
44
0.0000000001
40
0
40
0
40
0
40
1
40
1
40
1
10
-12.900772867154128
20
-10.438968356697373
30
0
10
-12.859147367428786
20
-10.616214390842728
30
0
10
-12.859147367428786
20
-10.946536775677018
30
0
0
LINE
5
169
100
AcDbEntity
8
0
100
AcDbLine
10
-12.859147367428786
20
-10.946536775677018
30
0
11
-12.859147367428786
21
-12.718997713177018
31
0
0
LINE
5
170
100
AcDbEntity
8
0
100
AcDbLine
10
-11.529804048489577
20
-10.737064298240952
30
0
11
-12.214618501614577
21
-10.613528903572373
31
0
0
SPLINE
5
171
100
AcDbEntity
8
0
100
AcDbSpline
70
0
71
2
72
6
73
3
74
0
42
0.000000001
43
0.0000000001
44
0.0000000001
40
0
40
0
40
0
40
1
40
1
40
1
10
-12.214618501614577
20
-10.613528903572373
30
0
10
-12.099138078640944
20
-10.199954625217728
30
0
10
-11.817155656765944
20
-10.001224394886307
30
0
0
SPLINE
5
172
100
AcDbEntity
8
0
100
AcDbSpline
70
0
71
2
72
6
73
3
74
0
42
0.000000001
43
0.0000000001
44
0.0000000001
40
0
40
0
40
0
40
1
40
1
40
1
10
-11.817155656765944
20
-10.001224394886307
30
0
10
-11.535173234890944
20
-9.8024938665316625
30
0
10
-10.979266939114577
20
-9.8024938665316625
30
0
0
SPLINE
5
173
100
AcDbEntity
8
0
100
AcDbSpline
70
0
71
2
72
6
73
3
74
0
42
0.000000001
43
0.0000000001
44
0.0000000001
40
0
40
0
40
0
40
1
40
1
40
1
10
-10.979266939114577
20
-9.8024938665316625
30
0
10
-10.474382219265944
20
-9.8024938665316625
30
0
10
-10.227313814114577
20
-9.922000583259873
30
0
0
SPLINE
5
174
100
AcDbEntity
8
0
100
AcDbSpline
70
0
71
2
72
6
73
3
74
0
42
0.000000001
43
0.0000000001
44
0.0000000001
40
0
40
0
40
0
40
1
40
1
40
1
10
-10.227313814114577
20
-9.922000583259873
30
0
10
-9.980240640591628
20
-10.041507598011307
30
0
10
-9.879532632779128
20
-10.225467499344163
30
0
0
SPLINE
5
175
100
AcDbEntity
8
0
100
AcDbSpline
70
0
71
2
72
6
73
3
74
0
42
0.000000001
43
0.0000000001
44
0.0000000001
40
0
40
0
40
0
40
1
40
1
40
1
10
-9.879532632779128
20
-10.225467499344163
30
0
10
-9.778824624966628
20
-10.409427400677018
30
0
10
-9.778824624966628
20
-10.900882299988083
30
0
0
LINE
5
176
100
AcDbEntity
8
0
100
AcDbLine
10
-9.778824624966628
20
-10.900882299988083
30
0
11
-9.7868831729402608
21
-11.781741794197373
31
0
0
SPLINE
5
177
100
AcDbEntity
8
0
100
AcDbSpline
70
0
71
2
72
6
73
3
74
0
42
0.000000001
43
0.0000000001
44
0.0000000001
40
0
40
0
40
0
40
1
40
1
40
1
10
-9.7868831729402608
20
-11.781741794197373
30
0
10
-9.7868831729402608
20
-12.157718356697373
30
0
10
-9.7506292438020772
20
-12.336307283489518
30
0
0
SPLINE
5
178
100
AcDbEntity
8
0
100
AcDbSpline
70
0
71
2
72
6
73
3
74
0
42
0.000000001
43
0.0000000001
44
0.0000000001
40
0
40
0
40
0
40
1
40
1
40
1
10
-9.7506292438020772
20
-12.336307283489518
30
0
10
-9.7143729304781026
20
-12.514896210281663
30
0
10
-9.6150072192659444
20
-12.718997713177018
30
0
0
LINE
5
179
100
AcDbEntity
8
0
100
AcDbLine
10
-9.6150072192659444
20
-12.718997713177018
30
0
11
-10.361591157864577
21
-12.718997713177018
31
0
0
SPLINE
5
180
100
AcDbEntity
8
0
100
AcDbSpline
70
0
71
2
72
6
73
3
74
0
42
0.000000001
43
0.0000000001
44
0.0000000001
40
0
40
0
40
0
40
1
40
1
40
1
10
-10.361591157864577
20
-12.718997713177018
30
0
10
-10.391131219815261
20
-12.643802281467728
30
0
10
-10.434099016140944
20
-12.496097203342728
30
0
0
SPLINE
5
181
100
AcDbEntity
8
0
100
AcDbSpline
70
0
71
2
72
6
73
3
74
0
42
0.000000001
43
0.0000000001
44
0.0000000001
40
0
40
0
40
0
40
1
40
1
40
1
10
-10.434099016140944
20
-12.496097203342728
30
0
10
-10.452898321103103
20
-12.428958531467728
30
0
10
-10.460954484890944
20
-12.407474335281663
30
0
0
SPLINE
5
182
100
AcDbEntity
8
0
100
AcDbSpline
70
0
71
2
72
6
73
3
74
0
42
0.000000001
43
0.0000000001
44
0.0000000001
40
0
40
0
40
0
40
1
40
1
40
1
10
-10.460954484890944
20
-12.407474335281663
30
0
10
-10.654314336728103
20
-12.595462616531663
30
0
10
-10.874529657315261
20
-12.689456757156663
30
0
0
SPLINE
5
183
100
AcDbEntity
8
0
100
AcDbSpline
70
0
71
2
72
6
73
3
74
0
42
0.000000001
43
0.0000000001
44
0.0000000001
40
0
40
0
40
0
40
1
40
1
40
1
10
-10.874529657315261
20
-12.689456757156663
30
0
10
-11.094742593716628
20
-12.783450897781663
30
0
10
-11.344500360440261
20
-12.783450897781663
30
0
0
SPLINE
5
184
100
AcDbEntity
8
0
100
AcDbSpline
70
0
71
2
72
6
73
3
74
0
42
0.000000001
43
0.0000000001
44
0.0000000001
40
0
40
0
40
0
40
1
40
1
40
1
10
-11.344500360440261
20
-12.783450897781663
30
0
10
-11.784931001614577
20
-12.783450897781663
30
0
10
-12.038713273953444
20
-12.544437166302018
30
0
0
SPLINE
5
185
100
AcDbEntity
8
0
100
AcDbSpline
70
0
71
2
72
6
73
3
74
0
42
0.000000001
43
0.0000000001
44
0.0000000001
40
0
40
0
40
0
40
1
40
1
40
1
10
-12.038713273953444
20
-12.544437166302018
30
0
10
-12.292497930478103
20
-12.305423434822373
30
0
10
-12.292497930478103
20
-11.940189119427018
30
0
0
SPLINE
5
186
100
AcDbEntity
8
0
100
AcDbSpline
70
0
71
2
72
6
73
3
74
0
42
0.000000001
43
0.0000000001
44
0.0000000001
40
0
40
0
40
0
40
1
40
1
40
1
10
-12.292497930478103
20
-11.940189119427018
30
0
10
-12.292497930478103
20
-11.698489900677018
30
0
10
-12.177019891690261
20
-11.509158726780228
30
0
0
SPLINE
5
187
100
AcDbEntity
8
0
100
AcDbSpline
70
0
71
2
72
6
73
3
74
0
42
0.000000001
43
0.0000000001
44
0.0000000001
40
0
40
0
40
0
40
1
40
1
40
1
10
-12.177019891690261
20
-11.509158726780228
30
0
10
-12.061539468716628
20
-11.319827850906663
30
0
10
-11.853409585904128
20
-11.219119843094163
30
0
0
SPLINE
5
188
100
AcDbEntity
8
0
100
AcDbSpline
70
0
71
2
72
6
73
3
74
0
42
0.000000001
43
0.0000000001
44
0.0000000001
40
0
40
0
40
0
40
1
40
1
40
1
10
-11.853409585904128
20
-11.219119843094163
30
0
10
-11.645279703091628
20
-11.118411835281663
30
0
10
-11.253190813015944
20
-11.043216403572373
30
0
0
SPLINE
5
189
100
AcDbEntity
8
0
100
AcDbSpline
70
0
71
2
72
6
73
3
74
0
42
0.000000001
43
0.0000000001
44
0.0000000001
40
0
40
0
40
0
40
1
40
1
40
1
10
-11.253190813015944
20
-11.043216403572373
30
0
10
-10.724139985989577
20
-10.943851288406663
30
0
10
-10.520036992978103
20
-10.857913907615952
30
0
0
LINE
5
190
100
AcDbEntity
8
0
100
AcDbLine
10
-10.520036992978103
20
-10.857913907615952
30
0
11
-10.520036992978103
21
-10.782718475906663
31
0
0
SPLINE
5
191
100
AcDbEntity
8
0
100
AcDbSpline
70
0
71
2
72
6
73
3
74
0
42
0.000000001
43
0.0000000001
44
0.0000000001
40
0
40
0
40
0
40
1
40
1
40
1
10
-10.520036992978103
20
-10.782718475906663
30
0
10
-10.520036992978103
20
-10.565188940613083
30
0
10
-10.627458867978103
20
-10.472537692634873
30
0
0
SPLINE
5
192
100
AcDbEntity
8
0
100
AcDbSpline
70
0
71
2
72
6
73
3
74
0
42
0.000000001
43
0.0000000001
44
0.0000000001
40
0
40
0
40
0
40
1
40
1
40
1
10
-10.627458867978103
20
-10.472537692634873
30
0
10
-10.734880742978103
20
-10.379886444656663
30
0
10
-11.032977876614577
20
-10.379886444656663
30
0
0
SPLINE
5
193
100
AcDbEntity
8
0
100
AcDbSpline
70
0
71
2
72
6
73
3
74
0
42
0.000000001
43
0.0000000001
44
0.0000000001
40
0
40
0
40
0
40
1
40
1
40
1
10
-11.032977876614577
20
-10.379886444656663
30
0
10
-11.234393892239577
20
-10.379886444656663
30
0
10
-11.347184953640944
20
-10.459109958259873
30
0
0
SPLINE
5
194
100
AcDbEntity
8
0
100
AcDbSpline
70
0
71
2
72
6
73
3
74
0
42
0.000000001
43
0.0000000001
44
0.0000000001
40
0
40
0
40
0
40
1
40
1
40
1
10
-11.347184953640944
20
-10.459109958259873
30
0
10
-11.459978399228103
20
-10.538333471863083
30
0
10
-11.529804048489577
20
-10.737064298240952
30
0
0
SPLINE
5
195
100
AcDbEntity
8
0
100
AcDbSpline
70
0
71
2
72
6
73
3
74
0
42
0.000000001
43
0.0000000001
44
0.0000000001
40
0
40
0
40
0
40
1
40
1
40
1
10
-10.520036992978103
20
-11.349368806927018
30
0
10
-10.665055093716628
20
-11.397708471863083
30
0
10
-10.979266939114577
20
-11.464847143738083
30
0
0
SPLINE
5
196
100
AcDbEntity
8
0
100
AcDbSpline
70
0
71
2
72
6
73
3
74
0
42
0.000000001
43
0.0000000001
44
0.0000000001
40
0
40
0
40
0
40
1
40
1
40
1
10
-10.979266939114577
20
-11.464847143738083
30
0
10
-11.293474016140944
20
-11.531985815613083
30
0
10
-11.390152749966628
20
-11.596439000217728
30
0
0
SPLINE
5
197
100
AcDbEntity
8
0
100
AcDbSpline
70
0
71
2
72
6
73
3
74
0
42
0.000000001
43
0.0000000001
44
0.0000000001
40
0
40
0
40
0
40
1
40
1
40
1
10
-11.390152749966628
20
-11.596439000217728
30
0
10
-11.537857828091628
20
-11.701175387947373
30
0
10
-11.537857828091628
20
-11.862308200447373
30
0
0
SPLINE
5
198
100
AcDbEntity
8
0
100
AcDbSpline
70
0
71
2
72
6
73
3
74
0
42
0.000000001
43
0.0000000001
44
0.0000000001
40
0
40
0
40
0
40
1
40
1
40
1
10
-11.537857828091628
20
-11.862308200447373
30
0
10
-11.537857828091628
20
-12.020755525677018
30
0
10
-11.419695196103103
20
-12.136233862488083
30
0
0
SPLINE
5
199
100
AcDbEntity
8
0
100
AcDbSpline
70
0
71
2
72
6
73
3
74
0
42
0.000000001
43
0.0000000001
44
0.0000000001
40
0
40
0
40
0
40
1
40
1
40
1
10
-11.419695196103103
20
-12.136233862488083
30
0
10
-11.301532564114577
20
-12.251712497322373
30
0
10
-11.118913469265944
20
-12.251712497322373
30
0
0
SPLINE
5
200
100
AcDbEntity
8
0
100
AcDbSpline
70
0
71
2
72
6
73
3
74
0
42
0.000000001
43
0.0000000001
44
0.0000000001
40
0
40
0
40
0
40
1
40
1
40
1
10
-11.118913469265944
20
-12.251712497322373
30
0
10
-10.914812860440261
20
-12.251712497322373
30
0
10
-10.729509172390944
20
-12.117435153572373
30
0
0
SPLINE
5
201
100
AcDbEntity
8
0
100
AcDbSpline
70
0
71
2
72
6
73
3
74
0
42
0.000000001
43
0.0000000001
44
0.0000000001
40
0
40
0
40
0
40
1
40
1
40
1
10
-10.729509172390944
20
-12.117435153572373
30
0
10
-10.592547235440261
20
-12.015384253113083
30
0
10
-10.549579439114577
20
-11.867679174988083
30
0
0
SPLINE
5
202
100
AcDbEntity
8
0
100
AcDbSpline
70
0
71
2
72
6
73
3
74
0
42
0.000000001
43
0.0000000001
44
0.0000000001
40
0
40
0
40
0
40
1
40
1
40
1
10
-10.549579439114577
20
-11.867679174988083
30
0
10
-10.520036992978103
20
-11.770999547092728
30
0
10
-10.520036992978103
20
-11.499759372322373
30
0
0
LINE
5
203
100
AcDbEntity
8
0
100
AcDbLine
10
-10.520036992978103
20
-11.499759372322373
30
0
11
-10.520036992978103
21
-11.349368806927018
31
0
0
LINE
5
204
100
AcDbEntity
8
0
100
AcDbLine
10
-8.3125169848909444
20
-12.718997713177018
30
0
11
-9.067154703091628
21
-12.718997713177018
31
0
0
LINE
5
205
100
AcDbEntity
8
0
100
AcDbLine
10
-9.067154703091628
20
-12.718997713177018
30
0
11
-9.067154703091628
21
-9.8669467531130834
31
0
0
LINE
5
206
100
AcDbEntity
8
0
100
AcDbLine
10
-9.067154703091628
20
-9.8669467531130834
30
0
11
-8.3662279223909444
21
-9.8669467531130834
31
0
0
LINE
5
207
100
AcDbEntity
8
0
100
AcDbLine
10
-8.3662279223909444
20
-9.8669467531130834
30
0
11
-8.3662279223909444
21
-10.272464569656663
31
0
0
SPLINE
5
208
100
AcDbEntity
8
0
100
AcDbSpline
70
0
71
2
72
6
73
3
74
0
42
0.000000001
43
0.0000000001
44
0.0000000001
40
0
40
0
40
0
40
1
40
1
40
1
10
-8.3662279223909444
20
-10.272464569656663
30
0
10
-8.1862981891145772
20
-9.9851108752177282
30
0
10
-8.0426200007906026
20
-9.8938022218630834
30
0
0
SPLINE
5
209
100
AcDbEntity
8
0
100
AcDbSpline
70
0
71
2
72
6
73
3
74
0
42
0.000000001
43
0.0000000001
44
0.0000000001
40
0
40
0
40
0
40
1
40
1
40
1
10
-8.0426200007906026
20
-9.8938022218630834
30
0
10
-7.8989418124666289
20
-9.8024938665316625
30
0
10
-7.7163274859895781
20
-9.8024938665316625
30
0
0
SPLINE
5
210
100
AcDbEntity
8
0
100
AcDbSpline
70
0
71
2
72
6
73
3
74
0
42
0.000000001
43
0.0000000001
44
0.0000000001
40
0
40
0
40
0
40
1
40
1
40
1
10
-7.7163274859895781
20
-9.8024938665316625
30
0
10
-7.4585135554781035
20
-9.8024938665316625
30
0
10
-7.2195013141145781
20
-9.9448276720927282
30
0
0
LINE
5
211
100
AcDbEntity
8
0
100
AcDbLine
10
-7.2195013141145781
20
-9.9448276720927282
30
0
11
-7.4531419848909453
21
-10.602786656467728
31
0
0
SPLINE
5
212
100
AcDbEntity
8
0
100
AcDbSpline
70
0
71
2
72
6
73
3
74
0
42
0.000000001
43
0.0000000001
44
0.0000000001
40
0
40
0
40
0
40
1
40
1
40
1
10
-7.4531419848909453
20
-10.602786656467728
30
0
10
-7.6438148593416289
20
-10.479251559822373
30
0
10
-7.8076346492281035
20
-10.479251559822373
30
0
0
SPLINE
5
213
100
AcDbEntity
8
0
100
AcDbSpline
70
0
71
2
72
6
73
3
74
0
42
0.000000001
43
0.0000000001
44
0.0000000001
40
0
40
0
40
0
40
1
40
1
40
1
10
-7.8076346492281035
20
-10.479251559822373
30
0
10
-7.9660804843416289
20
-10.479251559822373
30
0
10
-8.0761893367281026
20
-10.566531833259873
30
0
0
SPLINE
5
214
100
AcDbEntity
8
0
100
AcDbSpline
70
0
71
2
72
6
73
3
74
0
42
0.000000001
43
0.0000000001
44
0.0000000001
40
0
40
0
40
0
40
1
40
1
40
1
10
-8.0761893367281026
20
-10.566531833259873
30
0
10
-8.1862981891145772
20
-10.653812106697373
30
0
10
-8.2494075870027608
20
-10.882083591072373
30
0
0
SPLINE
5
215
100
AcDbEntity
8
0
100
AcDbSpline
70
0
71
2
72
6
73
3
74
0
42
0.000000001
43
0.0000000001
44
0.0000000001
40
0
40
0
40
0
40
1
40
1
40
1
10
-8.2494075870027608
20
-10.882083591072373
30
0
10
-8.3125169848909444
20
-11.110355075447373
30
0
10
-8.3125169848909444
20
-11.838138218967728
30
0
0
LINE
5
216
100
AcDbEntity
8
0
100
AcDbLine
10
-8.3125169848909444
20
-11.838138218967728
30
0
11
-8.3125169848909444
21
-12.718997713177018
31
0
0
LINE
5
217
100
AcDbEntity
8
0
100
AcDbLine
10
-4.2788251018037871
20
-12.718997713177018
30
0
11
-4.9797542666902617
21
-12.718997713177018
31
0
0
LINE
5
218
100
AcDbEntity
8
0
100
AcDbLine
10
-4.9797542666902617
20
-12.718997713177018
30
0
11
-4.9797542666902617
21
-12.300052460281663
31
0
0
SPLINE
5
219
100
AcDbEntity
8
0
100
AcDbSpline
70
0
71
2
72
6
73
3
74
0
42
0.000000001
43
0.0000000001
44
0.0000000001
40
0
40
0
40
0
40
1
40
1
40
1
10
-4.9797542666902617
20
-12.300052460281663
30
0
10
-5.1543148135652617
20
-12.544437166302018
30
0
10
-5.3919847583284453
20
-12.663943883030228
30
0
0
SPLINE
5
220
100
AcDbEntity
8
0
100
AcDbSpline
70
0
71
2
72
6
73
3
74
0
42
0.000000001
43
0.0000000001
44
0.0000000001
40
0
40
0
40
0
40
1
40
1
40
1
10
-5.3919847583284453
20
-12.663943883030228
30
0
10
-5.6296547030916289
20
-12.783450897781663
30
0
10
-5.8713539218416289
20
-12.783450897781663
30
0
0
SPLINE
5
221
100
AcDbEntity
8
0
100
AcDbSpline
70
0
71
2
72
6
73
3
74
0
42
0.000000001
43
0.0000000001
44
0.0000000001
40
0
40
0
40
0
40
1
40
1
40
1
10
-5.8713539218416289
20
-12.783450897781663
30
0
10
-6.3628109073152617
20
-12.783450897781663
30
0
10
-6.7132742976656035
20
-12.387332733719163
30
0
0
SPLINE
5
222
100
AcDbEntity
8
0
100
AcDbSpline
70
0
71
2
72
6
73
3
74
0
42
0.000000001
43
0.0000000001
44
0.0000000001
40
0
40
0
40
0
40
1
40
1
40
1
10
-6.7132742976656035
20
-12.387332733719163
30
0
10
-7.0637376880159453
20
-11.991214569656663
30
0
10
-7.0637376880159453
20
-11.282230135052018
30
0
0
SPLINE
5
223
100
AcDbEntity
8
0
100
AcDbSpline
70
0
71
2
72
6
73
3
74
0
42
0.000000001
43
0.0000000001
44
0.0000000001
40
0
40
0
40
0
40
1
40
1
40
1
10
-7.0637376880159453
20
-11.282230135052018
30
0
10
-7.0637376880159453
20
-10.557132478802018
30
0
10
-6.7226727580537871
20
-10.179813023655228
30
0
0
SPLINE
5
224
100
AcDbEntity
8
0
100
AcDbSpline
70
0
71
2
72
6
73
3
74
0
42
0.000000001
43
0.0000000001
44
0.0000000001
40
0
40
0
40
0
40
1
40
1
40
1
10
-6.7226727580537871
20
-10.179813023655228
30
0
10
-6.3816078280916289
20
-9.8024938665316625
30
0
10
-5.8606131648531035
20
-9.8024938665316625
30
0
0
SPLINE
5
225
100
AcDbEntity
8
0
100
AcDbSpline
70
0
71
2
72
6
73
3
74
0
42
0.000000001
43
0.0000000001
44
0.0000000001
40
0
40
0
40
0
40
1
40
1
40
1
10
-5.8606131648531035
20
-9.8024938665316625
30
0
10
-5.3825862979402617
20
-9.8024938665316625
30
0
10
-5.0334652041902617
20
-10.199954625217728
30
0
0
LINE
5
226
100
AcDbEntity
8
0
100
AcDbLine
10
-5.0334652041902617
20
-10.199954625217728
30
0
11
-5.0334652041902617
21
-8.7819860540316625
31
0
0
LINE
5
227
100
AcDbEntity
8
0
100
AcDbLine
10
-5.0334652041902617
20
-8.7819860540316625
30
0
11
-4.2788251018037871
21
-8.7819860540316625
31
0
0
LINE
5
228
100
AcDbEntity
8
0
100
AcDbLine
10
-4.2788251018037871
20
-8.7819860540316625
30
0
11
-4.2788251018037871
21
-12.718997713177018
31
0
0
SPLINE
5
229
100
AcDbEntity
8
0
100
AcDbSpline
70
0
71
2
72
6
73
3
74
0
42
0.000000001
43
0.0000000001
44
0.0000000001
40
0
40
0
40
0
40
1
40
1
40
1
10
-6.2929852580537871
20
-11.231204684822373
30
0
10
-6.2929852580537871
20
-11.687747653572373
30
0
10
-6.1667640780916289
20
-11.891849156467728
30
0
0
SPLINE
5
230
100
AcDbEntity
8
0
100
AcDbSpline
70
0
71
2
72
6
73
3
74
0
42
0.000000001
43
0.0000000001
44
0.0000000001
40
0
40
0
40
0
40
1
40
1
40
1
10
-6.1667640780916289
20
-11.891849156467728
30
0
10
-5.9841473674287871
20
-12.187259312717728
30
0
10
-5.6565101718416289
20
-12.187259312717728
30
0
0
SPLINE
5
231
100
AcDbEntity
8
0
100
AcDbSpline
70
0
71
2
72
6
73
3
74
0
42
0.000000001
43
0.0000000001
44
0.0000000001
40
0
40
0
40
0
40
1
40
1
40
1
10
-5.6565101718416289
20
-12.187259312717728
30
0
10
-5.3960140323152617
20
-12.187259312717728
30
0
10
-5.2133949374666289
20
-11.965701695530228
30
0
0
SPLINE
5
232
100
AcDbEntity
8
0
100
AcDbSpline
70
0
71
2
72
6
73
3
74
0
42
0.000000001
43
0.0000000001
44
0.0000000001
40
0
40
0
40
0
40
1
40
1
40
1
10
-5.2133949374666289
20
-11.965701695530228
30
0
10
-5.0307782268037871
20
-11.744144078342728
30
0
10
-5.0307782268037871
20
-11.303714331238083
30
0
0
SPLINE
5
233
100
AcDbEntity
8
0
100
AcDbSpline
70
0
71
2
72
6
73
3
74
0
42
0.000000001
43
0.0000000001
44
0.0000000001
40
0
40
0
40
0
40
1
40
1
40
1
10
-5.0307782268037871
20
-11.303714331238083
30
0
10
-5.0307782268037871
20
-10.812259431927018
30
0
10
-5.2080257510652617
20
-10.596073087303452
30
0
0
SPLINE
5
234
100
AcDbEntity
8
0
100
AcDbSpline
70
0
71
2
72
6
73
3
74
0
42
0.000000001
43
0.0000000001
44
0.0000000001
40
0
40
0
40
0
40
1
40
1
40
1
10
-5.2080257510652617
20
-10.596073087303452
30
0
10
-5.3852708911409453
20
-10.379886444656663
30
0
10
-5.6618817424287871
20
-10.379886444656663
30
0
0
SPLINE
5
235
100
AcDbEntity
8
0
100
AcDbSpline
70
0
71
2
72
6
73
3
74
0
42
0.000000001
43
0.0000000001
44
0.0000000001
40
0
40
0
40
0
40
1
40
1
40
1
10
-5.6618817424287871
20
-10.379886444656663
30
0
10
-5.9304364299287871
20
-10.379886444656663
30
0
10
-6.1117108439912871
20
-10.593387302009873
30
0
0
SPLINE
5
236
100
AcDbEntity
8
0
100
AcDbSpline
70
0
71
2
72
6
73
3
74
0
42
0.000000001
43
0.0000000001
44
0.0000000001
40
0
40
0
40
0
40
1
40
1
40
1
10
-6.1117108439912871
20
-10.593387302009873
30
0
10
-6.2929852580537871
20
-10.806888159363083
30
0
10
-6.2929852580537871
20
-11.231204684822373
30
0
0
LINE
5
237
100
AcDbEntity
8
0
100
AcDbLine
10
0.51755827908610108
20
-11.271487887947373
30
0
11
1.2883130932340503
21
-11.515872891990952
31
0
0
SPLINE
5
238
100
AcDbEntity
8
0
100
AcDbSpline
70
0
71
2
72
6
73
3
74
0
42
0.000000001
43
0.0000000001
44
0.0000000001
40
0
40
0
40
0
40
1
40
1
40
1
10
1.2883130932340503
20
-11.515872891990952
30
0
10
1.1110679531583667
20
-12.160403843967728
30
0
10
0.69883269314860108
20
-12.473270114509873
30
0
0
SPLINE
5
239
100
AcDbEntity
8
0
100
AcDbSpline
70
0
71
2
72
6
73
3
74
0
42
0.000000001
43
0.0000000001
44
0.0000000001
40
0
40
0
40
0
40
1
40
1
40
1
10
0.69883269314860108
20
-12.473270114509873
30
0
10
0.28660696988199952
20
-12.786136087028794
30
0
10
-0.34718590731526611
20
-12.786136087028794
30
0
0
SPLINE
5
240
100
AcDbEntity
8
0
100
AcDbSpline
70
0
71
2
72
6
73
3
74
0
42
0.000000001
43
0.0000000001
44
0.0000000001
40
0
40
0
40
0
40
1
40
1
40
1
10
-0.34718590731526611
20
-12.786136087028794
30
0
10
-1.1313660716524199
20
-12.786136087028794
30
0
10
-1.6362484073152617
20
-12.250369604675583
30
0
0
SPLINE
5
241
100
AcDbEntity
8
0
100
AcDbSpline
70
0
71
2
72
6
73
3
74
0
42
0.000000001
43
0.0000000001
44
0.0000000001
40
0
40
0
40
0
40
1
40
1
40
1
10
-1.6362484073152617
20
-12.250369604675583
30
0
10
-2.1411307429781035
20
-11.714603122322373
30
0
10
-2.1411307429781035
20
-10.785403963177018
30
0
0
SPLINE
5
242
100
AcDbEntity
8
0
100
AcDbSpline
70
0
71
2
72
6
73
3
74
0
42
0.000000001
43
0.0000000001
44
0.0000000001
40
0
40
0
40
0
40
1
40
1
40
1
10
-2.1411307429781035
20
-10.785403963177018
30
0
10
-2.1411307429781035
20
-9.8024938665316625
30
0
10
-1.6335614299287871
20
-9.2586706243441625
30
0
0
SPLINE
5
243
100
AcDbEntity
8
0
100
AcDbSpline
70
0
71
2
72
6
73
3
74
0
42
0.000000001
43
0.0000000001
44
0.0000000001
40
0
40
0
40
0
40
1
40
1
40
1
10
-1.6335614299287871
20
-9.2586706243441625
30
0
10
-1.1259945010652617
20
-8.7148473821566625
30
0
10
-0.29884415621663329
20
-8.7148473821566625
30
0
0
SPLINE
5
244
100
AcDbEntity
8
0
100
AcDbSpline
70
0
71
2
72
6
73
3
74
0
42
0.000000001
43
0.0000000001
44
0.0000000001
40
0
40
0
40
0
40
1
40
1
40
1
10
-0.29884415621663329
20
-8.7148473821566625
30
0
10
0.42356413846110108
20
-8.7148473821566625
30
0
10
0.87473792080973389
20
-9.1418490968630834
30
0
0
SPLINE
5
245
100
AcDbEntity
8
0
100
AcDbSpline
70
0
71
2
72
6
73
3
74
0
42
0.000000001
43
0.0000000001
44
0.0000000001
40
0
40
0
40
0
40
1
40
1
40
1
10
0.87473792080973389
20
-9.1418490968630834
30
0
10
1.1432926083097339
20
-9.3942905627177282
30
0
10
1.2775699520597339
20
-9.8669467531130834
30
0
0
LINE
5
246
100
AcDbEntity
8
0
100
AcDbLine
10
1.2775699520597339
20
-9.8669467531130834
30
0
11
0.49070281033610119
21
-10.054935034363083
31
0
0
SPLINE
5
247
100
AcDbEntity
8
0
100
AcDbSpline
70
0
71
2
72
6
73
3
74
0
42
0.000000001
43
0.0000000001
44
0.0000000001
40
0
40
0
40
0
40
1
40
1
40
1
10
0.49070281033610108
20
-10.054935034363083
30
0
10
0.42088431363199952
20
-9.7487829290316625
30
0
10
0.19932669644449952
20
-9.5715365968630834
30
0
0
SPLINE
5
248
100
AcDbEntity
8
0
100
AcDbSpline
70
0
71
2
72
6
73
3
74
0
42
0.000000001
43
0.0000000001
44
0.0000000001
40
0
40
0
40
0
40
1
40
1
40
1
10
0.19932669644449952
20
-9.5715365968630834
30
0
10
-0.022230920743000482
20
-9.3942905627177282
30
0
10
-0.33912735934163329
20
-9.3942905627177282
30
0
0
SPLINE
5
249
100
AcDbEntity
8
0
100
AcDbSpline
70
0
71
2
72
6
73
3
74
0
42
0.000000001
43
0.0000000001
44
0.0000000001
40
0
40
0
40
0
40
1
40
1
40
1
10
-0.33912735934163329
20
-9.3942905627177282
30
0
10
-0.77687340731526167
20
-9.3942905627177282
30
0
10
-1.0494549846162871
20
-9.7084997259066625
30
0
0
SPLINE
5
250
100
AcDbEntity
8
0
100
AcDbSpline
70
0
71
2
72
6
73
3
74
0
42
0.000000001
43
0.0000000001
44
0.0000000001
40
0
40
0
40
0
40
1
40
1
40
1
10
-1.0494549846162871
20
-9.7084997259066625
30
0
10
-1.3220389461031035
20
-10.022708591072373
30
0
10
-1.3220389461031035
20
-10.726321753113083
30
0
0
SPLINE
5
251
100
AcDbEntity
8
0
100
AcDbSpline
70
0
71
2
72
6
73
3
74
0
42
0.000000001
43
0.0000000001
44
0.0000000001
40
0
40
0
40
0
40
1
40
1
40
1
10
-1.3220389461031035
20
-10.726321753113083
30
0
10
-1.3220389461031035
20
-11.472903903572373
30
0
10
-1.0534842586031035
20
-11.789798554031663
30
0
0
SPLINE
5
252
100
AcDbEntity
8
0
100
AcDbSpline
70
0
71
2
72
6
73
3
74
0
42
0.000000001
43
0.0000000001
44
0.0000000001
40
0
40
0
40
0
40
1
40
1
40
1
10
-1.0534842586031035
20
-11.789798554031663
30
0
10
-0.78492957110310346
20
-12.106692906467728
30
0
10
-0.35524445528889892
20
-12.106692906467728
30
0
0
SPLINE
5
253
100
AcDbEntity
8
0
100
AcDbSpline
70
0
71
2
72
6
73
3
74
0
42
0.000000001
43
0.0000000001
44
0.0000000001
40
0
40
0
40
0
40
1
40
1
40
1
10
-0.35524445528889892
20
-12.106692906467728
30
0
10
-0.038348016690266107
20
-12.106692906467728
30
0
10
0.18992346768473389
20
-11.905276890842728
30
0
0
SPLINE
5
254
100
AcDbEntity
8
0
100
AcDbSpline
70
0
71
2
72
6
73
3
74
0
42
0.000000001
43
0.0000000001
44
0.0000000001
40
0
40
0
40
0
40
1
40
1
40
1
10
0.18992346768473389
20
-11.905276890842728
30
0
10
0.41819495205973389
20
-11.703860875217728
30
0
10
0.51755827908610108
20
-11.271487887947373
30
0
0
LINE
5
255
100
AcDbEntity
8
0
100
AcDbLine
10
2.7170221233854175
20
-8.7819860540316625
30
0
11
2.7170221233854175
21
-10.229495730249695
31
0
0
SPLINE
5
256
100
AcDbEntity
8
0
100
AcDbSpline
70
0
71
2
72
6
73
3
74
0
42
0.000000001
43
0.0000000001
44
0.0000000001
40
0
40
0
40
0
40
1
40
1
40
1
10
2.7170221233854175
20
-10.229495730249695
30
0
10
3.0822555447111011
20
-9.8024938665316625
30
0
10
3.5898248577604175
20
-9.8024938665316625
30
0
0
SPLINE
5
257
100
AcDbEntity
8
0
100
AcDbSpline
70
0
71
2
72
6
73
3
74
0
42
0.000000001
43
0.0000000001
44
0.0000000001
40
0
40
0
40
0
40
1
40
1
40
1
10
3.5898248577604175
20
-9.8024938665316625
30
0
10
3.8503257656583667
20
-9.8024938665316625
30
0
10
4.0597955608854175
20
-9.8991734944270178
30
0
0
SPLINE
5
258
100
AcDbEntity
8
0
100
AcDbSpline
70
0
71
2
72
6
73
3
74
0
42
0.000000001
43
0.0000000001
44
0.0000000001
40
0
40
0
40
0
40
1
40
1
40
1
10
4.0597955608854175
20
-9.8991734944270178
30
0
10
4.2692701244840503
20
-9.995853122322373
30
0
10
4.3753473186979175
20
-10.146243687717728
30
0
0
SPLINE
5
259
100
AcDbEntity
8
0
100
AcDbSpline
70
0
71
2
72
6
73
3
74
0
42
0.000000001
43
0.0000000001
44
0.0000000001
40
0
40
0
40
0
40
1
40
1
40
1
10
4.3753473186979175
20
-10.146243687717728
30
0
10
4.4814292812833667
20
-10.296634253113083
30
0
10
4.5203678036222339
20
-10.479251559822373
30
0
0
SPLINE
5
260
100
AcDbEntity
8
0
100
AcDbSpline
70
0
71
2
72
6
73
3
74
0
42
0.000000001
43
0.0000000001
44
0.0000000001
40
0
40
0
40
0
40
1
40
1
40
1
10
4.5203678036222339
20
-10.479251559822373
30
0
10
4.5593063259611011
20
-10.661868866531663
30
0
10
4.5593063259611011
20
-11.045902188865952
30
0
0
LINE
5
261
100
AcDbEntity
8
0
100
AcDbLine
10
4.5593063259611011
20
-11.045902188865952
30
0
11
4.5593063259611011
21
-12.718997713177018
31
0
0
LINE
5
262
100
AcDbEntity
8
0
100
AcDbLine
10
4.5593063259611011
20
-12.718997713177018
30
0
11
3.8046686077604175
21
-12.718997713177018
31
0
0
LINE
5
263
100
AcDbEntity
8
0
100
AcDbLine
10
3.8046686077604175
20
-12.718997713177018
30
0
11
3.8046686077604175
21
-11.212405975906663
31
0
0
SPLINE
5
264
100
AcDbEntity
8
0
100
AcDbSpline
70
0
71
2
72
6
73
3
74
0
42
0.000000001
43
0.0000000001
44
0.0000000001
40
0
40
0
40
0
40
1
40
1
40
1
10
3.8046686077604175
20
-11.212405975906663
30
0
10
3.8046686077604175
20
-10.763919766990952
30
0
10
3.7617008114347339
20
-10.643069859592728
30
0
0
SPLINE
5
265
100
AcDbEntity
8
0
100
AcDbSpline
70
0
71
2
72
6
73
3
74
0
42
0.000000001
43
0.0000000001
44
0.0000000001
40
0
40
0
40
0
40
1
40
1
40
1
10
3.7617008114347339
20
-10.643069859592728
30
0
10
3.7187330151090503
20
-10.522220250217728
30
0
10
3.6099664593229175
20
-10.451053198425583
30
0
0
SPLINE
5
266
100
AcDbEntity
8
0
100
AcDbSpline
70
0
71
2
72
6
73
3
74
0
42
0.000000001
43
0.0000000001
44
0.0000000001
40
0
40
0
40
0
40
1
40
1
40
1
10
3.6099664593229175
20
-10.451053198425583
30
0
10
3.5012046719083667
20
-10.379886444656663
30
0
10
3.3373824978361011
20
-10.379886444656663
30
0
0
SPLINE
5
267
100
AcDbEntity
8
0
100
AcDbSpline
70
0
71
2
72
6
73
3
74
0
42
0.000000001
43
0.0000000001
44
0.0000000001
40
0
40
0
40
0
40
1
40
1
40
1
10
3.3373824978361011
20
-10.379886444656663
30
0
10
3.1493942165861011
20
-10.379886444656663
30
0
10
3.0016891384611011
20
-10.471194799988083
30
0
0
SPLINE
5
268
100
AcDbEntity
8
0
100
AcDbSpline
70
0
71
2
72
6
73
3
74
0
42
0.000000001
43
0.0000000001
44
0.0000000001
40
0
40
0
40
0
40
1
40
1
40
1
10
3.0016891384611011
20
-10.471194799988083
30
0
10
2.8539840603361011
20
-10.562503453342728
30
0
10
2.7855054760465503
20
-10.746463354675583
30
0
0
SPLINE
5
269
100
AcDbEntity
8
0
100
AcDbSpline
70
0
71
2
72
6
73
3
74
0
42
0.000000001
43
0.0000000001
44
0.0000000001
40
0
40
0
40
0
40
1
40
1
40
1
10
2.7855054760465503
20
-10.746463354675583
30
0
10
2.7170221233854175
20
-10.930423554031663
30
0
10
2.7170221233854175
20
-11.290286596863083
30
0
0
LINE
5
270
100
AcDbEntity
8
0
100
AcDbLine
10
2.7170221233854175
20
-11.290286596863083
30
0
11
2.7170221233854175
21
-12.718997713177018
31
0
0
LINE
5
271
100
AcDbEntity
8
0
100
AcDbLine
10
2.7170221233854175
20
-12.718997713177018
30
0
11
1.9623844051847339
21
-12.718997713177018
31
0
0
LINE
5
272
100
AcDbEntity
8
0
100
AcDbLine
10
1.9623844051847339
20
-12.718997713177018
30
0
11
1.9623844051847339
21
-8.7819860540316625
31
0
0
LINE
5
273
100
AcDbEntity
8
0
100
AcDbLine
10
1.9623844051847339
20
-8.7819860540316625
30
0
11
2.7170221233854175
21
-8.7819860540316625
31
0
0
LINE
5
274
100
AcDbEntity
8
0
100
AcDbLine
10
5.8886520290861011
20
-10.737064298240952
30
0
11
5.2038375759611011
21
-10.613528903572373
31
0
0
SPLINE
5
275
100
AcDbEntity
8
0
100
AcDbSpline
70
0
71
2
72
6
73
3
74
0
42
0.000000001
43
0.0000000001
44
0.0000000001
40
0
40
0
40
0
40
1
40
1
40
1
10
5.2038375759611011
20
-10.613528903572373
30
0
10
5.3193179989347339
20
-10.199954625217728
30
0
10
5.6013004208097339
20
-10.001224394886307
30
0
0
SPLINE
5
276
100
AcDbEntity
8
0
100
AcDbSpline
70
0
71
2
72
6
73
3
74
0
42
0.000000001
43
0.0000000001
44
0.0000000001
40
0
40
0
40
0
40
1
40
1
40
1
10
5.6013004208097339
20
-10.001224394886307
30
0
10
5.8832828426847339
20
-9.8024938665316625
30
0
10
6.4391891384611011
20
-9.8024938665316625
30
0
0
SPLINE
5
277
100
AcDbEntity
8
0
100
AcDbSpline
70
0
71
2
72
6
73
3
74
0
42
0.000000001
43
0.0000000001
44
0.0000000001
40
0
40
0
40
0
40
1
40
1
40
1
10
6.4391891384611011
20
-9.8024938665316625
30
0
10
6.9440738583097339
20
-9.8024938665316625
30
0
10
7.1911422634611011
20
-9.922000583259873
30
0
0
SPLINE
5
278
100
AcDbEntity
8
0
100
AcDbSpline
70
0
71
2
72
6
73
3
74
0
42
0.000000001
43
0.0000000001
44
0.0000000001
40
0
40
0
40
0
40
1
40
1
40
1
10
7.1911422634611011
20
-9.922000583259873
30
0
10
7.4382106686124683
20
-10.041507598011307
30
0
10
7.5389186764249683
20
-10.225467499344163
30
0
0
SPLINE
5
279
100
AcDbEntity
8
0
100
AcDbSpline
70
0
71
2
72
6
73
3
74
0
42
0.000000001
43
0.0000000001
44
0.0000000001
40
0
40
0
40
0
40
1
40
1
40
1
10
7.5389186764249683
20
-10.225467499344163
30
0
10
7.6396266842374683
20
-10.409427400677018
30
0
10
7.6396266842374683
20
-10.900882299988083
30
0
0
LINE
5
280
100
AcDbEntity
8
0
100
AcDbLine
10
7.6396266842374683
20
-10.900882299988083
30
0
11
7.6315729046354175
21
-11.781741794197373
31
0
0
SPLINE
5
281
100
AcDbEntity
8
0
100
AcDbSpline
70
0
71
2
72
6
73
3
74
0
42
0.000000001
43
0.0000000001
44
0.0000000001
40
0
40
0
40
0
40
1
40
1
40
1
10
7.6315729046354175
20
-11.781741794197373
30
0
10
7.6315729046354175
20
-12.157718356697373
30
0
10
7.6678268337736011
20
-12.336307283489518
30
0
0
SPLINE
5
282
100
AcDbEntity
8
0
100
AcDbSpline
70
0
71
2
72
6
73
3
74
0
42
0.000000001
43
0.0000000001
44
0.0000000001
40
0
40
0
40
0
40
1
40
1
40
1
10
7.6678268337736011
20
-12.336307283489518
30
0
10
7.7040855312833667
20
-12.514896210281663
30
0
10
7.8034488583097339
20
-12.718997713177018
30
0
0
LINE
5
283
100
AcDbEntity
8
0
100
AcDbLine
10
7.8034488583097339
20
-12.718997713177018
30
0
11
7.0568649197111011
21
-12.718997713177018
31
0
0
SPLINE
5
284
100
AcDbEntity
8
0
100
AcDbSpline
70
0
71
2
72
6
73
3
74
0
42
0.000000001
43
0.0000000001
44
0.0000000001
40
0
40
0
40
0
40
1
40
1
40
1
10
7.0568649197111011
20
-12.718997713177018
30
0
10
7.0273248577604175
20
-12.643802281467728
30
0
10
6.9843570614347339
20
-12.496097203342728
30
0
0
SPLINE
5
285
100
AcDbEntity
8
0
100
AcDbSpline
70
0
71
2
72
6
73
3
74
0
42
0.000000001
43
0.0000000001
44
0.0000000001
40
0
40
0
40
0
40
1
40
1
40
1
10
6.9843570614347339
20
-12.496097203342728
30
0
10
6.9655601406583667
20
-12.428958531467728
30
0
10
6.9575015926847339
20
-12.407474335281663
30
0
0
SPLINE
5
286
100
AcDbEntity
8
0
100
AcDbSpline
70
0
71
2
72
6
73
3
74
0
42
0.000000001
43
0.0000000001
44
0.0000000001
40
0
40
0
40
0
40
1
40
1
40
1
10
6.9575015926847339
20
-12.407474335281663
30
0
10
6.7641441250333667
20
-12.595462616531663
30
0
10
6.5439264202604175
20
-12.689456757156663
30
0
0
SPLINE
5
287
100
AcDbEntity
8
0
100
AcDbSpline
70
0
71
2
72
6
73
3
74
0
42
0.000000001
43
0.0000000001
44
0.0000000001
40
0
40
0
40
0
40
1
40
1
40
1
10
6.5439264202604175
20
-12.689456757156663
30
0
10
6.3237087154874683
20
-12.783450897781663
30
0
10
6.0739557171354175
20
-12.783450897781663
30
0
0
SPLINE
5
288
100
AcDbEntity
8
0
100
AcDbSpline
70
0
71
2
72
6
73
3
74
0
42
0.000000001
43
0.0000000001
44
0.0000000001
40
0
40
0
40
0
40
1
40
1
40
1
10
6.0739557171354175
20
-12.783450897781663
30
0
10
5.6335250759611011
20
-12.783450897781663
30
0
10
5.3797428036222339
20
-12.544437166302018
30
0
0
SPLINE
5
289
100
AcDbEntity
8
0
100
AcDbSpline
70
0
71
2
72
6
73
3
74
0
42
0.000000001
43
0.0000000001
44
0.0000000001
40
0
40
0
40
0
40
1
40
1
40
1
10
5.3797428036222339
20
-12.544437166302018
30
0
10
5.1259605312833667
20
-12.305423434822373
30
0
10
5.1259605312833667
20
-11.940189119427018
30
0
0
SPLINE
5
290
100
AcDbEntity
8
0
100
AcDbSpline
70
0
71
2
72
6
73
3
74
0
42
0.000000001
43
0.0000000001
44
0.0000000001
40
0
40
0
40
0
40
1
40
1
40
1
10
5.1259605312833667
20
-11.940189119427018
30
0
10
5.1259605312833667
20
-11.698489900677018
30
0
10
5.2414361858854175
20
-11.509158726780228
30
0
0
SPLINE
5
291
100
AcDbEntity
8
0
100
AcDbSpline
70
0
71
2
72
6
73
3
74
0
42
0.000000001
43
0.0000000001
44
0.0000000001
40
0
40
0
40
0
40
1
40
1
40
1
10
5.2414361858854175
20
-11.509158726780228
30
0
10
5.3569118404874683
20
-11.319827850906663
30
0
10
5.5650417232999683
20
-11.219119843094163
30
0
0
SPLINE
5
292
100
AcDbEntity
8
0
100
AcDbSpline
70
0
71
2
72
6
73
3
74
0
42
0.000000001
43
0.0000000001
44
0.0000000001
40
0
40
0
40
0
40
1
40
1
40
1
10
5.5650417232999683
20
-11.219119843094163
30
0
10
5.7731716061124683
20
-11.118411835281663
30
0
10
6.1652652645597339
20
-11.043216403572373
30
0
0
SPLINE
5
293
100
AcDbEntity
8
0
100
AcDbSpline
70
0
71
2
72
6
73
3
74
0
42
0.000000001
43
0.0000000001
44
0.0000000001
40
0
40
0
40
0
40
1
40
1
40
1
10
6.1652652645597339
20
-11.043216403572373
30
0
10
6.6943160915861011
20
-10.943851288406663
30
0
10
6.8984214687833667
20
-10.857913907615952
30
0
0
LINE
5
294
100
AcDbEntity
8
0
100
AcDbLine
10
6.8984214687833667
20
-10.857913907615952
30
0
11
6.8984214687833667
21
-10.782718475906663
31
0
0
SPLINE
5
295
100
AcDbEntity
8
0
100
AcDbSpline
70
0
71
2
72
6
73
3
74
0
42
0.000000001
43
0.0000000001
44
0.0000000001
40
0
40
0
40
0
40
1
40
1
40
1
10
6.8984214687833667
20
-10.782718475906663
30
0
10
6.8984214687833667
20
-10.565188940613083
30
0
10
6.7909995937833667
20
-10.472537692634873
30
0
0
SPLINE
5
296
100
AcDbEntity
8
0
100
AcDbSpline
70
0
71
2
72
6
73
3
74
0
42
0.000000001
43
0.0000000001
44
0.0000000001
40
0
40
0
40
0
40
1
40
1
40
1
10
6.7909995937833667
20
-10.472537692634873
30
0
10
6.6835777187833667
20
-10.379886444656663
30
0
10
6.3854782009611011
20
-10.379886444656663
30
0
0
SPLINE
5
297
100
AcDbEntity
8
0
100
AcDbSpline
70
0
71
2
72
6
73
3
74
0
42
0.000000001
43
0.0000000001
44
0.0000000001
40
0
40
0
40
0
40
1
40
1
40
1
10
6.3854782009611011
20
-10.379886444656663
30
0
10
6.1840621853361011
20
-10.379886444656663
30
0
10
6.0712711239347339
20
-10.459109958259873
30
0
0
SPLINE
5
298
100
AcDbEntity
8
0
100
AcDbSpline
70
0
71
2
72
6
73
3
74
0
42
0.000000001
43
0.0000000001
44
0.0000000001
40
0
40
0
40
0
40
1
40
1
40
1
10
6.0712711239347339
20
-10.459109958259873
30
0
10
5.9584800625333667
20
-10.538333471863083
30
0
10
5.8886520290861011
20
-10.737064298240952
30
0
0
SPLINE
5
299
100
AcDbEntity
8
0
100
AcDbSpline
70
0
71
2
72
6
73
3
74
0
42
0.000000001
43
0.0000000001
44
0.0000000001
40
0
40
0
40
0
40
1
40
1
40
1
10
6.8984214687833667
20
-11.349368806927018
30
0
10
6.7533962154874683
20
-11.397708471863083
30
0
10
6.4391891384611011
20
-11.464847143738083
30
0
0
SPLINE
5
300
100
AcDbEntity
8
0
100
AcDbSpline
70
0
71
2
72
6
73
3
74
0
42
0.000000001
43
0.0000000001
44
0.0000000001
40
0
40
0
40
0
40
1
40
1
40
1
10
6.4391891384611011
20
-11.464847143738083
30
0
10
6.1249820614347339
20
-11.531985815613083
30
0
10
6.0282985592374683
20
-11.596439000217728
30
0
0
SPLINE
5
301
100
AcDbEntity
8
0
100
AcDbSpline
70
0
71
2
72
6
73
3
74
0
42
0.000000001
43
0.0000000001
44
0.0000000001
40
0
40
0
40
0
40
1
40
1
40
1
10
6.0282985592374683
20
-11.596439000217728
30
0
10
5.8805934811124683
20
-11.701175387947373
30
0
10
5.8805934811124683
20
-11.862308200447373
30
0
0
SPLINE
5
302
100
AcDbEntity
8
0
100
AcDbSpline
70
0
71
2
72
6
73
3
74
0
42
0.000000001
43
0.0000000001
44
0.0000000001
40
0
40
0
40
0
40
1
40
1
40
1
10
5.8805934811124683
20
-11.862308200447373
30
0
10
5.8805934811124683
20
-12.020755525677018
30
0
10
5.9987632656583667
20
-12.136233862488083
30
0
0
SPLINE
5
303
100
AcDbEntity
8
0
100
AcDbSpline
70
0
71
2
72
6
73
3
74
0
42
0.000000001
43
0.0000000001
44
0.0000000001
40
0
40
0
40
0
40
1
40
1
40
1
10
5.9987632656583667
20
-12.136233862488083
30
0
10
6.1169235134611011
20
-12.251712497322373
30
0
10
6.2995426083097339
20
-12.251712497322373
30
0
0
SPLINE
5
304
100
AcDbEntity
8
0
100
AcDbSpline
70
0
71
2
72
6
73
3
74
0
42
0.000000001
43
0.0000000001
44
0.0000000001
40
0
40
0
40
0
40
1
40
1
40
1
10
6.2995426083097339
20
-12.251712497322373
30
0
10
6.5036432171354175
20
-12.251712497322373
30
0
10
6.6889469051847339
20
-12.117435153572373
30
0
0
SPLINE
5
305
100
AcDbEntity
8
0
100
AcDbSpline
70
0
71
2
72
6
73
3
74
0
42
0.000000001
43
0.0000000001
44
0.0000000001
40
0
40
0
40
0
40
1
40
1
40
1
10
6.6889469051847339
20
-12.117435153572373
30
0
10
6.8259088421354175
20
-12.015384253113083
30
0
10
6.8688766384611011
20
-11.867679174988083
30
0
0
SPLINE
5
306
100
AcDbEntity
8
0
100
AcDbSpline
70
0
71
2
72
6
73
3
74
0
42
0.000000001
43
0.0000000001
44
0.0000000001
40
0
40
0
40
0
40
1
40
1
40
1
10
6.8688766384611011
20
-11.867679174988083
30
0
10
6.8984214687833667
20
-11.770999547092728
30
0
10
6.8984214687833667
20
-11.499759372322373
30
0
0
LINE
5
307
100
AcDbEntity
8
0
100
AcDbLine
10
6.8984214687833667
20
-11.499759372322373
30
0
11
6.8984214687833667
21
-11.349368806927018
31
0
0
LINE
5
308
100
AcDbEntity
8
0
100
AcDbLine
10
10.260724248934734
20
-12.718997713177018
30
0
11
10.260724248934734
21
-12.291995700447373
31
0
0
SPLINE
5
309
100
AcDbEntity
8
0
100
AcDbSpline
70
0
71
2
72
6
73
3
74
0
42
0.000000001
43
0.0000000001
44
0.0000000001
40
0
40
0
40
0
40
1
40
1
40
1
10
10.260724248934734
20
-12.291995700447373
30
0
10
10.104960622836101
20
-12.520267184822373
30
0
10
9.8511783504972339
20
-12.651859041302018
30
0
0
SPLINE
5
310
100
AcDbEntity
8
0
100
AcDbSpline
70
0
71
2
72
6
73
3
74
0
42
0.000000001
43
0.0000000001
44
0.0000000001
40
0
40
0
40
0
40
1
40
1
40
1
10
9.8511783504972339
20
-12.651859041302018
30
0
10
9.5973960781583667
20
-12.783450897781663
30
0
10
9.3154136562833667
20
-12.783450897781663
30
0
0
SPLINE
5
311
100
AcDbEntity
8
0
100
AcDbSpline
70
0
71
2
72
6
73
3
74
0
42
0.000000001
43
0.0000000001
44
0.0000000001
40
0
40
0
40
0
40
1
40
1
40
1
10
9.3154136562833667
20
-12.783450897781663
30
0
10
9.0280572796354175
20
-12.783450897781663
30
0
10
8.7997857952604175
20
-12.657230015842728
30
0
0
SPLINE
5
312
100
AcDbEntity
8
0
100
AcDbSpline
70
0
71
2
72
6
73
3
74
0
42
0.000000001
43
0.0000000001
44
0.0000000001
40
0
40
0
40
0
40
1
40
1
40
1
10
8.7997857952604175
20
-12.657230015842728
30
0
10
8.5715143108854175
20
-12.531009431927018
30
0
10
8.4694663906583667
20
-12.302737947552018
30
0
0
SPLINE
5
313
100
AcDbEntity
8
0
100
AcDbSpline
70
0
71
2
72
6
73
3
74
0
42
0.000000001
43
0.0000000001
44
0.0000000001
40
0
40
0
40
0
40
1
40
1
40
1
10
8.4694663906583667
20
-12.302737947552018
30
0
10
8.3674137020597339
20
-12.074466463177018
30
0
10
8.3674137020597339
20
-11.671634431927018
30
0
0
LINE
5
314
100
AcDbEntity
8
0
100
AcDbLine
10
8.3674137020597339
20
-11.671634431927018
30
0
11
8.3674137020597339
21
-9.8669470511363073
31
0
0
LINE
5
315
100
AcDbEntity
8
0
100
AcDbLine
10
8.3674137020597339
20
-9.8669470511363073
30
0
11
9.1220514202604175
21
-9.8669470511363073
31
0
0
LINE
5
316
100
AcDbEntity
8
0
100
AcDbLine
10
9.1220514202604175
20
-9.8669470511363073
30
0
11
9.1220514202604175
21
-11.177493747322373
31
0
0
SPLINE
5
317
100
AcDbEntity
8
0
100
AcDbSpline
70
0
71
2
72
6
73
3
74
0
42
0.000000001
43
0.0000000001
44
0.0000000001
40
0
40
0
40
0
40
1
40
1
40
1
10
9.1220514202604175
20
-11.177493747322373
30
0
10
9.1220514202604175
20
-11.779056306927018
30
0
10
9.1636793041715503
20
-11.914676245300583
30
0
0
SPLINE
5
318
100
AcDbEntity
8
0
100
AcDbSpline
70
0
71
2
72
6
73
3
74
0
42
0.000000001
43
0.0000000001
44
0.0000000001
40
0
40
0
40
0
40
1
40
1
40
1
10
9.1636793041715503
20
-11.914676245300583
30
0
10
9.2053024197111011
20
-12.050296481697373
30
0
10
9.3154136562833667
20
-12.129519995300583
30
0
0
SPLINE
5
319
100
AcDbEntity
8
0
100
AcDbSpline
70
0
71
2
72
6
73
3
74
0
42
0.000000001
43
0.0000000001
44
0.0000000001
40
0
40
0
40
0
40
1
40
1
40
1
10
9.3154136562833667
20
-12.129519995300583
30
0
10
9.4255201244840503
20
-12.208743806927018
30
0
10
9.5947067165861011
20
-12.208743806927018
30
0
0
SPLINE
5
320
100
AcDbEntity
8
0
100
AcDbSpline
70
0
71
2
72
6
73
3
74
0
42
0.000000001
43
0.0000000001
44
0.0000000001
40
0
40
0
40
0
40
1
40
1
40
1
10
9.5947067165861011
20
-12.208743806927018
30
0
10
9.7880689526090503
20
-12.208743806927018
30
0
10
9.9411432171354175
20
-12.102664526550583
30
0
0
SPLINE
5
321
100
AcDbEntity
8
0
100
AcDbSpline
70
0
71
2
72
6
73
3
74
0
42
0.000000001
43
0.0000000001
44
0.0000000001
40
0
40
0
40
0
40
1
40
1
40
1
10
9.9411432171354175
20
-12.102664526550583
30
0
10
10.094222250033367
20
-11.996585544197373
30
0
10
10.15061778073405
20
-11.839481111614518
30
0
0
SPLINE
5
322
100
AcDbEntity
8
0
100
AcDbSpline
70
0
71
2
72
6
73
3
74
0
42
0.000000001
43
0.0000000001
44
0.0000000001
40
0
40
0
40
0
40
1
40
1
40
1
10
10.15061778073405
20
-11.839481111614518
30
0
10
10.207013311434734
20
-11.682376679031663
30
0
10
10.207013311434734
20
-11.070071872322373
30
0
0
LINE
5
323
100
AcDbEntity
8
0
100
AcDbLine
10
10.207013311434734
20
-11.070071872322373
30
0
11
10.207013311434734
21
-9.8669470511363073
31
0
0
LINE
5
324
100
AcDbEntity
8
0
100
AcDbLine
10
10.207013311434734
20
-9.8669470511363073
30
0
11
10.961651029635417
21
-9.8669470511363073
31
0
0
LINE
5
325
100
AcDbEntity
8
0
100
AcDbLine
10
10.961651029635417
20
-9.8669470511363073
30
0
11
10.961651029635417
21
-12.718997713177018
31
0
0
LINE
5
326
100
AcDbEntity
8
0
100
AcDbLine
10
10.961651029635417
20
-12.718997713177018
30
0
11
10.260724248934734
21
-12.718997713177018
31
0
0
LINE
5
327
100
AcDbEntity
8
0
100
AcDbLine
10
-29.407488880108836
20
-17.582523640243821
30
0
11
-28.634050664853099
21
-17.507328208534531
31
0
0
SPLINE
5
328
100
AcDbEntity
8
0
100
AcDbSpline
70
0
71
2
72
6
73
3
74
0
42
0.000000001
43
0.0000000001
44
0.0000000001
40
0
40
0
40
0
40
1
40
1
40
1
10
-28.634050664853099
20
-17.507328208534531
30
0
10
-28.564227399777415
20
-17.896732505409531
30
0
10
-28.350725946377757
20
-18.079349216072373
30
0
0
SPLINE
5
329
100
AcDbEntity
8
0
100
AcDbSpline
70
0
71
2
72
6
73
3
74
0
42
0.000000001
43
0.0000000001
44
0.0000000001
40
0
40
0
40
0
40
1
40
1
40
1
10
-28.350725946377757
20
-18.079349216072373
30
0
10
-28.137224492978099
20
-18.26196711882811
30
0
10
-27.774675664853099
20
-18.26196711882811
30
0
0
SPLINE
5
330
100
AcDbEntity
8
0
100
AcDbSpline
70
0
71
2
72
6
73
3
74
0
42
0.000000001
43
0.0000000001
44
0.0000000001
40
0
40
0
40
0
40
1
40
1
40
1
10
-27.774675664853099
20
-18.26196711882811
30
0
10
-27.390642938565257
20
-18.26196711882811
30
0
10
-27.195940790127757
20
-18.099490817634873
30
0
0
SPLINE
5
331
100
AcDbEntity
8
0
100
AcDbSpline
70
0
71
2
72
6
73
3
74
0
42
0.000000001
43
0.0000000001
44
0.0000000001
40
0
40
0
40
0
40
1
40
1
40
1
10
-27.195940790127757
20
-18.099490817634873
30
0
10
-27.001238641690257
20
-17.937015708534531
30
0
10
-27.001238641690257
20
-17.719486173240952
30
0
0
SPLINE
5
332
100
AcDbEntity
8
0
100
AcDbSpline
70
0
71
2
72
6
73
3
74
0
42
0.000000001
43
0.0000000001
44
0.0000000001
40
0
40
0
40
0
40
1
40
1
40
1
10
-27.001238641690257
20
-17.719486173240952
30
0
10
-27.001238641690257
20
-17.579837854950242
30
0
10
-27.083147344540599
20
-17.481815632431321
30
0
0
SPLINE
5
333
100
AcDbEntity
8
0
100
AcDbSpline
70
0
71
2
72
6
73
3
74
0
42
0.000000001
43
0.0000000001
44
0.0000000001
40
0
40
0
40
0
40
1
40
1
40
1
10
-27.083147344540599
20
-17.481815632431321
30
0
10
-27.165057239483836
20
-17.383792813865952
30
0
10
-27.369159040402415
20
-17.311283167450242
30
0
0
SPLINE
5
334
100
AcDbEntity
8
0
100
AcDbSpline
70
0
71
2
72
6
73
3
74
0
42
0.000000001
43
0.0000000001
44
0.0000000001
40
0
40
0
40
0
40
1
40
1
40
1
10
-27.369159040402415
20
-17.311283167450242
30
0
10
-27.508806762646678
20
-17.262943204490952
30
0
10
-28.005632934521678
20
-17.139408405868821
30
0
0
SPLINE
5
335
100
AcDbEntity
8
0
100
AcDbSpline
70
0
71
2
72
6
73
3
74
0
42
0.000000001
43
0.0000000001
44
0.0000000001
40
0
40
0
40
0
40
1
40
1
40
1
10
-28.005632934521678
20
-17.139408405868821
30
0
10
-28.644793806027415
20
-16.980960782615952
30
0
10
-28.902605352353099
20
-16.750003512947373
30
0
0
SPLINE
5
336
100
AcDbEntity
8
0
100
AcDbSpline
70
0
71
2
72
6
73
3
74
0
42
0.000000001
43
0.0000000001
44
0.0000000001
40
0
40
0
40
0
40
1
40
1
40
1
10
-28.902605352353099
20
-16.750003512947373
30
0
10
-29.265154180478099
20
-16.425052698700242
30
0
10
-29.265154180478099
20
-15.957767184822373
30
0
0
SPLINE
5
337
100
AcDbEntity
8
0
100
AcDbSpline
70
0
71
2
72
6
73
3
74
0
42
0.000000001
43
0.0000000001
44
0.0000000001
40
0
40
0
40
0
40
1
40
1
40
1
10
-29.265154180478099
20
-15.957767184822373
30
0
10
-29.265154180478099
20
-15.65698665007811
30
0
10
-29.094622907589915
20
-15.39514582976561
30
0
0
SPLINE
5
338
100
AcDbEntity
8
0
100
AcDbSpline
70
0
71
2
72
6
73
3
74
0
42
0.000000001
43
0.0000000001
44
0.0000000001
40
0
40
0
40
0
40
1
40
1
40
1
10
-29.094622907589915
20
-15.39514582976561
30
0
10
-28.924090442608836
20
-15.13330500945311
30
0
10
-28.603167114209178
20
-14.996341880409531
30
0
0
SPLINE
5
339
100
AcDbEntity
8
0
100
AcDbSpline
70
0
71
2
72
6
73
3
74
0
42
0.000000001
43
0.0000000001
44
0.0000000001
40
0
40
0
40
0
40
1
40
1
40
1
10
-28.603167114209178
20
-14.996341880409531
30
0
10
-28.282244977902415
20
-14.859378751365952
30
0
10
-27.828386602353099
20
-14.859378751365952
30
0
0
SPLINE
5
340
100
AcDbEntity
8
0
100
AcDbSpline
70
0
71
2
72
6
73
3
74
0
42
0.000000001
43
0.0000000001
44
0.0000000001
40
0
40
0
40
0
40
1
40
1
40
1
10
-27.828386602353099
20
-14.859378751365952
30
0
10
-27.087176618527415
20
-14.859378751365952
30
0
10
-26.712542352627757
20
-15.184330161659531
30
0
0
SPLINE
5
341
100
AcDbEntity
8
0
100
AcDbSpline
70
0
71
2
72
6
73
3
74
0
42
0.000000001
43
0.0000000001
44
0.0000000001
40
0
40
0
40
0
40
1
40
1
40
1
10
-26.712542352627757
20
-15.184330161659531
30
0
10
-26.337908086728099
20
-15.50928157195311
30
0
10
-26.319109973858836
20
-16.051761325447373
30
0
0
LINE
5
342
100
AcDbEntity
8
0
100
AcDbLine
10
-26.319109973858836
20
-16.051761325447373
30
0
11
-27.114032087277415
21
-16.08667415007811
31
0
0
SPLINE
5
343
100
AcDbEntity
8
0
100
AcDbSpline
70
0
71
2
72
6
73
3
74
0
42
0.000000001
43
0.0000000001
44
0.0000000001
40
0
40
0
40
0
40
1
40
1
40
1
10
-27.114032087277415
20
-16.08667415007811
30
0
10
-27.165057239483836
20
-15.783206637947373
30
0
10
-27.332903919171336
20
-15.65027278289061
30
0
0
SPLINE
5
344
100
AcDbEntity
8
0
100
AcDbSpline
70
0
71
2
72
6
73
3
74
0
42
0.000000001
43
0.0000000001
44
0.0000000001
40
0
40
0
40
0
40
1
40
1
40
1
10
-27.332903919171336
20
-15.65027278289061
30
0
10
-27.500750598858836
20
-15.517337735740952
30
0
10
-27.836443958233836
20
-15.517337735740952
30
0
0
SPLINE
5
345
100
AcDbEntity
8
0
100
AcDbSpline
70
0
71
2
72
6
73
3
74
0
42
0.000000001
43
0.0000000001
44
0.0000000001
40
0
40
0
40
0
40
1
40
1
40
1
10
-27.836443958233836
20
-15.517337735740952
30
0
10
-28.182879266690257
20
-15.517337735740952
30
0
10
-28.378923711728099
20
-15.659671839325242
30
0
0
SPLINE
5
346
100
AcDbEntity
8
0
100
AcDbSpline
70
0
71
2
72
6
73
3
74
0
42
0.000000001
43
0.0000000001
44
0.0000000001
40
0
40
0
40
0
40
1
40
1
40
1
10
-28.378923711728099
20
-15.659671839325242
30
0
10
-28.505144891690257
20
-15.75098079070311
30
0
10
-28.505144891690257
20
-15.904056247322373
30
0
0
SPLINE
5
347
100
AcDbEntity
8
0
100
AcDbSpline
70
0
71
2
72
6
73
3
74
0
42
0.000000001
43
0.0000000001
44
0.0000000001
40
0
40
0
40
0
40
1
40
1
40
1
10
-28.505144891690257
20
-15.904056247322373
30
0
10
-28.505144891690257
20
-16.043705161659531
30
0
10
-28.386981067608836
20
-16.143070276825242
30
0
0
SPLINE
5
348
100
AcDbEntity
8
0
100
AcDbSpline
70
0
71
2
72
6
73
3
74
0
42
0.000000001
43
0.0000000001
44
0.0000000001
40
0
40
0
40
0
40
1
40
1
40
1
10
-28.386981067608836
20
-16.143070276825242
30
0
10
-28.236590204190257
20
-16.269290860740952
30
0
10
-27.656511840771678
20
-16.406253989784531
30
0
0
SPLINE
5
349
100
AcDbEntity
8
0
100
AcDbSpline
70
0
71
2
72
6
73
3
74
0
42
0.000000001
43
0.0000000001
44
0.0000000001
40
0
40
0
40
0
40
1
40
1
40
1
10
-27.656511840771678
20
-16.406253989784531
30
0
10
-27.076433477353099
20
-16.54321711882811
30
0
10
-26.798480329464915
20
-16.689578708259873
30
0
0
SPLINE
5
350
100
AcDbEntity
8
0
100
AcDbSpline
70
0
71
2
72
6
73
3
74
0
42
0.000000001
43
0.0000000001
44
0.0000000001
40
0
40
0
40
0
40
1
40
1
40
1
10
-26.798480329464915
20
-16.689578708259873
30
0
10
-26.520525989483836
20
-16.835941489784531
30
0
10
-26.363421258877757
20
-17.089725550262742
30
0
0
SPLINE
5
351
100
AcDbEntity
8
0
100
AcDbSpline
70
0
71
2
72
6
73
3
74
0
42
0.000000001
43
0.0000000001
44
0.0000000001
40
0
40
0
40
0
40
1
40
1
40
1
10
-26.363421258877757
20
-17.089725550262742
30
0
10
-26.206316528271678
20
-17.343509610740952
30
0
10
-26.206316528271678
20
-17.716800983993821
30
0
0
SPLINE
5
352
100
AcDbEntity
8
0
100
AcDbSpline
70
0
71
2
72
6
73
3
74
0
42
0.000000001
43
0.0000000001
44
0.0000000001
40
0
40
0
40
0
40
1
40
1
40
1
10
-26.206316528271678
20
-17.716800983993821
30
0
10
-26.206316528271678
20
-18.055179532615952
30
0
10
-26.394304809521678
20
-18.350589688865952
30
0
0
SPLINE
5
353
100
AcDbEntity
8
0
100
AcDbSpline
70
0
71
2
72
6
73
3
74
0
42
0.000000001
43
0.0000000001
44
0.0000000001
40
0
40
0
40
0
40
1
40
1
40
1
10
-26.394304809521678
20
-18.350589688865952
30
0
10
-26.582293090771678
20
-18.645999845115952
30
0
10
-26.926043806027415
20
-18.789676841347031
30
0
0
SPLINE
5
354
100
AcDbEntity
8
0
100
AcDbSpline
70
0
71
2
72
6
73
3
74
0
42
0.000000001
43
0.0000000001
44
0.0000000001
40
0
40
0
40
0
40
1
40
1
40
1
10
-26.926043806027415
20
-18.789676841347031
30
0
10
-27.269793329190257
20
-18.93335383757811
30
0
10
-27.782733020733836
20
-18.93335383757811
30
0
0
SPLINE
5
355
100
AcDbEntity
8
0
100
AcDbSpline
70
0
71
2
72
6
73
3
74
0
42
0.000000001
43
0.0000000001
44
0.0000000001
40
0
40
0
40
0
40
1
40
1
40
1
10
-27.782733020733836
20
-18.93335383757811
30
0
10
-28.529314575146678
20
-18.93335383757811
30
0
10
-28.929460821103099
20
-18.588260825722031
30
0
0
SPLINE
5
356
100
AcDbEntity
8
0
100
AcDbSpline
70
0
71
2
72
6
73
3
74
0
42
0.000000001
43
0.0000000001
44
0.0000000001
40
0
40
0
40
0
40
1
40
1
40
1
10
-28.929460821103099
20
-18.588260825722031
30
0
10
-29.329608259152415
20
-18.243167813865952
30
0
10
-29.407488880108836
20
-17.582523640243821
30
0
0
LINE
5
357
100
AcDbEntity
8
0
100
AcDbLine
10
-24.235125360440257
20
-16.011478718368821
30
0
11
-24.235125360440257
21
-16.613040979950242
31
0
0
LINE
5
358
100
AcDbEntity
8
0
100
AcDbLine
10
-24.235125360440257
20
-16.613040979950242
30
0
11
-24.750750837277415
21
-16.613040979950242
31
0
0
LINE
5
359
100
AcDbEntity
8
0
100
AcDbLine
10
-24.750750837277415
20
-16.613040979950242
30
0
11
-24.750750837277415
21
-17.762455161659531
31
0
0
SPLINE
5
360
100
AcDbEntity
8
0
100
AcDbSpline
70
0
71
2
72
6
73
3
74
0
42
0.000000001
43
0.0000000001
44
0.0000000001
40
0
40
0
40
0
40
1
40
1
40
1
10
-24.750750837277415
20
-17.762455161659531
30
0
10
-24.750750837277415
20
-18.111576255409531
30
0
10
-24.735979614209178
20
-18.169315274803452
30
0
0
SPLINE
5
361
100
AcDbEntity
8
0
100
AcDbSpline
70
0
71
2
72
6
73
3
74
0
42
0.000000001
43
0.0000000001
44
0.0000000001
40
0
40
0
40
0
40
1
40
1
40
1
10
-24.735979614209178
20
-18.169315274803452
30
0
10
-24.721209583233836
20
-18.227054294197373
30
0
10
-24.668840942334178
20
-18.264652904121689
30
0
0
SPLINE
5
362
100
AcDbEntity
8
0
100
AcDbSpline
70
0
71
2
72
6
73
3
74
0
42
0.000000001
43
0.0000000001
44
0.0000000001
40
0
40
0
40
0
40
1
40
1
40
1
10
-24.668840942334178
20
-18.264652904121689
30
0
10
-24.616473493527415
20
-18.30225032195311
30
0
10
-24.541277465771678
20
-18.30225032195311
30
0
0
SPLINE
5
363
100
AcDbEntity
8
0
100
AcDbSpline
70
0
71
2
72
6
73
3
74
0
42
0.000000001
43
0.0000000001
44
0.0000000001
40
0
40
0
40
0
40
1
40
1
40
1
10
-24.541277465771678
20
-18.30225032195311
30
0
10
-24.436541376065257
20
-18.30225032195311
30
0
10
-24.237811145733836
20
-18.229740079490952
30
0
0
LINE
5
364
100
AcDbEntity
8
0
100
AcDbLine
10
-24.237811145733836
20
-18.229740079490952
30
0
11
-24.173358259152415
21
-18.815190013496689
31
0
0
SPLINE
5
365
100
AcDbEntity
8
0
100
AcDbSpline
70
0
71
2
72
6
73
3
74
0
42
0.000000001
43
0.0000000001
44
0.0000000001
40
0
40
0
40
0
40
1
40
1
40
1
10
-24.173358259152415
20
-18.815190013496689
30
0
10
-24.436541376065257
20
-18.927982266990952
30
0
10
-24.769548950146678
20
-18.927982266990952
30
0
0
SPLINE
5
366
100
AcDbEntity
8
0
100
AcDbSpline
70
0
71
2
72
6
73
3
74
0
42
0.000000001
43
0.0000000001
44
0.0000000001
40
0
40
0
40
0
40
1
40
1
40
1
10
-24.769548950146678
20
-18.927982266990952
30
0
10
-24.973650751065257
20
-18.927982266990952
30
0
10
-25.137469348858836
20
-18.85950129851561
30
0
0
SPLINE
5
367
100
AcDbEntity
8
0
100
AcDbSpline
70
0
71
2
72
6
73
3
74
0
42
0.000000001
43
0.0000000001
44
0.0000000001
40
0
40
0
40
0
40
1
40
1
40
1
10
-25.137469348858836
20
-18.85950129851561
30
0
10
-25.301287946652415
20
-18.791019137947373
30
0
10
-25.377825078915599
20
-18.682254966347031
30
0
0
SPLINE
5
368
100
AcDbEntity
8
0
100
AcDbSpline
70
0
71
2
72
6
73
3
74
0
42
0.000000001
43
0.0000000001
44
0.0000000001
40
0
40
0
40
0
40
1
40
1
40
1
10
-25.377825078915599
20
-18.682254966347031
30
0
10
-25.454363403271678
20
-18.573490794746689
30
0
10
-25.483904657315257
20
-18.388187106697373
30
0
0
SPLINE
5
369
100
AcDbEntity
8
0
100
AcDbSpline
70
0
71
2
72
6
73
3
74
0
42
0.000000001
43
0.0000000001
44
0.0000000001
40
0
40
0
40
0
40
1
40
1
40
1
10
-25.483904657315257
20
-18.388187106697373
30
0
10
-25.508074340771678
20
-18.256595548240952
30
0
10
-25.508074340771678
20
-17.856449302284531
30
0
0
LINE
5
370
100
AcDbEntity
8
0
100
AcDbLine
10
-25.508074340771678
20
-17.856449302284531
30
0
11
-25.508074340771678
21
-16.613040979950242
31
0
0
LINE
5
371
100
AcDbEntity
8
0
100
AcDbLine
10
-25.508074340771678
20
-16.613040979950242
30
0
11
-25.854509649228099
21
-16.613040979950242
31
0
0
LINE
5
372
100
AcDbEntity
8
0
100
AcDbLine
10
-25.854509649228099
20
-16.613040979950242
30
0
11
-25.854509649228099
21
-16.011478718368821
31
0
0
LINE
5
373
100
AcDbEntity
8
0
100
AcDbLine
10
-25.854509649228099
20
-16.011478718368821
30
0
11
-25.508074340771678
21
-16.011478718368821
31
0
0
LINE
5
374
100
AcDbEntity
8
0
100
AcDbLine
10
-25.508074340771678
20
-16.011478718368821
30
0
11
-25.508074340771678
21
-15.444828089325242
31
0
0
LINE
5
375
100
AcDbEntity
8
0
100
AcDbLine
10
-25.508074340771678
20
-15.444828089325242
30
0
11
-24.750750837277415
21
-15.004398640243821
31
0
0
LINE
5
376
100
AcDbEntity
8
0
100
AcDbLine
10
-24.750750837277415
20
-15.004398640243821
30
0
11
-24.750750837277415
21
-16.011478718368821
31
0
0
LINE
5
377
100
AcDbEntity
8
0
100
AcDbLine
10
-24.750750837277415
20
-16.011478718368821
30
0
11
-24.235125360440257
21
-16.011478718368821
31
0
0
LINE
5
378
100
AcDbEntity
8
0
100
AcDbLine
10
-22.059832391690257
20
-17.955815013496689
30
0
11
-21.307879266690257
21
-18.082035001365952
31
0
0
SPLINE
5
379
100
AcDbEntity
8
0
100
AcDbSpline
70
0
71
2
72
6
73
3
74
0
42
0.000000001
43
0.0000000001
44
0.0000000001
40
0
40
0
40
0
40
1
40
1
40
1
10
-21.307879266690257
20
-18.082035001365952
30
0
10
-21.452898559521678
20
-18.495608981697373
30
0
10
-21.765764532040599
20
-18.71179622039061
30
0
0
SPLINE
5
380
100
AcDbEntity
8
0
100
AcDbSpline
70
0
71
2
72
6
73
3
74
0
42
0.000000001
43
0.0000000001
44
0.0000000001
40
0
40
0
40
0
40
1
40
1
40
1
10
-21.765764532040599
20
-18.71179622039061
30
0
10
-22.078631696652415
20
-18.927982266990952
30
0
10
-22.548602399777415
20
-18.927982266990952
30
0
0
SPLINE
5
381
100
AcDbEntity
8
0
100
AcDbSpline
70
0
71
2
72
6
73
3
74
0
42
0.000000001
43
0.0000000001
44
0.0000000001
40
0
40
0
40
0
40
1
40
1
40
1
10
-22.548602399777415
20
-18.927982266990952
30
0
10
-23.292498168896678
20
-18.927982266990952
30
0
10
-23.649676618527415
20
-18.441898044197373
30
0
0
SPLINE
5
382
100
AcDbEntity
8
0
100
AcDbSpline
70
0
71
2
72
6
73
3
74
0
42
0.000000001
43
0.0000000001
44
0.0000000001
40
0
40
0
40
0
40
1
40
1
40
1
10
-23.649676618527415
20
-18.441898044197373
30
0
10
-23.931659040402415
20
-18.052493747322373
30
0
10
-23.931659040402415
20
-17.458988245575242
30
0
0
SPLINE
5
383
100
AcDbEntity
8
0
100
AcDbSpline
70
0
71
2
72
6
73
3
74
0
42
0.000000001
43
0.0000000001
44
0.0000000001
40
0
40
0
40
0
40
1
40
1
40
1
10
-23.931659040402415
20
-17.458988245575242
30
0
10
-23.931659040402415
20
-16.750004108993821
30
0
10
-23.561052856396678
20
-16.34851497039061
30
0
0
SPLINE
5
384
100
AcDbEntity
8
0
100
AcDbSpline
70
0
71
2
72
6
73
3
74
0
42
0.000000001
43
0.0000000001
44
0.0000000001
40
0
40
0
40
0
40
1
40
1
40
1
10
-23.561052856396678
20
-16.34851497039061
30
0
10
-23.190446672390941
20
-15.947025235740952
30
0
10
-22.623797235440257
20
-15.947025235740952
30
0
0
SPLINE
5
385
100
AcDbEntity
8
0
100
AcDbSpline
70
0
71
2
72
6
73
3
74
0
42
0.000000001
43
0.0000000001
44
0.0000000001
40
0
40
0
40
0
40
1
40
1
40
1
10
-22.623797235440257
20
-15.947025235740952
30
0
10
-21.987322149228099
20
-15.947025235740952
30
0
10
-21.619401750515941
20
-16.367313679306321
30
0
0
SPLINE
5
386
100
AcDbEntity
8
0
100
AcDbSpline
70
0
71
2
72
6
73
3
74
0
42
0.000000001
43
0.0000000001
44
0.0000000001
40
0
40
0
40
0
40
1
40
1
40
1
10
-21.619401750515941
20
-16.367313679306321
30
0
10
-21.251482543896678
20
-16.787601526825242
30
0
10
-21.267596063565257
20
-17.655033286659531
30
0
0
LINE
5
387
100
AcDbEntity
8
0
100
AcDbLine
10
-21.267596063565257
20
-17.655033286659531
30
0
11
-23.158220825146678
21
-17.655033286659531
31
0
0
SPLINE
5
388
100
AcDbEntity
8
0
100
AcDbSpline
70
0
71
2
72
6
73
3
74
0
42
0.000000001
43
0.0000000001
44
0.0000000001
40
0
40
0
40
0
40
1
40
1
40
1
10
-23.158220825146678
20
-17.655033286659531
30
0
10
-23.150163469265941
20
-17.990726646034531
30
0
10
-22.975602922390941
20
-18.177372630684189
30
0
0
SPLINE
5
389
100
AcDbEntity
8
0
100
AcDbSpline
70
0
71
2
72
6
73
3
74
0
42
0.000000001
43
0.0000000001
44
0.0000000001
40
0
40
0
40
0
40
1
40
1
40
1
10
-22.975602922390941
20
-18.177372630684189
30
0
10
-22.801042375515941
20
-18.364017423240952
30
0
10
-22.540545043896678
20
-18.364017423240952
30
0
0
SPLINE
5
390
100
AcDbEntity
8
0
100
AcDbSpline
70
0
71
2
72
6
73
3
74
0
42
0.000000001
43
0.0000000001
44
0.0000000001
40
0
40
0
40
0
40
1
40
1
40
1
10
-22.540545043896678
20
-18.364017423240952
30
0
10
-22.363298711728099
20
-18.364017423240952
30
0
10
-22.242449102353099
20
-18.267337497322373
30
0
0
SPLINE
5
391
100
AcDbEntity
8
0
100
AcDbSpline
70
0
71
2
72
6
73
3
74
0
42
0.000000001
43
0.0000000001
44
0.0000000001
40
0
40
0
40
0
40
1
40
1
40
1
10
-22.242449102353099
20
-18.267337497322373
30
0
10
-22.121599492978099
20
-18.170658763496689
30
0
10
-22.059832391690257
20
-17.955815013496689
30
0
0
SPLINE
5
392
100
AcDbEntity
8
0
100
AcDbSpline
70
0
71
2
72
6
73
3
74
0
42
0.000000001
43
0.0000000001
44
0.0000000001
40
0
40
0
40
0
40
1
40
1
40
1
10
-22.016863403271678
20
-17.193119343368821
30
0
10
-22.024920759152415
20
-16.86548274382811
30
0
10
-22.186053571652415
20
-16.694950278847031
30
0
0
SPLINE
5
393
100
AcDbEntity
8
0
100
AcDbSpline
70
0
71
2
72
6
73
3
74
0
42
0.000000001
43
0.0000000001
44
0.0000000001
40
0
40
0
40
0
40
1
40
1
40
1
10
-22.186053571652415
20
-16.694950278847031
30
0
10
-22.347186384152415
20
-16.524417813865952
30
0
10
-22.578142461728099
20
-16.524417813865952
30
0
0
SPLINE
5
394
100
AcDbEntity
8
0
100
AcDbSpline
70
0
71
2
72
6
73
3
74
0
42
0.000000001
43
0.0000000001
44
0.0000000001
40
0
40
0
40
0
40
1
40
1
40
1
10
-22.578142461728099
20
-16.524417813865952
30
0
10
-22.825213251065257
20
-16.524417813865952
30
0
10
-22.986346063565257
20
-16.70434993132811
30
0
0
SPLINE
5
395
100
AcDbEntity
8
0
100
AcDbSpline
70
0
71
2
72
6
73
3
74
0
42
0.000000001
43
0.0000000001
44
0.0000000001
40
0
40
0
40
0
40
1
40
1
40
1
10
-22.986346063565257
20
-16.70434993132811
30
0
10
-23.147478876065257
20
-16.884281452743821
30
0
10
-23.144793090771678
20
-17.193119343368821
30
0
0
LINE
5
396
100
AcDbEntity
8
0
100
AcDbLine
10
-23.144793090771678
20
-17.193119343368821
30
0
11
-22.016863403271678
21
-17.193119343368821
31
0
0
LINE
5
397
100
AcDbEntity
8
0
100
AcDbLine
10
-18.058367547940261
20
-18.863529380409531
30
0
11
-18.813005266140944
21
-18.863529380409531
31
0
0
LINE
5
398
100
AcDbEntity
8
0
100
AcDbLine
10
-18.813005266140944
20
-18.863529380409531
30
0
11
-18.813005266140944
21
-17.407963093368821
31
0
0
SPLINE
5
399
100
AcDbEntity
8
0
100
AcDbSpline
70
0
71
2
72
6
73
3
74
0
42
0.000000001
43
0.0000000001
44
0.0000000001
40
0
40
0
40
0
40
1
40
1
40
1
10
-18.813005266140944
20
-17.407963093368821
30
0
10
-18.813005266140944
20
-16.94604915007811
30
0
10
-18.861347017239577
20
-16.810428913681321
30
0
0
SPLINE
5
400
100
AcDbEntity
8
0
100
AcDbSpline
70
0
71
2
72
6
73
3
74
0
42
0.000000001
43
0.0000000001
44
0.0000000001
40
0
40
0
40
0
40
1
40
1
40
1
10
-18.861347017239577
20
-16.810428913681321
30
0
10
-18.909683999966628
20
-16.674808677284531
30
0
10
-19.018450555752761
20
-16.599613245575242
30
0
0
SPLINE
5
401
100
AcDbEntity
8
0
100
AcDbSpline
70
0
71
2
72
6
73
3
74
0
42
0.000000001
43
0.0000000001
44
0.0000000001
40
0
40
0
40
0
40
1
40
1
40
1
10
-19.018450555752761
20
-16.599613245575242
30
0
10
-19.127214727353103
20
-16.524417813865952
30
0
10
-19.280291376065261
20
-16.524417813865952
30
0
0
SPLINE
5
402
100
AcDbEntity
8
0
100
AcDbSpline
70
0
71
2
72
6
73
3
74
0
42
0.000000001
43
0.0000000001
44
0.0000000001
40
0
40
0
40
0
40
1
40
1
40
1
10
-19.280291376065261
20
-16.524417813865952
30
0
10
-19.476335821103103
20
-16.524417813865952
30
0
10
-19.632097063015944
20
-16.631839688865952
30
0
0
SPLINE
5
403
100
AcDbEntity
8
0
100
AcDbSpline
70
0
71
2
72
6
73
3
74
0
42
0.000000001
43
0.0000000001
44
0.0000000001
40
0
40
0
40
0
40
1
40
1
40
1
10
-19.632097063015944
20
-16.631839688865952
30
0
10
-19.787860689114577
20
-16.739261563865952
30
0
10
-19.845598516415603
20
-16.916507896034531
30
0
0
SPLINE
5
404
100
AcDbEntity
8
0
100
AcDbSpline
70
0
71
2
72
6
73
3
74
0
42
0.000000001
43
0.0000000001
44
0.0000000001
40
0
40
0
40
0
40
1
40
1
40
1
10
-19.845598516415603
20
-16.916507896034531
30
0
10
-19.903336343716628
20
-17.09375422820311
30
0
10
-19.903336343716628
20
-17.571781095115952
30
0
0
LINE
5
405
100
AcDbEntity
8
0
100
AcDbLine
10
-19.903336343716628
20
-17.571781095115952
30
0
11
-19.903336343716628
21
-18.863529380409531
31
0
0
LINE
5
406
100
AcDbEntity
8
0
100
AcDbLine
10
-19.903336343716628
20
-18.863529380409531
30
0
11
-20.657976446103103
21
-18.863529380409531
31
0
0
LINE
5
407
100
AcDbEntity
8
0
100
AcDbLine
10
-20.657976446103099
20
-18.863529380409531
30
0
11
-20.657976446103099
21
-16.011478122322373
31
0
0
LINE
5
408
100
AcDbEntity
8
0
100
AcDbLine
10
-20.657976446103099
20
-16.011478122322373
30
0
11
-19.957047281216624
21
-16.011478122322373
31
0
0
LINE
5
409
100
AcDbEntity
8
0
100
AcDbLine
10
-19.957047281216628
20
-16.011478122322373
30
0
11
-19.957047281216628
21
-16.430423673240952
31
0
0
SPLINE
5
410
100
AcDbEntity
8
0
100
AcDbSpline
70
0
71
2
72
6
73
3
74
0
42
0.000000001
43
0.0000000001
44
0.0000000001
40
0
40
0
40
0
40
1
40
1
40
1
10
-19.957047281216628
20
-16.430423673240952
30
0
10
-19.583757696103103
20
-15.947025235740952
30
0
10
-19.017105874966628
20
-15.947025235740952
30
0
0
SPLINE
5
411
100
AcDbEntity
8
0
100
AcDbSpline
70
0
71
2
72
6
73
3
74
0
42
0.000000001
43
0.0000000001
44
0.0000000001
40
0
40
0
40
0
40
1
40
1
40
1
10
-19.017105874966628
20
-15.947025235740952
30
0
10
-18.767352876614577
20
-15.947025235740952
30
0
10
-18.560562906216628
20
-16.036991294472031
30
0
0
SPLINE
5
412
100
AcDbEntity
8
0
100
AcDbSpline
70
0
71
2
72
6
73
3
74
0
42
0.000000001
43
0.0000000001
44
0.0000000001
40
0
40
0
40
0
40
1
40
1
40
1
10
-18.560562906216628
20
-16.036991294472031
30
0
10
-18.353777704190261
20
-16.12695735320311
30
0
10
-18.247698125790603
20
-16.266605075447373
30
0
0
SPLINE
5
413
100
AcDbEntity
8
0
100
AcDbSpline
70
0
71
2
72
6
73
3
74
0
42
0.000000001
43
0.0000000001
44
0.0000000001
40
0
40
0
40
0
40
1
40
1
40
1
10
-18.247698125790603
20
-16.266605075447373
30
0
10
-18.141618547390944
20
-16.406253989784531
30
0
10
-18.099993047665603
20
-16.58350032195311
30
0
0
SPLINE
5
414
100
AcDbEntity
8
0
100
AcDbSpline
70
0
71
2
72
6
73
3
74
0
42
0.000000001
43
0.0000000001
44
0.0000000001
40
0
40
0
40
0
40
1
40
1
40
1
10
-18.099993047665603
20
-16.58350032195311
30
0
10
-18.058367547940261
20
-16.760746058075242
30
0
10
-18.058367547940261
20
-17.091068442909531
30
0
0
LINE
5
415
100
AcDbEntity
8
0
100
AcDbLine
10
-18.058367547940261
20
-17.091068442909531
30
0
11
-18.058367547940261
21
-18.863529380409531
31
0
0
LINE
5
416
100
AcDbEntity
8
0
100
AcDbLine
10
-15.985124883603103
20
-16.011478718368821
30
0
11
-15.985124883603103
21
-16.613040979950242
31
0
0
LINE
5
417
100
AcDbEntity
8
0
100
AcDbLine
10
-15.985124883603103
20
-16.613040979950242
30
0
11
-16.500750360440261
21
-16.613040979950242
31
0
0
LINE
5
418
100
AcDbEntity
8
0
100
AcDbLine
10
-16.500750360440261
20
-16.613040979950242
30
0
11
-16.500750360440261
21
-17.762455161659531
31
0
0
SPLINE
5
419
100
AcDbEntity
8
0
100
AcDbSpline
70
0
71
2
72
6
73
3
74
0
42
0.000000001
43
0.0000000001
44
0.0000000001
40
0
40
0
40
0
40
1
40
1
40
1
10
-16.500750360440261
20
-17.762455161659531
30
0
10
-16.500750360440261
20
-18.111576255409531
30
0
10
-16.485977945279128
20
-18.169315274803452
30
0
0
SPLINE
5
420
100
AcDbEntity
8
0
100
AcDbSpline
70
0
71
2
72
6
73
3
74
0
42
0.000000001
43
0.0000000001
44
0.0000000001
40
0
40
0
40
0
40
1
40
1
40
1
10
-16.485977945279128
20
-18.169315274803452
30
0
10
-16.471207914303786
20
-18.227054294197373
30
0
10
-16.418839273404128
20
-18.264652904121689
30
0
0
SPLINE
5
421
100
AcDbEntity
8
0
100
AcDbSpline
70
0
71
2
72
6
73
3
74
0
42
0.000000001
43
0.0000000001
44
0.0000000001
40
0
40
0
40
0
40
1
40
1
40
1
10
-16.418839273404128
20
-18.264652904121689
30
0
10
-16.366473016690261
20
-18.30225032195311
30
0
10
-16.291275796841628
20
-18.30225032195311
30
0
0
SPLINE
5
422
100
AcDbEntity
8
0
100
AcDbSpline
70
0
71
2
72
6
73
3
74
0
42
0.000000001
43
0.0000000001
44
0.0000000001
40
0
40
0
40
0
40
1
40
1
40
1
10
-16.291275796841628
20
-18.30225032195311
30
0
10
-16.186540899228103
20
-18.30225032195311
30
0
10
-15.987809476803786
20
-18.229740079490952
30
0
0
LINE
5
423
100
AcDbEntity
8
0
100
AcDbLine
10
-15.987809476803786
20
-18.229740079490952
30
0
11
-15.923357782315261
21
-18.815190013496689
31
0
0
SPLINE
5
424
100
AcDbEntity
8
0
100
AcDbSpline
70
0
71
2
72
6
73
3
74
0
42
0.000000001
43
0.0000000001
44
0.0000000001
40
0
40
0
40
0
40
1
40
1
40
1
10
-15.923357782315261
20
-18.815190013496689
30
0
10
-16.186540899228103
20
-18.927982266990952
30
0
10
-16.519547281216628
20
-18.927982266990952
30
0
0
SPLINE
5
425
100
AcDbEntity
8
0
100
AcDbSpline
70
0
71
2
72
6
73
3
74
0
42
0.000000001
43
0.0000000001
44
0.0000000001
40
0
40
0
40
0
40
1
40
1
40
1
10
-16.519547281216628
20
-18.927982266990952
30
0
10
-16.723650274228103
20
-18.927982266990952
30
0
10
-16.887467679928786
20
-18.85950129851561
30
0
0
SPLINE
5
426
100
AcDbEntity
8
0
100
AcDbSpline
70
0
71
2
72
6
73
3
74
0
42
0.000000001
43
0.0000000001
44
0.0000000001
40
0
40
0
40
0
40
1
40
1
40
1
10
-16.887467679928786
20
-18.85950129851561
30
0
10
-17.051287469815261
20
-18.791019137947373
30
0
10
-17.127824602078444
20
-18.682254966347031
30
0
0
SPLINE
5
427
100
AcDbEntity
8
0
100
AcDbSpline
70
0
71
2
72
6
73
3
74
0
42
0.000000001
43
0.0000000001
44
0.0000000001
40
0
40
0
40
0
40
1
40
1
40
1
10
-17.127824602078444
20
-18.682254966347031
30
0
10
-17.204361734341628
20
-18.573490794746689
30
0
10
-17.233904180478103
20
-18.388187106697373
30
0
0
SPLINE
5
428
100
AcDbEntity
8
0
100
AcDbSpline
70
0
71
2
72
6
73
3
74
0
42
0.000000001
43
0.0000000001
44
0.0000000001
40
0
40
0
40
0
40
1
40
1
40
1
10
-17.233904180478103
20
-18.388187106697373
30
0
10
-17.258072671841628
20
-18.256595548240952
30
0
10
-17.258072671841628
20
-17.856449302284531
30
0
0
LINE
5
429
100
AcDbEntity
8
0
100
AcDbLine
10
-17.258072671841628
20
-17.856449302284531
30
0
11
-17.258072671841628
21
-16.613040979950242
31
0
0
LINE
5
430
100
AcDbEntity
8
0
100
AcDbLine
10
-17.258072671841628
20
-16.613040979950242
30
0
11
-17.604509172390944
21
-16.613040979950242
31
0
0
LINE
5
431
100
AcDbEntity
8
0
100
AcDbLine
10
-17.604509172390944
20
-16.613040979950242
30
0
11
-17.604509172390944
21
-16.011478718368821
31
0
0
LINE
5
432
100
AcDbEntity
8
0
100
AcDbLine
10
-17.604509172390944
20
-16.011478718368821
30
0
11
-17.258072671841628
21
-16.011478718368821
31
0
0
LINE
5
433
100
AcDbEntity
8
0
100
AcDbLine
10
-17.258072671841628
20
-16.011478718368821
30
0
11
-17.258072671841628
21
-15.444828089325242
31
0
0
LINE
5
434
100
AcDbEntity
8
0
100
AcDbLine
10
-17.258072671841628
20
-15.444828089325242
30
0
11
-16.500750360440261
21
-15.004398640243821
31
0
0
LINE
5
435
100
AcDbEntity
8
0
100
AcDbLine
10
-16.500750360440261
20
-15.004398640243821
30
0
11
-16.500750360440261
21
-16.011478718368821
31
0
0
LINE
5
436
100
AcDbEntity
8
0
100
AcDbLine
10
-16.500750360440261
20
-16.011478718368821
30
0
11
-15.985124883603103
21
-16.011478718368821
31
0
0
SPLINE
5
437
100
AcDbEntity
8
0
100
AcDbSpline
70
0
71
2
72
6
73
3
74
0
42
0.000000001
43
0.0000000001
44
0.0000000001
40
0
40
0
40
0
40
1
40
1
40
1
10
-15.636003789853103
20
-17.397220548240952
30
0
10
-15.636003789853103
20
-17.021243985740952
30
0
10
-15.450702485989577
20
-16.669437702743821
30
0
0
SPLINE
5
438
100
AcDbEntity
8
0
100
AcDbSpline
70
0
71
2
72
6
73
3
74
0
42
0.000000001
43
0.0000000001
44
0.0000000001
40
0
40
0
40
0
40
1
40
1
40
1
10
-15.450702485989577
20
-16.669437702743821
30
0
10
-15.265398797940261
20
-16.317630823700242
30
0
10
-14.925676164578444
20
-16.132328327743821
30
0
0
SPLINE
5
439
100
AcDbEntity
8
0
100
AcDbSpline
70
0
71
2
72
6
73
3
74
0
42
0.000000001
43
0.0000000001
44
0.0000000001
40
0
40
0
40
0
40
1
40
1
40
1
10
-14.925676164578444
20
-16.132328327743821
30
0
10
-14.585953531216628
20
-15.947025235740952
30
0
10
-14.167009172390944
20
-15.947025235740952
30
0
0
SPLINE
5
440
100
AcDbEntity
8
0
100
AcDbSpline
70
0
71
2
72
6
73
3
74
0
42
0.000000001
43
0.0000000001
44
0.0000000001
40
0
40
0
40
0
40
1
40
1
40
1
10
-14.167009172390944
20
-15.947025235740952
30
0
10
-13.519793329190261
20
-15.947025235740952
30
0
10
-13.106218156765944
20
-16.367313679306321
30
0
0
SPLINE
5
441
100
AcDbEntity
8
0
100
AcDbSpline
70
0
71
2
72
6
73
3
74
0
42
0.000000001
43
0.0000000001
44
0.0000000001
40
0
40
0
40
0
40
1
40
1
40
1
10
-13.106218156765944
20
-16.367313679306321
30
0
10
-12.692642984341628
20
-16.787601526825242
30
0
10
-12.692642984341628
20
-17.42944758757811
30
0
0
SPLINE
5
442
100
AcDbEntity
8
0
100
AcDbSpline
70
0
71
2
72
6
73
3
74
0
42
0.000000001
43
0.0000000001
44
0.0000000001
40
0
40
0
40
0
40
1
40
1
40
1
10
-12.692642984341628
20
-17.42944758757811
30
0
10
-12.692642984341628
20
-18.076664622871689
30
0
10
-13.110247430752761
20
-18.502322848884873
30
0
0
SPLINE
5
443
100
AcDbEntity
8
0
100
AcDbSpline
70
0
71
2
72
6
73
3
74
0
42
0.000000001
43
0.0000000001
44
0.0000000001
40
0
40
0
40
0
40
1
40
1
40
1
10
-13.110247430752761
20
-18.502322848884873
30
0
10
-13.527849492978103
20
-18.927982266990952
30
0
10
-14.161639985989577
20
-18.927982266990952
30
0
0
SPLINE
5
444
100
AcDbEntity
8
0
100
AcDbSpline
70
0
71
2
72
6
73
3
74
0
42
0.000000001
43
0.0000000001
44
0.0000000001
40
0
40
0
40
0
40
1
40
1
40
1
10
-14.161639985989577
20
-18.927982266990952
30
0
10
-14.553728876065261
20
-18.927982266990952
30
0
10
-14.909563837002761
20
-18.750735934822373
30
0
0
SPLINE
5
445
100
AcDbEntity
8
0
100
AcDbSpline
70
0
71
2
72
6
73
3
74
0
42
0.000000001
43
0.0000000001
44
0.0000000001
40
0
40
0
40
0
40
1
40
1
40
1
10
-14.909563837002761
20
-18.750735934822373
30
0
10
-15.265398797940261
20
-18.573490794746689
30
0
10
-15.450702485989577
20
-18.231083568184189
30
0
0
SPLINE
5
446
100
AcDbEntity
8
0
100
AcDbSpline
70
0
71
2
72
6
73
3
74
0
42
0.000000001
43
0.0000000001
44
0.0000000001
40
0
40
0
40
0
40
1
40
1
40
1
10
-15.450702485989577
20
-18.231083568184189
30
0
10
-15.636003789853103
20
-17.888676341621689
30
0
10
-15.636003789853103
20
-17.397220548240952
30
0
0
SPLINE
5
447
100
AcDbEntity
8
0
100
AcDbSpline
70
0
71
2
72
6
73
3
74
0
42
0.000000001
43
0.0000000001
44
0.0000000001
40
0
40
0
40
0
40
1
40
1
40
1
10
-14.862566766690261
20
-17.437503751365952
30
0
10
-14.862566766690261
20
-17.861820872871689
30
0
10
-14.661150751065261
20
-18.08740657195311
30
0
0
SPLINE
5
448
100
AcDbEntity
8
0
100
AcDbSpline
70
0
71
2
72
6
73
3
74
0
42
0.000000001
43
0.0000000001
44
0.0000000001
40
0
40
0
40
0
40
1
40
1
40
1
10
-14.661150751065261
20
-18.08740657195311
30
0
10
-14.459734735440261
20
-18.312992271034531
30
0
10
-14.164324579190261
20
-18.312992271034531
30
0
0
SPLINE
5
449
100
AcDbEntity
8
0
100
AcDbSpline
70
0
71
2
72
6
73
3
74
0
42
0.000000001
43
0.0000000001
44
0.0000000001
40
0
40
0
40
0
40
1
40
1
40
1
10
-14.164324579190261
20
-18.312992271034531
30
0
10
-13.868914422940261
20
-18.312992271034531
30
0
10
-13.668840703915603
20
-18.08740657195311
30
0
0
SPLINE
5
450
100
AcDbEntity
8
0
100
AcDbSpline
70
0
71
2
72
6
73
3
74
0
42
0.000000001
43
0.0000000001
44
0.0000000001
40
0
40
0
40
0
40
1
40
1
40
1
10
-13.668840703915603
20
-18.08740657195311
30
0
10
-13.468766984890944
20
-17.861820872871689
30
0
10
-13.468766984890944
20
-17.432132776825242
30
0
0
SPLINE
5
451
100
AcDbEntity
8
0
100
AcDbSpline
70
0
71
2
72
6
73
3
74
0
42
0.000000001
43
0.0000000001
44
0.0000000001
40
0
40
0
40
0
40
1
40
1
40
1
10
-13.468766984890944
20
-17.432132776825242
30
0
10
-13.468766984890944
20
-17.01318782195311
30
0
10
-13.668840703915603
20
-16.787601526825242
30
0
0
SPLINE
5
452
100
AcDbEntity
8
0
100
AcDbSpline
70
0
71
2
72
6
73
3
74
0
42
0.000000001
43
0.0000000001
44
0.0000000001
40
0
40
0
40
0
40
1
40
1
40
1
10
-13.668840703915603
20
-16.787601526825242
30
0
10
-13.868914422940261
20
-16.562015827743821
30
0
10
-14.164324579190261
20
-16.562015827743821
30
0
0
SPLINE
5
453
100
AcDbEntity
8
0
100
AcDbSpline
70
0
71
2
72
6
73
3
74
0
42
0.000000001
43
0.0000000001
44
0.0000000001
40
0
40
0
40
0
40
1
40
1
40
1
10
-14.164324579190261
20
-16.562015827743821
30
0
10
-14.459734735440261
20
-16.562015827743821
30
0
10
-14.661150751065261
20
-16.787601526825242
30
0
0
SPLINE
5
454
100
AcDbEntity
8
0
100
AcDbSpline
70
0
71
2
72
6
73
3
74
0
42
0.000000001
43
0.0000000001
44
0.0000000001
40
0
40
0
40
0
40
1
40
1
40
1
10
-14.661150751065261
20
-16.787601526825242
30
0
10
-14.862566766690261
20
-17.01318782195311
30
0
10
-14.862566766690261
20
-17.437503751365952
30
0
0
LINE
5
455
100
AcDbEntity
8
0
100
AcDbLine
10
-11.379411992978103
20
-18.863529380409531
30
0
11
-12.134052095364577
21
-18.863529380409531
31
0
0
LINE
5
456
100
AcDbEntity
8
0
100
AcDbLine
10
-12.134052095364577
20
-18.863529380409531
30
0
11
-12.134052095364577
21
-16.011478122322373
31
0
0
LINE
5
457
100
AcDbEntity
8
0
100
AcDbLine
10
-12.134052095364577
20
-16.011478122322373
30
0
11
-11.433122930478103
21
-16.011478122322373
31
0
0
LINE
5
458
100
AcDbEntity
8
0
100
AcDbLine
10
-11.433122930478103
20
-16.011478122322373
30
0
11
-11.433122930478103
21
-16.416995938865952
31
0
0
SPLINE
5
459
100
AcDbEntity
8
0
100
AcDbSpline
70
0
71
2
72
6
73
3
74
0
42
0.000000001
43
0.0000000001
44
0.0000000001
40
0
40
0
40
0
40
1
40
1
40
1
10
-11.433122930478103
20
-16.416995938865952
30
0
10
-11.253190813015944
20
-16.129642542450242
30
0
10
-11.109515008877761
20
-16.038333591072373
30
0
0
SPLINE
5
460
100
AcDbEntity
8
0
100
AcDbSpline
70
0
71
2
72
6
73
3
74
0
42
0.000000001
43
0.0000000001
44
0.0000000001
40
0
40
0
40
0
40
1
40
1
40
1
10
-11.109515008877761
20
-16.038333591072373
30
0
10
-10.965839204739577
20
-15.947025235740952
30
0
10
-10.783220109890944
20
-15.947025235740952
30
0
0
SPLINE
5
461
100
AcDbEntity
8
0
100
AcDbSpline
70
0
71
2
72
6
73
3
74
0
42
0.000000001
43
0.0000000001
44
0.0000000001
40
0
40
0
40
0
40
1
40
1
40
1
10
-10.783220109890944
20
-15.947025235740952
30
0
10
-10.525408563565261
20
-15.947025235740952
30
0
10
-10.286393938015944
20
-16.089359339325242
30
0
0
LINE
5
462
100
AcDbEntity
8
0
100
AcDbLine
10
-10.286393938015944
20
-16.089359339325242
30
0
11
-10.520036992978103
21
-16.747318323700242
31
0
0
SPLINE
5
463
100
AcDbEntity
8
0
100
AcDbSpline
70
0
71
2
72
6
73
3
74
0
42
0.000000001
43
0.0000000001
44
0.0000000001
40
0
40
0
40
0
40
1
40
1
40
1
10
-10.520036992978103
20
-16.747318323700242
30
0
10
-10.710712251614577
20
-16.62378352507811
30
0
10
-10.874529657315261
20
-16.62378352507811
30
0
0
SPLINE
5
464
100
AcDbEntity
8
0
100
AcDbSpline
70
0
71
2
72
6
73
3
74
0
42
0.000000001
43
0.0000000001
44
0.0000000001
40
0
40
0
40
0
40
1
40
1
40
1
10
-10.874529657315261
20
-16.62378352507811
30
0
10
-11.032977876614577
20
-16.62378352507811
30
0
10
-11.143084344815261
20
-16.71106379851561
30
0
0
SPLINE
5
465
100
AcDbEntity
8
0
100
AcDbSpline
70
0
71
2
72
6
73
3
74
0
42
0.000000001
43
0.0000000001
44
0.0000000001
40
0
40
0
40
0
40
1
40
1
40
1
10
-11.143084344815261
20
-16.71106379851561
30
0
10
-11.253190813015944
20
-16.79834407195311
30
0
10
-11.316300210904128
20
-17.02661555632811
30
0
0
SPLINE
5
466
100
AcDbEntity
8
0
100
AcDbSpline
70
0
71
2
72
6
73
3
74
0
42
0.000000001
43
0.0000000001
44
0.0000000001
40
0
40
0
40
0
40
1
40
1
40
1
10
-11.316300210904128
20
-17.02661555632811
30
0
10
-11.379411992978103
20
-17.25488704070311
30
0
10
-11.379411992978103
20
-17.982670482246689
30
0
0
LINE
5
467
100
AcDbEntity
8
0
100
AcDbLine
10
-11.379411992978103
20
-17.982670482246689
30
0
11
-11.379411992978103
21
-18.863529380409531
31
0
0
LINE
5
468
100
AcDbEntity
8
0
100
AcDbLine
10
-7.4370296573152617
20
-17.41601985320311
30
0
11
-6.6662772273531035
21
-17.660404261200242
31
0
0
SPLINE
5
469
100
AcDbEntity
8
0
100
AcDbSpline
70
0
71
2
72
6
73
3
74
0
42
0.000000001
43
0.0000000001
44
0.0000000001
40
0
40
0
40
0
40
1
40
1
40
1
10
-6.6662772273531035
20
-17.660404261200242
30
0
10
-6.8435223674287871
20
-18.304936107246689
30
0
10
-7.2557552432527617
20
-18.61780207976561
30
0
0
SPLINE
5
470
100
AcDbEntity
8
0
100
AcDbSpline
70
0
71
2
72
6
73
3
74
0
42
0.000000001
43
0.0000000001
44
0.0000000001
40
0
40
0
40
0
40
1
40
1
40
1
10
-7.2557552432527617
20
-18.61780207976561
30
0
10
-7.6679857348909453
20
-18.930668052284531
30
0
10
-8.301773843716628
20
-18.930668052284531
30
0
0
SPLINE
5
471
100
AcDbEntity
8
0
100
AcDbSpline
70
0
71
2
72
6
73
3
74
0
42
0.000000001
43
0.0000000001
44
0.0000000001
40
0
40
0
40
0
40
1
40
1
40
1
10
-8.301773843716628
20
-18.930668052284531
30
0
10
-9.0859540080537862
20
-18.930668052284531
30
0
10
-9.590836343716628
20
-18.394900973884873
30
0
0
SPLINE
5
472
100
AcDbEntity
8
0
100
AcDbSpline
70
0
71
2
72
6
73
3
74
0
42
0.000000001
43
0.0000000001
44
0.0000000001
40
0
40
0
40
0
40
1
40
1
40
1
10
-9.590836343716628
20
-18.394900973884873
30
0
10
-10.095721063565261
20
-17.85913508757811
30
0
10
-10.095721063565261
20
-16.929935630409531
30
0
0
SPLINE
5
473
100
AcDbEntity
8
0
100
AcDbSpline
70
0
71
2
72
6
73
3
74
0
42
0.000000001
43
0.0000000001
44
0.0000000001
40
0
40
0
40
0
40
1
40
1
40
1
10
-10.095721063565261
20
-16.929935630409531
30
0
10
-10.095721063565261
20
-15.947025235740952
30
0
10
-9.5881517505159444
20
-15.403201993553452
30
0
0
SPLINE
5
474
100
AcDbEntity
8
0
100
AcDbSpline
70
0
71
2
72
6
73
3
74
0
42
0.000000001
43
0.0000000001
44
0.0000000001
40
0
40
0
40
0
40
1
40
1
40
1
10
-9.5881517505159444
20
-15.403201993553452
30
0
10
-9.080582437466628
20
-14.859378751365952
30
0
10
-8.2534344768037862
20
-14.859378751365952
30
0
0
SPLINE
5
475
100
AcDbEntity
8
0
100
AcDbSpline
70
0
71
2
72
6
73
3
74
0
42
0.000000001
43
0.0000000001
44
0.0000000001
40
0
40
0
40
0
40
1
40
1
40
1
10
-8.2534344768037862
20
-14.859378751365952
30
0
10
-7.5310237979402617
20
-14.859378751365952
30
0
10
-7.0798500155916289
20
-15.286380466072373
30
0
0
SPLINE
5
476
100
AcDbEntity
8
0
100
AcDbSpline
70
0
71
2
72
6
73
3
74
0
42
0.000000001
43
0.0000000001
44
0.0000000001
40
0
40
0
40
0
40
1
40
1
40
1
10
-7.0798500155916289
20
-15.286380466072373
30
0
10
-6.8112953280916289
20
-15.538822229950242
30
0
10
-6.6770179843416289
20
-16.011478122322373
30
0
0
LINE
5
477
100
AcDbEntity
8
0
100
AcDbLine
10
-6.6770179843416289
20
-16.011478122322373
30
0
11
-7.4638851260652617
21
-16.199466403572373
31
0
0
SPLINE
5
478
100
AcDbEntity
8
0
100
AcDbSpline
70
0
71
2
72
6
73
3
74
0
42
0.000000001
43
0.0000000001
44
0.0000000001
40
0
40
0
40
0
40
1
40
1
40
1
10
-7.4638851260652617
20
-16.199466403572373
30
0
10
-7.5337083911409453
20
-15.893314298240952
30
0
10
-7.7552660083284453
20
-15.716067966072373
30
0
0
SPLINE
5
479
100
AcDbEntity
8
0
100
AcDbSpline
70
0
71
2
72
6
73
3
74
0
42
0.000000001
43
0.0000000001
44
0.0000000001
40
0
40
0
40
0
40
1
40
1
40
1
10
-7.7552660083284453
20
-15.716067966072373
30
0
10
-7.9768236255159453
20
-15.538822229950242
30
0
10
-8.2937176799287862
20
-15.538822229950242
30
0
0
SPLINE
5
480
100
AcDbEntity
8
0
100
AcDbSpline
70
0
71
2
72
6
73
3
74
0
42
0.000000001
43
0.0000000001
44
0.0000000001
40
0
40
0
40
0
40
1
40
1
40
1
10
-8.2937176799287862
20
-15.538822229950242
30
0
10
-8.731461343716628
20
-15.538822229950242
30
0
10
-9.0040453052034444
20
-15.853031095115952
30
0
0
SPLINE
5
481
100
AcDbEntity
8
0
100
AcDbSpline
70
0
71
2
72
6
73
3
74
0
42
0.000000001
43
0.0000000001
44
0.0000000001
40
0
40
0
40
0
40
1
40
1
40
1
10
-9.0040453052034444
20
-15.853031095115952
30
0
10
-9.2766292666902608
20
-16.16724055632811
30
0
10
-9.2766292666902608
20
-16.870853718368821
30
0
0
SPLINE
5
482
100
AcDbEntity
8
0
100
AcDbSpline
70
0
71
2
72
6
73
3
74
0
42
0.000000001
43
0.0000000001
44
0.0000000001
40
0
40
0
40
0
40
1
40
1
40
1
10
-9.2766292666902608
20
-16.870853718368821
30
0
10
-9.2766292666902608
20
-17.61743586882811
30
0
10
-9.0080745791902608
20
-17.934329923240952
30
0
0
SPLINE
5
483
100
AcDbEntity
8
0
100
AcDbSpline
70
0
71
2
72
6
73
3
74
0
42
0.000000001
43
0.0000000001
44
0.0000000001
40
0
40
0
40
0
40
1
40
1
40
1
10
-9.0080745791902608
20
-17.934329923240952
30
0
10
-8.7395198916902608
20
-18.251225169746689
30
0
10
-8.3098323916902608
20
-18.251225169746689
30
0
0
SPLINE
5
484
100
AcDbEntity
8
0
100
AcDbSpline
70
0
71
2
72
6
73
3
74
0
42
0.000000001
43
0.0000000001
44
0.0000000001
40
0
40
0
40
0
40
1
40
1
40
1
10
-8.3098323916902608
20
-18.251225169746689
30
0
10
-7.9929359530916289
20
-18.251225169746689
30
0
10
-7.7646644687166289
20
-18.049809154121689
30
0
0
SPLINE
5
485
100
AcDbEntity
8
0
100
AcDbSpline
70
0
71
2
72
6
73
3
74
0
42
0.000000001
43
0.0000000001
44
0.0000000001
40
0
40
0
40
0
40
1
40
1
40
1
10
-7.7646644687166289
20
-18.049809154121689
30
0
10
-7.5363929843416289
20
-17.848393138496689
30
0
10
-7.4370296573152617
20
-17.41601985320311
30
0
0
LINE
5
486
100
AcDbEntity
8
0
100
AcDbLine
10
-5.4255540942659453
20
-16.881595667450242
30
0
11
-6.1103685473909453
21
-16.75806086882811
31
0
0
SPLINE
5
487
100
AcDbEntity
8
0
100
AcDbSpline
70
0
71
2
72
6
73
3
74
0
42
0.000000001
43
0.0000000001
44
0.0000000001
40
0
40
0
40
0
40
1
40
1
40
1
10
-6.1103685473909453
20
-16.75806086882811
30
0
10
-5.9948905086031035
20
-16.344486292450242
30
0
10
-5.7129080867281035
20
-16.145756062118821
30
0
0
SPLINE
5
488
100
AcDbEntity
8
0
100
AcDbSpline
70
0
71
2
72
6
73
3
74
0
42
0.000000001
43
0.0000000001
44
0.0000000001
40
0
40
0
40
0
40
1
40
1
40
1
10
-5.7129080867281035
20
-16.145756062118821
30
0
10
-5.4309256648531035
20
-15.947025235740952
30
0
10
-4.8750169848909453
20
-15.947025235740952
30
0
0
SPLINE
5
489
100
AcDbEntity
8
0
100
AcDbSpline
70
0
71
2
72
6
73
3
74
0
42
0.000000001
43
0.0000000001
44
0.0000000001
40
0
40
0
40
0
40
1
40
1
40
1
10
-4.8750169848909453
20
-15.947025235740952
30
0
10
-4.3701346492281035
20
-15.947025235740952
30
0
10
-4.1230638598909453
20
-16.06653254851561
30
0
0
SPLINE
5
490
100
AcDbEntity
8
0
100
AcDbSpline
70
0
71
2
72
6
73
3
74
0
42
0.000000001
43
0.0000000001
44
0.0000000001
40
0
40
0
40
0
40
1
40
1
40
1
10
-4.1230638598909453
20
-16.06653254851561
30
0
10
-3.8759954547395781
20
-16.186039265243821
30
0
10
-3.7752874469270781
20
-16.369998868553452
30
0
0
SPLINE
5
491
100
AcDbEntity
8
0
100
AcDbSpline
70
0
71
2
72
6
73
3
74
0
42
0.000000001
43
0.0000000001
44
0.0000000001
40
0
40
0
40
0
40
1
40
1
40
1
10
-3.7752874469270781
20
-16.369998868553452
30
0
10
-3.6745794391145781
20
-16.553959067909531
30
0
10
-3.6745794391145781
20
-17.045414265243821
30
0
0
LINE
5
492
100
AcDbEntity
8
0
100
AcDbLine
10
-3.6745794391145781
20
-17.045414265243821
30
0
11
-3.6826356029024199
21
-17.92627375945311
31
0
0
SPLINE
5
493
100
AcDbEntity
8
0
100
AcDbSpline
70
0
71
2
72
6
73
3
74
0
42
0.000000001
43
0.0000000001
44
0.0000000001
40
0
40
0
40
0
40
1
40
1
40
1
10
-3.6826356029024199
20
-17.92627375945311
30
0
10
-3.6826356029024199
20
-18.30225032195311
30
0
10
-3.6463792895784453
20
-18.480838950722031
30
0
0
SPLINE
5
494
100
AcDbEntity
8
0
100
AcDbSpline
70
0
71
2
72
6
73
3
74
0
42
0.000000001
43
0.0000000001
44
0.0000000001
40
0
40
0
40
0
40
1
40
1
40
1
10
-3.6463792895784453
20
-18.480838950722031
30
0
10
-3.6101253604402617
20
-18.659427579490952
30
0
10
-3.5107596492281035
20
-18.863529380409531
30
0
0
LINE
5
495
100
AcDbEntity
8
0
100
AcDbLine
10
-3.5107596492281035
20
-18.863529380409531
30
0
11
-4.2573412036409453
21
-18.863529380409531
31
0
0
SPLINE
5
496
100
AcDbEntity
8
0
100
AcDbSpline
70
0
71
2
72
6
73
3
74
0
42
0.000000001
43
0.0000000001
44
0.0000000001
40
0
40
0
40
0
40
1
40
1
40
1
10
-4.2573412036409453
20
-18.863529380409531
30
0
10
-4.2868836497774199
20
-18.788334544746689
30
0
10
-4.3298514461031035
20
-18.640629466621689
30
0
0
SPLINE
5
497
100
AcDbEntity
8
0
100
AcDbSpline
70
0
71
2
72
6
73
3
74
0
42
0.000000001
43
0.0000000001
44
0.0000000001
40
0
40
0
40
0
40
1
40
1
40
1
10
-4.3298514461031035
20
-18.640629466621689
30
0
10
-4.3486507510652617
20
-18.573490794746689
30
0
10
-4.3567069148531035
20
-18.552005704490952
30
0
0
SPLINE
5
498
100
AcDbEntity
8
0
100
AcDbSpline
70
0
71
2
72
6
73
3
74
0
42
0.000000001
43
0.0000000001
44
0.0000000001
40
0
40
0
40
0
40
1
40
1
40
1
10
-4.3567069148531035
20
-18.552005704490952
30
0
10
-4.5500667666902617
20
-18.739993985740952
30
0
10
-4.7702820872774199
20
-18.833988126365952
30
0
0
SPLINE
5
499
100
AcDbEntity
8
0
100
AcDbSpline
70
0
71
2
72
6
73
3
74
0
42
0.000000001
43
0.0000000001
44
0.0000000001
40
0
40
0
40
0
40
1
40
1
40
1
10
-4.7702820872774199
20
-18.833988126365952
30
0
10
-4.9904974078645781
20
-18.927982266990952
30
0
10
-5.2402527904024199
20
-18.927982266990952
30
0
0
SPLINE
5
500
100
AcDbEntity
8
0
100
AcDbSpline
70
0
71
2
72
6
73
3
74
0
42
0.000000001
43
0.0000000001
44
0.0000000001
40
0
40
0
40
0
40
1
40
1
40
1
10
-5.2402527904024199
20
-18.927982266990952
30
0
10
-5.6806810473909453
20
-18.927982266990952
30
0
10
-5.9344657039156035
20
-18.688968833534531
30
0
0
SPLINE
5
501
100
AcDbEntity
8
0
100
AcDbSpline
70
0
71
2
72
6
73
3
74
0
42
0.000000001
43
0.0000000001
44
0.0000000001
40
0
40
0
40
0
40
1
40
1
40
1
10
-5.9344657039156035
20
-18.688968833534531
30
0
10
-6.1882503604402617
20
-18.44995540007811
30
0
10
-6.1882503604402617
20
-18.084720786659531
30
0
0
SPLINE
5
502
100
AcDbEntity
8
0
100
AcDbSpline
70
0
71
2
72
6
73
3
74
0
42
0.000000001
43
0.0000000001
44
0.0000000001
40
0
40
0
40
0
40
1
40
1
40
1
10
-6.1882503604402617
20
-18.084720786659531
30
0
10
-6.1882503604402617
20
-17.843021567909531
30
0
10
-6.0727723216524199
20
-17.653690394012742
30
0
0
SPLINE
5
503
100
AcDbEntity
8
0
100
AcDbSpline
70
0
71
2
72
6
73
3
74
0
42
0.000000001
43
0.0000000001
44
0.0000000001
40
0
40
0
40
0
40
1
40
1
40
1
10
-6.0727723216524199
20
-17.653690394012742
30
0
10
-5.9572942828645781
20
-17.464359220115952
30
0
10
-5.7491644000520781
20
-17.363651212303452
30
0
0
SPLINE
5
504
100
AcDbEntity
8
0
100
AcDbSpline
70
0
71
2
72
6
73
3
74
0
42
0.000000001
43
0.0000000001
44
0.0000000001
40
0
40
0
40
0
40
1
40
1
40
1
10
-5.7491644000520781
20
-17.363651212303452
30
0
10
-5.5410345172395781
20
-17.262943204490952
30
0
10
-5.1489432429781035
20
-17.18774836882811
30
0
0
SPLINE
5
505
100
AcDbEntity
8
0
100
AcDbSpline
70
0
71
2
72
6
73
3
74
0
42
0.000000001
43
0.0000000001
44
0.0000000001
40
0
40
0
40
0
40
1
40
1
40
1
10
-5.1489432429781035
20
-17.18774836882811
30
0
10
-4.6198900317659453
20
-17.088382657615952
30
0
10
-4.4157894229402617
20
-17.002445276825242
30
0
0
LINE
5
506
100
AcDbEntity
8
0
100
AcDbLine
10
-4.4157894229402617
20
-17.002445276825242
30
0
11
-4.4157894229402617
21
-16.927249845115952
31
0
0
SPLINE
5
507
100
AcDbEntity
8
0
100
AcDbSpline
70
0
71
2
72
6
73
3
74
0
42
0.000000001
43
0.0000000001
44
0.0000000001
40
0
40
0
40
0
40
1
40
1
40
1
10
-4.4157894229402617
20
-16.927249845115952
30
0
10
-4.4157894229402617
20
-16.709720905868821
30
0
10
-4.5232112979402617
20
-16.61706965789061
30
0
0
SPLINE
5
508
100
AcDbEntity
8
0
100
AcDbSpline
70
0
71
2
72
6
73
3
74
0
42
0.000000001
43
0.0000000001
44
0.0000000001
40
0
40
0
40
0
40
1
40
1
40
1
10
-4.5232112979402617
20
-16.61706965789061
30
0
10
-4.6306331729402617
20
-16.524417813865952
30
0
10
-4.9287279223909453
20
-16.524417813865952
30
0
0
SPLINE
5
509
100
AcDbEntity
8
0
100
AcDbSpline
70
0
71
2
72
6
73
3
74
0
42
0.000000001
43
0.0000000001
44
0.0000000001
40
0
40
0
40
0
40
1
40
1
40
1
10
-4.9287279223909453
20
-16.524417813865952
30
0
10
-5.1301439380159453
20
-16.524417813865952
30
0
10
-5.2429373836031035
20
-16.60364192351561
30
0
0
SPLINE
5
510
100
AcDbEntity
8
0
100
AcDbSpline
70
0
71
2
72
6
73
3
74
0
42
0.000000001
43
0.0000000001
44
0.0000000001
40
0
40
0
40
0
40
1
40
1
40
1
10
-5.2429373836031035
20
-16.60364192351561
30
0
10
-5.3557308291902617
20
-16.682865437118821
30
0
10
-5.4255540942659453
20
-16.881595667450242
30
0
0
SPLINE
5
511
100
AcDbEntity
8
0
100
AcDbSpline
70
0
71
2
72
6
73
3
74
0
42
0.000000001
43
0.0000000001
44
0.0000000001
40
0
40
0
40
0
40
1
40
1
40
1
10
-4.4157894229402617
20
-17.493900474159531
30
0
10
-4.5608099078645781
20
-17.542240437118821
30
0
10
-4.8750169848909453
20
-17.609379108993821
30
0
0
SPLINE
5
512
100
AcDbEntity
8
0
100
AcDbSpline
70
0
71
2
72
6
73
3
74
0
42
0.000000001
43
0.0000000001
44
0.0000000001
40
0
40
0
40
0
40
1
40
1
40
1
10
-4.8750169848909453
20
-17.609379108993821
30
0
10
-5.1892264461031035
20
-17.676517780868821
30
0
10
-5.2859075641145781
20
-17.740971263496689
30
0
0
SPLINE
5
513
100
AcDbEntity
8
0
100
AcDbSpline
70
0
71
2
72
6
73
3
74
0
42
0.000000001
43
0.0000000001
44
0.0000000001
40
0
40
0
40
0
40
1
40
1
40
1
10
-5.2859075641145781
20
-17.740971263496689
30
0
10
-5.4336126422395781
20
-17.84570735320311
30
0
10
-5.4336126422395781
20
-18.00684016570311
30
0
0
SPLINE
5
514
100
AcDbEntity
8
0
100
AcDbSpline
70
0
71
2
72
6
73
3
74
0
42
0.000000001
43
0.0000000001
44
0.0000000001
40
0
40
0
40
0
40
1
40
1
40
1
10
-5.4336126422395781
20
-18.00684016570311
30
0
10
-5.4336126422395781
20
-18.165287192909531
30
0
10
-5.3154476260652617
20
-18.280765231697373
30
0
0
SPLINE
5
515
100
AcDbEntity
8
0
100
AcDbSpline
70
0
71
2
72
6
73
3
74
0
42
0.000000001
43
0.0000000001
44
0.0000000001
40
0
40
0
40
0
40
1
40
1
40
1
10
-5.3154476260652617
20
-18.280765231697373
30
0
10
-5.1972826098909453
20
-18.39624446257811
30
0
10
-5.0146658992281035
20
-18.39624446257811
30
0
0
SPLINE
5
516
100
AcDbEntity
8
0
100
AcDbSpline
70
0
71
2
72
6
73
3
74
0
42
0.000000001
43
0.0000000001
44
0.0000000001
40
0
40
0
40
0
40
1
40
1
40
1
10
-5.0146658992281035
20
-18.39624446257811
30
0
10
-4.8105652904024199
20
-18.39624446257811
30
0
10
-4.6252616023531035
20
-18.26196711882811
30
0
0
SPLINE
5
517
100
AcDbEntity
8
0
100
AcDbSpline
70
0
71
2
72
6
73
3
74
0
42
0.000000001
43
0.0000000001
44
0.0000000001
40
0
40
0
40
0
40
1
40
1
40
1
10
-4.6252616023531035
20
-18.26196711882811
30
0
10
-4.4882996654024199
20
-18.159915622322373
30
0
10
-4.4453294848909453
20
-18.012210544197373
30
0
0
SPLINE
5
518
100
AcDbEntity
8
0
100
AcDbSpline
70
0
71
2
72
6
73
3
74
0
42
0.000000001
43
0.0000000001
44
0.0000000001
40
0
40
0
40
0
40
1
40
1
40
1
10
-4.4453294848909453
20
-18.012210544197373
30
0
10
-4.4157894229402617
20
-17.915531810371689
30
0
10
-4.4157894229402617
20
-17.64429133757811
30
0
0
LINE
5
519
100
AcDbEntity
8
0
100
AcDbLine
10
-4.4157894229402617
20
-17.64429133757811
30
0
11
-4.4157894229402617
21
-17.493900474159531
31
0
0
LINE
5
520
100
AcDbEntity
8
0
100
AcDbLine
10
-2.9870780086031035
20
-16.011478122322373
30
0
11
-2.2915204143037871
21
-16.011478122322373
31
0
0
LINE
5
521
100
AcDbEntity
8
0
100
AcDbLine
10
-2.2915204143037871
20
-16.011478122322373
30
0
11
-2.2915204143037871
21
-16.400883015243821
31
0
0
SPLINE
5
522
100
AcDbEntity
8
0
100
AcDbSpline
70
0
71
2
72
6
73
3
74
0
42
0.000000001
43
0.0000000001
44
0.0000000001
40
0
40
0
40
0
40
1
40
1
40
1
10
-2.2915204143037871
20
-16.400883015243821
30
0
10
-1.9182308291902617
20
-15.947025235740952
30
0
10
-1.4026053523531035
20
-15.947025235740952
30
0
0
SPLINE
5
523
100
AcDbEntity
8
0
100
AcDbSpline
70
0
71
2
72
6
73
3
74
0
42
0.000000001
43
0.0000000001
44
0.0000000001
40
0
40
0
40
0
40
1
40
1
40
1
10
-1.4026053523531035
20
-15.947025235740952
30
0
10
-1.1286790942659453
20
-15.947025235740952
30
0
10
-0.92726307864094526
20
-16.05981868132811
30
0
0
SPLINE
5
524
100
AcDbEntity
8
0
100
AcDbSpline
70
0
71
2
72
6
73
3
74
0
42
0.000000001
43
0.0000000001
44
0.0000000001
40
0
40
0
40
0
40
1
40
1
40
1
10
-0.92726307864094526
20
-16.05981868132811
30
0
10
-0.72584706301594526
20
-16.172610934822373
30
0
10
-0.59694128985310346
20
-16.400883015243821
30
0
0
SPLINE
5
525
100
AcDbEntity
8
0
100
AcDbSpline
70
0
71
2
72
6
73
3
74
0
42
0.000000001
43
0.0000000001
44
0.0000000001
40
0
40
0
40
0
40
1
40
1
40
1
10
-0.59694128985310346
20
-16.400883015243821
30
0
10
-0.40895300860310346
20
-16.172610934822373
30
0
10
-0.19142228121663329
20
-16.05981868132811
30
0
0
SPLINE
5
526
100
AcDbEntity
8
0
100
AcDbSpline
70
0
71
2
72
6
73
3
74
0
42
0.000000001
43
0.0000000001
44
0.0000000001
40
0
40
0
40
0
40
1
40
1
40
1
10
-0.19142228121663329
20
-16.05981868132811
30
0
10
0.026106061984050299
20
-15.947025235740952
30
0
10
0.27317923550699952
20
-15.947025235740952
30
0
0
SPLINE
5
527
100
AcDbEntity
8
0
100
AcDbSpline
70
0
71
2
72
6
73
3
74
0
42
0.000000001
43
0.0000000001
44
0.0000000001
40
0
40
0
40
0
40
1
40
1
40
1
10
0.27317923550699952
20
-15.947025235740952
30
0
10
0.58738631253336671
20
-15.947025235740952
30
0
10
0.8049146557340503
20
-16.074588712303452
30
0
0
SPLINE
5
528
100
AcDbEntity
8
0
100
AcDbSpline
70
0
71
2
72
6
73
3
74
0
42
0.000000001
43
0.0000000001
44
0.0000000001
40
0
40
0
40
0
40
1
40
1
40
1
10
0.8049146557340503
20
-16.074588712303452
30
0
10
1.0224429989347339
20
-16.202152188865952
30
0
10
1.1298648739347339
20
-16.44922297820311
30
0
0
SPLINE
5
529
100
AcDbEntity
8
0
100
AcDbSpline
70
0
71
2
72
6
73
3
74
0
42
0.000000001
43
0.0000000001
44
0.0000000001
40
0
40
0
40
0
40
1
40
1
40
1
10
1.1298648739347339
20
-16.44922297820311
30
0
10
1.2077466869840503
20
-16.631839688865952
30
0
10
1.2077466869840503
20
-17.04004329070311
30
0
0
LINE
5
530
100
AcDbEntity
8
0
100
AcDbLine
10
1.2077466869840503
20
-17.04004329070311
30
0
11
1.2077466869840503
21
-18.863529380409531
31
0
0
LINE
5
531
100
AcDbEntity
8
0
100
AcDbLine
10
1.2077466869840503
20
-18.863529380409531
30
0
11
0.45310896878336682
21
-18.863529380409531
31
0
0
LINE
5
532
100
AcDbEntity
8
0
100
AcDbLine
10
0.45310896878336671
20
-18.863529380409531
30
0
11
0.45310896878336671
21
-17.233402546493821
31
0
0
SPLINE
5
533
100
AcDbEntity
8
0
100
AcDbSpline
70
0
71
2
72
6
73
3
74
0
42
0.000000001
43
0.0000000001
44
0.0000000001
40
0
40
0
40
0
40
1
40
1
40
1
10
0.45310896878336671
20
-17.233402546493821
30
0
10
0.45310896878336671
20
-16.809086021034531
30
0
10
0.3752271557340503
20
-16.685550626365952
30
0
0
SPLINE
5
534
100
AcDbEntity
8
0
100
AcDbSpline
70
0
71
2
72
6
73
3
74
0
42
0.000000001
43
0.0000000001
44
0.0000000001
40
0
40
0
40
0
40
1
40
1
40
1
10
0.3752271557340503
20
-16.685550626365952
30
0
10
0.27048987393473389
20
-16.524417813865952
30
0
10
0.052961530734050299
20
-16.524417813865952
30
0
0
SPLINE
5
535
100
AcDbEntity
8
0
100
AcDbSpline
70
0
71
2
72
6
73
3
74
0
42
0.000000001
43
0.0000000001
44
0.0000000001
40
0
40
0
40
0
40
1
40
1
40
1
10
0.052961530734050299
20
-16.524417813865952
30
0
10
-0.10548668856526611
20
-16.524417813865952
30
0
10
-0.24513321871663329
20
-16.621097739784531
30
0
0
SPLINE
5
536
100
AcDbEntity
8
0
100
AcDbSpline
70
0
71
2
72
6
73
3
74
0
42
0.000000001
43
0.0000000001
44
0.0000000001
40
0
40
0
40
0
40
1
40
1
40
1
10
-0.24513321871663329
20
-16.621097739784531
30
0
10
-0.38477974886800048
20
-16.71777766570311
30
0
10
-0.44655161852741987
20
-16.904423054306321
30
0
0
SPLINE
5
537
100
AcDbEntity
8
0
100
AcDbSpline
70
0
71
2
72
6
73
3
74
0
42
0.000000001
43
0.0000000001
44
0.0000000001
40
0
40
0
40
0
40
1
40
1
40
1
10
-0.44655161852741987
20
-16.904423054306321
30
0
10
-0.50831871981526167
20
-17.091068442909531
30
0
10
-0.50831871981526167
20
-17.493900474159531
30
0
0
LINE
5
538
100
AcDbEntity
8
0
100
AcDbLine
10
-0.50831871981526167
20
-17.493900474159531
30
0
11
-0.50831871981526167
21
-18.863529380409531
31
0
0
LINE
5
539
100
AcDbEntity
8
0
100
AcDbLine
10
-0.50831871981526167
20
-18.863529380409531
30
0
11
-1.2629564380159453
21
-18.863529380409531
31
0
0
LINE
5
540
100
AcDbEntity
8
0
100
AcDbLine
10
-1.2629564380159453
20
-18.863529380409531
30
0
11
-1.2629564380159453
21
-17.300541218368821
31
0
0
SPLINE
5
541
100
AcDbEntity
8
0
100
AcDbSpline
70
0
71
2
72
6
73
3
74
0
42
0.000000001
43
0.0000000001
44
0.0000000001
40
0
40
0
40
0
40
1
40
1
40
1
10
-1.2629564380159453
20
-17.300541218368821
30
0
10
-1.2629564380159453
20
-16.884281452743821
30
0
10
-1.3032396411409453
20
-16.763431843368821
30
0
0
SPLINE
5
542
100
AcDbEntity
8
0
100
AcDbSpline
70
0
71
2
72
6
73
3
74
0
42
0.000000001
43
0.0000000001
44
0.0000000001
40
0
40
0
40
0
40
1
40
1
40
1
10
-1.3032396411409453
20
-16.763431843368821
30
0
10
-1.3435228442659453
20
-16.642582233993821
30
0
10
-1.4281185245027617
20
-16.58350032195311
30
0
0
SPLINE
5
543
100
AcDbEntity
8
0
100
AcDbSpline
70
0
71
2
72
6
73
3
74
0
42
0.000000001
43
0.0000000001
44
0.0000000001
40
0
40
0
40
0
40
1
40
1
40
1
10
-1.4281185245027617
20
-16.58350032195311
30
0
10
-1.5127118205537871
20
-16.524417813865952
30
0
10
-1.6577323054781035
20
-16.524417813865952
30
0
0
SPLINE
5
544
100
AcDbEntity
8
0
100
AcDbSpline
70
0
71
2
72
6
73
3
74
0
42
0.000000001
43
0.0000000001
44
0.0000000001
40
0
40
0
40
0
40
1
40
1
40
1
10
-1.6577323054781035
20
-16.524417813865952
30
0
10
-1.8322928523531035
20
-16.524417813865952
30
0
10
-1.9719417666902617
20
-16.618411954490952
30
0
0
SPLINE
5
545
100
AcDbEntity
8
0
100
AcDbSpline
70
0
71
2
72
6
73
3
74
0
42
0.000000001
43
0.0000000001
44
0.0000000001
40
0
40
0
40
0
40
1
40
1
40
1
10
-1.9719417666902617
20
-16.618411954490952
30
0
10
-2.1115906810274199
20
-16.712406095115952
30
0
10
-2.1720154857149199
20
-16.889652427284531
30
0
0
SPLINE
5
546
100
AcDbEntity
8
0
100
AcDbSpline
70
0
71
2
72
6
73
3
74
0
42
0.000000001
43
0.0000000001
44
0.0000000001
40
0
40
0
40
0
40
1
40
1
40
1
10
-2.1720154857149199
20
-16.889652427284531
30
0
10
-2.2324402904024199
20
-17.06689875945311
30
0
10
-2.2324402904024199
20
-17.477786954490952
30
0
0
LINE
5
547
100
AcDbEntity
8
0
100
AcDbLine
10
-2.2324402904024199
20
-17.477786954490952
30
0
11
-2.2324402904024199
21
-18.863529380409531
31
0
0
LINE
5
548
100
AcDbEntity
8
0
100
AcDbLine
10
-2.2324402904024199
20
-18.863529380409531
30
0
11
-2.9870780086031035
21
-18.863529380409531
31
0
0
LINE
5
549
100
AcDbEntity
8
0
100
AcDbLine
10
-2.9870780086031035
20
-18.863529380409531
30
0
11
-2.9870780086031035
21
-16.011478122322373
31
0
0
LINE
5
550
100
AcDbEntity
8
0
100
AcDbLine
10
5.8752242947111011
20
-18.162601407615952
30
0
11
5.8752242947111011
21
-18.863529380409531
31
0
0
LINE
5
551
100
AcDbEntity
8
0
100
AcDbLine
10
5.8752242947111011
20
-18.863529380409531
30
0
11
3.2299606228361015
21
-18.863529380409531
31
0
0
SPLINE
5
552
100
AcDbEntity
8
0
100
AcDbSpline
70
0
71
2
72
6
73
3
74
0
42
0.000000001
43
0.0000000001
44
0.0000000001
40
0
40
0
40
0
40
1
40
1
40
1
10
3.2299606228361011
20
-18.863529380409531
30
0
10
3.2729331875333667
20
-18.466068919746689
30
0
10
3.4877769375333667
20
-18.110233958809189
30
0
0
SPLINE
5
553
100
AcDbEntity
8
0
100
AcDbSpline
70
0
71
2
72
6
73
3
74
0
42
0.000000001
43
0.0000000001
44
0.0000000001
40
0
40
0
40
0
40
1
40
1
40
1
10
3.4877769375333667
20
-18.110233958809189
30
0
10
3.7026206875333667
20
-17.754398997871689
30
0
10
4.3364087963590503
20
-17.166263874618821
30
0
0
SPLINE
5
554
100
AcDbEntity
8
0
100
AcDbSpline
70
0
71
2
72
6
73
3
74
0
42
0.000000001
43
0.0000000001
44
0.0000000001
40
0
40
0
40
0
40
1
40
1
40
1
10
4.3364087963590503
20
-17.166263874618821
30
0
10
4.8466627026090503
20
-16.69092219695311
30
0
10
4.9621383572111011
20
-16.521732624618821
30
0
0
SPLINE
5
555
100
AcDbEntity
8
0
100
AcDbSpline
70
0
71
2
72
6
73
3
74
0
42
0.000000001
43
0.0000000001
44
0.0000000001
40
0
40
0
40
0
40
1
40
1
40
1
10
4.9621383572111011
20
-16.521732624618821
30
0
10
5.1179019833097339
20
-16.28809016570311
30
0
10
5.1179019833097339
20
-16.05981868132811
30
0
0
SPLINE
5
556
100
AcDbEntity
8
0
100
AcDbSpline
70
0
71
2
72
6
73
3
74
0
42
0.000000001
43
0.0000000001
44
0.0000000001
40
0
40
0
40
0
40
1
40
1
40
1
10
5.1179019833097339
20
-16.05981868132811
30
0
10
5.1179019833097339
20
-15.807376917450242
30
0
10
4.9822799587736011
20
-15.671756681053452
30
0
0
SPLINE
5
557
100
AcDbEntity
8
0
100
AcDbSpline
70
0
71
2
72
6
73
3
74
0
42
0.000000001
43
0.0000000001
44
0.0000000001
40
0
40
0
40
0
40
1
40
1
40
1
10
4.9822799587736011
20
-15.671756681053452
30
0
10
4.8466627026090503
20
-15.53613704070311
30
0
10
4.6076480770597339
20
-15.53613704070311
30
0
0
SPLINE
5
558
100
AcDbEntity
8
0
100
AcDbSpline
70
0
71
2
72
6
73
3
74
0
42
0.000000001
43
0.0000000001
44
0.0000000001
40
0
40
0
40
0
40
1
40
1
40
1
10
4.6076480770597339
20
-15.53613704070311
30
0
10
4.3713180447111011
20
-15.53613704070311
30
0
10
4.2316715145597339
20
-15.678470548240952
30
0
0
SPLINE
5
559
100
AcDbEntity
8
0
100
AcDbSpline
70
0
71
2
72
6
73
3
74
0
42
0.000000001
43
0.0000000001
44
0.0000000001
40
0
40
0
40
0
40
1
40
1
40
1
10
4.2316715145597339
20
-15.678470548240952
30
0
10
4.0920249844083667
20
-15.820804651825242
30
0
10
4.0705387020597339
20
-16.151127036659531
30
0
0
LINE
5
560
100
AcDbEntity
8
0
100
AcDbLine
10
4.0705387020597339
20
-16.151127036659531
30
0
11
3.3185855770597339
21
-16.075931604950242
31
0
0
SPLINE
5
561
100
AcDbEntity
8
0
100
AcDbSpline
70
0
71
2
72
6
73
3
74
0
42
0.000000001
43
0.0000000001
44
0.0000000001
40
0
40
0
40
0
40
1
40
1
40
1
10
3.3185855770597339
20
-16.075931604950242
30
0
10
3.3857242489347339
20
-15.452884849159531
30
0
10
3.7402145290861011
20
-15.181644376365952
30
0
0
SPLINE
5
562
100
AcDbEntity
8
0
100
AcDbSpline
70
0
71
2
72
6
73
3
74
0
42
0.000000001
43
0.0000000001
44
0.0000000001
40
0
40
0
40
0
40
1
40
1
40
1
10
3.7402145290861011
20
-15.181644376365952
30
0
10
4.0947095776090503
20
-14.910403903572373
30
0
10
4.6264449978361011
20
-14.910403903572373
30
0
0
SPLINE
5
563
100
AcDbEntity
8
0
100
AcDbSpline
70
0
71
2
72
6
73
3
74
0
42
0.000000001
43
0.0000000001
44
0.0000000001
40
0
40
0
40
0
40
1
40
1
40
1
10
4.6264449978361011
20
-14.910403903572373
30
0
10
5.2092115307340503
20
-14.910403903572373
30
0
10
5.5422202969083667
20
-15.224613364784531
30
0
0
SPLINE
5
564
100
AcDbEntity
8
0
100
AcDbSpline
70
0
71
2
72
6
73
3
74
0
42
0.000000001
43
0.0000000001
44
0.0000000001
40
0
40
0
40
0
40
1
40
1
40
1
10
5.5422202969083667
20
-15.224613364784531
30
0
10
5.8752242947111011
20
-15.538822229950242
30
0
10
5.8752242947111011
20
-16.00610774382811
30
0
0
SPLINE
5
565
100
AcDbEntity
8
0
100
AcDbSpline
70
0
71
2
72
6
73
3
74
0
42
0.000000001
43
0.0000000001
44
0.0000000001
40
0
40
0
40
0
40
1
40
1
40
1
10
5.8752242947111011
20
-16.00610774382811
30
0
10
5.8752242947111011
20
-16.271976646034531
30
0
10
5.7798902416715503
20
-16.512332972137742
30
0
0
SPLINE
5
566
100
AcDbEntity
8
0
100
AcDbSpline
70
0
71
2
72
6
73
3
74
0
42
0.000000001
43
0.0000000001
44
0.0000000001
40
0
40
0
40
0
40
1
40
1
40
1
10
5.7798902416715503
20
-16.512332972137742
30
0
10
5.6845561886319995
20
-16.752689298240952
30
0
10
5.4777662182340503
20
-17.015873011200242
30
0
0
SPLINE
5
567
100
AcDbEntity
8
0
100
AcDbSpline
70
0
71
2
72
6
73
3
74
0
42
0.000000001
43
0.0000000001
44
0.0000000001
40
0
40
0
40
0
40
1
40
1
40
1
10
5.4777662182340503
20
-17.015873011200242
30
0
10
5.3408042812833667
20
-17.190433558075242
30
0
10
4.9836246395597339
20
-17.518070157615952
30
0
0
SPLINE
5
568
100
AcDbEntity
8
0
100
AcDbSpline
70
0
71
2
72
6
73
3
74
0
42
0.000000001
43
0.0000000001
44
0.0000000001
40
0
40
0
40
0
40
1
40
1
40
1
10
4.9836246395597339
20
-17.518070157615952
30
0
10
4.6264449978361011
20
-17.84570735320311
30
0
10
4.5311109447965503
20
-17.95312922820311
30
0
0
SPLINE
5
569
100
AcDbEntity
8
0
100
AcDbSpline
70
0
71
2
72
6
73
3
74
0
42
0.000000001
43
0.0000000001
44
0.0000000001
40
0
40
0
40
0
40
1
40
1
40
1
10
4.5311109447965503
20
-17.95312922820311
30
0
10
4.4357768917569995
20
-18.06055110320311
30
0
10
4.3766919994840503
20
-18.162601407615952
30
0
0
LINE
5
570
100
AcDbEntity
8
0
100
AcDbLine
10
4.3766919994840503
20
-18.162601407615952
30
0
11
5.8752242947111011
21
-18.162601407615952
31
0
0
SPLINE
5
571
100
AcDbEntity
8
0
100
AcDbSpline
70
0
71
2
72
6
73
3
74
0
42
0.000000001
43
0.0000000001
44
0.0000000001
40
0
40
0
40
0
40
1
40
1
40
1
10
7.6611129665861011
20
-14.910403903572373
30
0
10
8.2331363583097339
20
-14.910403903572373
30
0
10
8.5554019833097339
20
-15.318607505409531
30
0
0
SPLINE
5
572
100
AcDbEntity
8
0
100
AcDbSpline
70
0
71
2
72
6
73
3
74
0
42
0.000000001
43
0.0000000001
44
0.0000000001
40
0
40
0
40
0
40
1
40
1
40
1
10
8.5554019833097339
20
-15.318607505409531
30
0
10
8.9394370937833667
20
-15.802005942909531
30
0
10
8.9394370937833667
20
-16.921878870575242
30
0
0
SPLINE
5
573
100
AcDbEntity
8
0
100
AcDbSpline
70
0
71
2
72
6
73
3
74
0
42
0.000000001
43
0.0000000001
44
0.0000000001
40
0
40
0
40
0
40
1
40
1
40
1
10
8.9394370937833667
20
-16.921878870575242
30
0
10
8.9394370937833667
20
-18.039066012947373
30
0
10
8.5527126217374683
20
-18.527836021034531
30
0
0
SPLINE
5
574
100
AcDbEntity
8
0
100
AcDbSpline
70
0
71
2
72
6
73
3
74
0
42
0.000000001
43
0.0000000001
44
0.0000000001
40
0
40
0
40
0
40
1
40
1
40
1
10
8.5527126217374683
20
-18.527836021034531
30
0
10
8.2331363583097339
20
-18.930668052284531
30
0
10
7.6611129665861011
20
-18.930668052284531
30
0
0
SPLINE
5
575
100
AcDbEntity
8
0
100
AcDbSpline
70
0
71
2
72
6
73
3
74
0
42
0.000000001
43
0.0000000001
44
0.0000000001
40
0
40
0
40
0
40
1
40
1
40
1
10
7.6611129665861011
20
-18.930668052284531
30
0
10
7.0864097500333667
20
-18.930668052284531
30
0
10
6.7345992947111011
20
-18.488895114509873
30
0
0
SPLINE
5
576
100
AcDbEntity
8
0
100
AcDbSpline
70
0
71
2
72
6
73
3
74
0
42
0.000000001
43
0.0000000001
44
0.0000000001
40
0
40
0
40
0
40
1
40
1
40
1
10
6.7345992947111011
20
-18.488895114509873
30
0
10
6.3827936077604175
20
-18.04712336882811
30
0
10
6.3827936077604175
20
-16.913822110740952
30
0
0
SPLINE
5
577
100
AcDbEntity
8
0
100
AcDbSpline
70
0
71
2
72
6
73
3
74
0
42
0.000000001
43
0.0000000001
44
0.0000000001
40
0
40
0
40
0
40
1
40
1
40
1
10
6.3827936077604175
20
-16.913822110740952
30
0
10
6.3827936077604175
20
-15.802005942909531
30
0
10
6.7695133114347339
20
-15.313235934822373
30
0
0
SPLINE
5
578
100
AcDbEntity
8
0
100
AcDbSpline
70
0
71
2
72
6
73
3
74
0
42
0.000000001
43
0.0000000001
44
0.0000000001
40
0
40
0
40
0
40
1
40
1
40
1
10
6.7695133114347339
20
-15.313235934822373
30
0
10
7.0890895748624683
20
-14.910403903572373
30
0
10
7.6611129665861011
20
-14.910403903572373
30
0
0
SPLINE
5
579
100
AcDbEntity
8
0
100
AcDbSpline
70
0
71
2
72
6
73
3
74
0
42
0.000000001
43
0.0000000001
44
0.0000000001
40
0
40
0
40
0
40
1
40
1
40
1
10
7.6611129665861011
20
-15.53613704070311
30
0
10
7.5241510296354175
20
-15.53613704070311
30
0
10
7.4167291546354175
20
-15.62341731414061
30
0
0
SPLINE
5
580
100
AcDbEntity
8
0
100
AcDbSpline
70
0
71
2
72
6
73
3
74
0
42
0.000000001
43
0.0000000001
44
0.0000000001
40
0
40
0
40
0
40
1
40
1
40
1
10
7.4167291546354175
20
-15.62341731414061
30
0
10
7.3093072796354175
20
-15.71069758757811
30
0
10
7.2502223873624683
20
-15.936283286659531
30
0
0
SPLINE
5
581
100
AcDbEntity
8
0
100
AcDbSpline
70
0
71
2
72
6
73
3
74
0
42
0.000000001
43
0.0000000001
44
0.0000000001
40
0
40
0
40
0
40
1
40
1
40
1
10
7.2502223873624683
20
-15.936283286659531
30
0
10
7.1723453426847339
20
-16.229007657615952
30
0
10
7.1723453426847339
20
-16.921878870575242
30
0
0
SPLINE
5
582
100
AcDbEntity
8
0
100
AcDbSpline
70
0
71
2
72
6
73
3
74
0
42
0.000000001
43
0.0000000001
44
0.0000000001
40
0
40
0
40
0
40
1
40
1
40
1
10
7.1723453426847339
20
-16.921878870575242
30
0
10
7.1723453426847339
20
-17.614750083534531
30
0
10
7.2421686077604175
20
-17.873905118553452
30
0
0
SPLINE
5
583
100
AcDbEntity
8
0
100
AcDbSpline
70
0
71
2
72
6
73
3
74
0
42
0.000000001
43
0.0000000001
44
0.0000000001
40
0
40
0
40
0
40
1
40
1
40
1
10
7.2421686077604175
20
-17.873905118553452
30
0
10
7.3119918728361011
20
-18.133060153572373
30
0
10
7.4180690670499683
20
-18.218998130409531
30
0
0
SPLINE
5
584
100
AcDbEntity
8
0
100
AcDbSpline
70
0
71
2
72
6
73
3
74
0
42
0.000000001
43
0.0000000001
44
0.0000000001
40
0
40
0
40
0
40
1
40
1
40
1
10
7.4180690670499683
20
-18.218998130409531
30
0
10
7.5241510296354175
20
-18.304936107246689
30
0
10
7.6611129665861011
20
-18.304936107246689
30
0
0
SPLINE
5
585
100
AcDbEntity
8
0
100
AcDbSpline
70
0
71
2
72
6
73
3
74
0
42
0.000000001
43
0.0000000001
44
0.0000000001
40
0
40
0
40
0
40
1
40
1
40
1
10
7.6611129665861011
20
-18.304936107246689
30
0
10
7.7980796719083667
20
-18.304936107246689
30
0
10
7.9055015469083667
20
-18.217655833809189
30
0
0
SPLINE
5
586
100
AcDbEntity
8
0
100
AcDbSpline
70
0
71
2
72
6
73
3
74
0
42
0.000000001
43
0.0000000001
44
0.0000000001
40
0
40
0
40
0
40
1
40
1
40
1
10
7.9055015469083667
20
-18.217655833809189
30
0
10
8.0129234219083667
20
-18.130375560371689
30
0
10
8.0720035458097339
20
-17.904788669197373
30
0
0
SPLINE
5
587
100
AcDbEntity
8
0
100
AcDbSpline
70
0
71
2
72
6
73
3
74
0
42
0.000000001
43
0.0000000001
44
0.0000000001
40
0
40
0
40
0
40
1
40
1
40
1
10
8.0720035458097339
20
-17.904788669197373
30
0
10
8.1498805904874683
20
-17.614750083534531
30
0
10
8.1498805904874683
20
-16.921878870575242
30
0
0
SPLINE
5
588
100
AcDbEntity
8
0
100
AcDbSpline
70
0
71
2
72
6
73
3
74
0
42
0.000000001
43
0.0000000001
44
0.0000000001
40
0
40
0
40
0
40
1
40
1
40
1
10
8.1498805904874683
20
-16.921878870575242
30
0
10
8.1498805904874683
20
-16.229007657615952
30
0
10
8.0800620937833667
20
-15.969852622597031
30
0
0
SPLINE
5
589
100
AcDbEntity
8
0
100
AcDbSpline
70
0
71
2
72
6
73
3
74
0
42
0.000000001
43
0.0000000001
44
0.0000000001
40
0
40
0
40
0
40
1
40
1
40
1
10
8.0800620937833667
20
-15.969852622597031
30
0
10
8.0102340603361011
20
-15.71069758757811
30
0
10
7.9041568661222339
20
-15.62341731414061
30
0
0
SPLINE
5
590
100
AcDbEntity
8
0
100
AcDbSpline
70
0
71
2
72
6
73
3
74
0
42
0.000000001
43
0.0000000001
44
0.0000000001
40
0
40
0
40
0
40
1
40
1
40
1
10
7.9041568661222339
20
-15.62341731414061
30
0
10
7.7980796719083667
20
-15.53613704070311
30
0
10
7.6611129665861011
20
-15.53613704070311
30
0
0
LINE
5
591
100
AcDbEntity
8
0
100
AcDbLine
10
11.992901983309734
20
-18.162601407615952
30
0
11
11.992901983309734
21
-18.863529380409531
31
0
0
LINE
5
592
100
AcDbEntity
8
0
100
AcDbLine
10
11.992901983309734
20
-18.863529380409531
30
0
11
9.3476383114347339
21
-18.863529380409531
31
0
0
SPLINE
5
593
100
AcDbEntity
8
0
100
AcDbSpline
70
0
71
2
72
6
73
3
74
0
42
0.000000001
43
0.0000000001
44
0.0000000001
40
0
40
0
40
0
40
1
40
1
40
1
10
9.3476383114347339
20
-18.863529380409531
30
0
10
9.3906061077604175
20
-18.466068919746689
30
0
10
9.6054498577604175
20
-18.110233958809189
30
0
0
SPLINE
5
594
100
AcDbEntity
8
0
100
AcDbSpline
70
0
71
2
72
6
73
3
74
0
42
0.000000001
43
0.0000000001
44
0.0000000001
40
0
40
0
40
0
40
1
40
1
40
1
10
9.6054498577604175
20
-18.110233958809189
30
0
10
9.8202936077604175
20
-17.754398997871689
30
0
10
10.454081716586101
20
-17.166263874618821
30
0
0
SPLINE
5
595
100
AcDbEntity
8
0
100
AcDbSpline
70
0
71
2
72
6
73
3
74
0
42
0.000000001
43
0.0000000001
44
0.0000000001
40
0
40
0
40
0
40
1
40
1
40
1
10
10.454081716586101
20
-17.166263874618821
30
0
10
10.964335622836101
20
-16.69092219695311
30
0
10
11.079816045809734
20
-16.521732624618821
30
0
0
SPLINE
5
596
100
AcDbEntity
8
0
100
AcDbSpline
70
0
71
2
72
6
73
3
74
0
42
0.000000001
43
0.0000000001
44
0.0000000001
40
0
40
0
40
0
40
1
40
1
40
1
10
11.079816045809734
20
-16.521732624618821
30
0
10
11.235579671908367
20
-16.28809016570311
30
0
10
11.235579671908367
20
-16.05981868132811
30
0
0
SPLINE
5
597
100
AcDbEntity
8
0
100
AcDbSpline
70
0
71
2
72
6
73
3
74
0
42
0.000000001
43
0.0000000001
44
0.0000000001
40
0
40
0
40
0
40
1
40
1
40
1
10
11.235579671908367
20
-16.05981868132811
30
0
10
11.235579671908367
20
-15.807376917450242
30
0
10
11.099957647372234
20
-15.671756681053452
30
0
0
SPLINE
5
598
100
AcDbEntity
8
0
100
AcDbSpline
70
0
71
2
72
6
73
3
74
0
42
0.000000001
43
0.0000000001
44
0.0000000001
40
0
40
0
40
0
40
1
40
1
40
1
10
11.099957647372234
20
-15.671756681053452
30
0
10
10.964335622836101
20
-15.53613704070311
30
0
10
10.725325765658367
20
-15.53613704070311
30
0
0
SPLINE
5
599
100
AcDbEntity
8
0
100
AcDbSpline
70
0
71
2
72
6
73
3
74
0
42
0.000000001
43
0.0000000001
44
0.0000000001
40
0
40
0
40
0
40
1
40
1
40
1
10
10.725325765658367
20
-15.53613704070311
30
0
10
10.488995733309734
20
-15.53613704070311
30
0
10
10.349349203158367
20
-15.678470548240952
30
0
0
SPLINE
5
600
100
AcDbEntity
8
0
100
AcDbSpline
70
0
71
2
72
6
73
3
74
0
42
0.000000001
43
0.0000000001
44
0.0000000001
40
0
40
0
40
0
40
1
40
1
40
1
10
10.349349203158367
20
-15.678470548240952
30
0
10
10.209697904635417
20
-15.820804651825242
30
0
10
10.188216390658367
20
-16.151127036659531
30
0
0
LINE
5
601
100
AcDbEntity
8
0
100
AcDbLine
10
10.188216390658367
20
-16.151127036659531
30
0
11
9.4362632656583667
21
-16.075931604950242
31
0
0
SPLINE
5
602
100
AcDbEntity
8
0
100
AcDbSpline
70
0
71
2
72
6
73
3
74
0
42
0.000000001
43
0.0000000001
44
0.0000000001
40
0
40
0
40
0
40
1
40
1
40
1
10
9.4362632656583667
20
-16.075931604950242
30
0
10
9.5034019375333667
20
-15.452884849159531
30
0
10
9.8578922176847339
20
-15.181644376365952
30
0
0
SPLINE
5
603
100
AcDbEntity
8
0
100
AcDbSpline
70
0
71
2
72
6
73
3
74
0
42
0.000000001
43
0.0000000001
44
0.0000000001
40
0
40
0
40
0
40
1
40
1
40
1
10
9.8578922176847339
20
-15.181644376365952
30
0
10
10.212382497836101
20
-14.910403903572373
30
0
10
10.744122686434734
20
-14.910403903572373
30
0
0
SPLINE
5
604
100
AcDbEntity
8
0
100
AcDbSpline
70
0
71
2
72
6
73
3
74
0
42
0.000000001
43
0.0000000001
44
0.0000000001
40
0
40
0
40
0
40
1
40
1
40
1
10
10.744122686434734
20
-14.910403903572373
30
0
10
11.326884450961101
20
-14.910403903572373
30
0
10
11.659893217135417
20
-15.224613364784531
30
0
0
SPLINE
5
605
100
AcDbEntity
8
0
100
AcDbSpline
70
0
71
2
72
6
73
3
74
0
42
0.000000001
43
0.0000000001
44
0.0000000001
40
0
40
0
40
0
40
1
40
1
40
1
10
11.659893217135417
20
-15.224613364784531
30
0
10
11.992901983309734
20
-15.538822229950242
30
0
10
11.992901983309734
20
-16.00610774382811
30
0
0
SPLINE
5
606
100
AcDbEntity
8
0
100
AcDbSpline
70
0
71
2
72
6
73
3
74
0
42
0.000000001
43
0.0000000001
44
0.0000000001
40
0
40
0
40
0
40
1
40
1
40
1
10
11.992901983309734
20
-16.00610774382811
30
0
10
11.992901983309734
20
-16.271976646034531
30
0
10
11.897563161898601
20
-16.512332972137742
30
0
0
SPLINE
5
607
100
AcDbEntity
8
0
100
AcDbSpline
70
0
71
2
72
6
73
3
74
0
42
0.000000001
43
0.0000000001
44
0.0000000001
40
0
40
0
40
0
40
1
40
1
40
1
10
11.897563161898601
20
-16.512332972137742
30
0
10
11.80222910885905
20
-16.752689298240952
30
0
10
11.595439138461101
20
-17.015873011200242
30
0
0
SPLINE
5
608
100
AcDbEntity
8
0
100
AcDbSpline
70
0
71
2
72
6
73
3
74
0
42
0.000000001
43
0.0000000001
44
0.0000000001
40
0
40
0
40
0
40
1
40
1
40
1
10
11.595439138461101
20
-17.015873011200242
30
0
10
11.458477201510417
20
-17.190433558075242
30
0
10
11.101302328158367
20
-17.518070157615952
30
0
0
SPLINE
5
609
100
AcDbEntity
8
0
100
AcDbSpline
70
0
71
2
72
6
73
3
74
0
42
0.000000001
43
0.0000000001
44
0.0000000001
40
0
40
0
40
0
40
1
40
1
40
1
10
11.101302328158367
20
-17.518070157615952
30
0
10
10.744122686434734
20
-17.84570735320311
30
0
10
10.648783865023601
20
-17.95312922820311
30
0
0
SPLINE
5
610
100
AcDbEntity
8
0
100
AcDbSpline
70
0
71
2
72
6
73
3
74
0
42
0.000000001
43
0.0000000001
44
0.0000000001
40
0
40
0
40
0
40
1
40
1
40
1
10
10.648783865023601
20
-17.95312922820311
30
0
10
10.55344981198405
20
-18.06055110320311
30
0
10
10.494364919711101
20
-18.162601407615952
30
0
0
LINE
5
611
100
AcDbEntity
8
0
100
AcDbLine
10
10.494364919711101
20
-18.162601407615952
30
0
11
11.992901983309734
21
-18.162601407615952
31
0
0
LINE
5
612
100
AcDbEntity
8
0
100
AcDbLine
10
15.059794607211101
20
-15.890628512947373
30
0
11
14.329327764559734
21
-15.971194919197373
31
0
0
SPLINE
5
613
100
AcDbEntity
8
0
100
AcDbSpline
70
0
71
2
72
6
73
3
74
0
42
0.000000001
43
0.0000000001
44
0.0000000001
40
0
40
0
40
0
40
1
40
1
40
1
10
14.329327764559734
20
-15.971194919197373
30
0
10
14.302472295809734
20
-15.745609220115952
30
0
10
14.189681234408367
20
-15.638187345115952
30
0
0
SPLINE
5
614
100
AcDbEntity
8
0
100
AcDbSpline
70
0
71
2
72
6
73
3
74
0
42
0.000000001
43
0.0000000001
44
0.0000000001
40
0
40
0
40
0
40
1
40
1
40
1
10
14.189681234408367
20
-15.638187345115952
30
0
10
14.076885404635417
20
-15.530765470115952
30
0
10
13.89695567135905
20
-15.530765470115952
30
0
0
SPLINE
5
615
100
AcDbEntity
8
0
100
AcDbSpline
70
0
71
2
72
6
73
3
74
0
42
0.000000001
43
0.0000000001
44
0.0000000001
40
0
40
0
40
0
40
1
40
1
40
1
10
13.89695567135905
20
-15.530765470115952
30
0
10
13.657941045809734
20
-15.530765470115952
30
0
10
13.492778959322917
20
-15.745609220115952
30
0
0
SPLINE
5
616
100
AcDbEntity
8
0
100
AcDbSpline
70
0
71
2
72
6
73
3
74
0
42
0.000000001
43
0.0000000001
44
0.0000000001
40
0
40
0
40
0
40
1
40
1
40
1
10
13.492778959322917
20
-15.745609220115952
30
0
10
13.327616872836101
20
-15.960452970115952
30
0
10
13.284649076510417
20
-16.639896448700242
30
0
0
SPLINE
5
617
100
AcDbEntity
8
0
100
AcDbSpline
70
0
71
2
72
6
73
3
74
0
42
0.000000001
43
0.0000000001
44
0.0000000001
40
0
40
0
40
0
40
1
40
1
40
1
10
13.284649076510417
20
-16.639896448700242
30
0
10
13.566631498385417
20
-16.306888278572373
30
0
10
13.985575857211101
20
-16.306888278572373
30
0
0
SPLINE
5
618
100
AcDbEntity
8
0
100
AcDbSpline
70
0
71
2
72
6
73
3
74
0
42
0.000000001
43
0.0000000001
44
0.0000000001
40
0
40
0
40
0
40
1
40
1
40
1
10
13.985575857211101
20
-16.306888278572373
30
0
10
14.458235921908367
20
-16.306888278572373
30
0
10
14.795269193697917
20
-16.666751917450242
30
0
0
SPLINE
5
619
100
AcDbEntity
8
0
100
AcDbSpline
70
0
71
2
72
6
73
3
74
0
42
0.000000001
43
0.0000000001
44
0.0000000001
40
0
40
0
40
0
40
1
40
1
40
1
10
14.795269193697917
20
-16.666751917450242
30
0
10
15.13230723385905
20
-17.02661555632811
30
0
10
15.13230723385905
20
-17.595951374618821
30
0
0
SPLINE
5
620
100
AcDbEntity
8
0
100
AcDbSpline
70
0
71
2
72
6
73
3
74
0
42
0.000000001
43
0.0000000001
44
0.0000000001
40
0
40
0
40
0
40
1
40
1
40
1
10
15.13230723385905
20
-17.595951374618821
30
0
10
15.13230723385905
20
-18.200198825447373
30
0
10
14.777812185336101
20
-18.565433438865952
30
0
0
SPLINE
5
621
100
AcDbEntity
8
0
100
AcDbSpline
70
0
71
2
72
6
73
3
74
0
42
0.000000001
43
0.0000000001
44
0.0000000001
40
0
40
0
40
0
40
1
40
1
40
1
10
14.777812185336101
20
-18.565433438865952
30
0
10
14.423321905184734
20
-18.930668052284531
30
0
10
13.867415609408367
20
-18.930668052284531
30
0
0
SPLINE
5
622
100
AcDbEntity
8
0
100
AcDbSpline
70
0
71
2
72
6
73
3
74
0
42
0.000000001
43
0.0000000001
44
0.0000000001
40
0
40
0
40
0
40
1
40
1
40
1
10
13.867415609408367
20
-18.930668052284531
30
0
10
13.271221342135417
20
-18.930668052284531
30
0
10
12.887191000033367
20
-18.467411216347031
30
0
0
SPLINE
5
623
100
AcDbEntity
8
0
100
AcDbSpline
70
0
71
2
72
6
73
3
74
0
42
0.000000001
43
0.0000000001
44
0.0000000001
40
0
40
0
40
0
40
1
40
1
40
1
10
12.887191000033367
20
-18.467411216347031
30
0
10
12.503155889559734
20
-18.004154380409531
30
0
10
12.503155889559734
20
-16.948734339325242
30
0
0
SPLINE
5
624
100
AcDbEntity
8
0
100
AcDbSpline
70
0
71
2
72
6
73
3
74
0
42
0.000000001
43
0.0000000001
44
0.0000000001
40
0
40
0
40
0
40
1
40
1
40
1
10
12.503155889559734
20
-16.948734339325242
30
0
10
12.503155889559734
20
-15.866458829490952
30
0
10
12.90330332760905
20
-15.38843196257811
30
0
0
SPLINE
5
625
100
AcDbEntity
8
0
100
AcDbSpline
70
0
71
2
72
6
73
3
74
0
42
0.000000001
43
0.0000000001
44
0.0000000001
40
0
40
0
40
0
40
1
40
1
40
1
10
12.90330332760905
20
-15.38843196257811
30
0
10
13.303450765658367
20
-14.910403903572373
30
0
10
13.942608060885417
20
-14.910403903572373
30
0
0
SPLINE
5
626
100
AcDbEntity
8
0
100
AcDbSpline
70
0
71
2
72
6
73
3
74
0
42
0.000000001
43
0.0000000001
44
0.0000000001
40
0
40
0
40
0
40
1
40
1
40
1
10
13.942608060885417
20
-14.910403903572373
30
0
10
14.391097250033367
20
-14.910403903572373
30
0
10
14.685162725497234
20
-15.161502774803452
30
0
0
SPLINE
5
627
100
AcDbEntity
8
0
100
AcDbSpline
70
0
71
2
72
6
73
3
74
0
42
0.000000001
43
0.0000000001
44
0.0000000001
40
0
40
0
40
0
40
1
40
1
40
1
10
14.685162725497234
20
-15.161502774803452
30
0
10
14.979228200961101
20
-15.412601646034531
30
0
10
15.059794607211101
20
-15.890628512947373
30
0
0
SPLINE
5
628
100
AcDbEntity
8
0
100
AcDbSpline
70
0
71
2
72
6
73
3
74
0
42
0.000000001
43
0.0000000001
44
0.0000000001
40
0
40
0
40
0
40
1
40
1
40
1
10
13.349103155184734
20
-17.53686946257811
30
0
10
13.349103155184734
20
-17.904788669197373
30
0
10
13.518294515658367
20
-18.104862388222031
30
0
0
SPLINE
5
629
100
AcDbEntity
8
0
100
AcDbSpline
70
0
71
2
72
6
73
3
74
0
42
0.000000001
43
0.0000000001
44
0.0000000001
40
0
40
0
40
0
40
1
40
1
40
1
10
13.518294515658367
20
-18.104862388222031
30
0
10
13.687481107760417
20
-18.304936107246689
30
0
10
13.905009450961101
20
-18.304936107246689
30
0
0
SPLINE
5
630
100
AcDbEntity
8
0
100
AcDbSpline
70
0
71
2
72
6
73
3
74
0
42
0.000000001
43
0.0000000001
44
0.0000000001
40
0
40
0
40
0
40
1
40
1
40
1
10
13.905009450961101
20
-18.304936107246689
30
0
10
14.114484014559734
20
-18.304936107246689
30
0
10
14.254130544711101
20
-18.14111750945311
30
0
0
SPLINE
5
631
100
AcDbEntity
8
0
100
AcDbSpline
70
0
71
2
72
6
73
3
74
0
42
0.000000001
43
0.0000000001
44
0.0000000001
40
0
40
0
40
0
40
1
40
1
40
1
10
14.254130544711101
20
-18.14111750945311
30
0
10
14.39378184323405
20
-17.977298911659531
30
0
10
14.39378184323405
20
-17.60400813445311
30
0
0
SPLINE
5
632
100
AcDbEntity
8
0
100
AcDbSpline
70
0
71
2
72
6
73
3
74
0
42
0.000000001
43
0.0000000001
44
0.0000000001
40
0
40
0
40
0
40
1
40
1
40
1
10
14.39378184323405
20
-17.60400813445311
30
0
10
14.39378184323405
20
-17.219974812118821
30
0
10
14.243392171908367
20
-17.041385587303452
30
0
0
SPLINE
5
633
100
AcDbEntity
8
0
100
AcDbSpline
70
0
71
2
72
6
73
3
74
0
42
0.000000001
43
0.0000000001
44
0.0000000001
40
0
40
0
40
0
40
1
40
1
40
1
10
14.243392171908367
20
-17.041385587303452
30
0
10
14.092997732211101
20
-16.862796958534531
30
0
10
13.867415609408367
20
-16.862796958534531
30
0
0
SPLINE
5
634
100
AcDbEntity
8
0
100
AcDbSpline
70
0
71
2
72
6
73
3
74
0
42
0.000000001
43
0.0000000001
44
0.0000000001
40
0
40
0
40
0
40
1
40
1
40
1
10
13.867415609408367
20
-16.862796958534531
30
0
10
13.649882497836101
20
-16.862796958534531
30
0
10
13.499492826510417
20
-17.03332942351561
30
0
0
SPLINE
5
635
100
AcDbEntity
8
0
100
AcDbSpline
70
0
71
2
72
6
73
3
74
0
42
0.000000001
43
0.0000000001
44
0.0000000001
40
0
40
0
40
0
40
1
40
1
40
1
10
13.499492826510417
20
-17.03332942351561
30
0
10
13.349103155184734
20
-17.203861292450242
30
0
10
13.349103155184734
20
-17.53686946257811
30
0
0
ENDSEC
0
SECTION
2
OBJECTS
0
DICTIONARY
5
C
100
AcDbDictionary
3
ACAD_GROUP
350
D
3
ACAD_MLINESTYLE
350
17
0
DICTIONARY
5
D
100
AcDbDictionary
0
DICTIONARY
5
1A
330
C
100
AcDbDictionary
0
DICTIONARY
5
17
100
AcDbDictionary
0
ENDSEC
0
EOF
