0
SECTION
2
HEADER
9
$INSUNITS
70
4
9
$ACADVER
1
AC1014
9
$HANDSEED
5
FFFF
0
ENDSEC
0
SECTION
2
TABLES
0
TABLE
2
VPORT
5
8
100
AcDbSymbolTable
0
ENDTAB
0
TABLE
2
LTYPE
5
5
100
AcDbSymbolTable
0
LTYPE
5
14
100
AcDbSymbolTableRecord
100
AcDbLinetypeTableRecord
2
BYBLOCK
70
0
0
LTYPE
5
15
100
AcDbSymbolTableRecord
100
AcDbLinetypeTableRecord
2
BYLAYER
70
0
0
LTYPE
5
16
100
AcDbSymbolTableRecord
100
AcDbLinetypeTableRecord
2
DASHED
70
0
3
Dashed __ __ __ __ __ __ __ __ __ __ __ __ __ _
72
65
73
2
40
0.75
49
0.5
74
0
49
-0.25
74
0
0
ENDTAB
0
TABLE
2
LAYER
5
2
100
AcDbSymbolTable
70
2
0
LAYER
5
50
100
AcDbSymbolTableRecord
100
AcDbLayerTableRecord
2
0
70
0
62
7
6
CONTINUOUS
0
ENDTAB
0
TABLE
2
STYLE
5
3
100
AcDbSymbolTable
70
1
0
STYLE
5
11
100
AcDbSymbolTableRecord
100
AcDbTextStyleTableRecord
2
STANDARD
70
0
0
ENDTAB
0
TABLE
2
VIEW
5
6
100
AcDbSymbolTable
70
0
0
ENDTAB
0
TABLE
2
UCS
5
7
100
AcDbSymbolTable
70
0
0
ENDTAB
0
TABLE
2
APPID
5
9
100
AcDbSymbolTable
70
2
0
APPID
5
12
100
AcDbSymbolTableRecord
100
AcDbRegAppTableRecord
2
ACAD
70
0
0
ENDTAB
0
TABLE
2
DIMSTYLE
5
A
100
AcDbSymbolTable
70
1
0
ENDTAB
0
TABLE
2
BLOCK_RECORD
5
1
100
AcDbSymbolTable
70
1
0
BLOCK_RECORD
5
1F
100
AcDbSymbolTableRecord
100
AcDbBlockTableRecord
2
*MODEL_SPACE
0
BLOCK_RECORD
5
1B
100
AcDbSymbolTableRecord
100
AcDbBlockTableRecord
2
*PAPER_SPACE
0
ENDTAB
0
ENDSEC
0
SECTION
2
BLOCKS
0
BLOCK
5
20
100
AcDbEntity
100
AcDbBlockBegin
2
*MODEL_SPACE
0
ENDBLK
5
21
100
AcDbEntity
100
AcDbBlockEnd
0
BLOCK
5
1C
100
AcDbEntity
100
AcDbBlockBegin
2
*PAPER_SPACE
0
ENDBLK
5
1D
100
AcDbEntity
100
AcDbBlockEnd
0
ENDSEC
0
SECTION
2
ENTITIES
0
LWPOLYLINE
5
100
100
AcDbEntity
8
0
100
AcDbPolyline
90
32
70
1
43
0.0
10
-8.6021224794400908
20
-26.6458906559475
42
0.62654371181037272
10
-12.75887083576646
20
-24.924109111385064
42
-0.058024700831109235
10
-18.144265789552797
20
-21.32570324650662
42
0.6265437118103736
10
-21.325703246506645
20
-18.144265789552801
42
-0.058024700831109235
10
-24.924109111385057
20
-12.758870835766441
42
0.62654371181037416
10
-26.645890655947532
20
-8.6021224794400997
42
-0.058024700831109458
10
-27.909482758620673
20
-2.2496159997329359
42
0.62654371181037316
10
-27.909482758620697
20
2.2496159997329546
42
-0.058024700831109235
10
-26.6458906559475
20
8.6021224794400908
42
0.62654371181037238
10
-24.924109111385079
20
12.758870835766443
42
-0.058024700831109124
10
-21.325703246506617
20
18.144265789552794
42
0.62654371181037338
10
-18.144265789552804
20
21.325703246506645
42
-0.058024700831109007
10
-12.75887083576643
20
24.924109111385064
42
0.62654371181037405
10
-8.6021224794400979
20
26.645890655947525
42
-0.058024700831109124
10
-2.2496159997329395
20
27.90948275862068
42
0.62654371181037471
10
2.2496159997329448
20
27.909482758620676
42
-0.058024700831108895
10
8.6021224794400766
20
26.645890655947511
42
0.62654371181037405
10
12.758870835766391
20
24.924109111385064
42
-0.058024700831109347
10
18.144265789552794
20
21.325703246506617
42
0.62654371181037338
10
21.325703246506613
20
18.144265789552779
42
-0.058024700831109007
10
24.924109111385061
20
12.758870835766432
42
0.62654371181037383
10
26.645890655947483
20
8.6021224794400695
42
-0.058024700831109124
10
27.909482758620676
20
2.2496159997329408
42
0.62654371181037449
10
27.909482758620648
20
-2.2496159997329324
42
-0.058024700831109235
10
26.645890655947511
20
-8.6021224794400748
42
0.62654371181037338
10
24.924109111385057
20
-12.758870835766384
42
-0.05802470083110968
10
21.32570324650662
20
-18.14426578955279
42
0.62654371181037338
10
18.144265789552772
20
-21.32570324650661
42
-0.058024700831109347
10
12.75887083576643
20
-24.924109111385057
42
0.62654371181037327
10
8.6021224794400997
20
-26.645890655947497
42
-0.05802470083110968
10
2.2496159997329408
20
-27.909482758620673
42
0.62654371181037372
10
-2.2496159997329332
20
-27.909482758620676
42
-0.05802470083110968
0
CIRCLE
5
101
100
AcDbEntity
8
0
100
AcDbCircle
10
-1.8318679906315083e-14
20
-1.1990408665951691e-13
30
0
40
20.300000000000004
210
0
220
0
230
1
0
CIRCLE
5
102
100
AcDbEntity
8
0
100
AcDbCircle
10
-1.8318679906315083e-14
20
-1.1990408665951691e-13
30
0
40
13.318999999999999
210
0
220
-0
230
1
0
LINE
5
103
100
AcDbEntity
8
0
100
AcDbLine
10
-20.26186580493971
20
1.3063597659665216
30
0
11
-23.573456382742378
21
1.5854334331516857
31
0
0
LINE
5
104
100
AcDbEntity
8
0
100
AcDbLine
10
-23.573456382742386
20
1.5854334331516857
30
0
11
-23.673125553281128
21
0.40272246875774453
31
0
0
LINE
5
105
100
AcDbEntity
8
0
100
AcDbLine
10
-23.673125553281128
20
0.40272246875774453
30
0
11
-24.347406772546272
21
0.45954535436314614
31
0
0
LINE
5
106
100
AcDbEntity
8
0
100
AcDbLine
10
-24.347406772546272
20
0.45954535436314614
30
0
11
-24.080476721429136
21
3.627035326196943
31
0
0
LINE
5
107
100
AcDbEntity
8
0
100
AcDbLine
10
-24.080476721429136
20
3.627035326196943
30
0
11
-23.406195502163992
21
3.5702124405915416
31
0
0
LINE
5
108
100
AcDbEntity
8
0
100
AcDbLine
10
-23.406195502163992
20
3.5702124405915407
30
0
11
-23.505635526947202
21
2.3902206038481277
31
0
0
LINE
5
109
100
AcDbEntity
8
0
100
AcDbLine
10
-23.505635526947202
20
2.3902206038481277
30
0
11
-20.194044949144537
21
2.1111469366629638
31
0
0
LINE
5
110
100
AcDbEntity
8
0
100
AcDbLine
10
-20.194044949144537
20
2.1111469366629638
30
0
11
-20.261865804939717
21
1.3063597659665216
31
0
0
LINE
5
111
100
AcDbEntity
8
0
100
AcDbLine
10
-20.09506812506228
20
6.2704464525748485
30
0
11
-19.403671000908066
21
6.0998116625266903
31
0
0
LINE
5
112
100
AcDbEntity
8
0
100
AcDbLine
10
-19.403671000908069
20
6.0998116625266903
30
0
11
-20.047637478044887
21
3.4905162766416757
31
0
0
SPLINE
5
113
100
AcDbEntity
8
0
100
AcDbSpline
70
0
71
2
72
6
73
3
74
0
42
0.000000001
43
0.0000000001
44
0.0000000001
40
0
40
0
40
0
40
1
40
1
40
1
10
-20.047637478044887
20
3.4905162766416757
30
0
10
-20.429233714097926
20
3.6296591968450596
30
0
10
-20.72792828409661
20
3.9282065262517389
30
0
0
SPLINE
5
114
100
AcDbEntity
8
0
100
AcDbSpline
70
0
71
2
72
6
73
3
74
0
42
0.000000001
43
0.0000000001
44
0.0000000001
40
0
40
0
40
0
40
1
40
1
40
1
10
-20.72792828409661
20
3.9282065262517389
30
0
10
-21.026623138973981
20
4.2267539451509712
30
0
10
-21.452470396128483
20
4.9951015208909313
30
0
0
SPLINE
5
115
100
AcDbEntity
8
0
100
AcDbSpline
70
0
71
2
72
6
73
3
74
0
42
0.000000001
43
0.0000000001
44
0.0000000001
40
0
40
0
40
0
40
1
40
1
40
1
10
-21.452470396128483
20
4.9951015208909313
30
0
10
-21.797131790561387
20
5.6141351926337268
30
0
10
-21.935908421069161
20
5.7692310703622258
30
0
0
SPLINE
5
116
100
AcDbEntity
8
0
100
AcDbSpline
70
0
71
2
72
6
73
3
74
0
42
0.000000001
43
0.0000000001
44
0.0000000001
40
0
40
0
40
0
40
1
40
1
40
1
10
-21.935908421069161
20
5.7692310703622258
30
0
10
-22.128455483749278
20
5.9797531706104712
30
0
10
-22.353622958823919
20
6.0353238455420977
30
0
0
SPLINE
5
117
100
AcDbEntity
8
0
100
AcDbSpline
70
0
71
2
72
6
73
3
74
0
42
0.000000001
43
0.0000000001
44
0.0000000001
40
0
40
0
40
0
40
1
40
1
40
1
10
-22.353622958823919
20
6.0353238455420977
30
0
10
-22.602631903610533
20
6.0967785255362532
30
0
10
-22.769423422440759
20
5.9960180557391531
30
0
0
SPLINE
5
118
100
AcDbEntity
8
0
100
AcDbSpline
70
0
71
2
72
6
73
3
74
0
42
0.000000001
43
0.0000000001
44
0.0000000001
40
0
40
0
40
0
40
1
40
1
40
1
10
-22.769423422440759
20
5.9960180557391531
30
0
10
-22.936215230612724
20
5.8952576573507489
30
0
10
-22.994401034774071
20
5.6594939092170691
30
0
0
SPLINE
5
119
100
AcDbEntity
8
0
100
AcDbSpline
70
0
71
2
72
6
73
3
74
0
42
0.000000001
43
0.0000000001
44
0.0000000001
40
0
40
0
40
0
40
1
40
1
40
1
10
-22.994401034774071
20
5.6594939092170691
30
0
10
-23.051933092332337
20
5.4263790846772819
30
0
10
-22.945530535146879
20
5.2539795621645968
30
0
0
SPLINE
5
120
100
AcDbEntity
8
0
100
AcDbSpline
70
0
71
2
72
6
73
3
74
0
42
0.000000001
43
0.0000000001
44
0.0000000001
40
0
40
0
40
0
40
1
40
1
40
1
10
-22.945530535146879
20
5.2539795621645968
30
0
10
-22.839128013665764
20
5.0815798949810436
30
0
10
-22.518527578289675
20
4.9799735926341775
30
0
0
LINE
5
121
100
AcDbEntity
8
0
100
AcDbLine
10
-22.518527578289675
20
4.9799735926341775
30
0
11
-22.775756763073183
21
4.256550694615731
31
0
0
SPLINE
5
122
100
AcDbEntity
8
0
100
AcDbSpline
70
0
71
2
72
6
73
3
74
0
42
0.000000001
43
0.0000000001
44
0.0000000001
40
0
40
0
40
0
40
1
40
1
40
1
10
-22.775756763073183
20
4.256550694615731
30
0
10
-23.373987599100964
20
4.4744517958533283
30
0
10
-23.555241541558285
20
4.8901549189414117
30
0
0
SPLINE
5
123
100
AcDbEntity
8
0
100
AcDbSpline
70
0
71
2
72
6
73
3
74
0
42
0.000000001
43
0.0000000001
44
0.0000000001
40
0
40
0
40
0
40
1
40
1
40
1
10
-23.555241541558285
20
4.8901549189414117
30
0
10
-23.736495786746474
20
5.3058580591866145
30
0
10
-23.607048710796896
20
5.8303661973948344
30
0
0
SPLINE
5
124
100
AcDbEntity
8
0
100
AcDbSpline
70
0
71
2
72
6
73
3
74
0
42
0.000000001
43
0.0000000001
44
0.0000000001
40
0
40
0
40
0
40
1
40
1
40
1
10
-23.607048710796896
20
5.8303661973948344
30
0
10
-23.465179949527869
20
6.4052059092791547
30
0
10
-23.074175619469898
20
6.6571941768361231
30
0
0
SPLINE
5
125
100
AcDbEntity
8
0
100
AcDbSpline
70
0
71
2
72
6
73
3
74
0
42
0.000000001
43
0.0000000001
44
0.0000000001
40
0
40
0
40
0
40
1
40
1
40
1
10
-23.074175619469898
20
6.6571941768361231
30
0
10
-22.6831709286615
20
6.909182662326133
30
0
10
-22.22223970545318
20
6.7954261832331575
30
0
0
SPLINE
5
126
100
AcDbEntity
8
0
100
AcDbSpline
70
0
71
2
72
6
73
3
74
0
42
0.000000001
43
0.0000000001
44
0.0000000001
40
0
40
0
40
0
40
1
40
1
40
1
10
-22.22223970545318
20
6.7954261832331575
30
0
10
-21.959985564013635
20
6.7307026274061954
30
0
10
-21.746106177838982
20
6.5781492205423531
30
0
0
SPLINE
5
127
100
AcDbEntity
8
0
100
AcDbSpline
70
0
71
2
72
6
73
3
74
0
42
0.000000001
43
0.0000000001
44
0.0000000001
40
0
40
0
40
0
40
1
40
1
40
1
10
-21.746106177838982
20
6.5781492205423531
30
0
10
-21.532227081006067
20
6.4255958850872075
30
0
10
-21.322962351041287
20
6.1575508575650328
30
0
0
SPLINE
5
128
100
AcDbEntity
8
0
100
AcDbSpline
70
0
71
2
72
6
73
3
74
0
42
0.000000001
43
0.0000000001
44
0.0000000001
40
0
40
0
40
0
40
1
40
1
40
1
10
-21.322962351041287
20
6.1575508575650328
30
0
10
-21.184118096100832
20
5.9799550851831551
30
0
10
-20.947887940866629
20
5.5478735544034485
30
0
0
SPLINE
5
129
100
AcDbEntity
8
0
100
AcDbSpline
70
0
71
2
72
6
73
3
74
0
42
0.000000001
43
0.0000000001
44
0.0000000001
40
0
40
0
40
0
40
1
40
1
40
1
10
-20.947887940866629
20
5.5478735544034485
30
0
10
-20.711658039269814
20
5.1157922397033051
30
0
10
-20.628905688110585
20
4.9956007554238129
30
0
0
SPLINE
5
130
100
AcDbEntity
8
0
100
AcDbSpline
70
0
71
2
72
6
73
3
74
0
42
0.000000001
43
0.0000000001
44
0.0000000001
40
0
40
0
40
0
40
1
40
1
40
1
10
-20.628905688110585
20
4.9956007554238129
30
0
10
-20.54615366199744
20
4.8754091978821474
30
0
10
-20.459873511182632
20
4.7922871934437392
30
0
0
LINE
5
131
100
AcDbEntity
8
0
100
AcDbLine
10
-20.459873511182632
20
4.7922871934437392
30
0
11
-20.09506812506228
21
6.2704464525748485
31
0
0
LINE
5
132
100
AcDbEntity
8
0
100
AcDbLine
10
-17.027100331155808
20
8.7382177373613956
30
0
11
-17.249187990330967
21
8.2607370516425167
31
0
0
SPLINE
5
133
100
AcDbEntity
8
0
100
AcDbSpline
70
0
71
2
72
6
73
3
74
0
42
0.000000001
43
0.0000000001
44
0.0000000001
40
0
40
0
40
0
40
1
40
1
40
1
10
-17.249187990330963
20
8.2607370516425149
30
0
10
-17.996739367149225
20
8.1480308329801119
30
0
10
-18.704820679978813
20
8.2366389181076034
30
0
0
SPLINE
5
134
100
AcDbEntity
8
0
100
AcDbSpline
70
0
71
2
72
6
73
3
74
0
42
0.000000001
43
0.0000000001
44
0.0000000001
40
0
40
0
40
0
40
1
40
1
40
1
10
-18.704820679978813
20
8.2366389181076034
30
0
10
-19.412901977097498
20
8.3252470370129927
30
0
10
-19.989342574542292
20
8.59336331222379
30
0
0
SPLINE
5
135
100
AcDbEntity
8
0
100
AcDbSpline
70
0
71
2
72
6
73
3
74
0
42
0.000000001
43
0.0000000001
44
0.0000000001
40
0
40
0
40
0
40
1
40
1
40
1
10
-19.989342574542292
20
8.59336331222379
30
0
10
-20.704326589023985
20
8.9259194362161747
30
0
10
-21.228696339212423
20
9.4677288220481568
30
0
0
SPLINE
5
136
100
AcDbEntity
8
0
100
AcDbSpline
70
0
71
2
72
6
73
3
74
0
42
0.000000001
43
0.0000000001
44
0.0000000001
40
0
40
0
40
0
40
1
40
1
40
1
10
-21.228696339212423
20
9.4677288220481568
30
0
10
-21.683909221287131
20
9.9382518531582136
30
0
10
-21.999600036877695
20
10.482303910417121
30
0
0
LINE
5
137
100
AcDbEntity
8
0
100
AcDbLine
10
-21.999600036877695
20
10.482303910417121
30
0
11
-21.778663107243244
21
10.957310567942747
31
0
0
SPLINE
5
138
100
AcDbEntity
8
0
100
AcDbSpline
70
0
71
2
72
6
73
3
74
0
42
0.000000001
43
0.0000000001
44
0.0000000001
40
0
40
0
40
0
40
1
40
1
40
1
10
-21.778663107243244
20
10.957310567942748
30
0
10
-21.186690652985494
20
10.26970735760891
30
0
10
-20.720228946412949
20
9.8977700549721099
30
0
0
SPLINE
5
139
100
AcDbEntity
8
0
100
AcDbSpline
70
0
71
2
72
6
73
3
74
0
42
0.000000001
43
0.0000000001
44
0.0000000001
40
0
40
0
40
0
40
1
40
1
40
1
10
-20.720228946412949
20
9.8977700549721099
30
0
10
-20.253767176996782
20
9.525832887446894
30
0
10
-19.664956843920464
20
9.2519631530634285
30
0
0
SPLINE
5
140
100
AcDbEntity
8
0
100
AcDbSpline
70
0
71
2
72
6
73
3
74
0
42
0.000000001
43
0.0000000001
44
0.0000000001
40
0
40
0
40
0
40
1
40
1
40
1
10
-19.664956843920464
20
9.2519631530634285
30
0
10
-19.259221624690124
20
9.0632460221325282
30
0
10
-18.798598210918879
20
8.9407802784950832
30
0
0
SPLINE
5
141
100
AcDbEntity
8
0
100
AcDbSpline
70
0
71
2
72
6
73
3
74
0
42
0.000000001
43
0.0000000001
44
0.0000000001
40
0
40
0
40
0
40
1
40
1
40
1
10
-18.798598210918879
20
8.9407802784950832
30
0
10
-18.337974797147634
20
8.8183145348576364
30
0
10
-17.893518180921451
20
8.7710756353170112
30
0
0
SPLINE
5
142
100
AcDbEntity
8
0
100
AcDbSpline
70
0
71
2
72
6
73
3
74
0
42
0.000000001
43
0.0000000001
44
0.0000000001
40
0
40
0
40
0
40
1
40
1
40
1
10
-17.893518180921451
20
8.7710756353170112
30
0
10
-17.600895849778585
20
8.7402926268588157
30
0
10
-17.027100331155808
20
8.7382177373613956
30
0
0
LINE
5
143
100
AcDbEntity
8
0
100
AcDbLine
10
-17.912610200858584
20
9.7447522891158389
30
0
11
-21.229427206048392
21
11.980535246140263
31
0
0
LINE
5
144
100
AcDbEntity
8
0
100
AcDbLine
10
-21.229427206048392
20
11.980535246140263
30
0
11
-20.553812063746957
21
12.982820278284663
31
0
0
LINE
5
145
100
AcDbEntity
8
0
100
AcDbLine
10
-20.553812063746957
20
12.982820278284663
30
0
11
-17.885643247549762
21
12.059553027004801
31
0
0
LINE
5
146
100
AcDbEntity
8
0
100
AcDbLine
10
-17.885643247549762
20
12.059553027004801
30
0
11
-19.747038993355616
21
14.179680031954371
31
0
0
LINE
5
147
100
AcDbEntity
8
0
100
AcDbLine
10
-19.74703899335562
20
14.179680031954371
30
0
11
-19.069898801238157
21
15.184227498002596
31
0
0
LINE
5
148
100
AcDbEntity
8
0
100
AcDbLine
10
-19.069898801238153
20
15.184227498002599
30
0
11
-15.753081796048347
21
12.948444540978175
31
0
0
LINE
5
149
100
AcDbEntity
8
0
100
AcDbLine
10
-15.753081796048347
20
12.948444540978173
30
0
11
-16.172481760348163
21
12.326258505792991
31
0
0
LINE
5
150
100
AcDbEntity
8
0
100
AcDbLine
10
-16.172481760348163
20
12.326258505792991
30
0
11
-18.783400359141396
21
14.086213093648208
31
0
0
LINE
5
151
100
AcDbEntity
8
0
100
AcDbLine
10
-18.783400359141396
20
14.086213093648208
30
0
11
-16.616283188019672
21
11.667872539658132
31
0
0
LINE
5
152
100
AcDbEntity
8
0
100
AcDbLine
10
-16.616283188019672
20
11.667872539658132
30
0
11
-17.050934025282096
21
11.023061609409934
31
0
0
LINE
5
153
100
AcDbEntity
8
0
100
AcDbLine
10
-17.050934025282093
20
11.023061609409934
30
0
11
-20.104128856174349
21
12.126892881265974
31
0
0
LINE
5
154
100
AcDbEntity
8
0
100
AcDbLine
10
-20.104128856174349
20
12.126892881265972
30
0
11
-17.493210257381119
21
10.366938293410755
31
0
0
LINE
5
155
100
AcDbEntity
8
0
100
AcDbLine
10
-17.493210257381119
20
10.366938293410755
30
0
11
-17.912610200858584
21
9.7447522891158371
31
0
0
LINE
5
156
100
AcDbEntity
8
0
100
AcDbLine
10
-14.277304462941604
20
14.432030696162217
30
0
11
-14.848631241062336
21
14.999012038337121
31
0
0
LINE
5
157
100
AcDbEntity
8
0
100
AcDbLine
10
-14.848631241062336
20
14.999012038337121
30
0
11
-16.001813682851935
21
13.836991421352145
31
0
0
LINE
5
158
100
AcDbEntity
8
0
100
AcDbLine
10
-16.001813682851935
20
13.836991421352145
30
0
11
-16.478242137005672
21
14.309796223666726
31
0
0
LINE
5
159
100
AcDbEntity
8
0
100
AcDbLine
10
-16.478242137005672
20
14.309796223666726
30
0
11
-17.058937500118798
21
17.330893003671587
31
0
0
LINE
5
160
100
AcDbEntity
8
0
100
AcDbLine
10
-17.058937500118802
20
17.330893003671587
30
0
11
-16.605352468364526
21
17.78795438386074
31
0
0
LINE
5
161
100
AcDbEntity
8
0
100
AcDbLine
10
-16.605352468364526
20
17.787954383860736
30
0
11
-14.804220301161699
21
16.00052138981464
31
0
0
LINE
5
162
100
AcDbEntity
8
0
100
AcDbLine
10
-14.804220301161699
20
16.00052138981464
30
0
11
-14.454421589583779
21
16.353001014823086
31
0
0
LINE
5
163
100
AcDbEntity
8
0
100
AcDbLine
10
-14.454421589583779
20
16.353001014823086
30
0
11
-13.976056512648452
21
15.878274319423774
31
0
0
LINE
5
164
100
AcDbEntity
8
0
100
AcDbLine
10
-13.976056512648452
20
15.878274319423774
30
0
11
-14.325855224226371
21
15.525794694415325
31
0
0
LINE
5
165
100
AcDbEntity
8
0
100
AcDbLine
10
-14.325855224226371
20
15.525794694415325
30
0
11
-13.75452844610564
21
14.958813352240421
31
0
0
LINE
5
166
100
AcDbEntity
8
0
100
AcDbLine
10
-13.75452844610564
20
14.958813352240421
30
0
11
-14.277304462941604
21
14.432030696162217
31
0
0
LINE
5
167
100
AcDbEntity
8
0
100
AcDbLine
10
-15.326996317997663
20
15.473738733736436
30
0
11
-16.297283677488132
21
16.436646215841176
31
0
0
LINE
5
168
100
AcDbEntity
8
0
100
AcDbLine
10
-16.297283677488132
20
16.436646215841176
30
0
11
-15.974700476101207
21
14.821070467078474
31
0
0
LINE
5
169
100
AcDbEntity
8
0
100
AcDbLine
10
-15.974700476101207
20
14.821070467078474
30
0
11
-15.326996317997663
21
15.473738733736436
31
0
0
LINE
5
170
100
AcDbEntity
8
0
100
AcDbLine
10
-11.507209851660392
20
17.627092304045767
30
0
11
-11.082576905231436
21
17.055399138378586
31
0
0
LINE
5
171
100
AcDbEntity
8
0
100
AcDbLine
10
-11.082576905231436
20
17.055399138378586
30
0
11
-13.240116020167997
21
15.452857344229184
31
0
0
SPLINE
5
172
100
AcDbEntity
8
0
100
AcDbSpline
70
0
71
2
72
6
73
3
74
0
42
0.000000001
43
0.0000000001
44
0.0000000001
40
0
40
0
40
0
40
1
40
1
40
1
10
-13.240116020167997
20
15.452857344229185
30
0
10
-13.445857728200048
20
15.803066980288259
30
0
10
-13.486196380482092
20
16.223449838138844
30
0
0
SPLINE
5
173
100
AcDbEntity
8
0
100
AcDbSpline
70
0
71
2
72
6
73
3
74
0
42
0.000000001
43
0.0000000001
44
0.0000000001
40
0
40
0
40
0
40
1
40
1
40
1
10
-13.486196380482092
20
16.223449838138844
30
0
10
-13.526535195515198
20
16.643832946342936
30
0
10
-13.365903100050222
20
17.507488672589233
30
0
0
SPLINE
5
174
100
AcDbEntity
8
0
100
AcDbSpline
70
0
71
2
72
6
73
3
74
0
42
0.000000001
43
0.0000000001
44
0.0000000001
40
0
40
0
40
0
40
1
40
1
40
1
10
-13.365903100050222
20
17.507488672589233
30
0
10
-13.237697356170269
20
18.20430819786101
30
0
10
-13.246008008794036
20
18.412261600132844
30
0
0
SPLINE
5
175
100
AcDbEntity
8
0
100
AcDbSpline
70
0
71
2
72
6
73
3
74
0
42
0.000000001
43
0.0000000001
44
0.0000000001
40
0
40
0
40
0
40
1
40
1
40
1
10
-13.246008008794036
20
18.412261600132844
30
0
10
-13.260509530327367
20
18.697189015298346
30
0
10
-13.398799848641719
20
18.883372472147659
30
0
0
SPLINE
5
176
100
AcDbEntity
8
0
100
AcDbSpline
70
0
71
2
72
6
73
3
74
0
42
0.000000001
43
0.0000000001
44
0.0000000001
40
0
40
0
40
0
40
1
40
1
40
1
10
-13.398799848641719
20
18.883372472147659
30
0
10
-13.551732798776928
20
19.089269643181812
30
0
10
-13.744508428946601
20
19.117723807026714
30
0
0
SPLINE
5
177
100
AcDbEntity
8
0
100
AcDbSpline
70
0
71
2
72
6
73
3
74
0
42
0.000000001
43
0.0000000001
44
0.0000000001
40
0
40
0
40
0
40
1
40
1
40
1
10
-13.744508428946601
20
19.117723807026714
30
0
10
-13.937284236820272
20
19.146178210118624
30
0
10
-14.132229397584403
20
19.001380015949671
30
0
0
SPLINE
5
178
100
AcDbEntity
8
0
100
AcDbSpline
70
0
71
2
72
6
73
3
74
0
42
0.000000001
43
0.0000000001
44
0.0000000001
40
0
40
0
40
0
40
1
40
1
40
1
10
-14.132229397584403
20
19.001380015949671
30
0
10
-14.324984251993335
20
18.858208701892369
30
0
10
-14.352656528159415
20
18.657516537944709
30
0
0
SPLINE
5
179
100
AcDbEntity
8
0
100
AcDbSpline
70
0
71
2
72
6
73
3
74
0
42
0.000000001
43
0.0000000001
44
0.0000000001
40
0
40
0
40
0
40
1
40
1
40
1
10
-14.352656528159415
20
18.657516537944709
30
0
10
-14.380328923949001
20
18.456824285145046
30
0
10
-14.197737842118537
20
18.174390263334779
30
0
0
LINE
5
180
100
AcDbEntity
8
0
100
AcDbLine
10
-14.197737842118537
20
18.174390263334779
30
0
11
-14.856602773900441
21
17.780176432337154
31
0
0
SPLINE
5
181
100
AcDbEntity
8
0
100
AcDbSpline
70
0
71
2
72
6
73
3
74
0
42
0.000000001
43
0.0000000001
44
0.0000000001
40
0
40
0
40
0
40
1
40
1
40
1
10
-14.856602773900441
20
17.780176432337154
30
0
10
-15.179294385385607
20
18.329021717433204
30
0
10
-15.054483704673418
20
18.765008382575232
30
0
0
SPLINE
5
182
100
AcDbEntity
8
0
100
AcDbSpline
70
0
71
2
72
6
73
3
74
0
42
0.000000001
43
0.0000000001
44
0.0000000001
40
0
40
0
40
0
40
1
40
1
40
1
10
-15.054483704673418
20
18.765008382575232
30
0
10
-14.929673246524043
20
19.20099525364477
30
0
10
-14.495975003539201
20
19.523130576995701
30
0
0
SPLINE
5
183
100
AcDbEntity
8
0
100
AcDbSpline
70
0
71
2
72
6
73
3
74
0
42
0.000000001
43
0.0000000001
44
0.0000000001
40
0
40
0
40
0
40
1
40
1
40
1
10
-14.495975003539201
20
19.523130576995701
30
0
10
-14.020659265076487
20
19.876177866396002
30
0
10
-13.558697776957541
20
19.821642954592914
30
0
0
SPLINE
5
184
100
AcDbEntity
8
0
100
AcDbSpline
70
0
71
2
72
6
73
3
74
0
42
0.000000001
43
0.0000000001
44
0.0000000001
40
0
40
0
40
0
40
1
40
1
40
1
10
-13.558697776957541
20
19.821642954592914
30
0
10
-13.096735871887585
20
19.767107981246816
30
0
10
-12.813647359404282
20
19.385979363633368
30
0
0
SPLINE
5
185
100
AcDbEntity
8
0
100
AcDbSpline
70
0
71
2
72
6
73
3
74
0
42
0.000000001
43
0.0000000001
44
0.0000000001
40
0
40
0
40
0
40
1
40
1
40
1
10
-12.813647359404282
20
19.385979363633368
30
0
10
-12.652579653302816
20
19.169130182329194
30
0
10
-12.584727035670271
20
18.915333105796343
30
0
0
SPLINE
5
186
100
AcDbEntity
8
0
100
AcDbSpline
70
0
71
2
72
6
73
3
74
0
42
0.000000001
43
0.0000000001
44
0.0000000001
40
0
40
0
40
0
40
1
40
1
40
1
10
-12.584727035670271
20
18.915333105796343
30
0
10
-12.516874595741728
20
18.661536268510496
30
0
10
-12.526094058018597
20
18.321602649252384
30
0
0
SPLINE
5
187
100
AcDbEntity
8
0
100
AcDbSpline
70
0
71
2
72
6
73
3
74
0
42
0.000000001
43
0.0000000001
44
0.0000000001
40
0
40
0
40
0
40
1
40
1
40
1
10
-12.526094058018597
20
18.321602649252384
30
0
10
-12.532052933377662
20
18.096252971412937
30
0
10
-12.624887973340819
20
17.612640739518469
30
0
0
SPLINE
5
188
100
AcDbEntity
8
0
100
AcDbSpline
70
0
71
2
72
6
73
3
74
0
42
0.000000001
43
0.0000000001
44
0.0000000001
40
0
40
0
40
0
40
1
40
1
40
1
10
-12.624887973340819
20
17.612640739518469
30
0
10
-12.717723071384469
20
17.129028835723009
30
0
10
-12.730404187179156
20
16.98365643869424
30
0
0
SPLINE
5
189
100
AcDbEntity
8
0
100
AcDbSpline
70
0
71
2
72
6
73
3
74
0
42
0.000000001
43
0.0000000001
44
0.0000000001
40
0
40
0
40
0
40
1
40
1
40
1
10
-12.730404187179156
20
16.98365643869424
30
0
10
-12.743085600301345
20
16.838284192060481
30
0
10
-12.729450321993081
20
16.719256417016414
30
0
0
LINE
5
190
100
AcDbEntity
8
0
100
AcDbLine
10
-12.729450321993081
20
16.719256417016414
30
0
11
-11.507209851660392
21
17.627092304045767
31
0
0
LINE
5
191
100
AcDbEntity
8
0
100
AcDbLine
10
-10.869919061799212
20
17.211878014853127
30
0
11
-10.64754346251458
21
19.020237312802053
31
0
0
LINE
5
192
100
AcDbEntity
8
0
100
AcDbLine
10
-10.64754346251458
20
19.020237312802053
30
0
11
-12.191235222782016
21
19.791138161726288
31
0
0
LINE
5
193
100
AcDbEntity
8
0
100
AcDbLine
10
-12.191235222782016
20
19.791138161726288
30
0
11
-11.364814354052772
21
20.230341713149507
31
0
0
LINE
5
194
100
AcDbEntity
8
0
100
AcDbLine
10
-11.364814354052772
20
20.230341713149507
30
0
11
-10.537949697148335
21
19.767529426690544
31
0
0
LINE
5
195
100
AcDbEntity
8
0
100
AcDbLine
10
-10.537949697148337
20
19.767529426690544
30
0
11
-10.434789715630004
21
20.724605761363179
31
0
0
LINE
5
196
100
AcDbEntity
8
0
100
AcDbLine
10
-10.434789715630002
20
20.724605761363179
30
0
11
-9.6396909420537664
21
21.147163102665431
31
0
0
LINE
5
197
100
AcDbEntity
8
0
100
AcDbLine
10
-9.6396909420537664
20
21.147163102665431
30
0
11
-9.8629915661730223
21
19.474268177010362
31
0
0
LINE
5
198
100
AcDbEntity
8
0
100
AcDbLine
10
-9.8629915661730223
20
19.474268177010362
30
0
11
-8.2003147110099857
21
18.630646291559895
31
0
0
LINE
5
199
100
AcDbEntity
8
0
100
AcDbLine
10
-8.2003147110099874
20
18.630646291559895
30
0
11
-9.0315541943850182
21
18.188881874667942
31
0
0
LINE
5
200
100
AcDbEntity
8
0
100
AcDbLine
10
-9.0315541943850182
20
18.188881874667942
30
0
11
-9.9732594370393493
21
18.704988347935643
31
0
0
LINE
5
201
100
AcDbEntity
8
0
100
AcDbLine
10
-9.9732594370393493
20
18.704988347935647
30
0
11
-10.077229630497722
21
17.633154904845757
31
0
0
LINE
5
202
100
AcDbEntity
8
0
100
AcDbLine
10
-10.077229630497722
20
17.633154904845757
30
0
11
-10.869919061799212
21
17.211878014853124
31
0
0
SPLINE
5
203
100
AcDbEntity
8
0
100
AcDbSpline
70
0
71
2
72
6
73
3
74
0
42
0.000000001
43
0.0000000001
44
0.0000000001
40
0
40
0
40
0
40
1
40
1
40
1
10
-8.0856220779176464
20
22.932706697288999
30
0
10
-7.5373567950813127
20
23.125495662567172
30
0
10
-7.0908978827244562
20
22.842858926350349
30
0
0
SPLINE
5
204
100
AcDbEntity
8
0
100
AcDbSpline
70
0
71
2
72
6
73
3
74
0
42
0.000000001
43
0.0000000001
44
0.0000000001
40
0
40
0
40
0
40
1
40
1
40
1
10
-7.0908978827244562
20
22.842858926350349
30
0
10
-6.559893553869359
20
22.508967121026675
30
0
10
-6.1824617013738434
20
21.435602880177544
30
0
0
SPLINE
5
205
100
AcDbEntity
8
0
100
AcDbSpline
70
0
71
2
72
6
73
3
74
0
42
0.000000001
43
0.0000000001
44
0.0000000001
40
0
40
0
40
0
40
1
40
1
40
1
10
-6.1824617013738434
20
21.435602880177544
30
0
10
-5.8059349247244771
20
20.364812550465192
30
0
10
-6.0118625026991808
20
19.766005444000253
30
0
0
SPLINE
5
206
100
AcDbEntity
8
0
100
AcDbSpline
70
0
71
2
72
6
73
3
74
0
42
0.000000001
43
0.0000000001
44
0.0000000001
40
0
40
0
40
0
40
1
40
1
40
1
10
-6.0118625026991808
20
19.766005444000253
30
0
10
-6.1824034841958344
20
19.272194934744032
30
0
10
-6.7306687670321672
20
19.07940596946586
30
0
0
SPLINE
5
207
100
AcDbEntity
8
0
100
AcDbSpline
70
0
71
2
72
6
73
3
74
0
42
0.000000001
43
0.0000000001
44
0.0000000001
40
0
40
0
40
0
40
1
40
1
40
1
10
-6.7306687670321672
20
19.07940596946586
30
0
10
-7.2815080312923133
20
18.885711903626195
30
0
10
-7.767594983699305
20
19.190567564466217
30
0
0
SPLINE
5
208
100
AcDbEntity
8
0
100
AcDbSpline
70
0
71
2
72
6
73
3
74
0
42
0.000000001
43
0.0000000001
44
0.0000000001
40
0
40
0
40
0
40
1
40
1
40
1
10
-7.767594983699305
20
19.190567564466217
30
0
10
-8.2536819185345394
20
19.495423231485081
30
0
10
-8.6356394468449142
20
20.581657871462497
30
0
0
SPLINE
5
209
100
AcDbEntity
8
0
100
AcDbSpline
70
0
71
2
72
6
73
3
74
0
42
0.000000001
43
0.0000000001
44
0.0000000001
40
0
40
0
40
0
40
1
40
1
40
1
10
-8.6356394468449142
20
20.581657871462497
30
0
10
-9.0103559729406104
20
21.64730009775316
30
0
10
-8.8044283422506311
20
22.246107222754606
30
0
0
SPLINE
5
210
100
AcDbEntity
8
0
100
AcDbSpline
70
0
71
2
72
6
73
3
74
0
42
0.000000001
43
0.0000000001
44
0.0000000001
40
0
40
0
40
0
40
1
40
1
40
1
10
-8.8044283422506311
20
22.246107222754606
30
0
10
-8.633887360753981
20
22.739917732010827
30
0
10
-8.0856220779176464
20
22.932706697288999
30
0
0
SPLINE
5
211
100
AcDbEntity
8
0
100
AcDbSpline
70
0
71
2
72
6
73
3
74
0
42
0.000000001
43
0.0000000001
44
0.0000000001
40
0
40
0
40
0
40
1
40
1
40
1
10
-7.874730903686884
20
22.332961223680165
30
0
10
-8.0060057134771156
20
22.286800477160487
30
0
10
-8.0795500348291878
20
22.16694038352766
30
0
0
SPLINE
5
212
100
AcDbEntity
8
0
100
AcDbSpline
70
0
71
2
72
6
73
3
74
0
42
0.000000001
43
0.0000000001
44
0.0000000001
40
0
40
0
40
0
40
1
40
1
40
1
10
-8.0795500348291878
20
22.16694038352766
30
0
10
-8.1530945956166949
20
22.04708052161228
30
0
10
-8.1336935243188524
20
21.810950786309157
30
0
0
SPLINE
5
213
100
AcDbEntity
8
0
100
AcDbSpline
70
0
71
2
72
6
73
3
74
0
42
0.000000001
43
0.0000000001
44
0.0000000001
40
0
40
0
40
0
40
1
40
1
40
1
10
-8.1336935243188524
20
21.810950786309157
30
0
10
-8.1096826490813427
20
21.504134683028767
30
0
10
-7.8761636889445015
20
20.84003890066727
30
0
0
SPLINE
5
214
100
AcDbEntity
8
0
100
AcDbSpline
70
0
71
2
72
6
73
3
74
0
42
0.000000001
43
0.0000000001
44
0.0000000001
40
0
40
0
40
0
40
1
40
1
40
1
10
-7.8761636889445015
20
20.84003890066727
30
0
10
-7.6426446299462905
20
20.175942837157645
30
0
10
-7.4883768704636458
20
19.951083367598052
30
0
0
SPLINE
5
215
100
AcDbEntity
8
0
100
AcDbSpline
70
0
71
2
72
6
73
3
74
0
42
0.000000001
43
0.0000000001
44
0.0000000001
40
0
40
0
40
0
40
1
40
1
40
1
10
-7.4883768704636458
20
19.951083367598052
30
0
10
-7.3341091812680332
20
19.726223873323114
30
0
10
-7.2034719310170807
20
19.679607297296737
30
0
0
SPLINE
5
216
100
AcDbEntity
8
0
100
AcDbSpline
70
0
71
2
72
6
73
3
74
0
42
0.000000001
43
0.0000000001
44
0.0000000001
40
0
40
0
40
0
40
1
40
1
40
1
10
-7.2034719310170807
20
19.679607297296737
30
0
10
-7.0728347510531613
20
19.632990696555016
30
0
10
-6.9415599412629287
20
19.679151443074694
30
0
0
SPLINE
5
217
100
AcDbEntity
8
0
100
AcDbSpline
70
0
71
2
72
6
73
3
74
0
42
0.000000001
43
0.0000000001
44
0.0000000001
40
0
40
0
40
0
40
1
40
1
40
1
10
-6.9415599412629287
20
19.679151443074694
30
0
10
-6.810285131472698
20
19.725312189594376
30
0
10
-6.7367405706851908
20
19.845172051509756
30
0
0
SPLINE
5
218
100
AcDbEntity
8
0
100
AcDbSpline
70
0
71
2
72
6
73
3
74
0
42
0.000000001
43
0.0000000001
44
0.0000000001
40
0
40
0
40
0
40
1
40
1
40
1
10
-6.7367405706851908
20
19.845172051509756
30
0
10
-6.6631962493331187
20
19.965032145142583
30
0
10
-6.682597250343929
20
20.201161905161051
30
0
0
SPLINE
5
219
100
AcDbEntity
8
0
100
AcDbSpline
70
0
71
2
72
6
73
3
74
0
42
0.000000001
43
0.0000000001
44
0.0000000001
40
0
40
0
40
0
40
1
40
1
40
1
10
-6.682597250343929
20
20.201161905161051
30
0
10
-6.7057030211609518
20
20.505403791441182
30
0
10
-6.939222080159162
20
21.169499854950811
30
0
0
SPLINE
5
220
100
AcDbEntity
8
0
100
AcDbSpline
70
0
71
2
72
6
73
3
74
0
42
0.000000001
43
0.0000000001
44
0.0000000001
40
0
40
0
40
0
40
1
40
1
40
1
10
-6.939222080159162
20
21.169499854950811
30
0
10
-7.1727410402960032
20
21.833595637312307
30
0
10
-7.3270088283529855
20
22.05845541273537
30
0
0
SPLINE
5
221
100
AcDbEntity
8
0
100
AcDbSpline
70
0
71
2
72
6
73
3
74
0
42
0.000000001
43
0.0000000001
44
0.0000000001
40
0
40
0
40
0
40
1
40
1
40
1
10
-7.3270088283529855
20
22.05845541273537
30
0
10
-7.4812765175485989
20
22.283314907010308
30
0
10
-7.6123663265789716
20
22.33121827331567
30
0
0
SPLINE
5
222
100
AcDbEntity
8
0
100
AcDbSpline
70
0
71
2
72
6
73
3
74
0
42
0.000000001
43
0.0000000001
44
0.0000000001
40
0
40
0
40
0
40
1
40
1
40
1
10
-7.6123663265789716
20
22.33121827331567
30
0
10
-7.7434560938966523
20
22.379121970199844
30
0
10
-7.874730903686884
20
22.332961223680165
30
0
0
LINE
5
223
100
AcDbEntity
8
0
100
AcDbLine
10
-4.9159540755786955
20
19.699343858285051
30
0
11
-5.0878158194937617
21
20.446545992859193
31
0
0
LINE
5
224
100
AcDbEntity
8
0
100
AcDbLine
10
-5.0878158194937608
20
20.446545992859193
30
0
11
-4.3406136486146663
21
20.618407745124649
31
0
0
LINE
5
225
100
AcDbEntity
8
0
100
AcDbLine
10
-4.3406136486146663
20
20.618407745124653
30
0
11
-4.1687519046996009
21
19.871205610550511
31
0
0
LINE
5
226
100
AcDbEntity
8
0
100
AcDbLine
10
-4.1687519046996009
20
19.871205610550511
30
0
11
-4.9159540755786955
21
19.699343858285051
31
0
0
LINE
5
227
100
AcDbEntity
8
0
100
AcDbLine
10
-3.9854136458085083
20
23.23069760091321
30
0
11
-4.0664361947152585
21
23.938215188653992
31
0
0
LINE
5
228
100
AcDbEntity
8
0
100
AcDbLine
10
-4.0664361947152585
20
23.938215188653984
30
0
11
-1.4613611650324287
21
24.236539672250519
31
0
0
LINE
5
229
100
AcDbEntity
8
0
100
AcDbLine
10
-1.4613611650324287
20
24.236539672250519
30
0
11
-1.3980331969411874
21
23.683537429973406
31
0
0
SPLINE
5
230
100
AcDbEntity
8
0
100
AcDbSpline
70
0
71
2
72
6
73
3
74
0
42
0.000000001
43
0.0000000001
44
0.0000000001
40
0
40
0
40
0
40
1
40
1
40
1
10
-1.3980331969411874
20
23.683537429973406
30
0
10
-1.6842974265955162
20
23.329432764325155
30
0
10
-1.9497410610383892
20
22.69758567885517
30
0
0
SPLINE
5
231
100
AcDbEntity
8
0
100
AcDbSpline
70
0
71
2
72
6
73
3
74
0
42
0.000000001
43
0.0000000001
44
0.0000000001
40
0
40
0
40
0
40
1
40
1
40
1
10
-1.9497410610383892
20
22.69758567885517
30
0
10
-2.2151845135302
20
22.065738314250602
30
0
10
-2.3135095372757957
20
21.377503893169973
30
0
0
SPLINE
5
232
100
AcDbEntity
8
0
100
AcDbSpline
70
0
71
2
72
6
73
3
74
0
42
0.000000001
43
0.0000000001
44
0.0000000001
40
0
40
0
40
0
40
1
40
1
40
1
10
-2.3135095372757957
20
21.377503893169973
30
0
10
-2.4118344807913839
20
20.689270081219032
30
0
10
-2.3489001154750122
20
20.163686010450157
30
0
0
LINE
5
233
100
AcDbEntity
8
0
100
AcDbLine
10
-2.3489001154750122
20
20.163686010450157
30
0
11
-3.0835257520617985
21
20.079559138412151
31
0
0
SPLINE
5
234
100
AcDbEntity
8
0
100
AcDbSpline
70
0
71
2
72
6
73
3
74
0
42
0.000000001
43
0.0000000001
44
0.0000000001
40
0
40
0
40
0
40
1
40
1
40
1
10
-3.0835257520617985
20
20.079559138412151
30
0
10
-3.1589212303567167
20
20.905814005381572
30
0
10
-2.9357882583817254
20
21.799211967120115
30
0
0
SPLINE
5
235
100
AcDbEntity
8
0
100
AcDbSpline
70
0
71
2
72
6
73
3
74
0
42
0.000000001
43
0.0000000001
44
0.0000000001
40
0
40
0
40
0
40
1
40
1
40
1
10
-2.9357882583817254
20
21.799211967120115
30
0
10
-2.7126551445706752
20
22.69260934515923
30
0
10
-2.2532150353478091
20
23.42906319501866
30
0
0
LINE
5
236
100
AcDbEntity
8
0
100
AcDbLine
10
-2.2532150353478091
20
23.42906319501866
30
0
11
-3.9854136458085074
21
23.23069760091321
31
0
0
LINE
5
237
100
AcDbEntity
8
0
100
AcDbLine
10
-0.52977957753426375
20
21.362003303401767
30
0
11
0.23657462718260863
21
21.413319545974385
31
0
0
SPLINE
5
238
100
AcDbEntity
8
0
100
AcDbSpline
70
0
71
2
72
6
73
3
74
0
42
0.000000001
43
0.0000000001
44
0.0000000001
40
0
40
0
40
0
40
1
40
1
40
1
10
0.23657462718260872
20
21.413319545974385
30
0
10
0.25987705772200043
20
21.153092373905658
30
0
10
0.41525094973915294
20
20.995910802584884
30
0
0
SPLINE
5
239
100
AcDbEntity
8
0
100
AcDbSpline
70
0
71
2
72
6
73
3
74
0
42
0.000000001
43
0.0000000001
44
0.0000000001
40
0
40
0
40
0
40
1
40
1
40
1
10
0.41525094973915294
20
20.995910802584884
30
0
10
0.57062476729969502
20
20.8387292339712
30
0
10
0.78058138896497542
20
20.831095662145124
30
0
0
SPLINE
5
240
100
AcDbEntity
8
0
100
AcDbSpline
70
0
71
2
72
6
73
3
74
0
42
0.000000001
43
0.0000000001
44
0.0000000001
40
0
40
0
40
0
40
1
40
1
40
1
10
0.78058138896497542
20
20.831095662145124
30
0
10
1.0205321115517374
20
20.822371569229851
30
0
10
1.1939498001333617
20
21.011284059732457
30
0
0
SPLINE
5
241
100
AcDbEntity
8
0
100
AcDbSpline
70
0
71
2
72
6
73
3
74
0
42
0.000000001
43
0.0000000001
44
0.0000000001
40
0
40
0
40
0
40
1
40
1
40
1
10
1.1939498001333617
20
21.011284059732457
30
0
10
1.3673674887149865
20
21.200196550235063
30
0
10
1.3816432662934699
20
21.592842889368775
30
0
0
SPLINE
5
242
100
AcDbEntity
8
0
100
AcDbSpline
70
0
71
2
72
6
73
3
74
0
42
0.000000001
43
0.0000000001
44
0.0000000001
40
0
40
0
40
0
40
1
40
1
40
1
10
1.3816432662934699
20
21.592842889368775
30
0
10
1.3950268111571509
20
21.960948925377398
30
0
10
1.2367525230672154
20
22.15099990414387
30
0
0
SPLINE
5
243
100
AcDbEntity
8
0
100
AcDbSpline
70
0
71
2
72
6
73
3
74
0
42
0.000000001
43
0.0000000001
44
0.0000000001
40
0
40
0
40
0
40
1
40
1
40
1
10
1.2367525230672154
20
22.15099990414387
30
0
10
1.0784782241489506
20
22.341050585083899
30
0
10
0.81398734735031508
20
22.350666905299811
30
0
0
SPLINE
5
244
100
AcDbEntity
8
0
100
AcDbSpline
70
0
71
2
72
6
73
3
74
0
42
0.000000001
43
0.0000000001
44
0.0000000001
40
0
40
0
40
0
40
1
40
1
40
1
10
0.81398734735031508
20
22.350666905299811
30
0
10
0.48405528993504338
20
22.362662526290606
30
0
10
0.21168332250441318
20
22.080421783238947
30
0
0
LINE
5
245
100
AcDbEntity
8
0
100
AcDbLine
10
0.21168332250441318
20
22.080421783238947
30
0
11
-0.40673535740678757
21
22.19300651333986
31
0
0
LINE
5
246
100
AcDbEntity
8
0
100
AcDbLine
10
-0.40673535740678768
20
22.19300651333986
30
0
11
0.061552862588887675
21
24.259211337857714
31
0
0
LINE
5
247
100
AcDbEntity
8
0
100
AcDbLine
10
0.061552862588887536
20
24.25921133785771
30
0
11
2.087499510085395
21
24.185552269013865
31
0
0
LINE
5
248
100
AcDbEntity
8
0
100
AcDbLine
10
2.0874995100853946
20
24.185552269013865
30
0
11
2.0614263863550981
21
23.468427297978213
31
0
0
LINE
5
249
100
AcDbEntity
8
0
100
AcDbLine
10
2.0614263863550981
20
23.468427297978216
30
0
11
0.61626929543068498
21
23.520970105945107
31
0
0
LINE
5
250
100
AcDbEntity
8
0
100
AcDbLine
10
0.61626929543068565
20
23.520970105945107
30
0
11
0.4716088060294209
21
22.846381082796754
31
0
0
SPLINE
5
251
100
AcDbEntity
8
0
100
AcDbSpline
70
0
71
2
72
6
73
3
74
0
42
0.000000001
43
0.0000000001
44
0.0000000001
40
0
40
0
40
0
40
1
40
1
40
1
10
0.47160880602942074
20
22.846381082796754
30
0
10
0.73257910819137462
20
22.965217484200547
30
0
10
0.99979673497498278
20
22.955502025211601
30
0
0
SPLINE
5
252
100
AcDbEntity
8
0
100
AcDbSpline
70
0
71
2
72
6
73
3
74
0
42
0.000000001
43
0.0000000001
44
0.0000000001
40
0
40
0
40
0
40
1
40
1
40
1
10
0.99979673497498278
20
22.955502025211601
30
0
10
1.5096916854171052
20
22.936963339948516
30
0
10
1.850681740017974
20
22.553242835627131
30
0
0
SPLINE
5
253
100
AcDbEntity
8
0
100
AcDbSpline
70
0
71
2
72
6
73
3
74
0
42
0.000000001
43
0.0000000001
44
0.0000000001
40
0
40
0
40
0
40
1
40
1
40
1
10
1.850681740017974
20
22.553242835627131
30
0
10
2.1916714859640711
20
22.169522044307634
30
0
10
2.1701586808233126
20
21.577825785622093
30
0
0
SPLINE
5
254
100
AcDbEntity
8
0
100
AcDbSpline
70
0
71
2
72
6
73
3
74
0
42
0.000000001
43
0.0000000001
44
0.0000000001
40
0
40
0
40
0
40
1
40
1
40
1
10
2.1701586808233126
20
21.577825785622093
30
0
10
2.1522148173700932
20
21.084291037263366
30
0
10
1.8518325895724776
20
20.707507623085611
30
0
0
SPLINE
5
255
100
AcDbEntity
8
0
100
AcDbSpline
70
0
71
2
72
6
73
3
74
0
42
0.000000001
43
0.0000000001
44
0.0000000001
40
0
40
0
40
0
40
1
40
1
40
1
10
1.8518325895724776
20
20.707507623085611
30
0
10
1.4426800513371416
20
20.192702221295676
30
0
10
0.75009538342658555
20
20.217883112311171
30
0
0
SPLINE
5
256
100
AcDbEntity
8
0
100
AcDbSpline
70
0
71
2
72
6
73
3
74
0
42
0.000000001
43
0.0000000001
44
0.0000000001
40
0
40
0
40
0
40
1
40
1
40
1
10
0.75009538342658555
20
20.217883112311171
30
0
10
0.1965731033343894
20
20.238007993579043
30
0
10
-0.14164001135604856
20
20.547909007738472
30
0
0
SPLINE
5
257
100
AcDbEntity
8
0
100
AcDbSpline
70
0
71
2
72
6
73
3
74
0
42
0.000000001
43
0.0000000001
44
0.0000000001
40
0
40
0
40
0
40
1
40
1
40
1
10
-0.14164001135604856
20
20.547909007738472
30
0
10
-0.47985305158987623
20
20.857810019190815
30
0
10
-0.52977957753426375
20
21.362003303401767
30
0
0
SPLINE
5
258
100
AcDbEntity
8
0
100
AcDbSpline
70
0
71
2
72
6
73
3
74
0
42
0.000000001
43
0.0000000001
44
0.0000000001
40
0
40
0
40
0
40
1
40
1
40
1
10
2.2379472072164743
20
19.007108859130703
30
0
10
2.5371181651034642
20
19.451703475486024
30
0
10
2.6690316360061619
20
19.693352269762162
30
0
0
SPLINE
5
259
100
AcDbEntity
8
0
100
AcDbSpline
70
0
71
2
72
6
73
3
74
0
42
0.000000001
43
0.0000000001
44
0.0000000001
40
0
40
0
40
0
40
1
40
1
40
1
10
2.6690316360061619
20
19.693352269762162
30
0
10
2.8009451805100181
20
19.935001052463129
30
0
10
2.931674865987187
20
20.256935538269687
30
0
0
SPLINE
5
260
100
AcDbEntity
8
0
100
AcDbSpline
70
0
71
2
72
6
73
3
74
0
42
0.000000001
43
0.0000000001
44
0.0000000001
40
0
40
0
40
0
40
1
40
1
40
1
10
2.931674865987187
20
20.256935538269687
30
0
10
3.0624045514643559
20
20.578870024076245
30
0
10
3.1474046873979717
20
20.8734707581281
30
0
0
SPLINE
5
261
100
AcDbEntity
8
0
100
AcDbSpline
70
0
71
2
72
6
73
3
74
0
42
0.000000001
43
0.0000000001
44
0.0000000001
40
0
40
0
40
0
40
1
40
1
40
1
10
3.1474046873979717
20
20.8734707581281
30
0
10
3.2324048506320908
20
21.168071186200152
30
0
10
3.2820011415839252
20
21.483431252473757
30
0
0
SPLINE
5
262
100
AcDbEntity
8
0
100
AcDbSpline
70
0
71
2
72
6
73
3
74
0
42
0.000000001
43
0.0000000001
44
0.0000000001
40
0
40
0
40
0
40
1
40
1
40
1
10
3.2820011415839252
20
21.483431252473757
30
0
10
3.3828892535294046
20
22.124932482883167
30
0
10
3.3355034037720168
20
22.719320293747344
30
0
0
SPLINE
5
263
100
AcDbEntity
8
0
100
AcDbSpline
70
0
71
2
72
6
73
3
74
0
42
0.000000001
43
0.0000000001
44
0.0000000001
40
0
40
0
40
0
40
1
40
1
40
1
10
3.3355034037720168
20
22.719320293747344
30
0
10
3.2881174804134683
20
23.313708116186682
30
0
10
3.0472915886391267
20
24.188483797769415
30
0
0
LINE
5
264
100
AcDbEntity
8
0
100
AcDbLine
10
3.0472915886391267
20
24.188483797769415
30
0
11
3.5621098222873195
21
24.107518965395322
31
0
0
SPLINE
5
265
100
AcDbEntity
8
0
100
AcDbSpline
70
0
71
2
72
6
73
3
74
0
42
0.000000001
43
0.0000000001
44
0.0000000001
40
0
40
0
40
0
40
1
40
1
40
1
10
3.5621098222873195
20
24.107518965395322
30
0
10
3.8779741895436954
20
23.464002268186128
30
0
10
4.0008790017846927
20
22.779019283457124
30
0
0
SPLINE
5
266
100
AcDbEntity
8
0
100
AcDbSpline
70
0
71
2
72
6
73
3
74
0
42
0.000000001
43
0.0000000001
44
0.0000000001
40
0
40
0
40
0
40
1
40
1
40
1
10
4.0008790017846927
20
22.779019283457124
30
0
10
4.123783740424531
20
22.094036310303281
30
0
10
4.0186566181718995
20
21.425581157619803
30
0
0
SPLINE
5
267
100
AcDbEntity
8
0
100
AcDbSpline
70
0
71
2
72
6
73
3
74
0
42
0.000000001
43
0.0000000001
44
0.0000000001
40
0
40
0
40
0
40
1
40
1
40
1
10
4.0186566181718995
20
21.425581157619803
30
0
10
3.9300616083367657
20
20.8622461251624
30
0
10
3.6508542399401445
20
20.246026705938753
30
0
0
SPLINE
5
268
100
AcDbEntity
8
0
100
AcDbSpline
70
0
71
2
72
6
73
3
74
0
42
0.000000001
43
0.0000000001
44
0.0000000001
40
0
40
0
40
0
40
1
40
1
40
1
10
3.6508542399401445
20
20.246026705938753
30
0
10
3.3350953614282943
20
19.555456782218741
30
0
10
2.7608515586659599
20
18.924872332924593
30
0
0
LINE
5
269
100
AcDbEntity
8
0
100
AcDbLine
10
2.7608515586659599
20
18.924872332924593
30
0
11
2.2379472072164743
21
19.007108859130703
31
0
0
LINE
5
270
100
AcDbEntity
8
0
100
AcDbLine
10
8.0272590835163733
20
21.779224699661761
30
0
11
7.83576834064199
21
21.198810409241496
31
0
0
LINE
5
271
100
AcDbEntity
8
0
100
AcDbLine
10
7.83576834064199
20
21.198810409241496
30
0
11
7.3382704178557745
21
21.362945318366179
31
0
0
LINE
5
272
100
AcDbEntity
8
0
100
AcDbLine
10
7.3382704178557745
20
21.362945318366179
30
0
11
6.9723863748873445
21
20.253939608805961
31
0
0
SPLINE
5
273
100
AcDbEntity
8
0
100
AcDbSpline
70
0
71
2
72
6
73
3
74
0
42
0.000000001
43
0.0000000001
44
0.0000000001
40
0
40
0
40
0
40
1
40
1
40
1
10
6.9723863748873436
20
20.253939608805965
30
0
10
6.8612533703093295
20
19.917092077556198
30
0
10
6.8571249324108106
20
19.856680717798401
30
0
0
SPLINE
5
274
100
AcDbEntity
8
0
100
AcDbSpline
70
0
71
2
72
6
73
3
74
0
42
0.000000001
43
0.0000000001
44
0.0000000001
40
0
40
0
40
0
40
1
40
1
40
1
10
6.8571249324108106
20
19.856680717798401
30
0
10
6.8529964237577756
20
19.79626938138399
30
0
10
6.8915555070475776
20
19.743323868961294
30
0
0
SPLINE
5
275
100
AcDbEntity
8
0
100
AcDbSpline
70
0
71
2
72
6
73
3
74
0
42
0.000000001
43
0.0000000001
44
0.0000000001
40
0
40
0
40
0
40
1
40
1
40
1
10
6.8915555070475776
20
19.743323868961294
30
0
10
6.9301143328357773
20
19.69037781384586
30
0
10
7.002666154515568
20
19.666441459314868
30
0
0
SPLINE
5
276
100
AcDbEntity
8
0
100
AcDbSpline
70
0
71
2
72
6
73
3
74
0
42
0.000000001
43
0.0000000001
44
0.0000000001
40
0
40
0
40
0
40
1
40
1
40
1
10
7.002666154515568
20
19.666441459314868
30
0
10
7.1037204421923041
20
19.63310154860411
30
0
10
7.3185460380196847
20
19.639802139233336
30
0
0
LINE
5
277
100
AcDbEntity
8
0
100
AcDbLine
10
7.3185460380196847
20
19.639802139233336
30
0
11
7.1943715314729451
21
19.054417485346374
31
0
0
SPLINE
5
278
100
AcDbEntity
8
0
100
AcDbSpline
70
0
71
2
72
6
73
3
74
0
42
0.000000001
43
0.0000000001
44
0.0000000001
40
0
40
0
40
0
40
1
40
1
40
1
10
7.1943715314729442
20
19.054417485346374
30
0
10
6.9045359994644384
20
19.029367418936609
30
0
10
6.5832352163915413
20
19.135371228029936
30
0
0
SPLINE
5
279
100
AcDbEntity
8
0
100
AcDbSpline
70
0
71
2
72
6
73
3
74
0
42
0.000000001
43
0.0000000001
44
0.0000000001
40
0
40
0
40
0
40
1
40
1
40
1
10
6.5832352163915413
20
19.135371228029936
30
0
10
6.3863089847697116
20
19.200341286498709
30
0
10
6.2500488685280171
20
19.318562295682142
30
0
0
SPLINE
5
280
100
AcDbEntity
8
0
100
AcDbSpline
70
0
71
2
72
6
73
3
74
0
42
0.000000001
43
0.0000000001
44
0.0000000001
40
0
40
0
40
0
40
1
40
1
40
1
10
6.2500488685280171
20
19.318562295682142
30
0
10
6.113788729667295
20
19.436782998504128
30
0
10
6.0745636490778114
20
19.566087886659901
30
0
0
SPLINE
5
281
100
AcDbEntity
8
0
100
AcDbSpline
70
0
71
2
72
6
73
3
74
0
42
0.000000001
43
0.0000000001
44
0.0000000001
40
0
40
0
40
0
40
1
40
1
40
1
10
6.0745636490778114
20
19.566087886659901
30
0
10
6.035338439737524
20
19.695392503469307
30
0
10
6.065821908561527
20
19.883584229719183
30
0
0
SPLINE
5
282
100
AcDbEntity
8
0
100
AcDbSpline
70
0
71
2
72
6
73
3
74
0
42
0.000000001
43
0.0000000001
44
0.0000000001
40
0
40
0
40
0
40
1
40
1
40
1
10
6.065821908561527
20
19.883584229719183
30
0
10
6.0843903589521506
20
20.01824392278721
30
0
10
6.2117658781473581
20
20.404323011942434
30
0
0
LINE
5
283
100
AcDbEntity
8
0
100
AcDbLine
10
6.2117658781473581
20
20.404323011942434
30
0
11
6.6075703526078344
21
21.604018463225128
31
0
0
LINE
5
284
100
AcDbEntity
8
0
100
AcDbLine
10
6.6075703526078344
20
21.604018463225128
30
0
11
6.2733139136250591
21
21.714296612588079
31
0
0
LINE
5
285
100
AcDbEntity
8
0
100
AcDbLine
10
6.2733139136250591
20
21.714296612588079
30
0
11
6.4648046564994424
21
22.29471090300834
31
0
0
LINE
5
286
100
AcDbEntity
8
0
100
AcDbLine
10
6.4648046564994432
20
22.29471090300834
30
0
11
6.7990610954822186
21
22.184432753645389
31
0
0
LINE
5
287
100
AcDbEntity
8
0
100
AcDbLine
10
6.7990610954822177
20
22.184432753645389
30
0
11
6.9794385192240904
21
22.731162234337063
31
0
0
LINE
5
288
100
AcDbEntity
8
0
100
AcDbLine
10
6.9794385192240904
20
22.731162234337063
30
0
11
7.8503371857524904
21
22.915035332093566
31
0
0
LINE
5
289
100
AcDbEntity
8
0
100
AcDbLine
10
7.8503371857524904
20
22.915035332093566
30
0
11
7.5297611607301569
21
21.943359608786437
31
0
0
LINE
5
290
100
AcDbEntity
8
0
100
AcDbLine
10
7.5297611607301569
20
21.943359608786437
30
0
11
8.0272590835163733
21
21.779224699661761
31
0
0
SPLINE
5
291
100
AcDbEntity
8
0
100
AcDbSpline
70
0
71
2
72
6
73
3
74
0
42
0.000000001
43
0.0000000001
44
0.0000000001
40
0
40
0
40
0
40
1
40
1
40
1
10
8.058357610774511
20
20.299162407302347
30
0
10
8.2230828217752876
20
20.643812067755569
30
0
10
8.5470816449658606
20
20.88511977440751
30
0
0
SPLINE
5
292
100
AcDbEntity
8
0
100
AcDbSpline
70
0
71
2
72
6
73
3
74
0
42
0.000000001
43
0.0000000001
44
0.0000000001
40
0
40
0
40
0
40
1
40
1
40
1
10
8.5470816449658606
20
20.88511977440751
30
0
10
8.8710803060295831
20
21.126427228234405
30
0
10
9.2636818119923383
20
21.147449110094158
30
0
0
SPLINE
5
293
100
AcDbEntity
8
0
100
AcDbSpline
70
0
71
2
72
6
73
3
74
0
42
0.000000001
43
0.0000000001
44
0.0000000001
40
0
40
0
40
0
40
1
40
1
40
1
10
9.2636818119923383
20
21.147449110094158
30
0
10
9.6562833120260052
20
21.168471325101255
30
0
10
10.040321520467561
20
20.98492036835664
30
0
0
SPLINE
5
294
100
AcDbEntity
8
0
100
AcDbSpline
70
0
71
2
72
6
73
3
74
0
42
0.000000001
43
0.0000000001
44
0.0000000001
40
0
40
0
40
0
40
1
40
1
40
1
10
10.040321520467561
20
20.98492036835664
30
0
10
10.633611154818849
20
20.701357749799072
30
0
10
10.828586426079227
20
20.134890858807196
30
0
0
SPLINE
5
295
100
AcDbEntity
8
0
100
AcDbSpline
70
0
71
2
72
6
73
3
74
0
42
0.000000001
43
0.0000000001
44
0.0000000001
40
0
40
0
40
0
40
1
40
1
40
1
10
10.828586426079227
20
20.134890858807196
30
0
10
11.023561825855275
20
19.568424236704821
30
0
10
10.742352457644607
20
18.980058238074452
30
0
0
SPLINE
5
296
100
AcDbEntity
8
0
100
AcDbSpline
70
0
71
2
72
6
73
3
74
0
42
0.000000001
43
0.0000000001
44
0.0000000001
40
0
40
0
40
0
40
1
40
1
40
1
10
10.742352457644607
20
18.980058238074452
30
0
10
10.458789839087043
20
18.386768603723162
30
0
10
9.8894900549909437
20
18.179538395437056
30
0
0
SPLINE
5
297
100
AcDbEntity
8
0
100
AcDbSpline
70
0
71
2
72
6
73
3
74
0
42
0.000000001
43
0.0000000001
44
0.0000000001
40
0
40
0
40
0
40
1
40
1
40
1
10
9.8894900549909437
20
18.179538395437056
30
0
10
9.3201905279261723
20
17.972308724929963
30
0
10
8.739209713987675
20
18.249988346135954
30
0
0
SPLINE
5
298
100
AcDbEntity
8
0
100
AcDbSpline
70
0
71
2
72
6
73
3
74
0
42
0.000000001
43
0.0000000001
44
0.0000000001
40
0
40
0
40
0
40
1
40
1
40
1
10
8.739209713987675
20
18.249988346135954
30
0
10
8.3797894152612091
20
18.421773179661752
30
0
10
8.1312592919009035
20
18.740151357033184
30
0
0
SPLINE
5
299
100
AcDbEntity
8
0
100
AcDbSpline
70
0
71
2
72
6
73
3
74
0
42
0.000000001
43
0.0000000001
44
0.0000000001
40
0
40
0
40
0
40
1
40
1
40
1
10
8.1312592919009035
20
18.740151357033184
30
0
10
7.8827291685405996
20
19.058529534404617
30
0
10
7.8628837774095386
20
19.453592922485662
30
0
0
SPLINE
5
300
100
AcDbEntity
8
0
100
AcDbSpline
70
0
71
2
72
6
73
3
74
0
42
0.000000001
43
0.0000000001
44
0.0000000001
40
0
40
0
40
0
40
1
40
1
40
1
10
7.8628837774095386
20
19.453592922485662
30
0
10
7.8430383526672891
20
19.848656326631165
30
0
10
8.058357610774511
20
20.299162407302347
30
0
0
SPLINE
5
301
100
AcDbEntity
8
0
100
AcDbSpline
70
0
71
2
72
6
73
3
74
0
42
0.000000001
43
0.0000000001
44
0.0000000001
40
0
40
0
40
0
40
1
40
1
40
1
10
8.7497020485289863
20
19.923372564939129
30
0
10
8.5637978414374754
20
19.534410720776656
30
0
10
8.6495963911795428
20
19.239375375430665
30
0
0
SPLINE
5
302
100
AcDbEntity
8
0
100
AcDbSpline
70
0
71
2
72
6
73
3
74
0
42
0.000000001
43
0.0000000001
44
0.0000000001
40
0
40
0
40
0
40
1
40
1
40
1
10
8.6495963911795428
20
19.239375375430665
30
0
10
8.7353950753663625
20
18.944339965826838
30
0
10
9.0061912755638183
20
18.81491299596685
30
0
0
SPLINE
5
303
100
AcDbEntity
8
0
100
AcDbSpline
70
0
71
2
72
6
73
3
74
0
42
0.000000001
43
0.0000000001
44
0.0000000001
40
0
40
0
40
0
40
1
40
1
40
1
10
9.0061912755638183
20
18.81491299596685
30
0
10
9.27698734131652
20
18.685486090364694
30
0
10
9.5592252511453975
20
18.804618510464564
30
0
0
SPLINE
5
304
100
AcDbEntity
8
0
100
AcDbSpline
70
0
71
2
72
6
73
3
74
0
42
0.000000001
43
0.0000000001
44
0.0000000001
40
0
40
0
40
0
40
1
40
1
40
1
10
9.5592252511453975
20
18.804618510464564
30
0
10
9.8414631609742766
20
18.923750930564438
30
0
10
10.029720489897018
20
19.317636141558324
30
0
0
SPLINE
5
305
100
AcDbEntity
8
0
100
AcDbSpline
70
0
71
2
72
6
73
3
74
0
42
0.000000001
43
0.0000000001
44
0.0000000001
40
0
40
0
40
0
40
1
40
1
40
1
10
10.029720489897018
20
19.317636141558324
30
0
10
10.213271446641636
20
19.70167434999988
30
0
10
10.12870373860742
20
19.996121414888066
30
0
0
SPLINE
5
306
100
AcDbEntity
8
0
100
AcDbSpline
70
0
71
2
72
6
73
3
74
0
42
0.000000001
43
0.0000000001
44
0.0000000001
40
0
40
0
40
0
40
1
40
1
40
1
10
10.12870373860742
20
19.996121414888066
30
0
10
10.044136030573208
20
20.290568479776248
30
0
10
9.7733399648205044
20
20.419995385378403
30
0
0
SPLINE
5
307
100
AcDbEntity
8
0
100
AcDbSpline
70
0
71
2
72
6
73
3
74
0
42
0.000000001
43
0.0000000001
44
0.0000000001
40
0
40
0
40
0
40
1
40
1
40
1
10
9.7733399648205044
20
20.419995385378403
30
0
10
9.5025437646230486
20
20.549422355238391
30
0
10
9.2190748786415657
20
20.430878279854163
30
0
0
SPLINE
5
308
100
AcDbEntity
8
0
100
AcDbSpline
70
0
71
2
72
6
73
3
74
0
42
0.000000001
43
0.0000000001
44
0.0000000001
40
0
40
0
40
0
40
1
40
1
40
1
10
9.2190748786415657
20
20.430878279854163
30
0
10
8.9356061271048333
20
20.312334140212094
30
0
10
8.7497020485289863
20
19.923372564939129
30
0
0
LINE
5
309
100
AcDbEntity
8
0
100
AcDbLine
10
14.755678302943554
20
16.035303574341469
30
0
11
15.194422419734055
21
15.340772497002282
31
0
0
SPLINE
5
310
100
AcDbEntity
8
0
100
AcDbSpline
70
0
71
2
72
6
73
3
74
0
42
0.000000001
43
0.0000000001
44
0.0000000001
40
0
40
0
40
0
40
1
40
1
40
1
10
15.194422419734053
20
15.340772497002282
30
0
10
14.634696110179505
20
14.95612259565133
30
0
10
14.109590227160799
20
14.982994338345112
30
0
0
SPLINE
5
311
100
AcDbEntity
8
0
100
AcDbSpline
70
0
71
2
72
6
73
3
74
0
42
0.000000001
43
0.0000000001
44
0.0000000001
40
0
40
0
40
0
40
1
40
1
40
1
10
14.109590227160799
20
14.982994338345112
30
0
10
13.584484308335565
20
15.009866500983629
30
0
10
13.092120954283651
20
15.424863867094167
30
0
0
SPLINE
5
312
100
AcDbEntity
8
0
100
AcDbSpline
70
0
71
2
72
6
73
3
74
0
42
0.000000001
43
0.0000000001
44
0.0000000001
40
0
40
0
40
0
40
1
40
1
40
1
10
13.092120954283651
20
15.424863867094167
30
0
10
12.482925536806054
20
15.93833525284875
30
0
10
12.44151728035812
20
16.685140339309015
30
0
0
SPLINE
5
313
100
AcDbEntity
8
0
100
AcDbSpline
70
0
71
2
72
6
73
3
74
0
42
0.000000001
43
0.0000000001
44
0.0000000001
40
0
40
0
40
0
40
1
40
1
40
1
10
12.44151728035812
20
16.685140339309015
30
0
10
12.400108995425732
20
17.43194544977792
30
0
10
13.008537423534083
20
18.153800300018514
30
0
0
SPLINE
5
314
100
AcDbEntity
8
0
100
AcDbSpline
70
0
71
2
72
6
73
3
74
0
42
0.000000001
43
0.0000000001
44
0.0000000001
40
0
40
0
40
0
40
1
40
1
40
1
10
13.008537423534083
20
18.153800300018514
30
0
10
13.652135240407002
20
18.917381001134665
30
0
10
14.402532288423126
20
19.007504315686894
30
0
0
SPLINE
5
315
100
AcDbEntity
8
0
100
AcDbSpline
70
0
71
2
72
6
73
3
74
0
42
0.000000001
43
0.0000000001
44
0.0000000001
40
0
40
0
40
0
40
1
40
1
40
1
10
14.402532288423126
20
19.007504315686894
30
0
10
15.152929115885698
20
19.097627426372132
30
0
10
15.795505122913486
20
18.556020606433535
30
0
0
SPLINE
5
316
100
AcDbEntity
8
0
100
AcDbSpline
70
0
71
2
72
6
73
3
74
0
42
0.000000001
43
0.0000000001
44
0.0000000001
40
0
40
0
40
0
40
1
40
1
40
1
10
15.795505122913486
20
18.556020606433535
30
0
10
16.356715857459317
20
18.08299397934438
30
0
10
16.427616290575916
20
17.455852454179464
30
0
0
SPLINE
5
317
100
AcDbEntity
8
0
100
AcDbSpline
70
0
71
2
72
6
73
3
74
0
42
0.000000001
43
0.0000000001
44
0.0000000001
40
0
40
0
40
0
40
1
40
1
40
1
10
16.427616290575916
20
17.455852454179464
30
0
10
16.470949233513011
20
17.083895179925452
30
0
10
16.265773820995605
20
16.628785834975734
30
0
0
LINE
5
318
100
AcDbEntity
8
0
100
AcDbLine
10
16.265773820995605
20
16.628785834975734
30
0
11
15.531399725586702
21
16.997975591027711
31
0
0
SPLINE
5
319
100
AcDbEntity
8
0
100
AcDbSpline
70
0
71
2
72
6
73
3
74
0
42
0.000000001
43
0.0000000001
44
0.0000000001
40
0
40
0
40
0
40
1
40
1
40
1
10
15.531399725586702
20
16.997975591027714
30
0
10
15.677621227177097
20
17.281532477108048
30
0
10
15.621561183961726
20
17.564300486576961
30
0
0
SPLINE
5
320
100
AcDbEntity
8
0
100
AcDbSpline
70
0
71
2
72
6
73
3
74
0
42
0.000000001
43
0.0000000001
44
0.0000000001
40
0
40
0
40
0
40
1
40
1
40
1
10
15.621561183961726
20
17.564300486576961
30
0
10
15.565501140746354
20
17.847068496045875
30
0
10
15.319319463720396
20
18.054567179101145
30
0
0
SPLINE
5
321
100
AcDbEntity
8
0
100
AcDbSpline
70
0
71
2
72
6
73
3
74
0
42
0.000000001
43
0.0000000001
44
0.0000000001
40
0
40
0
40
0
40
1
40
1
40
1
10
15.319319463720396
20
18.054567179101145
30
0
10
14.979254850100061
20
18.341196794807587
30
0
10
14.561756668910931
20
18.275585485678931
30
0
0
SPLINE
5
322
100
AcDbEntity
8
0
100
AcDbSpline
70
0
71
2
72
6
73
3
74
0
42
0.000000001
43
0.0000000001
44
0.0000000001
40
0
40
0
40
0
40
1
40
1
40
1
10
14.561756668910931
20
18.275585485678931
30
0
10
14.144258487721796
20
18.209974176550276
30
0
10
13.683540993044963
20
17.663367307510388
30
0
0
SPLINE
5
323
100
AcDbEntity
8
0
100
AcDbSpline
70
0
71
2
72
6
73
3
74
0
42
0.000000001
43
0.0000000001
44
0.0000000001
40
0
40
0
40
0
40
1
40
1
40
1
10
13.683540993044963
20
17.663367307510388
30
0
10
13.194688064184115
20
17.083379848920302
30
0
10
13.195817855845194
20
16.661351690341
30
0
0
SPLINE
5
324
100
AcDbEntity
8
0
100
AcDbSpline
70
0
71
2
72
6
73
3
74
0
42
0.000000001
43
0.0000000001
44
0.0000000001
40
0
40
0
40
0
40
1
40
1
40
1
10
13.195817855845194
20
16.661351690341
30
0
10
13.196947647506272
20
16.239323531761695
30
0
10
13.530753315132582
20
15.957969381990669
30
0
0
SPLINE
5
325
100
AcDbEntity
8
0
100
AcDbSpline
70
0
71
2
72
6
73
3
74
0
42
0.000000001
43
0.0000000001
44
0.0000000001
40
0
40
0
40
0
40
1
40
1
40
1
10
13.530753315132582
20
15.957969381990669
30
0
10
13.776935106096355
20
15.750470602900847
30
0
10
14.086154112419507
20
15.757472761890824
30
0
0
SPLINE
5
326
100
AcDbEntity
8
0
100
AcDbSpline
70
0
71
2
72
6
73
3
74
0
42
0.000000001
43
0.0000000001
44
0.0000000001
40
0
40
0
40
0
40
1
40
1
40
1
10
14.086154112419507
20
15.757472761890824
30
0
10
14.395373346618289
20
15.764474728811699
30
0
10
14.755678302943554
20
16.035303574341469
30
0
0
LINE
5
327
100
AcDbEntity
8
0
100
AcDbLine
10
15.627080894454352
20
11.048662255266992
30
0
11
15.306625795921185
21
11.466536953491914
31
0
0
SPLINE
5
328
100
AcDbEntity
8
0
100
AcDbSpline
70
0
71
2
72
6
73
3
74
0
42
0.000000001
43
0.0000000001
44
0.0000000001
40
0
40
0
40
0
40
1
40
1
40
1
10
15.306625795921182
20
11.466536953491918
30
0
10
15.552736703658143
20
12.181355233756864
30
0
10
15.959028811417543
20
12.768004414699668
30
0
0
SPLINE
5
329
100
AcDbEntity
8
0
100
AcDbSpline
70
0
71
2
72
6
73
3
74
0
42
0.000000001
43
0.0000000001
44
0.0000000001
40
0
40
0
40
0
40
1
40
1
40
1
10
15.959028811417543
20
12.768004414699668
30
0
10
16.365320941846552
20
13.354653566081216
30
0
10
16.869801956275808
20
13.741524352644186
30
0
0
SPLINE
5
330
100
AcDbEntity
8
0
100
AcDbSpline
70
0
71
2
72
6
73
3
74
0
42
0.000000001
43
0.0000000001
44
0.0000000001
40
0
40
0
40
0
40
1
40
1
40
1
10
16.869801956275808
20
13.741524352644186
30
0
10
17.495531411358076
20
14.221376794142241
30
0
10
18.218519723594383
20
14.435407039336718
30
0
0
SPLINE
5
331
100
AcDbEntity
8
0
100
AcDbSpline
70
0
71
2
72
6
73
3
74
0
42
0.000000001
43
0.0000000001
44
0.0000000001
40
0
40
0
40
0
40
1
40
1
40
1
10
18.218519723594383
20
14.435407039336718
30
0
10
18.846307402813533
20
14.621130814423239
30
0
10
19.47469309831369
20
14.649144199557387
30
0
0
LINE
5
332
100
AcDbEntity
8
0
100
AcDbLine
10
19.47469309831369
20
14.649144199557387
30
0
11
19.793487784243467
21
14.233434685842701
31
0
0
SPLINE
5
333
100
AcDbEntity
8
0
100
AcDbSpline
70
0
71
2
72
6
73
3
74
0
42
0.000000001
43
0.0000000001
44
0.0000000001
40
0
40
0
40
0
40
1
40
1
40
1
10
19.793487784243467
20
14.233434685842701
30
0
10
18.90997272026668
20
14.026962670335905
30
0
10
18.364367458845415
20
13.785635548982459
30
0
0
SPLINE
5
334
100
AcDbEntity
8
0
100
AcDbSpline
70
0
71
2
72
6
73
3
74
0
42
0.000000001
43
0.0000000001
44
0.0000000001
40
0
40
0
40
0
40
1
40
1
40
1
10
18.364367458845415
20
13.785635548982459
30
0
10
17.818762288102572
20
13.54430830938399
30
0
10
17.303455705857182
20
13.149135731839339
30
0
0
SPLINE
5
335
100
AcDbEntity
8
0
100
AcDbSpline
70
0
71
2
72
6
73
3
74
0
42
0.000000001
43
0.0000000001
44
0.0000000001
40
0
40
0
40
0
40
1
40
1
40
1
10
17.303455705857182
20
13.149135731839339
30
0
10
16.948370175978965
20
12.876831692020257
30
0
10
16.626605783804184
20
12.525207654719985
30
0
0
SPLINE
5
336
100
AcDbEntity
8
0
100
AcDbSpline
70
0
71
2
72
6
73
3
74
0
42
0.000000001
43
0.0000000001
44
0.0000000001
40
0
40
0
40
0
40
1
40
1
40
1
10
16.626605783804184
20
12.525207654719985
30
0
10
16.304841391629402
20
12.173583617419714
30
0
10
16.0572432390701
20
11.801470258097238
30
0
0
SPLINE
5
337
100
AcDbEntity
8
0
100
AcDbSpline
70
0
71
2
72
6
73
3
74
0
42
0.000000001
43
0.0000000001
44
0.0000000001
40
0
40
0
40
0
40
1
40
1
40
1
10
16.0572432390701
20
11.801470258097238
30
0
10
15.894511118409206
20
11.556330136537284
30
0
10
15.627080894454352
20
11.048662255266992
30
0
0
LINE
5
338
100
AcDbEntity
8
0
100
AcDbLine
10
17.796750012887376
20
9.786832603853874
30
0
11
17.406138335193376
21
10.446582734343288
31
0
0
LINE
5
339
100
AcDbEntity
8
0
100
AcDbLine
10
17.406138335193372
20
10.446582734343291
30
0
11
19.892527148370924
21
11.918674153248228
31
0
0
SPLINE
5
340
100
AcDbEntity
8
0
100
AcDbSpline
70
0
71
2
72
6
73
3
74
0
42
0.000000001
43
0.0000000001
44
0.0000000001
40
0
40
0
40
0
40
1
40
1
40
1
10
19.892527148370924
20
11.918674153248228
30
0
10
19.34036293294562
20
12.080074176453401
30
0
10
18.887834055482731
20
12.474862578073738
30
0
0
LINE
5
341
100
AcDbEntity
8
0
100
AcDbLine
10
18.887834055482731
20
12.474862578073738
30
0
11
19.486539476815427
21
12.829332123836126
31
0
0
SPLINE
5
342
100
AcDbEntity
8
0
100
AcDbSpline
70
0
71
2
72
6
73
3
74
0
42
0.000000001
43
0.0000000001
44
0.0000000001
40
0
40
0
40
0
40
1
40
1
40
1
10
19.486539476815427
20
12.829332123836126
30
0
10
19.723971244197056
20
12.621109858732911
30
0
10
20.139251650065422
20
12.457938073036178
30
0
0
SPLINE
5
343
100
AcDbEntity
8
0
100
AcDbSpline
70
0
71
2
72
6
73
3
74
0
42
0.000000001
43
0.0000000001
44
0.0000000001
40
0
40
0
40
0
40
1
40
1
40
1
10
20.139251650065422
20
12.457938073036178
30
0
10
20.554531761529088
20
12.294766199619271
30
0
10
20.935869471297156
20
12.368338992903393
30
0
0
LINE
5
344
100
AcDbEntity
8
0
100
AcDbLine
10
20.935869471297156
20
12.368338992903393
30
0
11
21.252807016279135
21
11.833025794144753
31
0
0
LINE
5
345
100
AcDbEntity
8
0
100
AcDbLine
10
21.252807016279135
20
11.833025794144756
30
0
11
17.796750012887376
21
9.7868326038538758
31
0
0
LINE
5
346
100
AcDbEntity
8
0
100
AcDbLine
10
20.775509365115241
20
9.6211317423092364
30
0
11
21.407181501774165
21
10.041554025702677
31
0
0
LINE
5
347
100
AcDbEntity
8
0
100
AcDbLine
10
21.407181501774165
20
10.041554025702675
30
0
11
22.03161924184603
21
10.302248313626578
31
0
0
LINE
5
348
100
AcDbEntity
8
0
100
AcDbLine
10
22.03161924184603
20
10.302248313626578
30
0
11
22.35328233179154
21
9.5317727709912177
31
0
0
LINE
5
349
100
AcDbEntity
8
0
100
AcDbLine
10
22.35328233179154
20
9.5317727709912177
30
0
11
21.728844591719675
21
9.2710784830673134
31
0
0
LINE
5
350
100
AcDbEntity
8
0
100
AcDbLine
10
21.728844591719675
20
9.2710784830673134
30
0
11
20.993104995970416
21
9.0999276719677287
31
0
0
LINE
5
351
100
AcDbEntity
8
0
100
AcDbLine
10
20.993104995970416
20
9.0999276719677287
30
0
11
20.775509365115241
21
9.6211317423092364
31
0
0
LINE
5
352
100
AcDbEntity
8
0
100
AcDbLine
10
21.249594506758925
20
8.485561581538974
30
0
11
21.881266650593876
21
8.9059838477437729
31
0
0
LINE
5
353
100
AcDbEntity
8
0
100
AcDbLine
10
21.881266650593876
20
8.9059838477437729
30
0
11
22.505704390665745
21
9.1666781356676772
31
0
0
LINE
5
354
100
AcDbEntity
8
0
100
AcDbLine
10
22.505704390665745
20
9.1666781356676772
30
0
11
22.827367444731131
21
8.3962026789755182
31
0
0
LINE
5
355
100
AcDbEntity
8
0
100
AcDbLine
10
22.827367444731131
20
8.3962026789755164
30
0
11
22.202929704659265
21
8.1355083910516139
31
0
0
LINE
5
356
100
AcDbEntity
8
0
100
AcDbLine
10
22.202929704659265
20
8.1355083910516139
30
0
11
21.467190108910007
21
7.9643575799520292
31
0
0
LINE
5
357
100
AcDbEntity
8
0
100
AcDbLine
10
21.467190108910007
20
7.9643575799520283
30
0
11
21.249594506758925
21
8.485561581538974
31
0
0
LINE
5
358
100
AcDbEntity
8
0
100
AcDbLine
10
20.317464896079677
20
6.6425213986785536
30
0
11
21.052788171401996
21
6.8596553888848995
31
0
0
LINE
5
359
100
AcDbEntity
8
0
100
AcDbLine
10
21.052788171402
20
6.8596553888848995
30
0
11
21.479328969971277
21
5.4151769045881961
31
0
0
LINE
5
360
100
AcDbEntity
8
0
100
AcDbLine
10
21.479328969971277
20
5.4151769045881961
30
0
11
20.744005694648955
21
5.1980429143818494
31
0
0
LINE
5
361
100
AcDbEntity
8
0
100
AcDbLine
10
20.744005694648951
20
5.1980429143818494
30
0
11
20.317464896079677
21
6.6425213986785536
31
0
0
LINE
5
362
100
AcDbEntity
8
0
100
AcDbLine
10
20.838488101522998
20
4.8859226971611189
30
0
11
21.050986014101973
21
4.1691614226743754
31
0
0
SPLINE
5
363
100
AcDbEntity
8
0
100
AcDbSpline
70
0
71
2
72
6
73
3
74
0
42
0.000000001
43
0.0000000001
44
0.0000000001
40
0
40
0
40
0
40
1
40
1
40
1
10
21.050986014101973
20
4.1691614226743754
30
0
10
20.777104269054423
20
4.0868835785859829
30
0
10
20.655061631215577
20
3.9085181949228245
30
0
0
SPLINE
5
364
100
AcDbEntity
8
0
100
AcDbSpline
70
0
71
2
72
6
73
3
74
0
42
0.000000001
43
0.0000000001
44
0.0000000001
40
0
40
0
40
0
40
1
40
1
40
1
10
20.655061631215577
20
3.9085181949228245
30
0
10
20.533019299650014
20
3.730152787476678
30
0
10
20.569861450636886
20
3.5122358025223632
30
0
0
SPLINE
5
365
100
AcDbEntity
8
0
100
AcDbSpline
70
0
71
2
72
6
73
3
74
0
42
0.000000001
43
0.0000000001
44
0.0000000001
40
0
40
0
40
0
40
1
40
1
40
1
10
20.569861450636886
20
3.5122358025223632
30
0
10
20.609432690325249
20
3.2781765792465962
30
0
10
20.814058038969723
20
3.1481212381952703
30
0
0
SPLINE
5
366
100
AcDbEntity
8
0
100
AcDbSpline
70
0
71
2
72
6
73
3
74
0
42
0.000000001
43
0.0000000001
44
0.0000000001
40
0
40
0
40
0
40
1
40
1
40
1
10
20.814058038969723
20
3.1481212381952703
30
0
10
21.018683068920826
20
3.018065994390235
30
0
10
21.320000443123142
20
3.0690082382802886
30
0
0
SPLINE
5
367
100
AcDbEntity
8
0
100
AcDbSpline
70
0
71
2
72
6
73
3
74
0
42
0.000000001
43
0.0000000001
44
0.0000000001
40
0
40
0
40
0
40
1
40
1
40
1
10
21.320000443123142
20
3.0690082382802886
30
0
10
21.605176166710429
20
3.1172214928294659
30
0
10
21.746050681291283
20
3.2987706891102615
30
0
0
SPLINE
5
368
100
AcDbEntity
8
0
100
AcDbSpline
70
0
71
2
72
6
73
3
74
0
42
0.000000001
43
0.0000000001
44
0.0000000001
40
0
40
0
40
0
40
1
40
1
40
1
10
21.746050681291283
20
3.2987706891102615
30
0
10
21.886925489725346
20
3.4803199350713716
30
0
10
21.849628490621562
20
3.7009272930792614
30
0
0
SPLINE
5
369
100
AcDbEntity
8
0
100
AcDbSpline
70
0
71
2
72
6
73
3
74
0
42
0.000000001
43
0.0000000001
44
0.0000000001
40
0
40
0
40
0
40
1
40
1
40
1
10
21.849628490621562
20
3.7009272930792614
30
0
10
21.825067040070213
20
3.8462053809998742
30
0
10
21.734457110045604
20
4.0384288583750774
30
0
0
LINE
5
370
100
AcDbEntity
8
0
100
AcDbLine
10
21.734457110045604
20
4.0384288583750774
30
0
11
22.36464365727462
21
4.0591872461149148
31
0
0
SPLINE
5
371
100
AcDbEntity
8
0
100
AcDbSpline
70
0
71
2
72
6
73
3
74
0
42
0.000000001
43
0.0000000001
44
0.0000000001
40
0
40
0
40
0
40
1
40
1
40
1
10
22.364643657274623
20
4.0591872461149148
30
0
10
22.408424650004548
20
3.7511244593682456
30
0
10
22.576957741380639
20
3.6135836177754403
30
0
0
SPLINE
5
372
100
AcDbEntity
8
0
100
AcDbSpline
70
0
71
2
72
6
73
3
74
0
42
0.000000001
43
0.0000000001
44
0.0000000001
40
0
40
0
40
0
40
1
40
1
40
1
10
22.576957741380639
20
3.6135836177754403
30
0
10
22.74549083275673
20
3.4760427761826347
30
0
10
22.979550202959103
20
3.5156140407111636
30
0
0
SPLINE
5
373
100
AcDbEntity
8
0
100
AcDbSpline
70
0
71
2
72
6
73
3
74
0
42
0.000000001
43
0.0000000001
44
0.0000000001
40
0
40
0
40
0
40
1
40
1
40
1
10
22.979550202959103
20
3.5156140407111636
30
0
10
23.178634870391598
20
3.549272304559921
30
0
10
23.276996502567179
20
3.6876599748604755
30
0
0
SPLINE
5
374
100
AcDbEntity
8
0
100
AcDbSpline
70
0
71
2
72
6
73
3
74
0
42
0.000000001
43
0.0000000001
44
0.0000000001
40
0
40
0
40
0
40
1
40
1
40
1
10
23.276996502567179
20
3.6876599748604755
30
0
10
23.375358403755804
20
3.8260478417679487
30
0
10
23.342154963183809
20
4.022442283073473
30
0
0
SPLINE
5
375
100
AcDbEntity
8
0
100
AcDbSpline
70
0
71
2
72
6
73
3
74
0
42
0.000000001
43
0.0000000001
44
0.0000000001
40
0
40
0
40
0
40
1
40
1
40
1
10
23.342154963183809
20
4.022442283073473
30
0
10
23.30940637072873
20
4.2161463513254214
30
0
10
23.15169256254854
20
4.3306112857846175
30
0
0
SPLINE
5
376
100
AcDbEntity
8
0
100
AcDbSpline
70
0
71
2
72
6
73
3
74
0
42
0.000000001
43
0.0000000001
44
0.0000000001
40
0
40
0
40
0
40
1
40
1
40
1
10
23.15169256254854
20
4.3306112857846175
30
0
10
22.993979048221554
20
4.4450762699241269
30
0
10
22.730703494131113
20
4.4310051831366302
30
0
0
LINE
5
377
100
AcDbEntity
8
0
100
AcDbLine
10
22.730703494131113
20
4.4310051831366302
30
0
11
22.731274172218217
21
5.1478148320660599
31
0
0
SPLINE
5
378
100
AcDbEntity
8
0
100
AcDbSpline
70
0
71
2
72
6
73
3
74
0
42
0.000000001
43
0.0000000001
44
0.0000000001
40
0
40
0
40
0
40
1
40
1
40
1
10
22.731274172218217
20
5.1478148320660599
30
0
10
23.101369665041478
20
5.1356697679306054
30
0
10
23.340039879141855
20
5.0252064333379192
30
0
0
SPLINE
5
379
100
AcDbEntity
8
0
100
AcDbSpline
70
0
71
2
72
6
73
3
74
0
42
0.000000001
43
0.0000000001
44
0.0000000001
40
0
40
0
40
0
40
1
40
1
40
1
10
23.340039879141855
20
5.0252064333379192
30
0
10
23.578710399515522
20
4.9147430749622432
30
0
10
23.745467888699316
20
4.6731307773651496
30
0
0
SPLINE
5
380
100
AcDbEntity
8
0
100
AcDbSpline
70
0
71
2
72
6
73
3
74
0
42
0.000000001
43
0.0000000001
44
0.0000000001
40
0
40
0
40
0
40
1
40
1
40
1
10
23.745467888699316
20
4.6731307773651496
30
0
10
23.912225084029899
20
4.4315184300877402
30
0
10
23.967260911291895
20
4.1059879922564519
30
0
0
SPLINE
5
381
100
AcDbEntity
8
0
100
AcDbSpline
70
0
71
2
72
6
73
3
74
0
42
0.000000001
43
0.0000000001
44
0.0000000001
40
0
40
0
40
0
40
1
40
1
40
1
10
23.967260911291895
20
4.1059879922564519
30
0
10
24.061413130125349
20
3.5490887042029713
30
0
10
23.76314407744745
20
3.1527578142162089
30
0
0
SPLINE
5
382
100
AcDbEntity
8
0
100
AcDbSpline
70
0
71
2
72
6
73
3
74
0
42
0.000000001
43
0.0000000001
44
0.0000000001
40
0
40
0
40
0
40
1
40
1
40
1
10
23.76314407744745
20
3.1527578142162089
30
0
10
23.519436562124337
20
2.8265306025401626
30
0
10
23.153551116195832
20
2.76467215288503
30
0
0
SPLINE
5
383
100
AcDbEntity
8
0
100
AcDbSpline
70
0
71
2
72
6
73
3
74
0
42
0.000000001
43
0.0000000001
44
0.0000000001
40
0
40
0
40
0
40
1
40
1
40
1
10
23.153551116195832
20
2.76467215288503
30
0
10
22.634316316259387
20
2.6768876834876383
30
0
10
22.228956433042299
20
3.1922412595749576
30
0
0
SPLINE
5
384
100
AcDbEntity
8
0
100
AcDbSpline
70
0
71
2
72
6
73
3
74
0
42
0.000000001
43
0.0000000001
44
0.0000000001
40
0
40
0
40
0
40
1
40
1
40
1
10
22.228956433042299
20
3.1922412595749576
30
0
10
22.213627432088416
20
2.8409783781267222
30
0
10
21.995076390054731
20
2.5951032446772899
30
0
0
SPLINE
5
385
100
AcDbEntity
8
0
100
AcDbSpline
70
0
71
2
72
6
73
3
74
0
42
0.000000001
43
0.0000000001
44
0.0000000001
40
0
40
0
40
0
40
1
40
1
40
1
10
21.995076390054731
20
2.5951032446772899
30
0
10
21.776525472221824
20
2.3492273765948357
30
0
10
21.418710998527445
20
2.2887334464502986
30
0
0
SPLINE
5
386
100
AcDbEntity
8
0
100
AcDbSpline
70
0
71
2
72
6
73
3
74
0
42
0.000000001
43
0.0000000001
44
0.0000000001
40
0
40
0
40
0
40
1
40
1
40
1
10
21.418710998527445
20
2.2887334464502986
30
0
10
20.899476198591
20
2.2009489770529065
30
0
10
20.469458037582619
20
2.5184279855207583
30
0
0
SPLINE
5
387
100
AcDbEntity
8
0
100
AcDbSpline
70
0
71
2
72
6
73
3
74
0
42
0.000000001
43
0.0000000001
44
0.0000000001
40
0
40
0
40
0
40
1
40
1
40
1
10
20.469458037582619
20
2.5184279855207583
30
0
10
20.039439926254552
20
2.8359067001354008
30
0
10
19.943923187910507
20
3.4008769604230036
30
0
0
SPLINE
5
388
100
AcDbEntity
8
0
100
AcDbSpline
70
0
71
2
72
6
73
3
74
0
42
0.000000001
43
0.0000000001
44
0.0000000001
40
0
40
0
40
0
40
1
40
1
40
1
10
19.943923187910507
20
3.4008769604230036
30
0
10
19.85340970433208
20
3.9362535579010896
30
0
10
20.101868832090819
20
4.3407667722856988
30
0
0
SPLINE
5
389
100
AcDbEntity
8
0
100
AcDbSpline
70
0
71
2
72
6
73
3
74
0
42
0.000000001
43
0.0000000001
44
0.0000000001
40
0
40
0
40
0
40
1
40
1
40
1
10
20.101868832090819
20
4.3407667722856988
30
0
10
20.350327959849558
20
4.7452799866703081
30
0
10
20.838488101522998
20
4.8859226971611189
30
0
0
LINE
5
390
100
AcDbEntity
8
0
100
AcDbLine
10
21.030852526118537
20
-0.91296423268196203
30
0
11
20.318814889710247
21
-0.92515518020857335
31
0
0
LINE
5
391
100
AcDbEntity
8
0
100
AcDbLine
10
20.318814889710247
20
-0.92515518020857335
30
0
11
20.272806912500819
21
1.7620363835825019
31
0
0
SPLINE
5
392
100
AcDbEntity
8
0
100
AcDbSpline
70
0
71
2
72
6
73
3
74
0
42
0.000000001
43
0.0000000001
44
0.0000000001
40
0
40
0
40
0
40
1
40
1
40
1
10
20.272806912500819
20
1.7620363835825019
30
0
10
20.677315054412983
20
1.7252994438713212
30
0
10
21.042526566262634
20
1.5132392975565356
30
0
0
SPLINE
5
393
100
AcDbEntity
8
0
100
AcDbSpline
70
0
71
2
72
6
73
3
74
0
42
0.000000001
43
0.0000000001
44
0.0000000001
40
0
40
0
40
0
40
1
40
1
40
1
10
21.042526566262634
20
1.5132392975565356
30
0
10
21.407738376410702
20
1.301179137719799
30
0
10
22.016218358470987
20
0.66757358613158879
30
0
0
SPLINE
5
394
100
AcDbEntity
8
0
100
AcDbSpline
70
0
71
2
72
6
73
3
74
0
42
0.000000001
43
0.0000000001
44
0.0000000001
40
0
40
0
40
0
40
1
40
1
40
1
10
22.016218358470987
20
0.66757358613158879
30
0
10
22.507968859375168
20
0.15749946561155498
30
0
10
22.681848357518088
20
0.043133366661603778
30
0
0
SPLINE
5
395
100
AcDbEntity
8
0
100
AcDbSpline
70
0
71
2
72
6
73
3
74
0
42
0.000000001
43
0.0000000001
44
0.0000000001
40
0
40
0
40
0
40
1
40
1
40
1
10
22.681848357518088
20
0.043133366661603778
30
0
10
22.921903534140814
20
-0.11103355007576671
30
0
10
23.153793010025311
20
-0.10706332113289613
30
0
0
SPLINE
5
396
100
AcDbEntity
8
0
100
AcDbSpline
70
0
71
2
72
6
73
3
74
0
42
0.000000001
43
0.0000000001
44
0.0000000001
40
0
40
0
40
0
40
1
40
1
40
1
10
23.153793010025311
20
-0.10706332113289613
30
0
10
23.410235703082897
20
-0.10267271134656836
30
0
10
23.545646573914624
20
0.037455726481093188
30
0
0
SPLINE
5
397
100
AcDbEntity
8
0
100
AcDbSpline
70
0
71
2
72
6
73
3
74
0
42
0.000000001
43
0.0000000001
44
0.0000000001
40
0
40
0
40
0
40
1
40
1
40
1
10
23.545646573914624
20
0.037455726481093188
30
0
10
23.681057742725898
20
0.17758416941052596
30
0
10
23.676900676718876
20
0.42038625247852013
30
0
0
SPLINE
5
398
100
AcDbEntity
8
0
100
AcDbSpline
70
0
71
2
72
6
73
3
74
0
42
0.000000001
43
0.0000000001
44
0.0000000001
40
0
40
0
40
0
40
1
40
1
40
1
10
23.676900676718876
20
0.42038625247852013
30
0
10
23.672790317427008
20
0.66046033274041593
30
0
10
23.525771362991158
20
0.79984658233052564
30
0
0
SPLINE
5
399
100
AcDbEntity
8
0
100
AcDbSpline
70
0
71
2
72
6
73
3
74
0
42
0.000000001
43
0.0000000001
44
0.0000000001
40
0
40
0
40
0
40
1
40
1
40
1
10
23.525771362991158
20
0.79984658233052564
30
0
10
23.378752406004416
20
0.93923298091041152
30
0
10
23.042820982747916
20
0.95531274175439396
30
0
0
LINE
5
400
100
AcDbEntity
8
0
100
AcDbLine
10
23.042820982747916
20
0.95531274175439396
30
0
11
23.106129633475895
21
1.7204921701401803
31
0
0
SPLINE
5
401
100
AcDbEntity
8
0
100
AcDbSpline
70
0
71
2
72
6
73
3
74
0
42
0.000000001
43
0.0000000001
44
0.0000000001
40
0
40
0
40
0
40
1
40
1
40
1
10
23.106129633475895
20
1.7204921701401803
30
0
10
23.740219625483583
20
1.6631257589682864
30
0
10
24.021924470211033
20
1.3077323731848789
30
0
0
SPLINE
5
402
100
AcDbEntity
8
0
100
AcDbSpline
70
0
71
2
72
6
73
3
74
0
42
0.000000001
43
0.0000000001
44
0.0000000001
40
0
40
0
40
0
40
1
40
1
40
1
10
24.021924470211033
20
1.3077323731848789
30
0
10
24.303629611961448
20
0.95233904837440864
30
0
10
24.312877916541822
20
0.41217259126980765
30
0
0
SPLINE
5
403
100
AcDbEntity
8
0
100
AcDbSpline
70
0
71
2
72
6
73
3
74
0
42
0.000000001
43
0.0000000001
44
0.0000000001
40
0
40
0
40
0
40
1
40
1
40
1
10
24.312877916541822
20
0.41217259126980765
30
0
10
24.323013684422502
20
-0.17982800500753127
30
0
10
24.009616407797726
20
-0.52357881608238233
30
0
0
SPLINE
5
404
100
AcDbEntity
8
0
100
AcDbSpline
70
0
71
2
72
6
73
3
74
0
42
0.000000001
43
0.0000000001
44
0.0000000001
40
0
40
0
40
0
40
1
40
1
40
1
10
24.009616407797726
20
-0.52357881608238233
30
0
10
23.69621883829517
20
-0.86732993023855731
30
0
10
23.221527279342681
20
-0.87545722518845071
30
0
0
SPLINE
5
405
100
AcDbEntity
8
0
100
AcDbSpline
70
0
71
2
72
6
73
3
74
0
42
0.000000001
43
0.0000000001
44
0.0000000001
40
0
40
0
40
0
40
1
40
1
40
1
10
23.221527279342681
20
-0.87545722518845071
30
0
10
22.951443976295494
20
-0.88008137875408343
30
0
10
22.705619585572844
20
-0.78741367832911469
30
0
0
SPLINE
5
406
100
AcDbEntity
8
0
100
AcDbSpline
70
0
71
2
72
6
73
3
74
0
42
0.000000001
43
0.0000000001
44
0.0000000001
40
0
40
0
40
0
40
1
40
1
40
1
10
22.705619585572844
20
-0.78741367832911469
30
0
10
22.459795492829752
20
-0.69474597280237416
30
0
10
22.188843632672327
20
-0.48925886015580483
30
0
0
SPLINE
5
407
100
AcDbEntity
8
0
100
AcDbSpline
70
0
71
2
72
6
73
3
74
0
42
0.000000001
43
0.0000000001
44
0.0000000001
40
0
40
0
40
0
40
1
40
1
40
1
10
22.188843632672327
20
-0.48925886015580483
30
0
10
22.00913445733979
20
-0.35316110925893734
30
0
10
21.670092162283407
20
0.003979560009923222
30
0
0
SPLINE
5
408
100
AcDbEntity
8
0
100
AcDbSpline
70
0
71
2
72
6
73
3
74
0
42
0.000000001
43
0.0000000001
44
0.0000000001
40
0
40
0
40
0
40
1
40
1
40
1
10
21.670092162283407
20
0.003979560009923222
30
0
10
21.331050167757461
20
0.36112008539077894
30
0
10
21.220267431109296
20
0.45609971360878798
30
0
0
SPLINE
5
409
100
AcDbEntity
8
0
100
AcDbSpline
70
0
71
2
72
6
73
3
74
0
42
0.000000001
43
0.0000000001
44
0.0000000001
40
0
40
0
40
0
40
1
40
1
40
1
10
21.220267431109296
20
0.45609971360878798
30
0
10
21.1094849898898
20
0.55107949591834426
30
0
10
21.004789122996797
20
0.60932301488833795
30
0
0
LINE
5
410
100
AcDbEntity
8
0
100
AcDbLine
10
21.004789122996797
20
0.60932301488833795
30
0
11
21.030852526118533
21
-0.91296423268196203
31
0
0
SPLINE
5
411
100
AcDbEntity
8
0
100
AcDbSpline
70
0
71
2
72
6
73
3
74
0
42
0.000000001
43
0.0000000001
44
0.0000000001
40
0
40
0
40
0
40
1
40
1
40
1
10
19.099539803609954
20
-1.2190874355255836
30
0
10
19.559485694742435
20
-1.4940736391167853
30
0
10
19.807838158531631
20
-1.6128859167253871
30
0
0
SPLINE
5
412
100
AcDbEntity
8
0
100
AcDbSpline
70
0
71
2
72
6
73
3
74
0
42
0.000000001
43
0.0000000001
44
0.0000000001
40
0
40
0
40
0
40
1
40
1
40
1
10
19.807838158531631
20
-1.6128859167253871
30
0
10
20.05619061469514
20
-1.7316982684485225
30
0
10
20.384650807619945
20
-1.8450383120354763
30
0
0
SPLINE
5
413
100
AcDbEntity
8
0
100
AcDbSpline
70
0
71
2
72
6
73
3
74
0
42
0.000000001
43
0.0000000001
44
0.0000000001
40
0
40
0
40
0
40
1
40
1
40
1
10
20.384650807619945
20
-1.8450383120354763
30
0
10
20.71311100054475
20
-1.9583783556224301
30
0
10
21.011832893367874
20
-2.0275147885705866
30
0
0
SPLINE
5
414
100
AcDbEntity
8
0
100
AcDbSpline
70
0
71
2
72
6
73
3
74
0
42
0.000000001
43
0.0000000001
44
0.0000000001
40
0
40
0
40
0
40
1
40
1
40
1
10
21.011832893367874
20
-2.0275147885705866
30
0
10
21.310554482107182
20
-2.0966512651305544
30
0
10
21.628114210816261
20
-2.1293251412166256
30
0
0
SPLINE
5
415
100
AcDbEntity
8
0
100
AcDbSpline
70
0
71
2
72
6
73
3
74
0
42
0.000000001
43
0.0000000001
44
0.0000000001
40
0
40
0
40
0
40
1
40
1
40
1
10
21.628114210816261
20
-2.1293251412166256
30
0
10
22.274089965142142
20
-2.1957899030970167
30
0
10
22.865096456035179
20
-2.1167100941478538
30
0
0
SPLINE
5
416
100
AcDbEntity
8
0
100
AcDbSpline
70
0
71
2
72
6
73
3
74
0
42
0.000000001
43
0.0000000001
44
0.0000000001
40
0
40
0
40
0
40
1
40
1
40
1
10
22.865096456035179
20
-2.1167100941478538
30
0
10
23.456102954553899
20
-2.0376302110841573
30
0
10
24.316760073698056
20
-1.7504039474801463
30
0
0
LINE
5
417
100
AcDbEntity
8
0
100
AcDbLine
10
24.316760073698056
20
-1.7504039474801463
30
0
11
24.263420703967974
21
-2.2688130807087266
31
0
0
SPLINE
5
418
100
AcDbEntity
8
0
100
AcDbSpline
70
0
71
2
72
6
73
3
74
0
42
0.000000001
43
0.0000000001
44
0.0000000001
40
0
40
0
40
0
40
1
40
1
40
1
10
24.263420703967974
20
-2.2688130807087266
30
0
10
23.637701915055317
20
-2.6186130739777012
30
0
10
22.960265110720719
20
-2.7779449865790076
30
0
0
SPLINE
5
419
100
AcDbEntity
8
0
100
AcDbSpline
70
0
71
2
72
6
73
3
74
0
42
0.000000001
43
0.0000000001
44
0.0000000001
40
0
40
0
40
0
40
1
40
1
40
1
10
22.960265110720719
20
-2.7779449865790076
30
0
10
22.282828314011809
20
-2.9372768250657799
30
0
10
21.609710631584061
20
-2.8680194169038762
30
0
0
SPLINE
5
420
100
AcDbEntity
8
0
100
AcDbSpline
70
0
71
2
72
6
73
3
74
0
42
0.000000001
43
0.0000000001
44
0.0000000001
40
0
40
0
40
0
40
1
40
1
40
1
10
21.609710631584061
20
-2.8680194169038762
30
0
10
21.042446290878711
20
-2.8096533109382378
30
0
10
20.412187573370566
20
-2.5637731039261902
30
0
0
SPLINE
5
421
100
AcDbEntity
8
0
100
AcDbSpline
70
0
71
2
72
6
73
3
74
0
42
0.000000001
43
0.0000000001
44
0.0000000001
40
0
40
0
40
0
40
1
40
1
40
1
10
20.412187573370566
20
-2.5637731039261902
30
0
10
19.705731413761249
20
-2.2853665963589682
30
0
10
19.04536264609596
20
-1.7456390878930974
30
0
0
LINE
5
422
100
AcDbEntity
8
0
100
AcDbLine
10
19.04536264609596
20
-1.7456390878930974
30
0
11
19.099539803609954
21
-1.2190874355255836
31
0
0
LINE
5
423
100
AcDbEntity
8
0
100
AcDbLine
10
17.492233215398421
20
-10.380069808746349
30
0
11
20.7700254439983
21
-12.615066915400163
31
0
0
LINE
5
424
100
AcDbEntity
8
0
100
AcDbLine
10
20.7700254439983
20
-12.615066915400162
30
0
11
20.315032935622522
21
-13.28234782757017
31
0
0
LINE
5
425
100
AcDbEntity
8
0
100
AcDbLine
10
20.315032935622522
20
-13.28234782757017
30
0
11
17.59405951006292
21
-11.427023478349504
31
0
0
LINE
5
426
100
AcDbEntity
8
0
100
AcDbLine
10
17.59405951006292
20
-11.427023478349504
30
0
11
16.462726695780137
21
-13.086208582247952
31
0
0
LINE
5
427
100
AcDbEntity
8
0
100
AcDbLine
10
16.462726695780137
20
-13.086208582247952
30
0
11
15.905907892739862
21
-12.706535824814804
31
0
0
LINE
5
428
100
AcDbEntity
8
0
100
AcDbLine
10
15.905907892739858
20
-12.706535824814804
30
0
11
17.492233215398421
21
-10.380069808746349
31
0
0
LINE
5
429
100
AcDbEntity
8
0
100
AcDbLine
10
15.075649021746802
20
-14.946037595251241
30
0
11
14.458080256262987
21
-15.41371860357385
31
0
0
SPLINE
5
430
100
AcDbEntity
8
0
100
AcDbSpline
70
0
71
2
72
6
73
3
74
0
42
0.000000001
43
0.0000000001
44
0.0000000001
40
0
40
0
40
0
40
1
40
1
40
1
10
14.458080256262988
20
-15.41371860357385
30
0
10
14.253566015433075
20
-15.018189678486815
30
0
10
14.311948965198411
20
-14.636249759414142
30
0
0
SPLINE
5
431
100
AcDbEntity
8
0
100
AcDbSpline
70
0
71
2
72
6
73
3
74
0
42
0.000000001
43
0.0000000001
44
0.0000000001
40
0
40
0
40
0
40
1
40
1
40
1
10
14.311948965198411
20
-14.636249759414142
30
0
10
14.370332246240185
20
-14.254310357769484
30
0
10
14.698015092274954
20
-13.907005751877822
30
0
0
SPLINE
5
432
100
AcDbEntity
8
0
100
AcDbSpline
70
0
71
2
72
6
73
3
74
0
42
0.000000001
43
0.0000000001
44
0.0000000001
40
0
40
0
40
0
40
1
40
1
40
1
10
14.698015092274954
20
-13.907005751877822
30
0
10
15.216690146825851
20
-13.357272259305793
30
0
10
15.824940954067115
20
-13.43223828073616
30
0
0
SPLINE
5
433
100
AcDbEntity
8
0
100
AcDbSpline
70
0
71
2
72
6
73
3
74
0
42
0.000000001
43
0.0000000001
44
0.0000000001
40
0
40
0
40
0
40
1
40
1
40
1
10
15.824940954067115
20
-13.43223828073616
30
0
10
16.309317353325408
20
-13.495364203823989
30
0
10
16.747913220274032
20
-13.909180604478472
30
0
0
SPLINE
5
434
100
AcDbEntity
8
0
100
AcDbSpline
70
0
71
2
72
6
73
3
74
0
42
0.000000001
43
0.0000000001
44
0.0000000001
40
0
40
0
40
0
40
1
40
1
40
1
10
16.747913220274032
20
-13.909180604478472
30
0
10
17.271847013346672
20
-14.403513571952535
30
0
10
17.310143054699655
20
-14.957322814414077
30
0
0
SPLINE
5
435
100
AcDbEntity
8
0
100
AcDbSpline
70
0
71
2
72
6
73
3
74
0
42
0.000000001
43
0.0000000001
44
0.0000000001
40
0
40
0
40
0
40
1
40
1
40
1
10
17.310143054699655
20
-14.957322814414077
30
0
10
17.348439134400483
20
-15.511132016231494
30
0
10
16.953347372848558
20
-15.929882006343192
30
0
0
SPLINE
5
436
100
AcDbEntity
8
0
100
AcDbSpline
70
0
71
2
72
6
73
3
74
0
42
0.000000001
43
0.0000000001
44
0.0000000001
40
0
40
0
40
0
40
1
40
1
40
1
10
16.953347372848558
20
-15.929882006343192
30
0
10
16.509571181490667
20
-16.400231666414513
30
0
10
15.942452673438044
20
-16.379079418666912
30
0
0
SPLINE
5
437
100
AcDbEntity
8
0
100
AcDbSpline
70
0
71
2
72
6
73
3
74
0
42
0.000000001
43
0.0000000001
44
0.0000000001
40
0
40
0
40
0
40
1
40
1
40
1
10
15.942452673438044
20
-16.379079418666912
30
0
10
15.375334586675933
20
-16.357927158672478
30
0
10
14.745544301581559
20
-15.741210705778521
30
0
0
LINE
5
438
100
AcDbEntity
8
0
100
AcDbLine
10
14.745544301581559
20
-15.741210705778521
30
0
11
16.06376537774419
21
-14.344054104892042
31
0
0
SPLINE
5
439
100
AcDbEntity
8
0
100
AcDbSpline
70
0
71
2
72
6
73
3
74
0
42
0.000000001
43
0.0000000001
44
0.0000000001
40
0
40
0
40
0
40
1
40
1
40
1
10
16.06376537774419
20
-14.344054104892042
30
0
10
15.810073520945409
20
-14.115949043989438
30
0
10
15.550433086654403
20
-14.11481082468489
30
0
0
SPLINE
5
440
100
AcDbEntity
8
0
100
AcDbSpline
70
0
71
2
72
6
73
3
74
0
42
0.000000001
43
0.0000000001
44
0.0000000001
40
0
40
0
40
0
40
1
40
1
40
1
10
15.550433086654403
20
-14.11481082468489
30
0
10
15.290792818001616
20
-14.113672864094351
30
0
10
15.109163005732459
20
-14.306178731068
30
0
0
SPLINE
5
441
100
AcDbEntity
8
0
100
AcDbSpline
70
0
71
2
72
6
73
3
74
0
42
0.000000001
43
0.0000000001
44
0.0000000001
40
0
40
0
40
0
40
1
40
1
40
1
10
15.109163005732459
20
-14.306178731068
30
0
10
14.985579763863942
20
-14.437162179336161
30
0
10
14.972763840575254
20
-14.593878106575534
30
0
0
SPLINE
5
442
100
AcDbEntity
8
0
100
AcDbSpline
70
0
71
2
72
6
73
3
74
0
42
0.000000001
43
0.0000000001
44
0.0000000001
40
0
40
0
40
0
40
1
40
1
40
1
10
14.972763840575254
20
-14.593878106575534
30
0
10
14.95994823631616
20
-14.750594129952413
30
0
10
15.075649021746802
20
-14.946037595251241
30
0
0
SPLINE
5
443
100
AcDbEntity
8
0
100
AcDbSpline
70
0
71
2
72
6
73
3
74
0
42
0.000000001
43
0.0000000001
44
0.0000000001
40
0
40
0
40
0
40
1
40
1
40
1
10
15.609315090696061
20
-15.509573519545363
30
0
10
15.857053344662763
20
-15.732061442318159
30
0
10
16.095423948027129
20
-15.731887779257455
30
0
0
SPLINE
5
444
100
AcDbEntity
8
0
100
AcDbSpline
70
0
71
2
72
6
73
3
74
0
42
0.000000001
43
0.0000000001
44
0.0000000001
40
0
40
0
40
0
40
1
40
1
40
1
10
16.095423948027129
20
-15.731887779257455
30
0
10
16.3337942323619
20
-15.731714020059254
30
0
10
16.494826956957379
20
-15.561038601348569
30
0
0
SPLINE
5
445
100
AcDbEntity
8
0
100
AcDbSpline
70
0
71
2
72
6
73
3
74
0
42
0.000000001
43
0.0000000001
44
0.0000000001
40
0
40
0
40
0
40
1
40
1
40
1
10
16.494826956957379
20
-15.561038601348569
30
0
10
16.667094475240486
20
-15.378455645697295
30
0
10
16.64647479840454
20
-15.133924046991801
30
0
0
SPLINE
5
446
100
AcDbEntity
8
0
100
AcDbSpline
70
0
71
2
72
6
73
3
74
0
42
0.000000001
43
0.0000000001
44
0.0000000001
40
0
40
0
40
0
40
1
40
1
40
1
10
16.64647479840454
20
-15.133924046991801
30
0
10
16.625855121568595
20
-14.889392448286303
30
0
10
16.395753818918589
20
-14.676042573789712
30
0
0
LINE
5
447
100
AcDbEntity
8
0
100
AcDbLine
10
16.395753818918589
20
-14.676042573789712
30
0
11
15.609315090696061
21
-15.509573519545366
31
0
0
SPLINE
5
448
100
AcDbEntity
8
0
100
AcDbSpline
70
0
71
2
72
6
73
3
74
0
42
0.000000001
43
0.0000000001
44
0.0000000001
40
0
40
0
40
0
40
1
40
1
40
1
10
14.475197729178825
20
-16.354258543949626
30
0
10
14.708367247769621
20
-16.65683045141941
30
0
10
14.777422634697579
20
-17.054870650714314
30
0
0
SPLINE
5
449
100
AcDbEntity
8
0
100
AcDbSpline
70
0
71
2
72
6
73
3
74
0
42
0.000000001
43
0.0000000001
44
0.0000000001
40
0
40
0
40
0
40
1
40
1
40
1
10
14.777422634697579
20
-17.054870650714314
30
0
10
14.8464778692185
20
-17.452910591208688
30
0
10
14.688001683555797
20
-17.812720486262936
30
0
0
SPLINE
5
450
100
AcDbEntity
8
0
100
AcDbSpline
70
0
71
2
72
6
73
3
74
0
42
0.000000001
43
0.0000000001
44
0.0000000001
40
0
40
0
40
0
40
1
40
1
40
1
10
14.688001683555797
20
-17.812720486262936
30
0
10
14.529525797838383
20
-18.172530526421035
30
0
10
14.192374230311412
20
-18.432348000388757
30
0
0
SPLINE
5
451
100
AcDbEntity
8
0
100
AcDbSpline
70
0
71
2
72
6
73
3
74
0
42
0.000000001
43
0.0000000001
44
0.0000000001
40
0
40
0
40
0
40
1
40
1
40
1
10
14.192374230311412
20
-18.432348000388757
30
0
10
13.671518425284182
20
-18.833732578121065
30
0
10
13.078039094858065
20
-18.751986756515116
30
0
0
SPLINE
5
452
100
AcDbEntity
8
0
100
AcDbSpline
70
0
71
2
72
6
73
3
74
0
42
0.000000001
43
0.0000000001
44
0.0000000001
40
0
40
0
40
0
40
1
40
1
40
1
10
13.078039094858065
20
-18.751986756515116
30
0
10
12.484559946346639
20
-18.670241170970364
30
0
10
12.086506408515117
20
-18.153707882465582
30
0
0
SPLINE
5
453
100
AcDbEntity
8
0
100
AcDbSpline
70
0
71
2
72
6
73
3
74
0
42
0.000000001
43
0.0000000001
44
0.0000000001
40
0
40
0
40
0
40
1
40
1
40
1
10
12.086506408515117
20
-18.153707882465582
30
0
10
11.685121830782808
20
-17.632852077438351
30
0
10
11.757211390841483
20
-17.031312636729169
30
0
0
SPLINE
5
454
100
AcDbEntity
8
0
100
AcDbSpline
70
0
71
2
72
6
73
3
74
0
42
0.000000001
43
0.0000000001
44
0.0000000001
40
0
40
0
40
0
40
1
40
1
40
1
10
11.757211390841483
20
-17.031312636729169
30
0
10
11.829301314729545
20
-16.429773668142374
30
0
10
12.339351064511854
20
-16.036716508247348
30
0
0
SPLINE
5
455
100
AcDbEntity
8
0
100
AcDbSpline
70
0
71
2
72
6
73
3
74
0
42
0.000000001
43
0.0000000001
44
0.0000000001
40
0
40
0
40
0
40
1
40
1
40
1
10
12.339351064511854
20
-16.036716508247348
30
0
10
12.654890285487784
20
-15.793554051868879
30
0
10
13.051175612538108
20
-15.715516717160025
30
0
0
SPLINE
5
456
100
AcDbEntity
8
0
100
AcDbSpline
70
0
71
2
72
6
73
3
74
0
42
0.000000001
43
0.0000000001
44
0.0000000001
40
0
40
0
40
0
40
1
40
1
40
1
10
13.051175612538108
20
-15.715516717160025
30
0
10
13.447460939588431
20
-15.637479382451172
30
0
10
13.808936472623671
20
-15.79811673541775
30
0
0
SPLINE
5
457
100
AcDbEntity
8
0
100
AcDbSpline
70
0
71
2
72
6
73
3
74
0
42
0.000000001
43
0.0000000001
44
0.0000000001
40
0
40
0
40
0
40
1
40
1
40
1
10
13.808936472623671
20
-15.79811673541775
30
0
10
14.170412035166562
20
-15.958754065644992
30
0
10
14.475197729178825
20
-16.354258543949626
30
0
0
SPLINE
5
458
100
AcDbEntity
8
0
100
AcDbSpline
70
0
71
2
72
6
73
3
74
0
42
0.000000001
43
0.0000000001
44
0.0000000001
40
0
40
0
40
0
40
1
40
1
40
1
10
13.82778182826442
20
-16.801503206836301
30
0
10
13.564633314395909
20
-16.460029122786885
30
0
10
13.262639630644557
20
-16.403398202649928
30
0
0
SPLINE
5
459
100
AcDbEntity
8
0
100
AcDbSpline
70
0
71
2
72
6
73
3
74
0
42
0.000000001
43
0.0000000001
44
0.0000000001
40
0
40
0
40
0
40
1
40
1
40
1
10
13.262639630644557
20
-16.403398202649928
30
0
10
12.960645828862605
20
-16.346767373470321
30
0
10
12.722910724984747
20
-16.529972021208042
30
0
0
SPLINE
5
460
100
AcDbEntity
8
0
100
AcDbSpline
70
0
71
2
72
6
73
3
74
0
42
0.000000001
43
0.0000000001
44
0.0000000001
40
0
40
0
40
0
40
1
40
1
40
1
10
12.722910724984747
20
-16.529972021208042
30
0
10
12.485175739137484
20
-16.713176577988417
30
0
10
12.46406597504452
20
-17.018799137894206
30
0
0
SPLINE
5
461
100
AcDbEntity
8
0
100
AcDbSpline
70
0
71
2
72
6
73
3
74
0
42
0.000000001
43
0.0000000001
44
0.0000000001
40
0
40
0
40
0
40
1
40
1
40
1
10
12.46406597504452
20
-17.018799137894206
30
0
10
12.442956210951554
20
-17.324421697799991
30
0
10
12.709435582806165
20
-17.67021806231066
30
0
0
SPLINE
5
462
100
AcDbEntity
8
0
100
AcDbSpline
70
0
71
2
72
6
73
3
74
0
42
0.000000001
43
0.0000000001
44
0.0000000001
40
0
40
0
40
0
40
1
40
1
40
1
10
12.709435582806165
20
-17.67021806231066
30
0
10
12.969253056773889
20
-18.007369629837633
30
0
10
13.270166170409929
20
-18.064833264471112
30
0
0
SPLINE
5
463
100
AcDbEntity
8
0
100
AcDbSpline
70
0
71
2
72
6
73
3
74
0
42
0.000000001
43
0.0000000001
44
0.0000000001
40
0
40
0
40
0
40
1
40
1
40
1
10
13.270166170409929
20
-18.064833264471112
30
0
10
13.571079284045968
20
-18.12229689910459
30
0
10
13.808814269893229
20
-17.939092342324212
30
0
0
SPLINE
5
464
100
AcDbEntity
8
0
100
AcDbSpline
70
0
71
2
72
6
73
3
74
0
42
0.000000001
43
0.0000000001
44
0.0000000001
40
0
40
0
40
0
40
1
40
1
40
1
10
13.808814269893229
20
-17.939092342324212
30
0
10
14.046549373771089
20
-17.755887694586491
30
0
10
14.068739826009963
20
-17.449432329226834
30
0
0
SPLINE
5
465
100
AcDbEntity
8
0
100
AcDbSpline
70
0
71
2
72
6
73
3
74
0
42
0.000000001
43
0.0000000001
44
0.0000000001
40
0
40
0
40
0
40
1
40
1
40
1
10
14.068739826009963
20
-17.449432329226834
30
0
10
14.090930160218242
20
-17.142977054824527
30
0
10
13.82778182826442
20
-16.801503206836301
30
0
0
LINE
5
466
100
AcDbEntity
8
0
100
AcDbLine
10
8.4014826051850928
20
-18.527665509655051
30
0
11
9.0775605555547436
21
-18.166049561503353
31
0
0
LINE
5
467
100
AcDbEntity
8
0
100
AcDbLine
10
9.0775605555547436
20
-18.166049561503353
30
0
11
9.7750545779175386
21
-19.47008587805513
31
0
0
SPLINE
5
468
100
AcDbEntity
8
0
100
AcDbSpline
70
0
71
2
72
6
73
3
74
0
42
0.000000001
43
0.0000000001
44
0.0000000001
40
0
40
0
40
0
40
1
40
1
40
1
10
9.7750545779175386
20
-19.47008587805513
30
0
10
9.9963996191131415
20
-19.88391304065923
30
0
10
10.104695085069263
20
-19.982250485549535
30
0
0
SPLINE
5
469
100
AcDbEntity
8
0
100
AcDbSpline
70
0
71
2
72
6
73
3
74
0
42
0.000000001
43
0.0000000001
44
0.0000000001
40
0
40
0
40
0
40
1
40
1
40
1
10
10.104695085069263
20
-19.982250485549535
30
0
10
10.212990419628659
20
-20.080588000720425
30
0
10
10.346465257660855
20
-20.095836339967938
30
0
0
SPLINE
5
470
100
AcDbEntity
8
0
100
AcDbSpline
70
0
71
2
72
6
73
3
74
0
42
0.000000001
43
0.0000000001
44
0.0000000001
40
0
40
0
40
0
40
1
40
1
40
1
10
10.346465257660855
20
-20.095836339967938
30
0
10
10.479940095693053
20
-20.111084679215452
30
0
10
10.617080437599268
20
-20.03773199149483
30
0
0
SPLINE
5
471
100
AcDbEntity
8
0
100
AcDbSpline
70
0
71
2
72
6
73
3
74
0
42
0.000000001
43
0.0000000001
44
0.0000000001
40
0
40
0
40
0
40
1
40
1
40
1
10
10.617080437599268
20
-20.03773199149483
30
0
10
10.792716341738121
20
-19.943789060846186
30
0
10
10.880786941251849
20
-19.772910296997374
30
0
0
SPLINE
5
472
100
AcDbEntity
8
0
100
AcDbSpline
70
0
71
2
72
6
73
3
74
0
42
0.000000001
43
0.0000000001
44
0.0000000001
40
0
40
0
40
0
40
1
40
1
40
1
10
10.880786941251849
20
-19.772910296997374
30
0
10
10.968857821887909
20
-19.602032058735471
30
0
10
10.935651570556224
20
-19.415569931471492
30
0
0
SPLINE
5
473
100
AcDbEntity
8
0
100
AcDbSpline
70
0
71
2
72
6
73
3
74
0
42
0.000000001
43
0.0000000001
44
0.0000000001
40
0
40
0
40
0
40
1
40
1
40
1
10
10.935651570556224
20
-19.415569931471492
30
0
10
10.902445178663376
20
-19.229107541414059
30
0
10
10.673378831510059
20
-18.800844608671085
30
0
0
LINE
5
474
100
AcDbEntity
8
0
100
AcDbLine
10
10.673378831510059
20
-18.800844608671085
30
0
11
10.05438498731931
21
-17.643572393186954
31
0
0
LINE
5
475
100
AcDbEntity
8
0
100
AcDbLine
10
10.054384987319306
20
-17.643572393186954
30
0
11
10.730462904839776
21
-17.2819564626054
31
0
0
LINE
5
476
100
AcDbEntity
8
0
100
AcDbLine
10
10.730462904839776
20
-17.2819564626054
30
0
11
12.097139541240798
21
-19.837098026130903
31
0
0
LINE
5
477
100
AcDbEntity
8
0
100
AcDbLine
10
12.0971395412408
20
-19.837098026130903
30
0
11
11.469181076511125
21
-20.172976153052439
31
0
0
LINE
5
478
100
AcDbEntity
8
0
100
AcDbLine
10
11.469181076511125
20
-20.172976153052439
30
0
11
11.268426418804706
21
-19.797644815474431
31
0
0
SPLINE
5
479
100
AcDbEntity
8
0
100
AcDbSpline
70
0
71
2
72
6
73
3
74
0
42
0.000000001
43
0.0000000001
44
0.0000000001
40
0
40
0
40
0
40
1
40
1
40
1
10
11.268426418804705
20
-19.797644815474431
30
0
10
11.165636408253043
20
-20.40959714398781
30
0
10
10.657976476952808
20
-20.681130814469725
30
0
0
SPLINE
5
480
100
AcDbEntity
8
0
100
AcDbSpline
70
0
71
2
72
6
73
3
74
0
42
0.000000001
43
0.0000000001
44
0.0000000001
40
0
40
0
40
0
40
1
40
1
40
1
10
10.657976476952808
20
-20.681130814469725
30
0
10
10.434221120023164
20
-20.800811548778388
30
0
10
10.205850381583963
20
-20.819302043439627
30
0
0
SPLINE
5
481
100
AcDbEntity
8
0
100
AcDbSpline
70
0
71
2
72
6
73
3
74
0
42
0.000000001
43
0.0000000001
44
0.0000000001
40
0
40
0
40
0
40
1
40
1
40
1
10
10.205850381583963
20
-20.819302043439627
30
0
10
9.9774799059382175
20
-20.837792397539701
30
0
10
9.8155258495638815
20
-20.76351406998355
30
0
0
SPLINE
5
482
100
AcDbEntity
8
0
100
AcDbSpline
70
0
71
2
72
6
73
3
74
0
42
0.000000001
43
0.0000000001
44
0.0000000001
40
0
40
0
40
0
40
1
40
1
40
1
10
9.8155258495638815
20
-20.76351406998355
30
0
10
9.6535715303960892
20
-20.689235882988555
30
0
10
9.5313442493878178
20
-20.550388376991723
30
0
0
SPLINE
5
483
100
AcDbEntity
8
0
100
AcDbSpline
70
0
71
2
72
6
73
3
74
0
42
0.000000001
43
0.0000000001
44
0.0000000001
40
0
40
0
40
0
40
1
40
1
40
1
10
9.5313442493878178
20
-20.550388376991723
30
0
10
9.4091171089407108
20
-20.411541133788347
30
0
10
9.2508296340017253
20
-20.115606531974151
30
0
0
LINE
5
484
100
AcDbEntity
8
0
100
AcDbLine
10
9.2508296340017253
20
-20.115606531974151
30
0
11
8.4014826051850946
21
-18.527665509655055
31
0
0
LINE
5
485
100
AcDbEntity
8
0
100
AcDbLine
10
7.8474066081918359
20
-20.896244382305234
30
0
11
8.5459540128682772
21
-20.78724151128192
31
0
0
SPLINE
5
486
100
AcDbEntity
8
0
100
AcDbSpline
70
0
71
2
72
6
73
3
74
0
42
0.000000001
43
0.0000000001
44
0.0000000001
40
0
40
0
40
0
40
1
40
1
40
1
10
8.5459540128682754
20
-20.78724151128192
30
0
10
8.5725411770761379
20
-21.222694139298483
30
0
10
8.3678616680170332
20
-21.507215867866147
30
0
0
SPLINE
5
487
100
AcDbEntity
8
0
100
AcDbSpline
70
0
71
2
72
6
73
3
74
0
42
0.000000001
43
0.0000000001
44
0.0000000001
40
0
40
0
40
0
40
1
40
1
40
1
10
8.3678616680170332
20
-21.507215867866147
30
0
10
8.1631822916539694
20
-21.791737865872818
30
0
10
7.629456192941916
20
-21.976502562342219
30
0
0
SPLINE
5
488
100
AcDbEntity
8
0
100
AcDbSpline
70
0
71
2
72
6
73
3
74
0
42
0.000000001
43
0.0000000001
44
0.0000000001
40
0
40
0
40
0
40
1
40
1
40
1
10
7.629456192941916
20
-21.976502562342219
30
0
10
7.1447195041072407
20
-22.144308160375076
30
0
10
6.8677879890869775
20
-22.111687572959418
30
0
0
SPLINE
5
489
100
AcDbEntity
8
0
100
AcDbSpline
70
0
71
2
72
6
73
3
74
0
42
0.000000001
43
0.0000000001
44
0.0000000001
40
0
40
0
40
0
40
1
40
1
40
1
10
6.8677879890869775
20
-22.111687572959418
30
0
10
6.590856333253905
20
-22.079067034290183
30
0
10
6.4330249858217803
20
-21.935919325370605
30
0
0
SPLINE
5
490
100
AcDbEntity
8
0
100
AcDbSpline
70
0
71
2
72
6
73
3
74
0
42
0.000000001
43
0.0000000001
44
0.0000000001
40
0
40
0
40
0
40
1
40
1
40
1
10
6.4330249858217803
20
-21.935919325370605
30
0
10
6.2751936383896574
20
-21.79277161645102
30
0
10
6.1118510187240194
20
-21.320927044336095
30
0
0
LINE
5
491
100
AcDbEntity
8
0
100
AcDbLine
10
6.1118510187240194
20
-21.320927044336095
30
0
11
5.8268188617527708
21
-20.472538277523036
31
0
0
SPLINE
5
492
100
AcDbEntity
8
0
100
AcDbSpline
70
0
71
2
72
6
73
3
74
0
42
0.000000001
43
0.0000000001
44
0.0000000001
40
0
40
0
40
0
40
1
40
1
40
1
10
5.8268188617527716
20
-20.472538277523032
30
0
10
5.7018572223417596
20
-20.111564078631368
30
0
10
5.6076921000088138
20
-19.952151310208389
30
0
0
SPLINE
5
493
100
AcDbEntity
8
0
100
AcDbSpline
70
0
71
2
72
6
73
3
74
0
42
0.000000001
43
0.0000000001
44
0.0000000001
40
0
40
0
40
0
40
1
40
1
40
1
10
5.6076921000088138
20
-19.952151310208389
30
0
10
5.5135272593014868
20
-19.792738444292578
30
0
10
5.3502905666373444
20
-19.629806687608312
30
0
0
LINE
5
494
100
AcDbEntity
8
0
100
AcDbLine
10
5.3502905666373444
20
-19.629806687608312
30
0
11
6.0670821177327756
21
-19.381668600133175
31
0
0
SPLINE
5
495
100
AcDbEntity
8
0
100
AcDbSpline
70
0
71
2
72
6
73
3
74
0
42
0.000000001
43
0.0000000001
44
0.0000000001
40
0
40
0
40
0
40
1
40
1
40
1
10
6.0670821177327756
20
-19.381668600133175
30
0
10
6.1204366409628497
20
-19.44404492109264
30
0
10
6.2107829795507365
20
-19.571575038653869
30
0
0
SPLINE
5
496
100
AcDbEntity
8
0
100
AcDbSpline
70
0
71
2
72
6
73
3
74
0
42
0.000000001
43
0.0000000001
44
0.0000000001
40
0
40
0
40
0
40
1
40
1
40
1
10
6.2107829795507365
20
-19.571575038653869
30
0
10
6.2511462119439143
20
-19.62978656434165
30
0
10
6.2660220090576599
20
-19.647735931193711
30
0
0
SPLINE
5
497
100
AcDbEntity
8
0
100
AcDbSpline
70
0
71
2
72
6
73
3
74
0
42
0.000000001
43
0.0000000001
44
0.0000000001
40
0
40
0
40
0
40
1
40
1
40
1
10
6.2660220090576599
20
-19.647735931193711
30
0
10
6.3891849946730739
20
-19.402982869441903
30
0
10
6.569372439447946
20
-19.239547779797036
30
0
0
SPLINE
5
498
100
AcDbEntity
8
0
100
AcDbSpline
70
0
71
2
72
6
73
3
74
0
42
0.000000001
43
0.0000000001
44
0.0000000001
40
0
40
0
40
0
40
1
40
1
40
1
10
6.569372439447946
20
-19.239547779797036
30
0
10
6.7495597867299795
20
-19.076112408526548
30
0
10
6.9893497078033686
20
-18.993102205183561
30
0
0
SPLINE
5
499
100
AcDbEntity
8
0
100
AcDbSpline
70
0
71
2
72
6
73
3
74
0
42
0.000000001
43
0.0000000001
44
0.0000000001
40
0
40
0
40
0
40
1
40
1
40
1
10
6.9893497078033686
20
-18.993102205183561
30
0
10
7.4122051516665373
20
-18.846718586461627
30
0
10
7.735302504031849
20
-18.991845646899669
30
0
0
SPLINE
5
500
100
AcDbEntity
8
0
100
AcDbSpline
70
0
71
2
72
6
73
3
74
0
42
0.000000001
43
0.0000000001
44
0.0000000001
40
0
40
0
40
0
40
1
40
1
40
1
10
7.735302504031849
20
-18.991845646899669
30
0
10
8.0583999538899995
20
-19.136972988963329
30
0
10
8.1797913081000733
20
-19.487633776104815
30
0
0
SPLINE
5
501
100
AcDbEntity
8
0
100
AcDbSpline
70
0
71
2
72
6
73
3
74
0
42
0.000000001
43
0.0000000001
44
0.0000000001
40
0
40
0
40
0
40
1
40
1
40
1
10
8.1797913081000733
20
-19.487633776104815
30
0
10
8.2601236513031004
20
-19.719688215927146
30
0
10
8.2121801735728521
20
-19.939845663012218
30
0
0
SPLINE
5
502
100
AcDbEntity
8
0
100
AcDbSpline
70
0
71
2
72
6
73
3
74
0
42
0.000000001
43
0.0000000001
44
0.0000000001
40
0
40
0
40
0
40
1
40
1
40
1
10
8.2121801735728521
20
-19.939845663012218
30
0
10
8.1642366958426056
20
-20.160003110097286
30
0
10
7.9978835288595125
20
-20.325867696724352
30
0
0
SPLINE
5
503
100
AcDbEntity
8
0
100
AcDbSpline
70
0
71
2
72
6
73
3
74
0
42
0.000000001
43
0.0000000001
44
0.0000000001
40
0
40
0
40
0
40
1
40
1
40
1
10
7.9978835288595125
20
-20.325867696724352
30
0
10
7.8315303618764176
20
-20.491732283351421
30
0
10
7.4800783613309907
20
-20.694244383690751
30
0
0
SPLINE
5
504
100
AcDbEntity
8
0
100
AcDbSpline
70
0
71
2
72
6
73
3
74
0
42
0.000000001
43
0.0000000001
44
0.0000000001
40
0
40
0
40
0
40
1
40
1
40
1
10
7.4800783613309907
20
-20.694244383690751
30
0
10
7.0051617452260384
20
-20.965483641702573
30
0
10
6.8377669181081657
20
-21.115828407206202
30
0
0
LINE
5
505
100
AcDbEntity
8
0
100
AcDbLine
10
6.8377669181081657
20
-21.115828407206202
30
0
11
6.8627592069932328
21
-21.188023134334287
31
0
0
SPLINE
5
506
100
AcDbEntity
8
0
100
AcDbSpline
70
0
71
2
72
6
73
3
74
0
42
0.000000001
43
0.0000000001
44
0.0000000001
40
0
40
0
40
0
40
1
40
1
40
1
10
6.8627592069932328
20
-21.188023134334287
30
0
10
6.9350583353745234
20
-21.396872186499504
30
0
10
7.0689880461400323
20
-21.45012339629611
30
0
0
SPLINE
5
507
100
AcDbEntity
8
0
100
AcDbSpline
70
0
71
2
72
6
73
3
74
0
42
0.000000001
43
0.0000000001
44
0.0000000001
40
0
40
0
40
0
40
1
40
1
40
1
10
7.0689880461400323
20
-21.45012339629611
30
0
10
7.2029177569055403
20
-21.503374606092713
30
0
10
7.489118664512362
20
-21.404297899986631
30
0
0
SPLINE
5
508
100
AcDbEntity
8
0
100
AcDbSpline
70
0
71
2
72
6
73
3
74
0
42
0.000000001
43
0.0000000001
44
0.0000000001
40
0
40
0
40
0
40
1
40
1
40
1
10
7.489118664512362
20
-21.404297899986631
30
0
10
7.6824975990523185
20
-21.337354199406743
30
0
10
7.7644586454487996
20
-21.223803119596294
30
0
0
SPLINE
5
509
100
AcDbEntity
8
0
100
AcDbSpline
70
0
71
2
72
6
73
3
74
0
42
0.000000001
43
0.0000000001
44
0.0000000001
40
0
40
0
40
0
40
1
40
1
40
1
10
7.7644586454487996
20
-21.223803119596294
30
0
10
7.8464196214388764
20
-21.110252064159056
30
0
10
7.8474066081918359
20
-20.896244382305234
30
0
0
SPLINE
5
510
100
AcDbEntity
8
0
100
AcDbSpline
70
0
71
2
72
6
73
3
74
0
42
0.000000001
43
0.0000000001
44
0.0000000001
40
0
40
0
40
0
40
1
40
1
40
1
10
6.674424103456853
20
-20.643983271840032
30
0
10
6.797590563007275
20
-20.549373012609728
30
0
10
7.0769473192538221
20
-20.380481183300354
30
0
0
SPLINE
5
511
100
AcDbEntity
8
0
100
AcDbSpline
70
0
71
2
72
6
73
3
74
0
42
0.000000001
43
0.0000000001
44
0.0000000001
40
0
40
0
40
0
40
1
40
1
40
1
10
7.0769473192538221
20
-20.380481183300354
30
0
10
7.3563040050939659
20
-20.211589378364188
30
0
10
7.4277038769838608
20
-20.11757477583447
30
0
0
SPLINE
5
512
100
AcDbEntity
8
0
100
AcDbSpline
70
0
71
2
72
6
73
3
74
0
42
0.000000001
43
0.0000000001
44
0.0000000001
40
0
40
0
40
0
40
1
40
1
40
1
10
7.4277038769838608
20
-20.11757477583447
30
0
10
7.5347045215544455
20
-19.967926040770674
30
0
10
7.4811494635976992
20
-19.81322261151309
30
0
0
SPLINE
5
513
100
AcDbEntity
8
0
100
AcDbSpline
70
0
71
2
72
6
73
3
74
0
42
0.000000001
43
0.0000000001
44
0.0000000001
40
0
40
0
40
0
40
1
40
1
40
1
10
7.4811494635976992
20
-19.81322261151309
30
0
10
7.4284870500608147
20
-19.661097746412267
30
0
10
7.2766569645269215
20
-19.589500740611076
30
0
0
SPLINE
5
514
100
AcDbEntity
8
0
100
AcDbSpline
70
0
71
2
72
6
73
3
74
0
42
0.000000001
43
0.0000000001
44
0.0000000001
40
0
40
0
40
0
40
1
40
1
40
1
10
7.2766569645269215
20
-19.589500740611076
30
0
10
7.1248268789930291
20
-19.517903734809888
30
0
10
6.9494964854222854
20
-19.578599411914926
30
0
0
SPLINE
5
515
100
AcDbEntity
8
0
100
AcDbSpline
70
0
71
2
72
6
73
3
74
0
42
0.000000001
43
0.0000000001
44
0.0000000001
40
0
40
0
40
0
40
1
40
1
40
1
10
6.9494964854222854
20
-19.578599411914926
30
0
10
6.7535391275383807
20
-19.646435708168255
30
0
10
6.6202596501516453
20
-19.836943409644032
30
0
0
SPLINE
5
516
100
AcDbEntity
8
0
100
AcDbSpline
70
0
71
2
72
6
73
3
74
0
42
0.000000001
43
0.0000000001
44
0.0000000001
40
0
40
0
40
0
40
1
40
1
40
1
10
6.6202596501516453
20
-19.836943409644032
30
0
10
6.522680038303454
20
-19.980443834228158
30
0
10
6.5305179997074339
20
-20.13653629299619
30
0
0
SPLINE
5
517
100
AcDbEntity
8
0
100
AcDbSpline
70
0
71
2
72
6
73
3
74
0
42
0.000000001
43
0.0000000001
44
0.0000000001
40
0
40
0
40
0
40
1
40
1
40
1
10
6.5305179997074339
20
-20.13653629299619
30
0
10
6.5342886788222332
20
-20.239176861790909
30
0
10
6.6244395256867179
20
-20.499593817583861
30
0
0
LINE
5
518
100
AcDbEntity
8
0
100
AcDbLine
10
6.6244395256867179
20
-20.499593817583861
30
0
11
6.674424103456853
21
-20.643983271840032
31
0
0
LINE
5
519
100
AcDbEntity
8
0
100
AcDbLine
10
4.1033266011786163
20
-19.880967319563037
30
0
11
4.8541182428035787
21
-19.725534376466104
31
0
0
LINE
5
520
100
AcDbEntity
8
0
100
AcDbLine
10
4.8541182428035778
20
-19.725534376466108
30
0
11
5.4415551988985307
21
-22.56304583208243
31
0
0
LINE
5
521
100
AcDbEntity
8
0
100
AcDbLine
10
5.4415551988985307
20
-22.56304583208243
30
0
11
4.744200713351713
21
-22.707415926341596
31
0
0
LINE
5
522
100
AcDbEntity
8
0
100
AcDbLine
10
4.7442007133517139
20
-22.707415926341593
30
0
11
4.6606762423873436
21
-22.303965580348404
31
0
0
SPLINE
5
523
100
AcDbEntity
8
0
100
AcDbSpline
70
0
71
2
72
6
73
3
74
0
42
0.000000001
43
0.0000000001
44
0.0000000001
40
0
40
0
40
0
40
1
40
1
40
1
10
4.6606762423873436
20
-22.303965580348404
30
0
10
4.5408480397348203
20
-22.626914864941483
30
0
10
4.4167104631767433
20
-22.747350928263117
30
0
0
SPLINE
5
524
100
AcDbEntity
8
0
100
AcDbSpline
70
0
71
2
72
6
73
3
74
0
42
0.000000001
43
0.0000000001
44
0.0000000001
40
0
40
0
40
0
40
1
40
1
40
1
10
4.4167104631767433
20
-22.747350928263117
30
0
10
4.2925730929533419
20
-22.867787253211013
30
0
10
4.1108869082050941
20
-22.905400909050805
30
0
0
SPLINE
5
525
100
AcDbEntity
8
0
100
AcDbSpline
70
0
71
2
72
6
73
3
74
0
42
0.000000001
43
0.0000000001
44
0.0000000001
40
0
40
0
40
0
40
1
40
1
40
1
10
4.1108869082050941
20
-22.905400909050805
30
0
10
3.8543887049474423
20
-22.958502553263468
30
0
10
3.5872769128655442
20
-22.866123707848626
30
0
0
LINE
5
526
100
AcDbEntity
8
0
100
AcDbLine
10
3.5872769128655442
20
-22.866123707848626
30
0
11
3.6842085744283368
21
-22.163395738398251
31
0
0
SPLINE
5
527
100
AcDbEntity
8
0
100
AcDbSpline
70
0
71
2
72
6
73
3
74
0
42
0.000000001
43
0.0000000001
44
0.0000000001
40
0
40
0
40
0
40
1
40
1
40
1
10
3.6842085744283368
20
-22.163395738398251
30
0
10
3.89935491883171
20
-22.247027726762457
30
0
10
4.0623381354319683
20
-22.213286060463734
30
0
0
SPLINE
5
528
100
AcDbEntity
8
0
100
AcDbSpline
70
0
71
2
72
6
73
3
74
0
42
0.000000001
43
0.0000000001
44
0.0000000001
40
0
40
0
40
0
40
1
40
1
40
1
10
4.0623381354319683
20
-22.213286060463734
30
0
10
4.219977563465692
20
-22.180650694153094
30
0
10
4.311546682080726
20
-22.071136668493011
30
0
0
SPLINE
5
529
100
AcDbEntity
8
0
100
AcDbSpline
70
0
71
2
72
6
73
3
74
0
42
0.000000001
43
0.0000000001
44
0.0000000001
40
0
40
0
40
0
40
1
40
1
40
1
10
4.311546682080726
20
-22.071136668493011
30
0
10
4.4031156547783175
20
-21.96162267304155
30
0
10
4.4188871798177924
20
-21.72151587962178
30
0
0
SPLINE
5
530
100
AcDbEntity
8
0
100
AcDbSpline
70
0
71
2
72
6
73
3
74
0
42
0.000000001
43
0.0000000001
44
0.0000000001
40
0
40
0
40
0
40
1
40
1
40
1
10
4.4188871798177924
20
-21.72151587962178
30
0
10
4.4346587048572665
20
-21.481409086202007
30
0
10
4.2847572617007632
20
-20.757336387409723
30
0
0
LINE
5
531
100
AcDbEntity
8
0
100
AcDbLine
10
4.2847572617007632
20
-20.757336387409723
30
0
11
4.1033266011786163
21
-19.880967319563037
31
0
0
LINE
5
532
100
AcDbEntity
8
0
100
AcDbLine
10
0.020096814371027838
20
-20.344961074546308
30
0
11
0.7306175765011973
21
-20.296935441333829
31
0
0
LINE
5
533
100
AcDbEntity
8
0
100
AcDbLine
10
0.73061757650119685
20
-20.296935441333829
30
0
11
0.75932255313620078
21
-20.721614524385075
31
0
0
SPLINE
5
534
100
AcDbEntity
8
0
100
AcDbSpline
70
0
71
2
72
6
73
3
74
0
42
0.000000001
43
0.0000000001
44
0.0000000001
40
0
40
0
40
0
40
1
40
1
40
1
10
0.75932255313620134
20
-20.721614524385075
30
0
10
0.91952754846331231
20
-20.461924606132833
30
0
10
1.1522628813675442
20
-20.324497940141821
30
0
0
SPLINE
5
535
100
AcDbEntity
8
0
100
AcDbSpline
70
0
71
2
72
6
73
3
74
0
42
0.000000001
43
0.0000000001
44
0.0000000001
40
0
40
0
40
0
40
1
40
1
40
1
10
1.1522628813675442
20
-20.324497940141821
30
0
10
1.3849983428459809
20
-20.187070966756963
30
0
10
1.6300053689087337
20
-20.170510412589771
30
0
0
SPLINE
5
536
100
AcDbEntity
8
0
100
AcDbSpline
70
0
71
2
72
6
73
3
74
0
42
0.000000001
43
0.0000000001
44
0.0000000001
40
0
40
0
40
0
40
1
40
1
40
1
10
1.6300053689087337
20
-20.170510412589771
30
0
10
2.1281865895132808
20
-20.136837267694794
30
0
10
2.5105877927366924
20
-20.514363575375945
30
0
0
SPLINE
5
537
100
AcDbEntity
8
0
100
AcDbSpline
70
0
71
2
72
6
73
3
74
0
42
0.000000001
43
0.0000000001
44
0.0000000001
40
0
40
0
40
0
40
1
40
1
40
1
10
2.5105877927366924
20
-20.514363575375945
30
0
10
2.8929890175724058
20
-20.891890479002747
30
0
10
2.9415666471491342
20
-21.610577814922443
30
0
0
SPLINE
5
538
100
AcDbEntity
8
0
100
AcDbSpline
70
0
71
2
72
6
73
3
74
0
42
0.000000001
43
0.0000000001
44
0.0000000001
40
0
40
0
40
0
40
1
40
1
40
1
10
2.9415666471491342
20
-21.610577814922443
30
0
10
2.9912483297488817
20
-22.345599190455459
30
0
10
2.6713689474876832
20
-22.751451165631117
30
0
0
SPLINE
5
539
100
AcDbEntity
8
0
100
AcDbSpline
70
0
71
2
72
6
73
3
74
0
42
0.000000001
43
0.0000000001
44
0.0000000001
40
0
40
0
40
0
40
1
40
1
40
1
10
2.6713689474876832
20
-22.751451165631117
30
0
10
2.3514895667406117
20
-23.157303439407674
30
0
10
1.8233630528621092
20
-23.193000651364258
30
0
0
SPLINE
5
540
100
AcDbEntity
8
0
100
AcDbSpline
70
0
71
2
72
6
73
3
74
0
42
0.000000001
43
0.0000000001
44
0.0000000001
40
0
40
0
40
0
40
1
40
1
40
1
10
1.8233630528621092
20
-23.193000651364258
30
0
10
1.3387935319353319
20
-23.225753752073391
30
0
10
0.95766132046601504
20
-22.846773908374015
30
0
0
LINE
5
541
100
AcDbEntity
8
0
100
AcDbLine
10
0.95766132046601504
20
-22.846773908374015
30
0
11
1.0548165997176464
21
-24.28414887755816
31
0
0
LINE
5
542
100
AcDbEntity
8
0
100
AcDbLine
10
1.0548165997176464
20
-24.28414887755816
30
0
11
0.28984993091067363
21
-24.335854627219511
31
0
0
LINE
5
543
100
AcDbEntity
8
0
100
AcDbLine
10
0.28984993091067335
20
-24.335854627219511
30
0
11
0.020096814371027526
21
-20.344961074546305
31
0
0
SPLINE
5
544
100
AcDbEntity
8
0
100
AcDbSpline
70
0
71
2
72
6
73
3
74
0
42
0.000000001
43
0.0000000001
44
0.0000000001
40
0
40
0
40
0
40
1
40
1
40
1
10
2.1637622979822444
20
-21.715111316690674
30
0
10
2.1324812378232121
20
-21.252320069231196
30
0
10
1.9905486486137549
20
-21.054073497310068
30
0
0
SPLINE
5
545
100
AcDbEntity
8
0
100
AcDbSpline
70
0
71
2
72
6
73
3
74
0
42
0.000000001
43
0.0000000001
44
0.0000000001
40
0
40
0
40
0
40
1
40
1
40
1
10
1.9905486486137549
20
-21.054073497310068
30
0
10
1.7851913697122954
20
-20.767132697318821
30
0
10
1.4530706550908503
20
-20.789581453882747
30
0
0
SPLINE
5
546
100
AcDbEntity
8
0
100
AcDbSpline
70
0
71
2
72
6
73
3
74
0
42
0.000000001
43
0.0000000001
44
0.0000000001
40
0
40
0
40
0
40
1
40
1
40
1
10
1.4530706550908503
20
-20.789581453882747
30
0
10
1.1890073981515992
20
-20.807430059861041
30
0
10
1.0190714917460675
20
-21.044532625476823
30
0
0
SPLINE
5
547
100
AcDbEntity
8
0
100
AcDbSpline
70
0
71
2
72
6
73
3
74
0
42
0.000000001
43
0.0000000001
44
0.0000000001
40
0
40
0
40
0
40
1
40
1
40
1
10
1.0190714917460675
20
-21.044532625476823
30
0
10
0.849135565242361
20
-21.281634893747849
30
0
10
0.87931257237837457
20
-21.728092101594008
30
0
0
SPLINE
5
548
100
AcDbEntity
8
0
100
AcDbSpline
70
0
71
2
72
6
73
3
74
0
42
0.000000001
43
0.0000000001
44
0.0000000001
40
0
40
0
40
0
40
1
40
1
40
1
10
0.87931257237837457
20
-21.728092101594008
30
0
10
0.91298569717517908
20
-22.226273024853796
30
0
10
1.107469972253883
20
-22.433274088184856
30
0
0
SPLINE
5
549
100
AcDbEntity
8
0
100
AcDbSpline
70
0
71
2
72
6
73
3
74
0
42
0.000000001
43
0.0000000001
44
0.0000000001
40
0
40
0
40
0
40
1
40
1
40
1
10
1.107469972253883
20
-22.433274088184856
30
0
10
1.301954396004966
20
-22.640275141466827
30
0
10
1.5823515438851619
20
-22.621322492514601
30
0
0
SPLINE
5
550
100
AcDbEntity
8
0
100
AcDbSpline
70
0
71
2
72
6
73
3
74
0
42
0.000000001
43
0.0000000001
44
0.0000000001
40
0
40
0
40
0
40
1
40
1
40
1
10
1.5823515438851619
20
-22.621322492514601
30
0
10
1.8545815232863163
20
-22.602921880122974
30
0
10
2.0237084449570473
20
-22.374078477355731
30
0
0
SPLINE
5
551
100
AcDbEntity
8
0
100
AcDbSpline
70
0
71
2
72
6
73
3
74
0
42
0.000000001
43
0.0000000001
44
0.0000000001
40
0
40
0
40
0
40
1
40
1
40
1
10
2.0237084449570473
20
-22.374078477355731
30
0
10
2.1928352922915884
20
-22.14523507961303
30
0
10
2.1637622979822444
20
-21.715111316690674
30
0
0
LINE
5
552
100
AcDbEntity
8
0
100
AcDbLine
10
-4.9789989100420531
20
-21.214866786172777
30
0
11
-5.7022705270709437
21
-20.825318348351985
31
0
0
SPLINE
5
553
100
AcDbEntity
8
0
100
AcDbSpline
70
0
71
2
72
6
73
3
74
0
42
0.000000001
43
0.0000000001
44
0.0000000001
40
0
40
0
40
0
40
1
40
1
40
1
10
-5.7022705270709428
20
-20.825318348351981
30
0
10
-5.4035864487981282
20
-20.215370063984224
30
0
10
-4.9329659115612916
20
-19.980903458969429
30
0
0
SPLINE
5
554
100
AcDbEntity
8
0
100
AcDbSpline
70
0
71
2
72
6
73
3
74
0
42
0.000000001
43
0.0000000001
44
0.0000000001
40
0
40
0
40
0
40
1
40
1
40
1
10
-4.9329659115612916
20
-19.980903458969429
30
0
10
-4.4623451369019911
20
-19.746437202187682
30
0
10
-3.8296418650778397
20
-19.866149591333301
30
0
0
SPLINE
5
555
100
AcDbEntity
8
0
100
AcDbSpline
70
0
71
2
72
6
73
3
74
0
42
0.000000001
43
0.0000000001
44
0.0000000001
40
0
40
0
40
0
40
1
40
1
40
1
10
-3.8296418650778397
20
-19.866149591333301
30
0
10
-3.046805509271977
20
-20.014268329827225
30
0
10
-2.6439851384235791
20
-20.644481174582502
30
0
0
SPLINE
5
556
100
AcDbEntity
8
0
100
AcDbSpline
70
0
71
2
72
6
73
3
74
0
42
0.000000001
43
0.0000000001
44
0.0000000001
40
0
40
0
40
0
40
1
40
1
40
1
10
-2.6439851384235791
20
-20.644481174582502
30
0
10
-2.2411647309717111
20
-21.274694026263443
30
0
10
-2.416675292485885
20
-22.202301496987591
30
0
0
SPLINE
5
557
100
AcDbEntity
8
0
100
AcDbSpline
70
0
71
2
72
6
73
3
74
0
42
0.000000001
43
0.0000000001
44
0.0000000001
40
0
40
0
40
0
40
1
40
1
40
1
10
-2.416675292485885
20
-22.202301496987591
30
0
10
-2.6023310064699561
20
-23.183528072690514
30
0
10
-3.2117493093160143
20
-23.630548512551407
30
0
0
SPLINE
5
558
100
AcDbEntity
8
0
100
AcDbSpline
70
0
71
2
72
6
73
3
74
0
42
0.000000001
43
0.0000000001
44
0.0000000001
40
0
40
0
40
0
40
1
40
1
40
1
10
-3.2117493093160143
20
-23.630548512551407
30
0
10
-3.8211675201533088
20
-24.077568666510199
30
0
10
-4.6468990428110901
20
-23.921333828202478
30
0
0
SPLINE
5
559
100
AcDbEntity
8
0
100
AcDbSpline
70
0
71
2
72
6
73
3
74
0
42
0.000000001
43
0.0000000001
44
0.0000000001
40
0
40
0
40
0
40
1
40
1
40
1
10
-4.6468990428110901
20
-23.921333828202478
30
0
10
-5.3680734864569128
20
-23.784882003967883
30
0
10
-5.737819031130714
20
-23.273392418349388
30
0
0
SPLINE
5
560
100
AcDbEntity
8
0
100
AcDbSpline
70
0
71
2
72
6
73
3
74
0
42
0.000000001
43
0.0000000001
44
0.0000000001
40
0
40
0
40
0
40
1
40
1
40
1
10
-5.737819031130714
20
-23.273392418349388
30
0
10
-5.9582316049865653
20
-22.97065779016771
30
0
10
-6.003001739231479
20
-22.473448477260213
30
0
0
LINE
5
561
100
AcDbEntity
8
0
100
AcDbLine
10
-6.003001739231479
20
-22.473448477260213
30
0
11
-5.1819766224737265
21
-22.434408169445312
31
0
0
SPLINE
5
562
100
AcDbEntity
8
0
100
AcDbSpline
70
0
71
2
72
6
73
3
74
0
42
0.000000001
43
0.0000000001
44
0.0000000001
40
0
40
0
40
0
40
1
40
1
40
1
10
-5.1819766224737247
20
-22.434408169445312
30
0
10
-5.170099128157073
20
-22.753224982520912
30
0
10
-4.9823999223669722
20
-22.972015941589348
30
0
0
SPLINE
5
563
100
AcDbEntity
8
0
100
AcDbSpline
70
0
71
2
72
6
73
3
74
0
42
0.000000001
43
0.0000000001
44
0.0000000001
40
0
40
0
40
0
40
1
40
1
40
1
10
-4.9823999223669722
20
-22.972015941589348
30
0
10
-4.7947007165768731
20
-23.190806900657783
30
0
10
-4.4783490806647972
20
-23.250663095230593
30
0
0
SPLINE
5
564
100
AcDbEntity
8
0
100
AcDbSpline
70
0
71
2
72
6
73
3
74
0
42
0.000000001
43
0.0000000001
44
0.0000000001
40
0
40
0
40
0
40
1
40
1
40
1
10
-4.4783490806647972
20
-23.250663095230593
30
0
10
-4.0413547513782335
20
-23.333345827455378
30
0
10
-3.7098897699682087
20
-23.071161653103335
30
0
0
SPLINE
5
565
100
AcDbEntity
8
0
100
AcDbSpline
70
0
71
2
72
6
73
3
74
0
42
0.000000001
43
0.0000000001
44
0.0000000001
40
0
40
0
40
0
40
1
40
1
40
1
10
-3.7098897699682087
20
-23.071161653103335
30
0
10
-3.378424788558184
20
-22.808977478751299
30
0
10
-3.2455237233638163
20
-22.106569487585837
30
0
0
SPLINE
5
566
100
AcDbEntity
8
0
100
AcDbSpline
70
0
71
2
72
6
73
3
74
0
42
0.000000001
43
0.0000000001
44
0.0000000001
40
0
40
0
40
0
40
1
40
1
40
1
10
-3.2455237233638163
20
-22.106569487585837
30
0
10
-3.1045065583556481
20
-21.361266329568465
30
0
10
-3.3127449824907993
20
-20.994188951108903
30
0
0
SPLINE
5
567
100
AcDbEntity
8
0
100
AcDbSpline
70
0
71
2
72
6
73
3
74
0
42
0.000000001
43
0.0000000001
44
0.0000000001
40
0
40
0
40
0
40
1
40
1
40
1
10
-3.3127449824907993
20
-20.994188951108903
30
0
10
-3.5209834066259518
20
-20.627111572649348
30
0
10
-3.9499347823173716
20
-20.545950629916632
30
0
0
SPLINE
5
568
100
AcDbEntity
8
0
100
AcDbSpline
70
0
71
2
72
6
73
3
74
0
42
0.000000001
43
0.0000000001
44
0.0000000001
40
0
40
0
40
0
40
1
40
1
40
1
10
-3.9499347823173716
20
-20.545950629916632
30
0
10
-4.2662865646433259
20
-20.486094407641176
30
0
10
-4.5322110932713793
20
-20.644048733874886
30
0
0
SPLINE
5
569
100
AcDbEntity
8
0
100
AcDbSpline
70
0
71
2
72
6
73
3
74
0
42
0.000000001
43
0.0000000001
44
0.0000000001
40
0
40
0
40
0
40
1
40
1
40
1
10
-4.5322110932713793
20
-20.644048733874886
30
0
10
-4.7981359147271903
20
-20.802003004703305
30
0
10
-4.9789989100420531
20
-21.214866786172777
30
0
0
LINE
5
570
100
AcDbEntity
8
0
100
AcDbLine
10
-8.2305309724197127
20
-22.870105028398182
30
0
11
-7.7018207154592266
21
-21.497759723408684
31
0
0
SPLINE
5
571
100
AcDbEntity
8
0
100
AcDbSpline
70
0
71
2
72
6
73
3
74
0
42
0.000000001
43
0.0000000001
44
0.0000000001
40
0
40
0
40
0
40
1
40
1
40
1
10
-7.7018207154592266
20
-21.497759723408684
30
0
10
-8.2040541531545852
20
-21.769185206914969
30
0
10
-8.6852662461484087
20
-21.583793258974282
30
0
0
SPLINE
5
572
100
AcDbEntity
8
0
100
AcDbSpline
70
0
71
2
72
6
73
3
74
0
42
0.000000001
43
0.0000000001
44
0.0000000001
40
0
40
0
40
0
40
1
40
1
40
1
10
-8.6852662461484087
20
-21.583793258974282
30
0
10
-8.9322373421573573
20
-21.488645083687814
30
0
10
-9.0955200765502013
20
-21.32047480415001
30
0
0
SPLINE
5
573
100
AcDbEntity
8
0
100
AcDbSpline
70
0
71
2
72
6
73
3
74
0
42
0.000000001
43
0.0000000001
44
0.0000000001
40
0
40
0
40
0
40
1
40
1
40
1
10
-9.0955200765502013
20
-21.32047480415001
30
0
10
-9.2588027038027061
20
-21.152304246513683
30
0
10
-9.3044425677301934
20
-20.970977221699933
30
0
0
SPLINE
5
574
100
AcDbEntity
8
0
100
AcDbSpline
70
0
71
2
72
6
73
3
74
0
42
0.000000001
43
0.0000000001
44
0.0000000001
40
0
40
0
40
0
40
1
40
1
40
1
10
-9.3044425677301934
20
-20.970977221699933
30
0
10
-9.3500823245173397
20
-20.789649918787653
30
0
10
-9.3202988050930156
20
-20.602292031016685
30
0
0
SPLINE
5
575
100
AcDbEntity
8
0
100
AcDbSpline
70
0
71
2
72
6
73
3
74
0
42
0.000000001
43
0.0000000001
44
0.0000000001
40
0
40
0
40
0
40
1
40
1
40
1
10
-9.3202988050930156
20
-20.602292031016685
30
0
10
-9.29051549994937
20
-20.41493469944276
30
0
10
-9.1502454383357943
20
-20.050843104941372
30
0
0
LINE
5
576
100
AcDbEntity
8
0
100
AcDbLine
10
-9.1502454383357943
20
-20.050843104941372
30
0
11
-8.5391387957817813
21
-18.46462585132079
31
0
0
LINE
5
577
100
AcDbEntity
8
0
100
AcDbLine
10
-8.5391387957817813
20
-18.464625851320797
30
0
11
-7.8236861229508703
21
-18.740261411205189
31
0
0
LINE
5
578
100
AcDbEntity
8
0
100
AcDbLine
10
-7.8236861229508694
20
-18.740261411205186
30
0
11
-8.373976265766899
21
-20.168620486773527
31
0
0
SPLINE
5
579
100
AcDbEntity
8
0
100
AcDbSpline
70
0
71
2
72
6
73
3
74
0
42
0.000000001
43
0.0000000001
44
0.0000000001
40
0
40
0
40
0
40
1
40
1
40
1
10
-8.373976265766899
20
-20.168620486773527
30
0
10
-8.5377882742818727
20
-20.59381867013925
30
0
10
-8.5411915895755115
20
-20.724087319329641
30
0
0
SPLINE
5
580
100
AcDbEntity
8
0
100
AcDbSpline
70
0
71
2
72
6
73
3
74
0
42
0.000000001
43
0.0000000001
44
0.0000000001
40
0
40
0
40
0
40
1
40
1
40
1
10
-8.5411915895755115
20
-20.724087319329641
30
0
10
-8.5445950120094931
20
-20.854356246618558
30
0
10
-8.4674722325979239
20
-20.961554510929005
30
0
0
SPLINE
5
581
100
AcDbEntity
8
0
100
AcDbSpline
70
0
71
2
72
6
73
3
74
0
42
0.000000001
43
0.0000000001
44
0.0000000001
40
0
40
0
40
0
40
1
40
1
40
1
10
-8.4674722325979239
20
-20.961554510929005
30
0
10
-8.3903495603266975
20
-21.068753053337979
30
0
10
-8.2350377914172039
20
-21.128588522553034
30
0
0
SPLINE
5
582
100
AcDbEntity
8
0
100
AcDbSpline
70
0
71
2
72
6
73
3
74
0
42
0.000000001
43
0.0000000001
44
0.0000000001
40
0
40
0
40
0
40
1
40
1
40
1
10
-8.2350377914172039
20
-21.128588522553034
30
0
10
-8.0568111212082165
20
-21.197252195071027
30
0
10
-7.8834248940189671
20
-21.164634888021368
30
0
0
SPLINE
5
583
100
AcDbEntity
8
0
100
AcDbSpline
70
0
71
2
72
6
73
3
74
0
42
0.000000001
43
0.0000000001
44
0.0000000001
40
0
40
0
40
0
40
1
40
1
40
1
10
-7.8834248940189671
20
-21.164634888021368
30
0
10
-7.7100388058789768
20
-21.132017527401548
30
0
10
-7.5779211609826005
20
-20.982623460382641
30
0
0
SPLINE
5
584
100
AcDbEntity
8
0
100
AcDbSpline
70
0
71
2
72
6
73
3
74
0
42
0.000000001
43
0.0000000001
44
0.0000000001
40
0
40
0
40
0
40
1
40
1
40
1
10
-7.5779211609826005
20
-20.982623460382641
30
0
10
-7.4458033018055438
20
-20.833228837166683
30
0
10
-7.3143614970650734
20
-20.492052283014054
30
0
0
LINE
5
585
100
AcDbEntity
8
0
100
AcDbLine
10
-7.3143614970650734
20
-20.492052283014054
30
0
11
-6.7925176502125231
21
-19.137529756284863
31
0
0
LINE
5
586
100
AcDbEntity
8
0
100
AcDbLine
10
-6.7925176502125231
20
-19.137529756284863
30
0
11
-6.0770649773816103
21
-19.413165316169255
31
0
0
LINE
5
587
100
AcDbEntity
8
0
100
AcDbLine
10
-6.0770649773816112
20
-19.413165316169255
30
0
11
-7.5150782995887999
21
-23.145740588282571
31
0
0
LINE
5
588
100
AcDbEntity
8
0
100
AcDbLine
10
-7.5150782995887999
20
-23.145740588282571
30
0
11
-8.2305309724197109
21
-22.870105028398182
31
0
0
LINE
5
589
100
AcDbEntity
8
0
100
AcDbLine
10
-10.694399132276686
20
-19.592464034900665
30
0
11
-10.155525708758255
21
-20.05013808474077
31
0
0
SPLINE
5
590
100
AcDbEntity
8
0
100
AcDbSpline
70
0
71
2
72
6
73
3
74
0
42
0.000000001
43
0.0000000001
44
0.0000000001
40
0
40
0
40
0
40
1
40
1
40
1
10
-10.155525708758255
20
-20.05013808474077
30
0
10
-10.467846160902095
20
-20.354739141403115
30
0
10
-10.816975357503363
20
-20.385644149676203
30
0
0
SPLINE
5
591
100
AcDbEntity
8
0
100
AcDbSpline
70
0
71
2
72
6
73
3
74
0
42
0.000000001
43
0.0000000001
44
0.0000000001
40
0
40
0
40
0
40
1
40
1
40
1
10
-10.816975357503363
20
-20.385644149676203
30
0
10
-11.166104671414555
20
-20.41654943443438
30
0
10
-11.654664718580035
20
-20.133158146951011
30
0
0
SPLINE
5
592
100
AcDbEntity
8
0
100
AcDbSpline
70
0
71
2
72
6
73
3
74
0
42
0.000000001
43
0.0000000001
44
0.0000000001
40
0
40
0
40
0
40
1
40
1
40
1
10
-11.654664718580035
20
-20.133158146951011
30
0
10
-12.098381036990151
20
-19.875778650855963
30
0
10
-12.254596525387619
20
-19.644798374815995
30
0
0
SPLINE
5
593
100
AcDbEntity
8
0
100
AcDbSpline
70
0
71
2
72
6
73
3
74
0
42
0.000000001
43
0.0000000001
44
0.0000000001
40
0
40
0
40
0
40
1
40
1
40
1
10
-12.254596525387619
20
-19.644798374815995
30
0
10
-12.410812142681751
20
-19.413818024008979
30
0
10
-12.405540035721463
20
-19.200805804431408
30
0
0
SPLINE
5
594
100
AcDbEntity
8
0
100
AcDbSpline
70
0
71
2
72
6
73
3
74
0
42
0.000000001
43
0.0000000001
44
0.0000000001
40
0
40
0
40
0
40
1
40
1
40
1
10
-12.405540035721463
20
-19.200805804431408
30
0
10
-12.400267928761174
20
-18.987793584853833
30
0
10
-12.149733729466137
20
-18.555878400335914
30
0
0
LINE
5
595
100
AcDbEntity
8
0
100
AcDbLine
10
-12.149733729466137
20
-18.555878400335914
30
0
11
-11.693607988378822
21
-17.785841947640449
31
0
0
SPLINE
5
596
100
AcDbEntity
8
0
100
AcDbSpline
70
0
71
2
72
6
73
3
74
0
42
0.000000001
43
0.0000000001
44
0.0000000001
40
0
40
0
40
0
40
1
40
1
40
1
10
-11.693607988378822
20
-17.785841947640449
30
0
10
-11.501942369592255
20
-17.455414838938804
30
0
10
-11.442763969842726
20
-17.279979899421782
30
0
0
SPLINE
5
597
100
AcDbEntity
8
0
100
AcDbSpline
70
0
71
2
72
6
73
3
74
0
42
0.000000001
43
0.0000000001
44
0.0000000001
40
0
40
0
40
0
40
1
40
1
40
1
10
-11.442763969842726
20
-17.279979899421782
30
0
10
-11.383585312299875
20
-17.104545109438849
30
0
10
-11.366865527012964
20
-16.874515928794072
30
0
0
LINE
5
598
100
AcDbEntity
8
0
100
AcDbLine
10
-11.366865527012964
20
-16.874515928794072
30
0
11
-10.710731763166553
21
-17.255109047647203
31
0
0
SPLINE
5
599
100
AcDbEntity
8
0
100
AcDbSpline
70
0
71
2
72
6
73
3
74
0
42
0.000000001
43
0.0000000001
44
0.0000000001
40
0
40
0
40
0
40
1
40
1
40
1
10
-10.710731763166553
20
-17.255109047647203
30
0
10
-10.723102719237385
20
-17.336253794929082
30
0
10
-10.760636899197495
20
-17.487969242778469
30
0
0
SPLINE
5
600
100
AcDbEntity
8
0
100
AcDbSpline
70
0
71
2
72
6
73
3
74
0
42
0.000000001
43
0.0000000001
44
0.0000000001
40
0
40
0
40
0
40
1
40
1
40
1
10
-10.760636899197495
20
-17.487969242778469
30
0
10
-10.778341530172463
20
-17.556557275948734
30
0
10
-10.782213304079729
20
-17.579545935695879
30
0
0
SPLINE
5
601
100
AcDbEntity
8
0
100
AcDbSpline
70
0
71
2
72
6
73
3
74
0
42
0.000000001
43
0.0000000001
44
0.0000000001
40
0
40
0
40
0
40
1
40
1
40
1
10
-10.782213304079729
20
-17.579545935695879
30
0
10
-10.516446615675406
20
-17.512903234691301
30
0
10
-10.274994471510748
20
-17.542558012721376
30
0
0
SPLINE
5
602
100
AcDbEntity
8
0
100
AcDbSpline
70
0
71
2
72
6
73
3
74
0
42
0.000000001
43
0.0000000001
44
0.0000000001
40
0
40
0
40
0
40
1
40
1
40
1
10
-10.274994471510748
20
-17.542558012721376
30
0
10
-10.033542177812
20
-17.572212532958133
30
0
10
-9.8140442453853822
20
-17.699533221645652
30
0
0
SPLINE
5
603
100
AcDbEntity
8
0
100
AcDbSpline
70
0
71
2
72
6
73
3
74
0
42
0.000000001
43
0.0000000001
44
0.0000000001
40
0
40
0
40
0
40
1
40
1
40
1
10
-9.8140442453853822
20
-17.699533221645652
30
0
10
-9.4269725318295006
20
-17.924055779086459
30
0
10
-9.3257786730992169
20
-18.263487017678514
30
0
0
SPLINE
5
604
100
AcDbEntity
8
0
100
AcDbSpline
70
0
71
2
72
6
73
3
74
0
42
0.000000001
43
0.0000000001
44
0.0000000001
40
0
40
0
40
0
40
1
40
1
40
1
10
-9.3257786730992169
20
-18.263487017678514
30
0
10
-9.2245849639030233
20
-18.602918514063894
30
0
10
-9.4107744947836753
20
-18.923904973445108
30
0
0
SPLINE
5
605
100
AcDbEntity
8
0
100
AcDbSpline
70
0
71
2
72
6
73
3
74
0
42
0.000000001
43
0.0000000001
44
0.0000000001
40
0
40
0
40
0
40
1
40
1
40
1
10
-9.4107744947836753
20
-18.923904973445108
30
0
10
-9.5339878932406243
20
-19.136322032191416
30
0
10
-9.7319935710828673
20
-19.243847053028986
30
0
0
SPLINE
5
606
100
AcDbEntity
8
0
100
AcDbSpline
70
0
71
2
72
6
73
3
74
0
42
0.000000001
43
0.0000000001
44
0.0000000001
40
0
40
0
40
0
40
1
40
1
40
1
10
-9.7319935710828673
20
-19.243847053028986
30
0
10
-9.9299992489251068
20
-19.35137207386656
30
0
10
-10.164253187266979
20
-19.333778619583871
30
0
0
SPLINE
5
607
100
AcDbEntity
8
0
100
AcDbSpline
70
0
71
2
72
6
73
3
74
0
42
0.000000001
43
0.0000000001
44
0.0000000001
40
0
40
0
40
0
40
1
40
1
40
1
10
-10.164253187266979
20
-19.333778619583871
30
0
10
-10.398507125608846
20
-19.316185165301182
30
0
10
-10.781428486217239
20
-19.182390953688543
30
0
0
SPLINE
5
608
100
AcDbEntity
8
0
100
AcDbSpline
70
0
71
2
72
6
73
3
74
0
42
0.000000001
43
0.0000000001
44
0.0000000001
40
0
40
0
40
0
40
1
40
1
40
1
10
-10.781428486217239
20
-19.182390953688543
30
0
10
-11.297041111256627
20
-19.000017303619863
30
0
10
-11.520225198765106
20
-18.971496438570373
30
0
0
LINE
5
609
100
AcDbEntity
8
0
100
AcDbLine
10
-11.520225198765106
20
-18.971496438570373
30
0
11
-11.558558262708784
21
-19.037581757193372
31
0
0
SPLINE
5
610
100
AcDbEntity
8
0
100
AcDbSpline
70
0
71
2
72
6
73
3
74
0
42
0.000000001
43
0.0000000001
44
0.0000000001
40
0
40
0
40
0
40
1
40
1
40
1
10
-11.558558262708782
20
-19.037581757193372
30
0
10
-11.669450351226857
20
-19.228757161623719
30
0
10
-11.62227455622312
20
-19.364945645484504
30
0
0
SPLINE
5
611
100
AcDbEntity
8
0
100
AcDbSpline
70
0
71
2
72
6
73
3
74
0
42
0.000000001
43
0.0000000001
44
0.0000000001
40
0
40
0
40
0
40
1
40
1
40
1
10
-11.62227455622312
20
-19.364945645484504
30
0
10
-11.575098761219385
20
-19.501134129345292
30
0
10
-11.31311732681584
20
-19.653097550061137
30
0
0
SPLINE
5
612
100
AcDbEntity
8
0
100
AcDbSpline
70
0
71
2
72
6
73
3
74
0
42
0.000000001
43
0.0000000001
44
0.0000000001
40
0
40
0
40
0
40
1
40
1
40
1
10
-11.31311732681584
20
-19.653097550061137
30
0
10
-11.136102896366145
20
-19.755775506720337
30
0
10
-10.996587959952407
20
-19.743649362650771
30
0
0
SPLINE
5
613
100
AcDbEntity
8
0
100
AcDbSpline
70
0
71
2
72
6
73
3
74
0
42
0.000000001
43
0.0000000001
44
0.0000000001
40
0
40
0
40
0
40
1
40
1
40
1
10
-10.996587959952407
20
-19.743649362650771
30
0
10
-10.857073087986999
20
-19.73152318119768
30
0
10
-10.694399132276686
20
-19.592464034900665
30
0
0
SPLINE
5
614
100
AcDbEntity
8
0
100
AcDbSpline
70
0
71
2
72
6
73
3
74
0
42
0.000000001
43
0.0000000001
44
0.0000000001
40
0
40
0
40
0
40
1
40
1
40
1
10
-11.269690700401886
20
-18.539580738465805
30
0
10
-11.117597639041687
20
-18.571025588535317
30
0
10
-10.807229012233453
20
-18.672198523459777
30
0
0
SPLINE
5
615
100
AcDbEntity
8
0
100
AcDbSpline
70
0
71
2
72
6
73
3
74
0
42
0.000000001
43
0.0000000001
44
0.0000000001
40
0
40
0
40
0
40
1
40
1
40
1
10
-10.807229012233453
20
-18.672198523459777
30
0
10
-10.496860449873548
20
-18.773371421000718
30
0
10
-10.379036320347845
20
-18.766011957961471
30
0
0
SPLINE
5
616
100
AcDbEntity
8
0
100
AcDbSpline
70
0
71
2
72
6
73
3
74
0
42
0.000000001
43
0.0000000001
44
0.0000000001
40
0
40
0
40
0
40
1
40
1
40
1
10
-10.379036320347845
20
-18.766011957961471
30
0
10
-10.195833373466826
20
-18.749261969936871
30
0
10
-10.113690858605375
20
-18.607650167783792
30
0
0
SPLINE
5
617
100
AcDbEntity
8
0
100
AcDbSpline
70
0
71
2
72
6
73
3
74
0
42
0.000000001
43
0.0000000001
44
0.0000000001
40
0
40
0
40
0
40
1
40
1
40
1
10
-10.113690858605375
20
-18.607650167783792
30
0
10
-10.032917477870971
20
-18.468398721305814
30
0
10
-10.077897243768117
20
-18.306672635677174
30
0
0
SPLINE
5
618
100
AcDbEntity
8
0
100
AcDbSpline
70
0
71
2
72
6
73
3
74
0
42
0.000000001
43
0.0000000001
44
0.0000000001
40
0
40
0
40
0
40
1
40
1
40
1
10
-10.077897243768117
20
-18.306672635677174
30
0
10
-10.122877009665263
20
-18.14494655004853
30
0
10
-10.283370239355868
20
-18.051851784608207
30
0
0
SPLINE
5
619
100
AcDbEntity
8
0
100
AcDbSpline
70
0
71
2
72
6
73
3
74
0
42
0.000000001
43
0.0000000001
44
0.0000000001
40
0
40
0
40
0
40
1
40
1
40
1
10
-10.283370239355868
20
-18.051851784608207
30
0
10
-10.462744896584002
20
-17.947804768589005
30
0
10
-10.694050294951914
20
-17.97135081071773
30
0
0
SPLINE
5
620
100
AcDbEntity
8
0
100
AcDbSpline
70
0
71
2
72
6
73
3
74
0
42
0.000000001
43
0.0000000001
44
0.0000000001
40
0
40
0
40
0
40
1
40
1
40
1
10
-10.694050294951914
20
-17.97135081071773
30
0
10
-10.866443693005303
20
-17.991217083943315
30
0
10
-10.979503820271416
20
-18.09912304738274
30
0
0
SPLINE
5
621
100
AcDbEntity
8
0
100
AcDbSpline
70
0
71
2
72
6
73
3
74
0
42
0.000000001
43
0.0000000001
44
0.0000000001
40
0
40
0
40
0
40
1
40
1
40
1
10
-10.979503820271416
20
-18.09912304738274
30
0
10
-11.054751595864612
20
-18.169030676807331
30
0
10
-11.193024572514531
20
-18.407410101219806
30
0
0
LINE
5
622
100
AcDbEntity
8
0
100
AcDbLine
10
-11.193024572514531
20
-18.407410101219806
30
0
11
-11.269690700401886
21
-18.539580738465805
31
0
0
LINE
5
623
100
AcDbEntity
8
0
100
AcDbLine
10
-13.286356853020283
20
-15.359840127184956
30
0
11
-13.560331793233775
21
-15.696216885946461
31
0
0
SPLINE
5
624
100
AcDbEntity
8
0
100
AcDbSpline
70
0
71
2
72
6
73
3
74
0
42
0.000000001
43
0.0000000001
44
0.0000000001
40
0
40
0
40
0
40
1
40
1
40
1
10
-13.560331793233777
20
-15.696216885946459
30
0
10
-13.291163649480783
20
-15.616333266515356
30
0
10
-13.006809134454947
20
-15.675504180954682
30
0
0
SPLINE
5
625
100
AcDbEntity
8
0
100
AcDbSpline
70
0
71
2
72
6
73
3
74
0
42
0.000000001
43
0.0000000001
44
0.0000000001
40
0
40
0
40
0
40
1
40
1
40
1
10
-13.006809134454947
20
-15.675504180954682
30
0
10
-12.722454807636973
20
-15.734675326468979
30
0
10
-12.500319319046106
20
-15.91560208677803
30
0
0
SPLINE
5
626
100
AcDbEntity
8
0
100
AcDbSpline
70
0
71
2
72
6
73
3
74
0
42
0.000000001
43
0.0000000001
44
0.0000000001
40
0
40
0
40
0
40
1
40
1
40
1
10
-12.500319319046106
20
-15.91560208677803
30
0
10
-12.273952501134129
20
-16.099975215385662
30
0
10
-12.17511473514654
20
-16.345871773247772
30
0
0
SPLINE
5
627
100
AcDbEntity
8
0
100
AcDbSpline
70
0
71
2
72
6
73
3
74
0
42
0.000000001
43
0.0000000001
44
0.0000000001
40
0
40
0
40
0
40
1
40
1
40
1
10
-12.17511473514654
20
-16.345871773247772
30
0
10
-12.076276911390206
20
-16.591768378161852
30
0
10
-12.142349493758338
20
-16.837070575262906
30
0
0
SPLINE
5
628
100
AcDbEntity
8
0
100
AcDbSpline
70
0
71
2
72
6
73
3
74
0
42
0.000000001
43
0.0000000001
44
0.0000000001
40
0
40
0
40
0
40
1
40
1
40
1
10
-12.142349493758338
20
-16.837070575262906
30
0
10
-12.208422235449962
20
-17.082373026964913
30
0
10
-12.466889035891462
20
-17.399709439237576
30
0
0
LINE
5
629
100
AcDbEntity
8
0
100
AcDbLine
10
-12.466889035891462
20
-17.399709439237576
30
0
11
-13.624820791209821
21
-18.821377167014038
31
0
0
LINE
5
630
100
AcDbEntity
8
0
100
AcDbLine
10
-13.624820791209821
20
-18.821377167014042
30
0
11
-14.219297864688716
21
-18.33718253577868
31
0
0
LINE
5
631
100
AcDbEntity
8
0
100
AcDbLine
10
-14.219297864688716
20
-18.33718253577868
30
0
11
-13.378418818289454
21
-17.304780930296673
31
0
0
SPLINE
5
632
100
AcDbEntity
8
0
100
AcDbSpline
70
0
71
2
72
6
73
3
74
0
42
0.000000001
43
0.0000000001
44
0.0000000001
40
0
40
0
40
0
40
1
40
1
40
1
10
-13.378418818289454
20
-17.304780930296669
30
0
10
-12.992441754724531
20
-16.830891918779486
30
0
10
-12.938216104154607
20
-16.697347034854161
30
0
0
SPLINE
5
633
100
AcDbEntity
8
0
100
AcDbSpline
70
0
71
2
72
6
73
3
74
0
42
0.000000001
43
0.0000000001
44
0.0000000001
40
0
40
0
40
0
40
1
40
1
40
1
10
-12.938216104154607
20
-16.697347034854161
30
0
10
-12.883990149839335
20
-16.563802013957797
30
0
10
-12.919897132541179
20
-16.430744912766897
30
0
0
SPLINE
5
634
100
AcDbEntity
8
0
100
AcDbSpline
70
0
71
2
72
6
73
3
74
0
42
0.000000001
43
0.0000000001
44
0.0000000001
40
0
40
0
40
0
40
1
40
1
40
1
10
-12.919897132541179
20
-16.430744912766897
30
0
10
-12.955803811497672
20
-16.297687674604965
30
0
10
-13.089085197082181
20
-16.189131543136387
30
0
0
SPLINE
5
635
100
AcDbEntity
8
0
100
AcDbSpline
70
0
71
2
72
6
73
3
74
0
42
0.000000001
43
0.0000000001
44
0.0000000001
40
0
40
0
40
0
40
1
40
1
40
1
10
-13.089085197082181
20
-16.189131543136387
30
0
10
-13.241406698080556
20
-16.065067460103684
30
0
10
-13.430057673312589
20
-16.05041554727315
30
0
0
SPLINE
5
636
100
AcDbEntity
8
0
100
AcDbSpline
70
0
71
2
72
6
73
3
74
0
42
0.000000001
43
0.0000000001
44
0.0000000001
40
0
40
0
40
0
40
1
40
1
40
1
10
-13.430057673312589
20
-16.05041554727315
30
0
10
-13.618708272128895
20
-16.035763172292675
30
0
10
-13.763937688959999
20
-16.123339207183566
30
0
0
SPLINE
5
637
100
AcDbEntity
8
0
100
AcDbSpline
70
0
71
2
72
6
73
3
74
0
42
0.000000001
43
0.0000000001
44
0.0000000001
40
0
40
0
40
0
40
1
40
1
40
1
10
-13.763937688959999
20
-16.123339207183566
30
0
10
-13.909166802045757
20
-16.210915105103414
30
0
10
-14.302036413999982
20
-16.693266544187853
30
0
0
LINE
5
638
100
AcDbEntity
8
0
100
AcDbLine
10
-14.302036413999982
20
-16.693266544187853
30
0
11
-15.073990917545554
21
-17.641045029372165
31
0
0
LINE
5
639
100
AcDbEntity
8
0
100
AcDbLine
10
-15.073990917545554
20
-17.641045029372165
30
0
11
-15.668468135446306
21
-17.156850280506891
31
0
0
LINE
5
640
100
AcDbEntity
8
0
100
AcDbLine
10
-15.668468135446304
20
-17.156850280506891
30
0
11
-13.838522510772183
21
-14.910107649746525
31
0
0
LINE
5
641
100
AcDbEntity
8
0
100
AcDbLine
10
-13.838522510772183
20
-14.910107649746525
30
0
11
-13.286356853020283
21
-15.359840127184956
31
0
0
LINE
5
642
100
AcDbEntity
8
0
100
AcDbLine
10
-17.333273723562638
20
-14.934961956309357
30
0
11
-17.810147979623927
21
-15.525178475296556
31
0
0
LINE
5
643
100
AcDbEntity
8
0
100
AcDbLine
10
-17.810147979623924
20
-15.525178475296556
30
0
11
-18.327928446467567
21
-15.960824422296405
31
0
0
LINE
5
644
100
AcDbEntity
8
0
100
AcDbLine
10
-18.327928446467567
20
-15.960824422296405
30
0
11
-18.865459269631216
21
-15.321950211535944
31
0
0
LINE
5
645
100
AcDbEntity
8
0
100
AcDbLine
10
-18.865459269631216
20
-15.321950211535944
30
0
11
-18.347678802787573
21
-14.886304264536097
31
0
0
LINE
5
646
100
AcDbEntity
8
0
100
AcDbLine
10
-18.347678802787573
20
-14.886304264536097
30
0
11
-17.696897502652803
21
-14.502782358658191
31
0
0
LINE
5
647
100
AcDbEntity
8
0
100
AcDbLine
10
-17.696897502652803
20
-14.502782358658193
30
0
11
-17.333273723562638
21
-14.934961956309357
31
0
0
LINE
5
648
100
AcDbEntity
8
0
100
AcDbLine
10
-18.136890695679277
20
-10.685665985725411
30
0
11
-17.546302131257722
21
-10.287732118810338
31
0
0
LINE
5
649
100
AcDbEntity
8
0
100
AcDbLine
10
-17.546302131257722
20
-10.287732118810338
30
0
11
-16.0445212204692
21
-12.516581447604914
31
0
0
SPLINE
5
650
100
AcDbEntity
8
0
100
AcDbSpline
70
0
71
2
72
6
73
3
74
0
42
0.000000001
43
0.0000000001
44
0.0000000001
40
0
40
0
40
0
40
1
40
1
40
1
10
-16.0445212204692
20
-12.516581447604915
30
0
10
-16.403808763659907
20
-12.706025109205296
30
0
10
-16.825600483324692
20
-12.727017947621768
30
0
0
SPLINE
5
651
100
AcDbEntity
8
0
100
AcDbSpline
70
0
71
2
72
6
73
3
74
0
42
0.000000001
43
0.0000000001
44
0.0000000001
40
0
40
0
40
0
40
1
40
1
40
1
10
-16.825600483324692
20
-12.727017947621768
30
0
10
-17.247392460552163
20
-12.748010937121823
30
0
10
-18.102761249496957
20
-12.547890677101513
30
0
0
SPLINE
5
652
100
AcDbEntity
8
0
100
AcDbSpline
70
0
71
2
72
6
73
3
74
0
42
0.000000001
43
0.0000000001
44
0.0000000001
40
0
40
0
40
0
40
1
40
1
40
1
10
-18.102761249496957
20
-12.547890677101513
30
0
10
-18.792958779321868
20
-12.387823399410552
30
0
10
-19.001074443090491
20
-12.386576420016278
30
0
0
SPLINE
5
653
100
AcDbEntity
8
0
100
AcDbSpline
70
0
71
2
72
6
73
3
74
0
42
0.000000001
43
0.0000000001
44
0.0000000001
40
0
40
0
40
0
40
1
40
1
40
1
10
-19.001074443090491
20
-12.386576420016278
30
0
10
-19.286367201618994
20
-12.387979263867813
30
0
10
-19.478704327726415
20
-12.517574486251133
30
0
0
SPLINE
5
654
100
AcDbEntity
8
0
100
AcDbSpline
70
0
71
2
72
6
73
3
74
0
42
0.000000001
43
0.0000000001
44
0.0000000001
40
0
40
0
40
0
40
1
40
1
40
1
10
-19.478704327726415
20
-12.517574486251133
30
0
10
-19.691406738673745
20
-12.660891675220633
30
0
10
-19.7286828175259
20
-12.852157398686273
30
0
0
SPLINE
5
655
100
AcDbEntity
8
0
100
AcDbSpline
70
0
71
2
72
6
73
3
74
0
42
0.000000001
43
0.0000000001
44
0.0000000001
40
0
40
0
40
0
40
1
40
1
40
1
10
-19.7286828175259
20
-12.852157398686273
30
0
10
-19.765959143532577
20
-13.043423288682652
30
0
10
-19.630265232326344
20
-13.244811707419926
30
0
0
SPLINE
5
656
100
AcDbEntity
8
0
100
AcDbSpline
70
0
71
2
72
6
73
3
74
0
42
0.000000001
43
0.0000000001
44
0.0000000001
40
0
40
0
40
0
40
1
40
1
40
1
10
-19.630265232326344
20
-13.244811707419926
30
0
10
-19.496095910060468
20
-13.443937426576992
30
0
10
-19.296886100236637
20
-13.480795956229713
30
0
0
SPLINE
5
657
100
AcDbEntity
8
0
100
AcDbSpline
70
0
71
2
72
6
73
3
74
0
42
0.000000001
43
0.0000000001
44
0.0000000001
40
0
40
0
40
0
40
1
40
1
40
1
10
-19.296886100236637
20
-13.480795956229713
30
0
10
-19.097676207147437
20
-13.517654609459688
30
0
10
-18.80715582571392
20
-13.348225014017611
30
0
0
LINE
5
658
100
AcDbEntity
8
0
100
AcDbLine
10
-18.80715582571392
20
-13.348225014017611
30
0
11
-18.443611767089489
21
-14.02449660171051
31
0
0
SPLINE
5
659
100
AcDbEntity
8
0
100
AcDbSpline
70
0
71
2
72
6
73
3
74
0
42
0.000000001
43
0.0000000001
44
0.0000000001
40
0
40
0
40
0
40
1
40
1
40
1
10
-18.443611767089493
20
-14.02449660171051
30
0
10
-19.006695578495535
20
-14.321645797279835
30
0
10
-19.436491270538603
20
-14.17694700218213
30
0
0
SPLINE
5
660
100
AcDbEntity
8
0
100
AcDbSpline
70
0
71
2
72
6
73
3
74
0
42
0.000000001
43
0.0000000001
44
0.0000000001
40
0
40
0
40
0
40
1
40
1
40
1
10
-19.436491270538603
20
-14.17694700218213
30
0
10
-19.866287178511673
20
-14.032248419956639
30
0
10
-20.168168028711836
20
-13.584215737219123
30
0
0
SPLINE
5
661
100
AcDbEntity
8
0
100
AcDbSpline
70
0
71
2
72
6
73
3
74
0
42
0.000000001
43
0.0000000001
44
0.0000000001
40
0
40
0
40
0
40
1
40
1
40
1
10
-20.168168028711836
20
-13.584215737219123
30
0
10
-20.499017234493969
20
-13.0931900323761
30
0
10
-20.42332736171879
20
-12.634219972056563
30
0
0
SPLINE
5
662
100
AcDbEntity
8
0
100
AcDbSpline
70
0
71
2
72
6
73
3
74
0
42
0.000000001
43
0.0000000001
44
0.0000000001
40
0
40
0
40
0
40
1
40
1
40
1
10
-20.42332736171879
20
-12.634219972056563
30
0
10
-20.347637408319837
20
-12.175249498051768
30
0
10
-19.953911863475142
20
-11.909960364462215
30
0
0
SPLINE
5
663
100
AcDbEntity
8
0
100
AcDbSpline
70
0
71
2
72
6
73
3
74
0
42
0.000000001
43
0.0000000001
44
0.0000000001
40
0
40
0
40
0
40
1
40
1
40
1
10
-19.953911863475142
20
-11.909960364462215
30
0
10
-19.729895460317756
20
-11.759019897729448
30
0
10
-19.473250412665443
20
-11.702892780470911
30
0
0
SPLINE
5
664
100
AcDbEntity
8
0
100
AcDbSpline
70
0
71
2
72
6
73
3
74
0
42
0.000000001
43
0.0000000001
44
0.0000000001
40
0
40
0
40
0
40
1
40
1
40
1
10
-19.473250412665443
20
-11.702892780470911
30
0
10
-19.216605612167644
20
-11.64676582974311
30
0
10
-18.877453897322223
20
-11.671584739952934
30
0
0
SPLINE
5
665
100
AcDbEntity
8
0
100
AcDbSpline
70
0
71
2
72
6
73
3
74
0
42
0.000000001
43
0.0000000001
44
0.0000000001
40
0
40
0
40
0
40
1
40
1
40
1
10
-18.877453897322223
20
-11.671584739952934
30
0
10
-18.652615540012739
20
-11.687885003148942
30
0
10
-18.173776249780826
20
-11.8028287703271
30
0
0
SPLINE
5
666
100
AcDbEntity
8
0
100
AcDbSpline
70
0
71
2
72
6
73
3
74
0
42
0.000000001
43
0.0000000001
44
0.0000000001
40
0
40
0
40
0
40
1
40
1
40
1
10
-18.173776249780826
20
-11.8028287703271
30
0
10
-17.694937289968795
20
-11.917772580458742
30
0
10
-17.550300527160548
20
-11.937115572989327
30
0
0
SPLINE
5
667
100
AcDbEntity
8
0
100
AcDbSpline
70
0
71
2
72
6
73
3
74
0
42
0.000000001
43
0.0000000001
44
0.0000000001
40
0
40
0
40
0
40
1
40
1
40
1
10
-17.550300527160548
20
-11.937115572989327
30
0
10
-17.405663928241442
20
-11.956458855627915
30
0
10
-17.286135595096642
20
-11.94830351246461
30
0
0
LINE
5
668
100
AcDbEntity
8
0
100
AcDbLine
10
-17.286135595096642
20
-11.94830351246461
30
0
11
-18.136890695679277
21
-10.685665985725413
31
0
0
LINE
5
669
100
AcDbEntity
8
0
100
AcDbLine
10
-21.622361802548102
20
-8.8294145090419924
30
0
11
-21.230562885750853
21
-9.4650155149722597
31
0
0
SPLINE
5
670
100
AcDbEntity
8
0
100
AcDbSpline
70
0
71
2
72
6
73
3
74
0
42
0.000000001
43
0.0000000001
44
0.0000000001
40
0
40
0
40
0
40
1
40
1
40
1
10
-21.230562885750853
20
-9.4650155149722597
30
0
10
-21.425992258759599
20
-9.5878251641789696
30
0
10
-21.475541539609047
20
-9.7381219624028308
30
0
0
SPLINE
5
671
100
AcDbEntity
8
0
100
AcDbSpline
70
0
71
2
72
6
73
3
74
0
42
0.000000001
43
0.0000000001
44
0.0000000001
40
0
40
0
40
0
40
1
40
1
40
1
10
-21.475541539609047
20
-9.7381219624028308
30
0
10
-21.525090820458502
20
-9.888418760626692
30
0
10
-21.446801890765489
20
-10.053617111869904
30
0
0
SPLINE
5
672
100
AcDbEntity
8
0
100
AcDbSpline
70
0
71
2
72
6
73
3
74
0
42
0.000000001
43
0.0000000001
44
0.0000000001
40
0
40
0
40
0
40
1
40
1
40
1
10
-21.446801890765489
20
-10.053617111869904
30
0
10
-21.342806238820732
20
-10.273059506919919
30
0
10
-21.073692234677335
20
-10.331217408134084
30
0
0
SPLINE
5
673
100
AcDbEntity
8
0
100
AcDbSpline
70
0
71
2
72
6
73
3
74
0
42
0.000000001
43
0.0000000001
44
0.0000000001
40
0
40
0
40
0
40
1
40
1
40
1
10
-21.073692234677335
20
-10.331217408134084
30
0
10
-20.804578230533942
20
-10.389375309348248
30
0
10
-20.162073771974704
20
-10.133197374902965
30
0
0
SPLINE
5
674
100
AcDbEntity
8
0
100
AcDbSpline
70
0
71
2
72
6
73
3
74
0
42
0.000000001
43
0.0000000001
44
0.0000000001
40
0
40
0
40
0
40
1
40
1
40
1
10
-20.162073771974704
20
-10.133197374902965
30
0
10
-20.590505720647322
20
-10.019197657125222
30
0
10
-20.772790366099617
20
-9.6345567761762609
30
0
0
SPLINE
5
675
100
AcDbEntity
8
0
100
AcDbSpline
70
0
71
2
72
6
73
3
74
0
42
0.000000001
43
0.0000000001
44
0.0000000001
40
0
40
0
40
0
40
1
40
1
40
1
10
-20.772790366099617
20
-9.6345567761762609
30
0
10
-20.978444782258773
20
-9.2006030791644822
30
0
10
-20.794693783417234
20
-8.7345864708515126
30
0
0
SPLINE
5
676
100
AcDbEntity
8
0
100
AcDbSpline
70
0
71
2
72
6
73
3
74
0
42
0.000000001
43
0.0000000001
44
0.0000000001
40
0
40
0
40
0
40
1
40
1
40
1
10
-20.794693783417234
20
-8.7345864708515126
30
0
10
-20.61094259313213
20
-8.268570266505753
30
0
10
-20.088225719482693
20
-8.0208502120226193
30
0
0
SPLINE
5
677
100
AcDbEntity
8
0
100
AcDbSpline
70
0
71
2
72
6
73
3
74
0
42
0.000000001
43
0.0000000001
44
0.0000000001
40
0
40
0
40
0
40
1
40
1
40
1
10
-20.088225719482693
20
-8.0208502120226193
30
0
10
-19.533455124890796
20
-7.7579396215179148
30
0
10
-19.043886612918534
20
-7.9244899451767576
30
0
0
SPLINE
5
678
100
AcDbEntity
8
0
100
AcDbSpline
70
0
71
2
72
6
73
3
74
0
42
0.000000001
43
0.0000000001
44
0.0000000001
40
0
40
0
40
0
40
1
40
1
40
1
10
-19.043886612918534
20
-7.9244899451767576
30
0
10
-18.554317909502707
20
-8.0910406728028086
30
0
10
-18.312440265789032
20
-8.6014294097644086
30
0
0
SPLINE
5
679
100
AcDbEntity
8
0
100
AcDbSpline
70
0
71
2
72
6
73
3
74
0
42
0.000000001
43
0.0000000001
44
0.0000000001
40
0
40
0
40
0
40
1
40
1
40
1
10
-18.312440265789032
20
-8.6014294097644086
30
0
10
-18.053035262137946
20
-9.1488028261009866
30
0
10
-18.311264905218316
20
-9.7029549266064272
30
0
0
SPLINE
5
680
100
AcDbEntity
8
0
100
AcDbSpline
70
0
71
2
72
6
73
3
74
0
42
0.000000001
43
0.0000000001
44
0.0000000001
40
0
40
0
40
0
40
1
40
1
40
1
10
-18.311264905218316
20
-9.7029549266064272
30
0
10
-18.569494572229129
20
-10.257106976615965
30
0
10
-19.538493683545383
20
-10.716324049471275
30
0
0
SPLINE
5
681
100
AcDbEntity
8
0
100
AcDbSpline
70
0
71
2
72
6
73
3
74
0
42
0.000000001
43
0.0000000001
44
0.0000000001
40
0
40
0
40
0
40
1
40
1
40
1
10
-19.538493683545383
20
-10.716324049471275
30
0
10
-20.532149068237313
20
-11.187225943865498
30
0
10
-21.145139291134541
20
-11.027836111346419
30
0
0
SPLINE
5
682
100
AcDbEntity
8
0
100
AcDbSpline
70
0
71
2
72
6
73
3
74
0
42
0.000000001
43
0.0000000001
44
0.0000000001
40
0
40
0
40
0
40
1
40
1
40
1
10
-21.145139291134541
20
-11.027836111346419
30
0
10
-21.758129537962219
20
-10.868446228331441
30
0
10
-22.036230409230416
20
-10.281622451420024
30
0
0
SPLINE
5
683
100
AcDbEntity
8
0
100
AcDbSpline
70
0
71
2
72
6
73
3
74
0
42
0.000000001
43
0.0000000001
44
0.0000000001
40
0
40
0
40
0
40
1
40
1
40
1
10
-22.036230409230416
20
-10.281622451420024
30
0
10
-22.231368383901323
20
-9.8698596158955265
30
0
10
-22.128780262993054
20
-9.4906174576030171
30
0
0
SPLINE
5
684
100
AcDbEntity
8
0
100
AcDbSpline
70
0
71
2
72
6
73
3
74
0
42
0.000000001
43
0.0000000001
44
0.0000000001
40
0
40
0
40
0
40
1
40
1
40
1
10
-22.128780262993054
20
-9.4906174576030171
30
0
10
-22.026192142084785
20
-9.1113752993105059
30
0
10
-21.622361802548102
20
-8.8294145090419924
30
0
0
SPLINE
5
685
100
AcDbEntity
8
0
100
AcDbSpline
70
0
71
2
72
6
73
3
74
0
42
0.000000001
43
0.0000000001
44
0.0000000001
40
0
40
0
40
0
40
1
40
1
40
1
10
-19.366591870444111
20
-9.6837459520267615
30
0
10
-19.02879825901384
20
-9.5236626334161567
30
0
10
-18.918722566292484
20
-9.2812743618900644
30
0
0
SPLINE
5
686
100
AcDbEntity
8
0
100
AcDbSpline
70
0
71
2
72
6
73
3
74
0
42
0.000000001
43
0.0000000001
44
0.0000000001
40
0
40
0
40
0
40
1
40
1
40
1
10
-18.918722566292484
20
-9.2812743618900644
30
0
10
-18.808646905478387
20
-9.0388860230361026
30
0
10
-18.903294623614588
20
-8.8391688082735094
30
0
0
SPLINE
5
687
100
AcDbEntity
8
0
100
AcDbSpline
70
0
71
2
72
6
73
3
74
0
42
0.000000001
43
0.0000000001
44
0.0000000001
40
0
40
0
40
0
40
1
40
1
40
1
10
-18.903294623614588
20
-8.8391688082735094
30
0
10
-18.994436946340734
20
-8.6468483677990289
30
0
10
-19.205602780140381
20
-8.5899125795456115
30
0
0
SPLINE
5
688
100
AcDbEntity
8
0
100
AcDbSpline
70
0
71
2
72
6
73
3
74
0
42
0.000000001
43
0.0000000001
44
0.0000000001
40
0
40
0
40
0
40
1
40
1
40
1
10
-19.205602780140381
20
-8.5899125795456115
30
0
10
-19.416768819436982
20
-8.5329770535769729
30
0
10
-19.759493793266977
20
-8.6953973875469774
30
0
0
SPLINE
5
689
100
AcDbEntity
8
0
100
AcDbSpline
70
0
71
2
72
6
73
3
74
0
42
0.000000001
43
0.0000000001
44
0.0000000001
40
0
40
0
40
0
40
1
40
1
40
1
10
-19.759493793266977
20
-8.6953973875469774
30
0
10
-20.112081222584948
20
-8.8624916246067382
30
0
10
-20.210611193055001
20
-9.0782723959088489
30
0
0
SPLINE
5
690
100
AcDbEntity
8
0
100
AcDbSpline
70
0
71
2
72
6
73
3
74
0
42
0.000000001
43
0.0000000001
44
0.0000000001
40
0
40
0
40
0
40
1
40
1
40
1
10
-20.210611193055001
20
-9.0782723959088489
30
0
10
-20.309141099710533
20
-9.2940533018666986
30
0
10
-20.21098785853523
20
-9.5011675602288754
30
0
0
SPLINE
5
691
100
AcDbEntity
8
0
100
AcDbSpline
70
0
71
2
72
6
73
3
74
0
42
0.000000001
43
0.0000000001
44
0.0000000001
40
0
40
0
40
0
40
1
40
1
40
1
10
-20.21098785853523
20
-9.5011675602288754
30
0
10
-20.116340076584507
20
-9.7008849096472058
30
0
10
-19.894336069367579
20
-9.7647618522820867
30
0
0
SPLINE
5
692
100
AcDbEntity
8
0
100
AcDbSpline
70
0
71
2
72
6
73
3
74
0
42
0.000000001
43
0.0000000001
44
0.0000000001
40
0
40
0
40
0
40
1
40
1
40
1
10
-19.894336069367579
20
-9.7647618522820867
30
0
10
-19.672332030243393
20
-9.8286388622448371
30
0
10
-19.366591870444111
20
-9.6837459520267615
30
0
0
ENDSEC
0
SECTION
2
OBJECTS
0
DICTIONARY
5
C
100
AcDbDictionary
3
ACAD_GROUP
350
D
3
ACAD_MLINESTYLE
350
17
0
DICTIONARY
5
D
100
AcDbDictionary
0
DICTIONARY
5
1A
330
C
100
AcDbDictionary
0
DICTIONARY
5
17
100
AcDbDictionary
0
ENDSEC
0
EOF
