                                                                        S      1
,,15HFusionComponent,10HComponent1,7Hunknown,7Hunknown,32,38,7,99,15,,  G      1
1.,2,2HMM,1,0.08,15H20260616.141732,0.01,10000.,7Hunknown,7Hunknown,11, G      2
0,;                                                                     G      3
     186       1                                                00000000D      1
     186             -73       1       0                               0D      2
     514       2                                                00010000D      3
     514                       1       1                               0D      4
     510       3                                                00010000D      5
     510             -73       1       1                               0D      6
     510       4                                                00010000D      7
     510             -73       1       1                               0D      8
     510       5                                                00010000D      9
     510             -73       1       1                               0D     10
     510       6                                                00010000D     11
     510             -73       1       1                               0D     12
     510       7                                                00010000D     13
     510             -73       1       1                               0D     14
     510       8                                                00010000D     15
     510             -73       1       1                               0D     16
     508       9                                                00010000D     17
     508                       1       1                               0D     18
     508      10                                                00010000D     19
     508                       1       1                               0D     20
     508      11                                                00010000D     21
     508                       2       1                               0D     22
     508      13                                                00010000D     23
     508                       2       1                               0D     24
     508      15                                                00010000D     25
     508                       1       1                               0D     26
     508      16                                                00010000D     27
     508                       1       1                               0D     28
     508      17                                                00010000D     29
     508                       1       1                               0D     30
     126      18                                                00010000D     31
     126       0               5       0                               0D     32
     126      23                                                00010000D     33
     126       0               5       0                               0D     34
     126      28                                                00010000D     35
     126       0               3       0                               0D     36
     126      31                                                00010000D     37
     126       0               8       0                               0D     38
     126      39                                                00010000D     39
     126       0               5       0                               0D     40
     126      44                                                00010000D     41
     126       0               5       0                               0D     42
     126      49                                                00010000D     43
     126       0               2       0                               0D     44
     126      51                                                00010000D     45
     126       0               6       0                               0D     46
     126      57                                                00010000D     47
     126       0               6       0                               0D     48
     126      63                                                00010000D     49
     126       0               4       0                               0D     50
     126      67                                                00010000D     51
     126       0               5       0                               0D     52
     126      72                                                00010000D     53
     126       0               5       0                               0D     54
     128      77                                                00010000D     55
     128       0     -73      14       0                               0D     56
     128      91                                                00010000D     57
     128       0     -73       5       0                               0D     58
     128      96                                                00010000D     59
     128       0     -73      12       0                               0D     60
     128     108                                                00010000D     61
     128       0     -73      18       0                               0D     62
     128     126                                                00010000D     63
     128       0     -73       3       0                               0D     64
     128     129                                                00010000D     65
     128       0     -73       3       0                               0D     66
     502     132                                                00010000D     67
     502                       3       1                               0D     68
     504     135                                                00010001D     69
     504                       3       1                               0D     70
     406     138                                                00000000D     71
     406                       1      15                               0D     72
     314     139                                                00000200D     73
     314                       2       0                               0D     74
186,3,1,0,0,1,71;                                                      1P      1
514,6,5,1,7,1,9,1,11,1,13,1,15,1;                                      3P      2
510,55,1,1,17;                                                         5P      3
510,57,1,1,19;                                                         7P      4
510,59,1,1,21;                                                         9P      5
510,61,1,1,23;                                                        11P      6
510,63,1,1,25;                                                        13P      7
510,65,2,1,27,29;                                                     15P      8
508,5,0,69,1,1,0,0,69,2,1,0,0,69,3,1,0,0,69,4,1,0,0,69,3,0,0;         17P      9
508,1,0,69,4,0,0;                                                     19P     10
508,6,0,69,5,0,0,0,69,6,0,0,0,69,7,1,0,0,69,1,0,0,0,69,2,0,0,0,       21P     11
69,7,0,0;                                                             21P     12
508,6,0,69,8,0,0,0,69,9,0,0,0,69,10,1,0,0,69,11,1,0,0,69,12,1,0,      23P     13
0,69,10,0,0;                                                          23P     14
508,2,0,69,8,1,0,0,69,9,1,0;                                          25P     15
508,2,0,69,12,0,0,0,69,11,0,0;                                        27P     16
508,2,0,69,5,1,0,0,69,6,1,0;                                          29P     17
126,4,2,0,0,0,0,-3.14159265358979,-3.14159265358979,                  31P     18
-3.14159265358979,-1.5707963267949,-1.5707963267949,0.,0.,0.,1.,      31P     19
0.70710678118655,1.,0.70710678118655,1.,115.,135.,28.,115.,125.,      31P     20
28.,125.,125.,28.,135.,125.,28.,135.,135.,28.,-3.14159265358979,      31P     21
0.,0.,0.,0.;                                                          31P     22
126,4,2,0,0,0,0,0.,0.,0.,1.5707963267949,1.5707963267949,             33P     23
3.14159265358979,3.14159265358979,3.14159265358979,1.,                33P     24
0.70710678118655,1.,0.70710678118655,1.,135.,135.,28.,135.,145.,      33P     25
28.,125.,145.,28.,115.,145.,28.,115.,135.,28.,0.,                     33P     26
3.14159265358979,0.,0.,0.;                                            33P     27
126,1,1,0,0,1,0,-0.157134840263677,-0.157134840263677,                35P     28
0.157134840263677,0.157134840263677,1.,1.,115.,135.,28.,117.,         35P     29
135.,30.,-0.157134840263677,0.157134840263677,0.,0.,0.;               35P     30
126,8,2,0,1,0,0,-3.14159265358979,-3.14159265358979,                  37P     31
-3.14159265358979,-1.5707963267949,-1.5707963267949,0.,0.,            37P     32
1.5707963267949,1.5707963267949,3.14159265358979,                     37P     33
3.14159265358979,3.14159265358979,1.,0.707106781186549,1.,            37P     34
0.707106781186549,1.,0.707106781186549,1.,0.707106781186549,1.,       37P     35
117.,135.,30.,117.,143.,30.,125.,143.,30.,133.,143.,30.,133.,         37P     36
135.,30.,133.,127.,30.,125.,127.,30.,117.,127.,30.,117.,135.,         37P     37
30.,-3.14159265358979,3.14159265358979,0.,0.,0.;                      37P     38
126,4,2,0,0,0,0,-3.14159265358979,-3.14159265358979,                  39P     39
-3.14159265358979,-1.5707963267949,-1.5707963267949,0.,0.,0.,1.,      39P     40
0.70710678118655,1.,0.70710678118655,1.,115.,135.,2.,115.,145.,       39P     41
2.,125.,145.,2.,135.,145.,2.,135.,135.,2.,-3.14159265358979,0.,       39P     42
0.,0.,0.;                                                             39P     43
126,4,2,0,0,0,0,0.,0.,0.,1.5707963267949,1.5707963267949,             41P     44
3.14159265358979,3.14159265358979,3.14159265358979,1.,                41P     45
0.70710678118655,1.,0.70710678118655,1.,135.,135.,2.,135.,125.,       41P     46
2.,125.,125.,2.,115.,125.,2.,115.,135.,2.,0.,3.14159265358979,        41P     47
0.,0.,0.;                                                             41P     48
126,1,1,0,0,1,0,-1.4,-1.4,1.2,1.2,1.,1.,135.,135.,2.,135.,135.,       43P     49
28.,-1.4,1.2,0.,0.,0.;                                                43P     50
126,4,2,0,0,0,0,-3.14159265358979,-3.14159265358979,                  45P     51
-3.14159265358979,-1.5707963267949,-1.5707963267949,0.,0.,0.,1.,      45P     52
0.707106781186546,1.,0.707106781186546,1.,110.,135.,                  45P     53
5.55111512312578D-16,110.,150.,5.55111512312578D-16,125.,150.,        45P     54
5.55111512312578D-16,140.,150.,5.55111512312578D-16,140.,135.,        45P     55
5.55111512312578D-16,-3.14159265358979,0.,0.,0.,0.;                   45P     56
126,4,2,0,0,0,0,0.,0.,0.,1.5707963267949,1.5707963267949,             47P     57
3.14159265358979,3.14159265358979,3.14159265358979,1.,                47P     58
0.707106781186546,1.,0.707106781186546,1.,140.,135.,                  47P     59
5.55111512312578D-16,140.,120.,5.55111512312578D-16,125.,120.,        47P     60
5.55111512312578D-16,110.,120.,5.55111512312578D-16,110.,135.,        47P     61
5.55111512312578D-16,0.,3.14159265358979,0.,0.,0.;                    47P     62
126,1,1,0,0,1,0,-0.0666666666666667,-0.0666666666666667,              49P     63
0.0666666666666667,0.0666666666666667,1.,1.,140.,135.,                49P     64
5.55111512312578D-16,140.,135.,2.,-0.0666666666666667,                49P     65
0.0666666666666667,0.,0.,0.;                                          49P     66
126,4,2,0,0,0,0,0.,0.,0.,1.5707963267949,1.5707963267949,             51P     67
3.14159265358979,3.14159265358979,3.14159265358979,1.,                51P     68
0.707106781186546,1.,0.707106781186546,1.,140.,135.,2.,140.,          51P     69
120.,2.,125.,120.,2.,110.,120.,2.,110.,135.,2.,0.,                    51P     70
3.14159265358979,0.,0.,0.;                                            51P     71
126,4,2,0,0,0,0,-3.14159265358979,-3.14159265358979,                  53P     72
-3.14159265358979,-1.5707963267949,-1.5707963267949,0.,0.,0.,1.,      53P     73
0.707106781186546,1.,0.707106781186546,1.,110.,135.,2.,110.,          53P     74
150.,2.,125.,150.,2.,140.,150.,2.,140.,135.,2.,                       53P     75
-3.14159265358979,0.,0.,0.,0.;                                        53P     76
128,1,8,1,2,0,1,0,0,1,-0.157134840263677,-0.157134840263677,          55P     77
0.157134840263677,0.157134840263677,-3.14159265358979,                55P     78
-3.14159265358979,-3.14159265358979,-1.5707963267949,                 55P     79
-1.5707963267949,0.,0.,1.5707963267949,1.5707963267949,               55P     80
3.14159265358979,3.14159265358979,3.14159265358979,1.,1.,             55P     81
0.707106781186548,0.707106781186548,1.,1.,0.707106781186548,          55P     82
0.707106781186548,1.,1.,0.707106781186548,0.707106781186548,1.,       55P     83
1.,0.707106781186548,0.707106781186548,1.,1.,115.,135.,28.,117.,      55P     84
135.,30.,115.,145.,28.,117.,143.,30.,125.,145.,28.,125.,143.,         55P     85
30.,135.,145.,28.,133.,143.,30.,135.,135.,28.,133.,135.,30.,          55P     86
135.,125.,28.,133.,127.,30.,125.,125.,28.,125.,127.,30.,115.,         55P     87
125.,28.,117.,127.,30.,115.,135.,28.,117.,135.,30.,                   55P     88
-0.157134840263677,0.157134840263677,-3.14159265358979,               55P     89
3.14159265358979;                                                     55P     90
128,1,1,1,1,0,0,1,0,0,0.198999999999999,0.198999999999999,1.801,      57P     91
1.801,-0.801000000000001,-0.801000000000001,0.801000000000001,        57P     92
0.801000000000001,1.,1.,1.,1.,116.99,126.99,30.,133.01,126.99,        57P     93
30.,116.99,143.01,30.,133.01,143.01,30.,0.198999999999999,1.801,      57P     94
-0.801000000000001,0.801000000000001;                                 57P     95
128,1,8,1,2,0,1,0,0,1,-1.2,-1.2,1.4,1.4,-3.14159265358979,            59P     96
-3.14159265358979,-3.14159265358979,-1.5707963267949,                 59P     97
-1.5707963267949,0.,0.,1.5707963267949,1.5707963267949,               59P     98
3.14159265358979,3.14159265358979,3.14159265358979,1.,1.,             59P     99
0.707106781186548,0.707106781186548,1.,1.,0.707106781186548,          59P    100
0.707106781186548,1.,1.,0.707106781186548,0.707106781186548,1.,       59P    101
1.,0.707106781186548,0.707106781186548,1.,1.,135.,135.,2.,135.,       59P    102
135.,28.,135.,125.,2.,135.,125.,28.,125.,125.,2.,125.,125.,28.,       59P    103
115.,125.,2.,115.,125.,28.,115.,135.,2.,115.,135.,28.,115.,145.,      59P    104
2.,115.,145.,28.,125.,145.,2.,125.,145.,28.,135.,145.,2.,135.,        59P    105
145.,28.,135.,135.,2.,135.,135.,28.,-1.2,1.4,-3.14159265358979,       59P    106
3.14159265358979;                                                     59P    107
128,1,8,1,2,0,1,0,0,1,-0.0666666666666667,-0.0666666666666667,        61P    108
0.0666666666666667,0.0666666666666667,-3.14159265358979,              61P    109
-3.14159265358979,-3.14159265358979,-1.5707963267949,                 61P    110
-1.5707963267949,0.,0.,1.5707963267949,1.5707963267949,               61P    111
3.14159265358979,3.14159265358979,3.14159265358979,1.,1.,             61P    112
0.707106781186548,0.707106781186548,1.,1.,0.707106781186548,          61P    113
0.707106781186548,1.,1.,0.707106781186548,0.707106781186548,1.,       61P    114
1.,0.707106781186548,0.707106781186548,1.,1.,140.,135.,               61P    115
5.55111512312578D-16,140.,135.,2.,140.,120.,                          61P    116
5.55111512312578D-16,140.,120.,2.,125.,120.,                          61P    117
5.55111512312578D-16,125.,120.,2.,110.,120.,                          61P    118
5.55111512312578D-16,110.,120.,2.,110.,135.,                          61P    119
5.55111512312578D-16,110.,135.,2.,110.,150.,                          61P    120
5.55111512312578D-16,110.,150.,2.,125.,150.,                          61P    121
5.55111512312578D-16,125.,150.,2.,140.,150.,                          61P    122
5.55111512312578D-16,140.,150.,2.,140.,135.,                          61P    123
5.55111512312578D-16,140.,135.,2.,-0.0666666666666667,                61P    124
0.0666666666666667,-3.14159265358979,3.14159265358979;                61P    125
128,1,1,1,1,0,0,1,0,0,-1.501,-1.501,1.501,1.501,-1.501,-1.501,        63P    126
1.501,1.501,1.,1.,1.,1.,140.01,119.99,0.,109.99,119.99,0.,            63P    127
140.01,150.01,0.,109.99,150.01,0.,-1.501,1.501,-1.501,1.501;          63P    128
128,1,1,1,1,0,0,1,0,0,-0.001,-0.001,3.001,3.001,-1.501,-1.501,        65P    129
1.501,1.501,1.,1.,1.,1.,109.99,119.99,2.,140.01,119.99,2.,            65P    130
109.99,150.01,2.,140.01,150.01,2.,-0.001,3.001,-1.501,1.501;          65P    131
502,9,115.,135.,28.,135.,135.,28.,117.,135.,30.,115.,135.,2.,         67P    132
135.,135.,2.,110.,135.,5.55111512312578D-16,140.,135.,                67P    133
5.55111512312578D-16,140.,135.,2.,110.,135.,2.;                       67P    134
504,12,31,67,1,67,2,33,67,2,67,1,35,67,1,67,3,37,67,3,67,3,39,        69P    135
67,4,67,5,41,67,5,67,4,43,67,5,67,2,45,67,6,67,7,47,67,7,67,6,        69P    136
49,67,7,67,8,51,67,8,67,9,53,67,9,67,8;                               69P    137
406,1,5HBody1;                                                        71P    138
314,62.7450980392157,62.7450980392157,62.7450980392157,13HSteel       73P    139
- Satin;                                                              73P    140
S      1G      3D     74P    140                                        T      1
