0
SECTION
2
HEADER
9
$INSUNITS
70
4
9
$ACADVER
1
AC1014
9
$HANDSEED
5
FFFF
0
ENDSEC
0
SECTION
2
TABLES
0
TABLE
2
VPORT
5
8
100
AcDbSymbolTable
0
ENDTAB
0
TABLE
2
LTYPE
5
5
100
AcDbSymbolTable
0
LTYPE
5
14
100
AcDbSymbolTableRecord
100
AcDbLinetypeTableRecord
2
BYBLOCK
70
0
0
LTYPE
5
15
100
AcDbSymbolTableRecord
100
AcDbLinetypeTableRecord
2
BYLAYER
70
0
0
LTYPE
5
16
100
AcDbSymbolTableRecord
100
AcDbLinetypeTableRecord
2
DASHED
70
0
3
Dashed __ __ __ __ __ __ __ __ __ __ __ __ __ _
72
65
73
2
40
0.75
49
0.5
74
0
49
-0.25
74
0
0
ENDTAB
0
TABLE
2
LAYER
5
2
100
AcDbSymbolTable
70
2
0
LAYER
5
50
100
AcDbSymbolTableRecord
100
AcDbLayerTableRecord
2
0
70
0
62
7
6
CONTINUOUS
0
ENDTAB
0
TABLE
2
STYLE
5
3
100
AcDbSymbolTable
70
1
0
STYLE
5
11
100
AcDbSymbolTableRecord
100
AcDbTextStyleTableRecord
2
STANDARD
70
0
0
ENDTAB
0
TABLE
2
VIEW
5
6
100
AcDbSymbolTable
70
0
0
ENDTAB
0
TABLE
2
UCS
5
7
100
AcDbSymbolTable
70
0
0
ENDTAB
0
TABLE
2
APPID
5
9
100
AcDbSymbolTable
70
2
0
APPID
5
12
100
AcDbSymbolTableRecord
100
AcDbRegAppTableRecord
2
ACAD
70
0
0
ENDTAB
0
TABLE
2
DIMSTYLE
5
A
100
AcDbSymbolTable
70
1
0
ENDTAB
0
TABLE
2
BLOCK_RECORD
5
1
100
AcDbSymbolTable
70
1
0
BLOCK_RECORD
5
1F
100
AcDbSymbolTableRecord
100
AcDbBlockTableRecord
2
*MODEL_SPACE
0
BLOCK_RECORD
5
1B
100
AcDbSymbolTableRecord
100
AcDbBlockTableRecord
2
*PAPER_SPACE
0
ENDTAB
0
ENDSEC
0
SECTION
2
BLOCKS
0
BLOCK
5
20
100
AcDbEntity
100
AcDbBlockBegin
2
*MODEL_SPACE
0
ENDBLK
5
21
100
AcDbEntity
100
AcDbBlockEnd
0
BLOCK
5
1C
100
AcDbEntity
100
AcDbBlockBegin
2
*PAPER_SPACE
0
ENDBLK
5
1D
100
AcDbEntity
100
AcDbBlockEnd
0
ENDSEC
0
SECTION
2
ENTITIES
0
POINT
5
100
100
AcDbEntity
8
0
100
AcDbPoint
10
0
20
0
30
0
0
POINT
5
101
100
AcDbEntity
8
0
100
AcDbPoint
10
125
20
135
30
0
0
POINT
5
102
100
AcDbEntity
8
0
100
AcDbPoint
10
117.5
20
62.500000000000014
30
0
0
POINT
5
103
100
AcDbEntity
8
0
100
AcDbPoint
10
117.5
20
-2.5
30
0
0
POINT
5
104
100
AcDbEntity
8
0
100
AcDbPoint
10
117.5
20
117.5
30
0
0
LWPOLYLINE
5
105
100
AcDbEntity
8
0
100
AcDbPolyline
90
4
70
1
43
0.0
10
0
20
0
10
235
20
0
10
235
20
235
10
0
20
235
0
LINE
5
106
100
AcDbEntity
8
0
100
AcDbLine
10
42.099999999999945
20
114.79999999999997
30
0
11
192.89999999999995
21
114.79999999999998
31
0
0
LINE
5
107
100
AcDbEntity
8
0
100
AcDbLine
10
192.89999999999995
20
114.79999999999998
30
0
11
192.89999999999998
21
10.199999999999967
31
0
0
LINE
5
108
100
AcDbEntity
8
0
100
AcDbLine
10
192.89999999999998
20
10.199999999999967
30
0
11
42.099999999999952
21
10.199999999999971
31
0
0
LINE
5
109
100
AcDbEntity
8
0
100
AcDbLine
10
42.099999999999952
20
10.199999999999971
30
0
11
42.099999999999945
21
114.79999999999997
31
0
0
LINE
5
110
100
AcDbEntity
8
0
100
AcDbLine
10
42.099999999999945
20
114.79999999999997
30
0
11
192.89999999999998
21
10.199999999999967
31
0
6
DASHED
0
LINE
5
111
100
AcDbEntity
8
0
100
AcDbLine
10
192.89999999999995
20
114.79999999999998
30
0
11
42.099999999999952
21
10.199999999999971
31
0
6
DASHED
0
CIRCLE
5
112
100
AcDbEntity
8
0
100
AcDbCircle
10
125
20
135
30
0
40
10
210
0
220
0
230
1
0
LINE
5
113
100
AcDbEntity
8
0
100
AcDbLine
10
125
20
125
30
0
11
117.5
21
125.00000000000003
31
0
6
DASHED
0
LINE
5
114
100
AcDbEntity
8
0
100
AcDbLine
10
117.5
20
125.00000000000003
30
0
11
117.5
21
0
31
0
6
DASHED
0
LWPOLYLINE
5
115
100
AcDbEntity
8
0
100
AcDbPolyline
90
4
70
1
43
0.0
10
-5
20
240
10
-5
20
-5
10
240
20
-5
10
240
20
240
0
LINE
5
116
100
AcDbEntity
8
0
100
AcDbLine
10
117.5
20
0
30
0
11
117.5
21
-5
31
0
6
DASHED
0
LWPOLYLINE
5
117
100
AcDbEntity
8
0
100
AcDbPolyline
90
4
70
1
43
0.0
10
110
20
-5.0000000000000053
10
125
20
-5.0000000000000053
42
0.99999999999999989
10
125
20
0
10
110
20
0
42
0.99999999999999989
0
LINE
5
118
100
AcDbEntity
8
0
100
AcDbLine
10
110
20
-2.4999999999999973
30
0
11
125
21
-2.5000000000000027
31
0
6
DASHED
0
ARC
5
119
100
AcDbEntity
8
0
100
AcDbCircle
10
12.5
20
-2.5000000000000027
30
0
40
2.5000000000000027
210
-0
220
0
230
1
100
AcDbArc
50
-90
51
90
0
ARC
5
120
100
AcDbEntity
8
0
100
AcDbCircle
10
-2.5
20
-2.4999999999999973
30
0
40
2.4999999999999973
210
0
220
-0
230
1
100
AcDbArc
50
90
51
270
0
ARC
5
121
100
AcDbEntity
8
0
100
AcDbCircle
10
237.5
20
-2.5000000000000027
30
0
40
2.5000000000000027
210
-0
220
0
230
1
100
AcDbArc
50
-90
51
90
0
ARC
5
122
100
AcDbEntity
8
0
100
AcDbCircle
10
222.5
20
-2.4999999999999973
30
0
40
2.4999999999999973
210
0
220
-0
230
1
100
AcDbArc
50
90
51
270
0
LINE
5
123
100
AcDbEntity
8
0
100
AcDbLine
10
0
20
117.5
30
0
11
235
21
117.5
31
0
6
DASHED
0
CIRCLE
5
124
100
AcDbEntity
8
0
100
AcDbCircle
10
125
20
135
30
0
40
15.000000000000002
210
0
220
0
230
1
0
CIRCLE
5
125
100
AcDbEntity
8
0
100
AcDbCircle
10
32.09999999999993
20
62.500000000000014
30
0
40
10
210
0
220
0
230
1
0
LWPOLYLINE
5
126
100
AcDbEntity
8
0
100
AcDbPolyline
90
4
70
1
43
0.0
10
37.100000000000037
20
62.500000000000014
10
22.100000000000062
20
62.500000000000014
10
22.100000000000023
20
114.79999999999997
10
37.100000000000065
20
114.80000000000001
0
LWPOLYLINE
5
127
100
AcDbEntity
8
0
100
AcDbPolyline
90
4
70
1
43
0.0
10
42.099999999999945
20
114.79999999999997
10
17.100000000000062
20
114.79999999999997
10
17.100000000000183
20
10.199999999999971
10
42.099999999999966
20
10.199999999999971
0
CIRCLE
5
128
100
AcDbEntity
8
0
100
AcDbCircle
10
117.5
20
2.5999999999999845
30
0
40
7.5999999999999837
210
0
220
0
230
1
0
LWPOLYLINE
5
129
100
AcDbEntity
8
0
100
AcDbPolyline
90
8
70
1
43
0.0
10
117.5
20
-5
10
17.10000000000019
20
-5
10
17.10000000000019
20
5.1999999999999673
10
192.89999999999998
20
5.1999999999999673
10
192.89999999999998
20
10.199999999999967
10
17.100000000000186
20
10.199999999999967
10
17.10000000000019
20
5.1999999999999673
10
117.5
20
5.1999999999999673
0
LINE
5
130
100
AcDbEntity
8
0
100
AcDbLine
10
192.89999999999998
20
5.1999999999999673
30
0
11
192.89999999999998
21
-5
31
0
0
LINE
5
131
100
AcDbEntity
8
0
100
AcDbLine
10
17.100000000000062
20
114.79999999999997
30
0
11
-5
21
114.79999999999997
31
0
0
ARC
5
132
100
AcDbEntity
8
0
100
AcDbCircle
10
237.50000000000003
20
-2.5
30
0
40
2.5
210
0
220
0
230
1
100
AcDbArc
50
-180
51
0
0
ARC
5
133
100
AcDbEntity
8
0
100
AcDbCircle
10
237.50000000000003
20
12.500000000000002
30
0
40
2.5
210
0
220
-0
230
1
100
AcDbArc
50
0
51
180
0
ARC
5
134
100
AcDbEntity
8
0
100
AcDbCircle
10
237.5
20
110.00000000000001
30
0
40
2.5
210
0
220
0
230
1
100
AcDbArc
50
-180
51
0
0
ARC
5
135
100
AcDbEntity
8
0
100
AcDbCircle
10
237.5
20
125.00000000000003
30
0
40
2.5
210
0
220
0
230
1
100
AcDbArc
50
0
51
180
0
ARC
5
136
100
AcDbEntity
8
0
100
AcDbCircle
10
237.5
20
222.50000000000003
30
0
40
2.5
210
0
220
0
230
1
100
AcDbArc
50
-180
51
0
0
ARC
5
137
100
AcDbEntity
8
0
100
AcDbCircle
10
237.5
20
237.50000000000003
30
0
40
2.5
210
0
220
0
230
1
100
AcDbArc
50
0
51
180
0
ARC
5
138
100
AcDbEntity
8
0
100
AcDbCircle
10
237.5
20
237.5
30
0
40
2.5
210
0
220
0
230
1
100
AcDbArc
50
-90
51
90
0
ARC
5
139
100
AcDbEntity
8
0
100
AcDbCircle
10
222.5
20
237.5
30
0
40
2.5
210
0
220
-0
230
1
100
AcDbArc
50
90
51
270
0
ARC
5
140
100
AcDbEntity
8
0
100
AcDbCircle
10
125
20
237.5
30
0
40
2.5
210
0
220
0
230
1
100
AcDbArc
50
-90
51
90
0
ARC
5
141
100
AcDbEntity
8
0
100
AcDbCircle
10
110
20
237.50000000000003
30
0
40
2.5
210
0
220
-0
230
1
100
AcDbArc
50
90
51
270
0
ARC
5
142
100
AcDbEntity
8
0
100
AcDbCircle
10
12.5
20
237.50000000000003
30
0
40
2.5
210
0
220
0
230
1
100
AcDbArc
50
-90
51
90
0
ARC
5
143
100
AcDbEntity
8
0
100
AcDbCircle
10
-2.5
20
237.50000000000003
30
0
40
2.5
210
0
220
-0
230
1
100
AcDbArc
50
90
51
270
0
ARC
5
144
100
AcDbEntity
8
0
100
AcDbCircle
10
-2.4999999999999787
20
237.5
30
0
40
2.4999999999999973
210
0
220
0
230
1
100
AcDbArc
50
0
51
180
0
ARC
5
145
100
AcDbEntity
8
0
100
AcDbCircle
10
-2.4999999999999876
20
222.5
30
0
40
2.5000000000000036
210
0
220
0
230
1
100
AcDbArc
50
-180
51
0
0
ARC
5
146
100
AcDbEntity
8
0
100
AcDbCircle
10
-2.500000000000004
20
125
30
0
40
2.4999999999999973
210
0
220
0
230
1
100
AcDbArc
50
0
51
180
0
ARC
5
147
100
AcDbEntity
8
0
100
AcDbCircle
10
-2.5000000000000129
20
110
30
0
40
2.5000000000000027
210
0
220
0
230
1
100
AcDbArc
50
-180
51
0
0
ARC
5
148
100
AcDbEntity
8
0
100
AcDbCircle
10
-2.5000000000000289
20
12.5
30
0
40
2.4999999999999973
210
0
220
0
230
1
100
AcDbArc
50
0
51
180
0
ARC
5
149
100
AcDbEntity
8
0
100
AcDbCircle
10
-2.5000000000000377
20
-2.5
30
0
40
2.5000000000000022
210
0
220
0
230
1
100
AcDbArc
50
-180
51
0
0
ENDSEC
0
SECTION
2
OBJECTS
0
DICTIONARY
5
C
100
AcDbDictionary
3
ACAD_GROUP
350
D
3
ACAD_MLINESTYLE
350
17
0
DICTIONARY
5
D
100
AcDbDictionary
0
DICTIONARY
5
1A
330
C
100
AcDbDictionary
0
DICTIONARY
5
17
100
AcDbDictionary
0
ENDSEC
0
EOF
