0
SECTION
2
HEADER
9
$INSUNITS
70
4
9
$ACADVER
1
AC1014
9
$HANDSEED
5
FFFF
0
ENDSEC
0
SECTION
2
TABLES
0
TABLE
2
VPORT
5
8
100
AcDbSymbolTable
0
ENDTAB
0
TABLE
2
LTYPE
5
5
100
AcDbSymbolTable
0
LTYPE
5
14
100
AcDbSymbolTableRecord
100
AcDbLinetypeTableRecord
2
BYBLOCK
70
0
0
LTYPE
5
15
100
AcDbSymbolTableRecord
100
AcDbLinetypeTableRecord
2
BYLAYER
70
0
0
LTYPE
5
16
100
AcDbSymbolTableRecord
100
AcDbLinetypeTableRecord
2
DASHED
70
0
3
Dashed __ __ __ __ __ __ __ __ __ __ __ __ __ _
72
65
73
2
40
0.75
49
0.5
74
0
49
-0.25
74
0
0
ENDTAB
0
TABLE
2
LAYER
5
2
100
AcDbSymbolTable
70
2
0
LAYER
5
50
100
AcDbSymbolTableRecord
100
AcDbLayerTableRecord
2
0
70
0
62
7
6
CONTINUOUS
0
ENDTAB
0
TABLE
2
STYLE
5
3
100
AcDbSymbolTable
70
1
0
STYLE
5
11
100
AcDbSymbolTableRecord
100
AcDbTextStyleTableRecord
2
STANDARD
70
0
0
ENDTAB
0
TABLE
2
VIEW
5
6
100
AcDbSymbolTable
70
0
0
ENDTAB
0
TABLE
2
UCS
5
7
100
AcDbSymbolTable
70
0
0
ENDTAB
0
TABLE
2
APPID
5
9
100
AcDbSymbolTable
70
2
0
APPID
5
12
100
AcDbSymbolTableRecord
100
AcDbRegAppTableRecord
2
ACAD
70
0
0
ENDTAB
0
TABLE
2
DIMSTYLE
5
A
100
AcDbSymbolTable
70
1
0
ENDTAB
0
TABLE
2
BLOCK_RECORD
5
1
100
AcDbSymbolTable
70
1
0
BLOCK_RECORD
5
1F
100
AcDbSymbolTableRecord
100
AcDbBlockTableRecord
2
*MODEL_SPACE
0
BLOCK_RECORD
5
1B
100
AcDbSymbolTableRecord
100
AcDbBlockTableRecord
2
*PAPER_SPACE
0
ENDTAB
0
ENDSEC
0
SECTION
2
BLOCKS
0
BLOCK
5
20
100
AcDbEntity
100
AcDbBlockBegin
2
*MODEL_SPACE
0
ENDBLK
5
21
100
AcDbEntity
100
AcDbBlockEnd
0
BLOCK
5
1C
100
AcDbEntity
100
AcDbBlockBegin
2
*PAPER_SPACE
0
ENDBLK
5
1D
100
AcDbEntity
100
AcDbBlockEnd
0
ENDSEC
0
SECTION
2
ENTITIES
0
LWPOLYLINE
5
100
100
AcDbEntity
8
0
100
AcDbPolyline
90
23
70
1
43
0.0
10
-14.600000000000188
20
5
42
0.41421356237309548
10
-17.10000000000019
20
2.4999999999999996
10
-17.100000000000023
20
-112.29999999999997
42
-0.99999999999999989
10
-22.100000000000026
20
-112.29999999999997
10
-22.100000000000062
20
-62.500000000000014
42
1.5426587105102805
10
-38.76666666666668
20
-69.95355992499924
42
-0.21342176528338544
10
-37.100000000000051
20
-73.680339887498846
10
-37.100000000000065
20
-109.79999999999997
42
-0.41421356237309503
10
-42.100000000000065
20
-114.79999999999997
10
-192.89999999999995
20
-114.79999999999998
10
-192.89999999999998
20
-10.199999999999978
42
-0.41421356237309553
10
-187.89999999999998
20
-5.1999999999999691
10
-127.54987562112089
20
-5.1999999999999647
42
-0.2350193078401871
10
-123.56182973972369
20
-7.1841269841269551
42
1.6144450709641931
10
-117.5
20
4.9999999999999973
10
-237.5
20
5.0000000000000053
42
0.41421356237310197
10
-240
20
2.5000000000000053
10
-240
20
-237.5
42
0.41421356237310336
10
-237.5
20
-240
10
2.5
20
-240
42
0.41421356237310203
10
4.9999999999999893
20
-237.5
10
5.0000000000000355
20
2.5
42
0.41421355543122973
10
2.5000000592525646
20
5.0000000000000009
0
CIRCLE
5
101
100
AcDbEntity
8
0
100
AcDbCircle
10
-125
20
-135
30
0
40
10.199999999999999
210
0
220
-0
230
1
0
LWPOLYLINE
5
102
100
AcDbEntity
8
0
100
AcDbPolyline
90
9
70
1
43
0.0
10
-225
20
-225
10
-10
20
-225
10
-9.9999999999999911
20
-126.93181465164176
42
-0.32257200384547025
10
-30.432688211706029
20
-126.04419390535382
42
-0.15698748990128863
10
-42.100000000000065
20
-129.79999999999995
10
-207.89999999999998
20
-129.79999999999998
10
-207.89999999999998
20
-10.199999999999974
42
-0.0025000468771482409
10
-207.89899997499873
20
-9.9999999999999982
10
-225
20
-9.9999999999999947
0
CIRCLE
5
103
100
AcDbEntity
8
0
100
AcDbCircle
10
-125
20
-135
30
0
40
25.199999999999996
210
0
220
-0
230
1
0
LWPOLYLINE
5
104
100
AcDbEntity
8
0
100
AcDbPolyline
90
4
70
1
43
0.0
10
-207.89999999999995
20
-76.238580951102236
10
-225
20
-76.238580951102236
10
-225
20
-61.238580951102236
10
-207.89999999999995
20
-61.238580951102236
0
LWPOLYLINE
5
105
100
AcDbEntity
8
0
100
AcDbPolyline
90
4
70
1
43
0.0
10
-117.5
20
-225
10
-132.5
20
-225
10
-132.5
20
-135
10
-117.5
20
-135
0
LWPOLYLINE
5
106
100
AcDbEntity
8
0
100
AcDbPolyline
90
4
70
1
43
0.0
10
-10
20
-189.84739189708444
10
-225
20
-189.84739189708444
10
-225
20
-174.84739189708444
10
-10
20
-174.84739189708444
0
ENDSEC
0
SECTION
2
OBJECTS
0
DICTIONARY
5
C
100
AcDbDictionary
3
ACAD_GROUP
350
D
3
ACAD_MLINESTYLE
350
17
0
DICTIONARY
5
D
100
AcDbDictionary
0
DICTIONARY
5
1A
330
C
100
AcDbDictionary
0
DICTIONARY
5
17
100
AcDbDictionary
0
ENDSEC
0
EOF
